%TF.GenerationSoftware,KiCad,Pcbnew,9.0.7*%
%TF.CreationDate,2026-09-02T11:28:57-04:00*%
%TF.ProjectId,sleep_mask,736c6565-705f-46d6-9173-6b2e6b696361,rev?*%
%TF.SameCoordinates,Original*%
%TF.FileFunction,Copper,L2,Inr*%
%TF.FilePolarity,Positive*%
%FSLAX45Y45*%
G04 Gerber Fmt 4.5, Leading zero omitted, Abs format (unit mm)*
G04 Created by KiCad (PCBNEW 9.0.7) date 2026-09-02 11:28:57*
%MOMM*%
%LPD*%
G01*
G04 APERTURE LIST*
%TA.AperFunction,HeatsinkPad*%
%ADD10C,0.500000*%
%TD*%
%TA.AperFunction,ViaPad*%
%ADD11C,0.800000*%
%TD*%
%TA.AperFunction,ViaPad*%
%ADD12C,0.700000*%
%TD*%
%TA.AperFunction,ViaPad*%
%ADD13C,0.550000*%
%TD*%
%TA.AperFunction,ViaPad*%
%ADD14C,0.600000*%
%TD*%
G04 APERTURE END LIST*
D10*
%TO.N,GND*%
%TO.C,U3*%
X15367500Y-9608555D03*
X15430000Y-9658555D03*
X15305000Y-9658555D03*
X15367500Y-9708555D03*
%TD*%
D11*
%TO.N,+3.3V*%
X16190000Y-9455000D03*
X14076000Y-8637500D03*
X15145000Y-9035000D03*
D12*
X16505000Y-9690000D03*
X13805000Y-7665000D03*
X16580000Y-9690000D03*
D11*
X16145000Y-8690000D03*
%TO.N,/Power/VBUS*%
X13922500Y-8355000D03*
D12*
X13510000Y-7945000D03*
%TO.N,GND*%
X12930000Y-8700000D03*
X15905000Y-7990000D03*
X15272500Y-8355000D03*
X16630000Y-8690000D03*
D11*
X16305000Y-9970000D03*
D12*
X15595000Y-9650000D03*
X13162500Y-9480000D03*
X15230000Y-8010000D03*
X13065000Y-8435000D03*
X16670000Y-9300000D03*
X14120000Y-9655000D03*
X15825000Y-9035000D03*
X16780000Y-9290000D03*
X13062500Y-9030000D03*
X16780000Y-8930000D03*
X14800000Y-9810000D03*
X13750000Y-8950000D03*
X13335000Y-9790000D03*
X12952500Y-9630000D03*
D11*
X13946000Y-8637500D03*
D12*
X16270000Y-7990000D03*
D13*
X14205000Y-9745000D03*
D12*
X16100000Y-10130000D03*
X13472500Y-9330000D03*
X12760000Y-9170000D03*
D11*
X14045000Y-8355000D03*
D12*
X16250000Y-7620000D03*
X15830000Y-9205000D03*
X13770000Y-9675000D03*
D11*
X13495000Y-8045000D03*
D12*
X16382500Y-9691512D03*
D11*
X16237500Y-9564012D03*
D12*
X13470000Y-9675000D03*
D11*
X14837500Y-9602500D03*
D12*
X16780000Y-7940000D03*
D11*
X13946000Y-9007500D03*
D12*
X13320000Y-10172500D03*
X14720000Y-9222500D03*
X16780000Y-9290000D03*
X15250000Y-8620000D03*
D11*
X13232500Y-9975000D03*
D12*
X15360000Y-7922500D03*
X15840000Y-9810000D03*
X16660000Y-8920000D03*
X16090000Y-9970000D03*
X13570000Y-9465000D03*
X14475000Y-9465000D03*
X14270000Y-9990000D03*
X13390000Y-7620000D03*
X13715000Y-7665000D03*
X13162500Y-9030000D03*
X12760000Y-8550000D03*
X13402500Y-8455000D03*
X16780000Y-8440000D03*
X16780000Y-9600000D03*
X13315000Y-8812500D03*
X14660000Y-8840000D03*
D11*
X13802500Y-8020000D03*
D12*
X14640000Y-8420000D03*
X13670000Y-9465000D03*
X15280000Y-9120000D03*
X15910000Y-10140000D03*
X13052500Y-9730000D03*
X12760000Y-8860000D03*
X15830000Y-10030000D03*
X15980000Y-9310000D03*
X13570000Y-9675000D03*
X13152500Y-9730000D03*
X16580000Y-9790000D03*
X12760000Y-7930000D03*
X15450000Y-10170000D03*
X15120000Y-9915000D03*
X12952500Y-9330000D03*
D11*
X13720000Y-8020000D03*
D12*
X15660000Y-10170000D03*
X13212500Y-9307500D03*
X13915000Y-9955000D03*
X12760000Y-7620000D03*
D11*
X16405000Y-8385000D03*
D12*
X12930000Y-8080000D03*
X14580000Y-8920000D03*
X16780000Y-9910000D03*
X12760000Y-9480000D03*
X13262500Y-9480000D03*
X15225000Y-8955000D03*
X13252500Y-9730000D03*
X12952500Y-9130000D03*
X13660000Y-8680000D03*
X15840000Y-9560000D03*
X12760000Y-8240000D03*
D11*
X16342500Y-8745000D03*
D12*
X13262500Y-9030000D03*
X14060000Y-8061149D03*
X13472500Y-9130000D03*
X13070000Y-7620000D03*
X16390000Y-7820000D03*
D11*
X12792500Y-9897500D03*
D12*
X13520000Y-10080000D03*
D11*
X14336000Y-9007500D03*
D12*
X13670000Y-9675000D03*
X15180000Y-9210000D03*
X14500000Y-8490000D03*
X15470000Y-7690000D03*
X13260000Y-8045000D03*
X13472500Y-9430000D03*
X13155000Y-8812500D03*
X13770000Y-9465000D03*
D11*
X16520000Y-8005000D03*
D12*
X13472500Y-9230000D03*
X13362500Y-9030000D03*
X13490000Y-8840000D03*
X13370000Y-9675000D03*
X16510000Y-8560000D03*
X14035000Y-9105000D03*
X12952500Y-9530000D03*
X14550000Y-9925000D03*
X16672500Y-9685000D03*
X16745000Y-8150000D03*
D11*
X15275000Y-9890000D03*
D12*
X15640000Y-8860000D03*
X12952500Y-9430000D03*
X14635000Y-9405000D03*
X13720000Y-9195000D03*
X14800000Y-10090000D03*
X16770000Y-7620000D03*
X14340000Y-8295000D03*
X15545000Y-7840000D03*
D13*
X16427250Y-9137750D03*
D12*
X15970000Y-9690000D03*
X15520000Y-9890000D03*
X16780000Y-8690000D03*
D11*
X16237500Y-9132600D03*
D12*
X14260000Y-7935000D03*
D11*
X16232500Y-9354012D03*
X13607500Y-8477500D03*
D12*
X15230000Y-7690000D03*
X15500000Y-9090000D03*
X14610000Y-8640000D03*
X13810000Y-7790000D03*
X13775000Y-10065000D03*
D11*
X14336000Y-8637500D03*
D12*
X12952500Y-9730000D03*
X13472500Y-9030000D03*
X12952500Y-9230000D03*
X14020000Y-10090000D03*
X14410000Y-9875000D03*
X14900000Y-9970000D03*
X14630000Y-10090000D03*
X15455000Y-8730000D03*
X15650000Y-9190000D03*
X16420000Y-7620000D03*
X13260000Y-7680000D03*
X16307500Y-9691512D03*
D11*
X14477500Y-7817500D03*
D12*
X12952500Y-9030000D03*
X14995000Y-9080000D03*
X13070000Y-7930000D03*
X16035000Y-8685000D03*
X13510000Y-7690000D03*
X12930000Y-8390000D03*
X12760000Y-9690000D03*
X15885000Y-8510000D03*
D11*
%TO.N,/Processor/SWDIO_{IN}*%
X14076000Y-9007500D03*
X14375000Y-9100000D03*
%TO.N,/Processor/OVP*%
X12860000Y-9970000D03*
X15402500Y-9905000D03*
%TO.N,/Processor/SWCLK_{IN}*%
X14206000Y-9007500D03*
%TO.N,VCC*%
X15825000Y-8602500D03*
X15735000Y-9295000D03*
D12*
X15735000Y-8875000D03*
%TO.N,/Power/SIG.~{CHG}*%
X14135000Y-9987500D03*
X14171433Y-7700330D03*
D11*
%TO.N,/Processor/~{RESET_{IN}}*%
X14206000Y-8637500D03*
D12*
%TO.N,/Power/CC1*%
X13155000Y-8435000D03*
D11*
%TO.N,/Processor/LED*%
X16695000Y-9967500D03*
X15547500Y-9520000D03*
D12*
%TO.N,/Power/CC2*%
X13315000Y-8435000D03*
D11*
%TO.N,/Processor/LED_{CONN}*%
X13130000Y-9970000D03*
X16415000Y-9970000D03*
D13*
%TO.N,/Processor/~{RESET}*%
X13865000Y-9694500D03*
X13865000Y-9465000D03*
D12*
%TO.N,/Power/SIG.V_{BATT}*%
X15885000Y-8400000D03*
X14480000Y-10060000D03*
D13*
%TO.N,/Processor/R_{S}*%
X15417500Y-9440000D03*
D14*
X15187500Y-9440000D03*
D12*
%TO.N,/Power/SIG.IO*%
X14725000Y-9415000D03*
X14208497Y-9930918D03*
%TO.N,/Power/FET_{NG}*%
X15360000Y-8340000D03*
X15360000Y-8012500D03*
%TO.N,/Power/PWR_{IN}*%
X15250000Y-8715000D03*
D11*
%TO.N,/Power/FET_{PD_PD}*%
X14477500Y-7920000D03*
X14480000Y-8302500D03*
D13*
%TO.N,/Power/TS*%
X14260000Y-8285000D03*
D12*
X14985000Y-8990000D03*
X14505000Y-8995000D03*
D11*
%TO.N,/Power/BATT*%
X16305000Y-8385000D03*
D13*
%TO.N,/Processor/TIM2_CH3_B*%
X14150000Y-9450000D03*
%TO.N,/Processor/TIM21_CH1_R*%
X14365000Y-9535000D03*
%TO.N,/Processor/TIM2_CH4_G*%
X14075000Y-9450000D03*
%TD*%
%TA.AperFunction,Conductor*%
%TO.N,GND*%
G36*
X13773913Y-7581691D02*
G01*
X13779367Y-7587144D01*
X13781363Y-7594594D01*
X13779367Y-7602044D01*
X13774741Y-7606983D01*
X13763533Y-7614472D01*
X13763533Y-7614473D01*
X13754473Y-7623533D01*
X13747353Y-7634187D01*
X13747353Y-7634188D01*
X13742450Y-7646025D01*
X13742450Y-7646026D01*
X13739950Y-7658593D01*
X13739950Y-7671407D01*
X13742450Y-7683974D01*
X13742450Y-7683974D01*
X13747353Y-7695812D01*
X13747353Y-7695812D01*
X13747353Y-7695813D01*
X13754472Y-7706467D01*
X13763533Y-7715528D01*
X13774187Y-7722646D01*
X13786026Y-7727550D01*
X13798593Y-7730050D01*
X13798593Y-7730050D01*
X13811406Y-7730050D01*
X13811407Y-7730050D01*
X13823974Y-7727550D01*
X13835813Y-7722646D01*
X13846467Y-7715528D01*
X13855528Y-7706467D01*
X13862646Y-7695813D01*
X13863429Y-7693923D01*
X14106383Y-7693923D01*
X14106383Y-7706737D01*
X14108883Y-7719304D01*
X14108883Y-7719305D01*
X14113786Y-7731142D01*
X14113787Y-7731142D01*
X14113787Y-7731143D01*
X14120906Y-7741797D01*
X14129966Y-7750858D01*
X14140621Y-7757977D01*
X14152459Y-7762880D01*
X14165026Y-7765380D01*
X14165027Y-7765380D01*
X14177840Y-7765380D01*
X14177840Y-7765380D01*
X14190408Y-7762880D01*
X14202246Y-7757977D01*
X14212900Y-7750858D01*
X14221961Y-7741797D01*
X14228444Y-7732094D01*
X15497450Y-7732094D01*
X15497450Y-7732094D01*
X15497450Y-7747906D01*
X15501542Y-7763178D01*
X15509448Y-7776872D01*
X15520628Y-7788052D01*
X15534322Y-7795958D01*
X15549594Y-7800050D01*
X15565406Y-7800050D01*
X15580678Y-7795958D01*
X15594372Y-7788052D01*
X15605552Y-7776872D01*
X15613458Y-7763178D01*
X15617550Y-7747906D01*
X15617550Y-7732094D01*
X15617550Y-7732094D01*
X15922450Y-7732094D01*
X15922450Y-7732094D01*
X15922450Y-7747906D01*
X15926542Y-7763178D01*
X15934448Y-7776872D01*
X15945628Y-7788052D01*
X15959322Y-7795958D01*
X15974594Y-7800050D01*
X15990406Y-7800050D01*
X16005678Y-7795958D01*
X16019372Y-7788052D01*
X16030552Y-7776872D01*
X16038458Y-7763178D01*
X16039362Y-7759803D01*
X16504950Y-7759803D01*
X16504950Y-7779486D01*
X16508029Y-7798927D01*
X16514112Y-7817647D01*
X16514112Y-7817647D01*
X16514112Y-7817648D01*
X16522518Y-7834145D01*
X16523048Y-7835185D01*
X16534617Y-7851109D01*
X16548535Y-7865027D01*
X16564459Y-7876597D01*
X16581997Y-7885533D01*
X16600717Y-7891615D01*
X16620158Y-7894694D01*
X16620159Y-7894694D01*
X16639841Y-7894694D01*
X16639842Y-7894694D01*
X16659283Y-7891615D01*
X16678002Y-7885533D01*
X16695540Y-7876597D01*
X16711465Y-7865027D01*
X16725383Y-7851109D01*
X16736952Y-7835185D01*
X16745888Y-7817647D01*
X16751971Y-7798927D01*
X16755050Y-7779486D01*
X16755050Y-7759803D01*
X16751971Y-7740362D01*
X16745888Y-7721642D01*
X16736952Y-7704104D01*
X16725383Y-7688180D01*
X16711465Y-7674262D01*
X16695540Y-7662692D01*
X16694501Y-7662162D01*
X16678004Y-7653757D01*
X16678003Y-7653756D01*
X16678002Y-7653756D01*
X16659283Y-7647674D01*
X16639842Y-7644594D01*
X16620158Y-7644594D01*
X16600717Y-7647674D01*
X16594165Y-7649803D01*
X16581997Y-7653756D01*
X16581997Y-7653756D01*
X16581996Y-7653757D01*
X16564460Y-7662692D01*
X16564459Y-7662692D01*
X16548536Y-7674261D01*
X16548535Y-7674262D01*
X16534617Y-7688180D01*
X16534616Y-7688181D01*
X16523048Y-7704104D01*
X16523047Y-7704104D01*
X16514112Y-7721641D01*
X16514111Y-7721643D01*
X16510715Y-7732094D01*
X16508029Y-7740362D01*
X16504950Y-7759803D01*
X16039362Y-7759803D01*
X16042550Y-7747906D01*
X16042550Y-7732094D01*
X16038458Y-7716822D01*
X16030552Y-7703128D01*
X16019372Y-7691948D01*
X16005678Y-7684042D01*
X15990406Y-7679950D01*
X15974594Y-7679950D01*
X15959322Y-7684042D01*
X15959321Y-7684042D01*
X15959321Y-7684042D01*
X15945628Y-7691948D01*
X15934448Y-7703128D01*
X15927290Y-7715527D01*
X15926542Y-7716822D01*
X15924643Y-7723909D01*
X15922450Y-7732094D01*
X15617550Y-7732094D01*
X15613458Y-7716822D01*
X15605552Y-7703128D01*
X15594372Y-7691948D01*
X15580678Y-7684042D01*
X15565406Y-7679950D01*
X15549594Y-7679950D01*
X15534322Y-7684042D01*
X15534321Y-7684042D01*
X15534321Y-7684042D01*
X15520628Y-7691948D01*
X15509448Y-7703128D01*
X15502290Y-7715527D01*
X15501542Y-7716822D01*
X15499643Y-7723909D01*
X15497450Y-7732094D01*
X14228444Y-7732094D01*
X14229080Y-7731143D01*
X14233983Y-7719305D01*
X14236483Y-7706737D01*
X14236483Y-7693923D01*
X14233983Y-7681356D01*
X14229080Y-7669517D01*
X14221961Y-7658863D01*
X14212900Y-7649803D01*
X14202246Y-7642684D01*
X14202246Y-7642683D01*
X14202245Y-7642683D01*
X14190408Y-7637780D01*
X14190408Y-7637780D01*
X14177840Y-7635280D01*
X14177840Y-7635280D01*
X14165026Y-7635280D01*
X14165026Y-7635280D01*
X14152459Y-7637780D01*
X14152459Y-7637780D01*
X14140621Y-7642683D01*
X14140621Y-7642684D01*
X14129966Y-7649803D01*
X14120906Y-7658863D01*
X14113787Y-7669517D01*
X14113786Y-7669518D01*
X14108883Y-7681356D01*
X14108883Y-7681356D01*
X14106383Y-7693923D01*
X13863429Y-7693923D01*
X13864247Y-7691948D01*
X13866094Y-7687489D01*
X13866329Y-7686923D01*
X13867550Y-7683974D01*
X13870050Y-7671407D01*
X13870050Y-7658593D01*
X13867550Y-7646026D01*
X13864135Y-7637780D01*
X13862647Y-7634188D01*
X13862647Y-7634188D01*
X13862646Y-7634187D01*
X13855528Y-7623533D01*
X13846467Y-7614472D01*
X13846466Y-7614472D01*
X13835259Y-7606983D01*
X13830173Y-7601184D01*
X13828669Y-7593620D01*
X13831148Y-7586316D01*
X13836947Y-7581231D01*
X13843537Y-7579694D01*
X16805050Y-7579694D01*
X16812500Y-7581691D01*
X16817954Y-7587144D01*
X16819950Y-7594594D01*
X16819950Y-10264695D01*
X16817954Y-10272145D01*
X16812500Y-10277598D01*
X16805050Y-10279595D01*
X12734950Y-10279595D01*
X12727500Y-10277598D01*
X12722046Y-10272145D01*
X12720050Y-10264695D01*
X12720050Y-10053593D01*
X14414950Y-10053593D01*
X14414950Y-10066407D01*
X14417450Y-10078974D01*
X14417450Y-10078975D01*
X14422353Y-10090812D01*
X14422353Y-10090812D01*
X14422353Y-10090813D01*
X14429472Y-10101467D01*
X14438533Y-10110528D01*
X14449187Y-10117647D01*
X14461026Y-10122550D01*
X14473593Y-10125050D01*
X14473593Y-10125050D01*
X14486406Y-10125050D01*
X14486407Y-10125050D01*
X14498974Y-10122550D01*
X14510813Y-10117647D01*
X14521467Y-10110528D01*
X14530528Y-10101467D01*
X14537646Y-10090813D01*
X14542550Y-10078974D01*
X14545050Y-10066407D01*
X14545050Y-10053593D01*
X14542550Y-10041026D01*
X14537646Y-10029187D01*
X14530528Y-10018533D01*
X14521467Y-10009472D01*
X14510813Y-10002354D01*
X14510812Y-10002353D01*
X14510812Y-10002353D01*
X14498974Y-9997450D01*
X14498974Y-9997450D01*
X14486407Y-9994950D01*
X14486407Y-9994950D01*
X14473593Y-9994950D01*
X14473593Y-9994950D01*
X14461026Y-9997450D01*
X14461025Y-9997450D01*
X14449188Y-10002353D01*
X14449187Y-10002354D01*
X14443020Y-10006474D01*
X14438533Y-10009473D01*
X14429473Y-10018533D01*
X14422353Y-10029187D01*
X14422353Y-10029188D01*
X14417450Y-10041025D01*
X14417450Y-10041026D01*
X14414950Y-10053593D01*
X12720050Y-10053593D01*
X12720050Y-9963101D01*
X12789950Y-9963101D01*
X12789950Y-9976899D01*
X12792642Y-9990433D01*
X12792642Y-9990433D01*
X12797922Y-10003181D01*
X12797923Y-10003182D01*
X12803918Y-10012154D01*
X12805589Y-10014654D01*
X12815346Y-10024411D01*
X12815346Y-10024412D01*
X12826818Y-10032077D01*
X12826819Y-10032077D01*
X12826819Y-10032078D01*
X12839567Y-10037358D01*
X12853101Y-10040050D01*
X12866899Y-10040050D01*
X12880433Y-10037358D01*
X12893181Y-10032078D01*
X12904654Y-10024411D01*
X12914411Y-10014654D01*
X12922077Y-10003181D01*
X12927358Y-9990433D01*
X12930050Y-9976899D01*
X12930050Y-9963101D01*
X12930050Y-9963101D01*
X13059950Y-9963101D01*
X13059950Y-9976899D01*
X13062642Y-9990433D01*
X13062642Y-9990433D01*
X13067922Y-10003181D01*
X13067923Y-10003182D01*
X13073918Y-10012154D01*
X13075589Y-10014654D01*
X13085346Y-10024411D01*
X13085346Y-10024412D01*
X13096818Y-10032077D01*
X13096819Y-10032077D01*
X13096819Y-10032078D01*
X13109567Y-10037358D01*
X13123101Y-10040050D01*
X13136899Y-10040050D01*
X13150433Y-10037358D01*
X13163181Y-10032078D01*
X13174654Y-10024411D01*
X13184411Y-10014654D01*
X13192077Y-10003181D01*
X13197358Y-9990433D01*
X13199216Y-9981093D01*
X14069950Y-9981093D01*
X14069950Y-9993907D01*
X14072450Y-10006474D01*
X14072450Y-10006475D01*
X14077353Y-10018312D01*
X14077353Y-10018312D01*
X14077353Y-10018313D01*
X14084472Y-10028967D01*
X14093533Y-10038028D01*
X14104187Y-10045147D01*
X14116026Y-10050050D01*
X14128593Y-10052550D01*
X14128593Y-10052550D01*
X14141406Y-10052550D01*
X14141407Y-10052550D01*
X14153974Y-10050050D01*
X14165813Y-10045147D01*
X14165813Y-10045146D01*
X14165813Y-10045146D01*
X14172808Y-10040472D01*
X14172808Y-10040472D01*
X14176467Y-10038028D01*
X14185528Y-10028967D01*
X14192646Y-10018313D01*
X14197550Y-10006474D01*
X14197550Y-10006474D01*
X14197830Y-10005798D01*
X14197959Y-10005852D01*
X14201602Y-9999993D01*
X14208404Y-9996357D01*
X14211788Y-9995968D01*
X14214903Y-9995968D01*
X14214904Y-9995968D01*
X14227471Y-9993468D01*
X14239309Y-9988565D01*
X14249964Y-9981446D01*
X14259024Y-9972385D01*
X14266143Y-9961731D01*
X14271047Y-9949893D01*
X14273547Y-9937325D01*
X14273547Y-9924511D01*
X14271047Y-9911944D01*
X14270324Y-9910198D01*
X14267372Y-9903071D01*
X14266143Y-9900106D01*
X14266143Y-9900106D01*
X14266143Y-9900105D01*
X14264804Y-9898101D01*
X15332450Y-9898101D01*
X15332450Y-9911899D01*
X15335142Y-9925433D01*
X15335142Y-9925433D01*
X15340422Y-9938181D01*
X15340423Y-9938182D01*
X15348031Y-9949567D01*
X15348089Y-9949654D01*
X15357846Y-9959411D01*
X15357846Y-9959412D01*
X15369318Y-9967077D01*
X15369319Y-9967077D01*
X15369319Y-9967078D01*
X15382067Y-9972358D01*
X15395601Y-9975050D01*
X15409399Y-9975050D01*
X15422933Y-9972358D01*
X15435681Y-9967078D01*
X15441633Y-9963101D01*
X16344950Y-9963101D01*
X16344950Y-9976899D01*
X16347642Y-9990433D01*
X16347642Y-9990433D01*
X16352922Y-10003181D01*
X16352923Y-10003182D01*
X16358918Y-10012154D01*
X16360589Y-10014654D01*
X16370346Y-10024411D01*
X16370346Y-10024412D01*
X16381818Y-10032077D01*
X16381819Y-10032077D01*
X16381819Y-10032078D01*
X16394567Y-10037358D01*
X16408101Y-10040050D01*
X16421899Y-10040050D01*
X16435433Y-10037358D01*
X16448181Y-10032078D01*
X16459654Y-10024411D01*
X16469411Y-10014654D01*
X16477077Y-10003181D01*
X16482358Y-9990433D01*
X16485050Y-9976899D01*
X16485050Y-9963101D01*
X16484553Y-9960601D01*
X16624950Y-9960601D01*
X16624950Y-9974399D01*
X16627642Y-9987933D01*
X16627642Y-9987933D01*
X16632922Y-10000681D01*
X16632923Y-10000682D01*
X16640588Y-10012154D01*
X16640589Y-10012154D01*
X16650346Y-10021911D01*
X16650346Y-10021912D01*
X16661818Y-10029577D01*
X16661819Y-10029577D01*
X16661819Y-10029578D01*
X16674567Y-10034858D01*
X16688101Y-10037550D01*
X16701899Y-10037550D01*
X16715433Y-10034858D01*
X16728181Y-10029578D01*
X16739654Y-10021911D01*
X16749411Y-10012154D01*
X16757077Y-10000681D01*
X16762358Y-9987933D01*
X16765050Y-9974399D01*
X16765050Y-9960601D01*
X16762358Y-9947067D01*
X16757077Y-9934319D01*
X16754093Y-9929853D01*
X16749412Y-9922846D01*
X16749411Y-9922846D01*
X16739654Y-9913089D01*
X16739654Y-9913088D01*
X16728181Y-9905423D01*
X16728181Y-9905422D01*
X16715433Y-9900142D01*
X16715432Y-9900142D01*
X16701899Y-9897450D01*
X16688101Y-9897450D01*
X16674567Y-9900142D01*
X16674567Y-9900142D01*
X16661819Y-9905422D01*
X16661818Y-9905423D01*
X16650346Y-9913088D01*
X16650345Y-9913089D01*
X16640589Y-9922845D01*
X16640588Y-9922846D01*
X16632923Y-9934318D01*
X16632922Y-9934319D01*
X16627642Y-9947067D01*
X16627642Y-9947067D01*
X16624950Y-9960601D01*
X16484553Y-9960601D01*
X16482358Y-9949567D01*
X16477077Y-9936819D01*
X16475407Y-9934319D01*
X16469412Y-9925346D01*
X16469411Y-9925346D01*
X16459654Y-9915589D01*
X16459654Y-9915588D01*
X16448181Y-9907923D01*
X16448181Y-9907922D01*
X16435433Y-9902642D01*
X16435432Y-9902642D01*
X16421899Y-9899950D01*
X16408101Y-9899950D01*
X16394567Y-9902642D01*
X16394567Y-9902642D01*
X16381819Y-9907922D01*
X16381818Y-9907923D01*
X16370346Y-9915588D01*
X16370345Y-9915589D01*
X16360589Y-9925345D01*
X16360588Y-9925346D01*
X16352923Y-9936818D01*
X16352922Y-9936819D01*
X16347642Y-9949567D01*
X16347642Y-9949567D01*
X16344950Y-9963101D01*
X15441633Y-9963101D01*
X15447154Y-9959411D01*
X15456911Y-9949654D01*
X15464577Y-9938181D01*
X15469858Y-9925433D01*
X15472550Y-9911899D01*
X15472550Y-9898101D01*
X15469858Y-9884567D01*
X15464577Y-9871819D01*
X15456911Y-9860346D01*
X15447154Y-9850589D01*
X15447154Y-9850588D01*
X15435681Y-9842923D01*
X15435681Y-9842922D01*
X15422933Y-9837642D01*
X15422932Y-9837642D01*
X15409399Y-9834950D01*
X15395601Y-9834950D01*
X15382067Y-9837642D01*
X15382067Y-9837642D01*
X15369319Y-9842922D01*
X15369318Y-9842923D01*
X15357846Y-9850588D01*
X15357845Y-9850589D01*
X15348089Y-9860345D01*
X15348088Y-9860346D01*
X15340423Y-9871818D01*
X15340422Y-9871819D01*
X15335142Y-9884567D01*
X15335142Y-9884567D01*
X15332450Y-9898101D01*
X14264804Y-9898101D01*
X14259024Y-9889451D01*
X14249964Y-9880391D01*
X14239309Y-9873272D01*
X14239309Y-9873271D01*
X14239309Y-9873271D01*
X14227471Y-9868368D01*
X14227471Y-9868368D01*
X14214904Y-9865868D01*
X14214904Y-9865868D01*
X14202090Y-9865868D01*
X14202089Y-9865868D01*
X14189522Y-9868368D01*
X14189522Y-9868368D01*
X14177685Y-9873271D01*
X14177684Y-9873272D01*
X14167029Y-9880391D01*
X14157969Y-9889451D01*
X14150850Y-9900105D01*
X14150850Y-9900106D01*
X14145667Y-9912620D01*
X14145538Y-9912567D01*
X14141894Y-9918426D01*
X14135091Y-9922061D01*
X14131709Y-9922450D01*
X14128593Y-9922450D01*
X14116026Y-9924950D01*
X14116025Y-9924950D01*
X14104188Y-9929853D01*
X14104187Y-9929854D01*
X14093763Y-9936819D01*
X14093533Y-9936973D01*
X14084473Y-9946033D01*
X14084472Y-9946033D01*
X14084472Y-9946033D01*
X14081894Y-9949893D01*
X14077353Y-9956687D01*
X14077353Y-9956688D01*
X14072450Y-9968525D01*
X14072450Y-9968526D01*
X14069950Y-9981093D01*
X13199216Y-9981093D01*
X13200050Y-9976899D01*
X13200050Y-9963101D01*
X13199777Y-9961730D01*
X13198774Y-9956687D01*
X13197358Y-9949567D01*
X13192077Y-9936819D01*
X13190407Y-9934319D01*
X13184412Y-9925346D01*
X13184411Y-9925346D01*
X13174654Y-9915589D01*
X13174654Y-9915588D01*
X13163181Y-9907923D01*
X13163181Y-9907922D01*
X13150433Y-9902642D01*
X13150432Y-9902642D01*
X13136899Y-9899950D01*
X13123101Y-9899950D01*
X13109567Y-9902642D01*
X13109567Y-9902642D01*
X13096819Y-9907922D01*
X13096818Y-9907923D01*
X13085346Y-9915588D01*
X13085345Y-9915589D01*
X13075589Y-9925345D01*
X13075588Y-9925346D01*
X13067923Y-9936818D01*
X13067922Y-9936819D01*
X13062642Y-9949567D01*
X13062642Y-9949567D01*
X13059950Y-9963101D01*
X12930050Y-9963101D01*
X12929777Y-9961730D01*
X12928774Y-9956687D01*
X12927358Y-9949567D01*
X12922077Y-9936819D01*
X12920407Y-9934319D01*
X12914412Y-9925346D01*
X12914411Y-9925346D01*
X12904654Y-9915589D01*
X12904654Y-9915588D01*
X12893181Y-9907923D01*
X12893181Y-9907922D01*
X12880433Y-9902642D01*
X12880432Y-9902642D01*
X12866899Y-9899950D01*
X12853101Y-9899950D01*
X12839567Y-9902642D01*
X12839567Y-9902642D01*
X12826819Y-9907922D01*
X12826818Y-9907923D01*
X12815346Y-9915588D01*
X12815345Y-9915589D01*
X12805589Y-9925345D01*
X12805588Y-9925346D01*
X12797923Y-9936818D01*
X12797922Y-9936819D01*
X12792642Y-9949567D01*
X12792642Y-9949567D01*
X12789950Y-9963101D01*
X12720050Y-9963101D01*
X12720050Y-9686923D01*
X13807450Y-9686923D01*
X13807450Y-9702077D01*
X13811372Y-9716714D01*
X13818948Y-9729836D01*
X13818948Y-9729836D01*
X13818948Y-9729837D01*
X13829663Y-9740552D01*
X13842786Y-9748128D01*
X13857423Y-9752050D01*
X13872577Y-9752050D01*
X13887213Y-9748128D01*
X13900336Y-9740552D01*
X13911051Y-9729837D01*
X13918628Y-9716714D01*
X13922550Y-9702077D01*
X13922550Y-9686923D01*
X13922550Y-9686923D01*
X13922495Y-9686717D01*
X13921657Y-9683593D01*
X16439950Y-9683593D01*
X16439950Y-9696407D01*
X16442450Y-9708974D01*
X16442450Y-9708975D01*
X16447353Y-9720812D01*
X16447353Y-9720812D01*
X16447353Y-9720813D01*
X16454472Y-9731467D01*
X16463533Y-9740528D01*
X16474187Y-9747647D01*
X16486026Y-9752550D01*
X16498593Y-9755050D01*
X16498593Y-9755050D01*
X16511406Y-9755050D01*
X16511407Y-9755050D01*
X16523974Y-9752550D01*
X16529465Y-9750276D01*
X16536489Y-9747366D01*
X16536574Y-9747571D01*
X16542986Y-9746075D01*
X16548440Y-9747536D01*
X16548511Y-9747366D01*
X16558694Y-9751584D01*
X16561026Y-9752550D01*
X16573593Y-9755050D01*
X16573593Y-9755050D01*
X16586406Y-9755050D01*
X16586407Y-9755050D01*
X16598974Y-9752550D01*
X16610813Y-9747647D01*
X16621467Y-9740528D01*
X16630528Y-9731467D01*
X16637646Y-9720813D01*
X16642550Y-9708974D01*
X16645050Y-9696407D01*
X16645050Y-9683593D01*
X16642550Y-9671026D01*
X16637646Y-9659187D01*
X16630528Y-9648533D01*
X16621467Y-9639472D01*
X16610813Y-9632354D01*
X16610812Y-9632353D01*
X16610812Y-9632353D01*
X16598974Y-9627450D01*
X16598974Y-9627450D01*
X16586407Y-9624950D01*
X16586407Y-9624950D01*
X16573593Y-9624950D01*
X16573593Y-9624950D01*
X16561026Y-9627450D01*
X16561025Y-9627450D01*
X16548511Y-9632634D01*
X16548426Y-9632430D01*
X16542010Y-9633925D01*
X16536559Y-9632464D01*
X16536489Y-9632634D01*
X16523974Y-9627450D01*
X16523974Y-9627450D01*
X16511407Y-9624950D01*
X16511407Y-9624950D01*
X16498593Y-9624950D01*
X16498593Y-9624950D01*
X16486026Y-9627450D01*
X16486025Y-9627450D01*
X16474188Y-9632353D01*
X16474187Y-9632354D01*
X16467308Y-9636950D01*
X16463533Y-9639473D01*
X16454473Y-9648533D01*
X16447353Y-9659187D01*
X16447353Y-9659188D01*
X16442450Y-9671025D01*
X16442450Y-9671026D01*
X16439950Y-9683593D01*
X13921657Y-9683593D01*
X13921132Y-9681634D01*
X13918628Y-9672287D01*
X13911066Y-9659188D01*
X13911052Y-9659164D01*
X13911052Y-9659164D01*
X13911051Y-9659164D01*
X13900336Y-9648449D01*
X13900336Y-9648448D01*
X13900336Y-9648448D01*
X13887214Y-9640872D01*
X13887214Y-9640872D01*
X13887213Y-9640872D01*
X13881856Y-9639436D01*
X13872577Y-9636950D01*
X13872577Y-9636950D01*
X13857423Y-9636950D01*
X13857423Y-9636950D01*
X13848008Y-9639473D01*
X13842786Y-9640872D01*
X13842786Y-9640872D01*
X13842786Y-9640872D01*
X13829664Y-9648448D01*
X13818948Y-9659164D01*
X13811372Y-9672286D01*
X13807450Y-9686923D01*
X12720050Y-9686923D01*
X12720050Y-9527423D01*
X14307450Y-9527423D01*
X14307450Y-9542577D01*
X14309936Y-9551856D01*
X14310291Y-9553182D01*
X14311372Y-9557214D01*
X14318948Y-9570336D01*
X14318948Y-9570336D01*
X14318948Y-9570337D01*
X14329663Y-9581052D01*
X14329664Y-9581052D01*
X14329664Y-9581052D01*
X14336225Y-9584840D01*
X14342786Y-9588628D01*
X14357423Y-9592550D01*
X14372577Y-9592550D01*
X14387213Y-9588628D01*
X14400336Y-9581052D01*
X14411051Y-9570337D01*
X14418628Y-9557214D01*
X14422550Y-9542577D01*
X14422550Y-9527423D01*
X14418628Y-9512787D01*
X14411440Y-9500337D01*
X14411052Y-9499664D01*
X14411052Y-9499664D01*
X14411051Y-9499664D01*
X14400336Y-9488949D01*
X14400336Y-9488948D01*
X14400336Y-9488948D01*
X14387214Y-9481372D01*
X14387214Y-9481372D01*
X14387213Y-9481372D01*
X14381856Y-9479936D01*
X14372577Y-9477450D01*
X14372577Y-9477450D01*
X14357423Y-9477450D01*
X14357423Y-9477450D01*
X14345051Y-9480765D01*
X14342786Y-9481372D01*
X14342786Y-9481372D01*
X14342786Y-9481372D01*
X14329664Y-9488948D01*
X14318948Y-9499664D01*
X14311372Y-9512786D01*
X14311372Y-9512786D01*
X14311372Y-9512787D01*
X14311288Y-9513101D01*
X14307450Y-9527423D01*
X12720050Y-9527423D01*
X12720050Y-9457423D01*
X13807450Y-9457423D01*
X13807450Y-9472577D01*
X13809169Y-9478992D01*
X13811266Y-9486818D01*
X13811372Y-9487214D01*
X13818948Y-9500336D01*
X13818948Y-9500336D01*
X13818948Y-9500337D01*
X13829663Y-9511052D01*
X13829664Y-9511052D01*
X13829664Y-9511052D01*
X13832668Y-9512786D01*
X13842786Y-9518628D01*
X13857423Y-9522550D01*
X13872577Y-9522550D01*
X13887213Y-9518628D01*
X13892759Y-9515426D01*
X13896021Y-9513543D01*
X13896021Y-9513543D01*
X13900336Y-9511052D01*
X13900336Y-9511052D01*
X13900336Y-9511052D01*
X13911051Y-9500337D01*
X13918628Y-9487214D01*
X13922550Y-9472577D01*
X13922550Y-9457423D01*
X13918628Y-9442787D01*
X13918418Y-9442423D01*
X14017450Y-9442423D01*
X14017450Y-9457577D01*
X14019597Y-9465589D01*
X14021001Y-9470831D01*
X14021372Y-9472214D01*
X14028948Y-9485336D01*
X14028948Y-9485336D01*
X14028948Y-9485337D01*
X14039663Y-9496052D01*
X14039664Y-9496052D01*
X14039664Y-9496052D01*
X14044918Y-9499086D01*
X14052786Y-9503628D01*
X14067423Y-9507550D01*
X14082577Y-9507550D01*
X14097213Y-9503628D01*
X14103411Y-9500050D01*
X14105050Y-9499104D01*
X14112500Y-9497108D01*
X14119950Y-9499104D01*
X14121589Y-9500050D01*
X14127786Y-9503628D01*
X14142423Y-9507550D01*
X14157577Y-9507550D01*
X14172213Y-9503628D01*
X14185336Y-9496052D01*
X14196051Y-9485337D01*
X14203628Y-9472214D01*
X14207550Y-9457577D01*
X14207550Y-9442423D01*
X14203628Y-9427787D01*
X14196425Y-9415311D01*
X14196052Y-9414664D01*
X14196052Y-9414664D01*
X14196051Y-9414664D01*
X14189981Y-9408593D01*
X14659950Y-9408593D01*
X14659950Y-9421407D01*
X14662450Y-9433974D01*
X14662450Y-9433975D01*
X14667353Y-9445812D01*
X14667353Y-9445812D01*
X14667353Y-9445813D01*
X14674472Y-9456467D01*
X14683533Y-9465528D01*
X14694187Y-9472647D01*
X14706026Y-9477550D01*
X14718593Y-9480050D01*
X14718593Y-9480050D01*
X14731406Y-9480050D01*
X14731407Y-9480050D01*
X14743974Y-9477550D01*
X14755813Y-9472647D01*
X14766467Y-9465528D01*
X14775528Y-9456467D01*
X14782646Y-9445813D01*
X14787550Y-9433974D01*
X14787924Y-9432094D01*
X15127450Y-9432094D01*
X15127450Y-9432094D01*
X15127450Y-9447906D01*
X15131542Y-9463178D01*
X15139448Y-9476872D01*
X15150628Y-9488052D01*
X15164322Y-9495958D01*
X15179594Y-9500050D01*
X15195406Y-9500050D01*
X15210678Y-9495958D01*
X15224372Y-9488052D01*
X15235552Y-9476872D01*
X15243458Y-9463178D01*
X15247550Y-9447906D01*
X15247550Y-9432423D01*
X15359950Y-9432423D01*
X15359950Y-9447577D01*
X15362324Y-9456438D01*
X15363788Y-9461899D01*
X15363872Y-9462214D01*
X15371448Y-9475336D01*
X15371448Y-9475336D01*
X15371448Y-9475337D01*
X15382163Y-9486052D01*
X15382164Y-9486052D01*
X15382164Y-9486052D01*
X15387181Y-9488948D01*
X15395286Y-9493628D01*
X15409923Y-9497550D01*
X15425077Y-9497550D01*
X15439713Y-9493628D01*
X15452836Y-9486052D01*
X15456040Y-9482848D01*
X15462719Y-9478992D01*
X15470432Y-9478992D01*
X15477111Y-9482848D01*
X15480968Y-9489528D01*
X15480968Y-9497240D01*
X15480341Y-9499086D01*
X15480142Y-9499567D01*
X15480142Y-9499567D01*
X15477450Y-9513101D01*
X15477450Y-9526899D01*
X15480142Y-9540433D01*
X15480142Y-9540433D01*
X15485422Y-9553181D01*
X15485423Y-9553182D01*
X15493088Y-9564654D01*
X15493089Y-9564654D01*
X15502846Y-9574411D01*
X15502846Y-9574412D01*
X15514318Y-9582077D01*
X15514319Y-9582077D01*
X15514319Y-9582078D01*
X15527067Y-9587358D01*
X15540601Y-9590050D01*
X15554399Y-9590050D01*
X15567933Y-9587358D01*
X15580681Y-9582078D01*
X15592154Y-9574411D01*
X15601911Y-9564654D01*
X15609577Y-9553181D01*
X15614858Y-9540433D01*
X15617550Y-9526899D01*
X15617550Y-9513101D01*
X15617487Y-9512786D01*
X15616446Y-9507550D01*
X15614858Y-9499567D01*
X15609577Y-9486819D01*
X15609065Y-9486052D01*
X15601912Y-9475346D01*
X15601911Y-9475346D01*
X15592154Y-9465589D01*
X15580681Y-9457923D01*
X15580681Y-9457922D01*
X15567933Y-9452642D01*
X15567932Y-9452642D01*
X15554399Y-9449950D01*
X15540601Y-9449950D01*
X15527067Y-9452642D01*
X15527067Y-9452642D01*
X15514319Y-9457922D01*
X15514318Y-9457923D01*
X15502846Y-9465588D01*
X15502845Y-9465589D01*
X15497604Y-9470831D01*
X15490924Y-9474687D01*
X15483211Y-9474687D01*
X15476532Y-9470831D01*
X15472675Y-9464151D01*
X15472675Y-9456438D01*
X15474910Y-9448101D01*
X16119950Y-9448101D01*
X16119950Y-9461899D01*
X16122642Y-9475433D01*
X16122642Y-9475433D01*
X16127922Y-9488181D01*
X16127923Y-9488182D01*
X16135531Y-9499567D01*
X16135589Y-9499654D01*
X16145346Y-9509411D01*
X16145346Y-9509412D01*
X16156818Y-9517077D01*
X16156819Y-9517077D01*
X16156819Y-9517078D01*
X16169567Y-9522358D01*
X16183101Y-9525050D01*
X16196899Y-9525050D01*
X16210433Y-9522358D01*
X16223181Y-9517078D01*
X16234654Y-9509411D01*
X16244411Y-9499654D01*
X16252077Y-9488181D01*
X16257358Y-9475433D01*
X16260050Y-9461899D01*
X16260050Y-9448101D01*
X16260011Y-9447906D01*
X16257358Y-9434567D01*
X16257358Y-9434567D01*
X16257112Y-9433975D01*
X16252077Y-9421819D01*
X16249383Y-9417787D01*
X16244412Y-9410346D01*
X16244411Y-9410346D01*
X16234654Y-9400589D01*
X16234654Y-9400588D01*
X16223181Y-9392923D01*
X16223181Y-9392922D01*
X16210433Y-9387642D01*
X16210432Y-9387642D01*
X16196899Y-9384950D01*
X16183101Y-9384950D01*
X16169567Y-9387642D01*
X16169567Y-9387642D01*
X16156819Y-9392922D01*
X16156818Y-9392923D01*
X16145346Y-9400588D01*
X16145345Y-9400589D01*
X16135589Y-9410345D01*
X16135588Y-9410346D01*
X16127923Y-9421818D01*
X16127922Y-9421819D01*
X16122642Y-9434567D01*
X16122642Y-9434567D01*
X16119950Y-9448101D01*
X15474910Y-9448101D01*
X15475050Y-9447577D01*
X15475050Y-9432423D01*
X15471128Y-9417787D01*
X15463551Y-9404664D01*
X15452836Y-9393949D01*
X15452836Y-9393948D01*
X15452836Y-9393948D01*
X15439714Y-9386372D01*
X15439714Y-9386372D01*
X15439713Y-9386372D01*
X15434356Y-9384936D01*
X15425077Y-9382450D01*
X15425077Y-9382450D01*
X15409923Y-9382450D01*
X15409923Y-9382450D01*
X15397551Y-9385765D01*
X15395286Y-9386372D01*
X15395286Y-9386372D01*
X15395286Y-9386372D01*
X15382164Y-9393948D01*
X15371448Y-9404664D01*
X15363872Y-9417786D01*
X15363872Y-9417786D01*
X15363872Y-9417787D01*
X15363265Y-9420051D01*
X15359950Y-9432423D01*
X15247550Y-9432423D01*
X15247550Y-9432094D01*
X15243458Y-9416822D01*
X15235552Y-9403128D01*
X15224372Y-9391948D01*
X15210678Y-9384042D01*
X15195406Y-9379950D01*
X15179594Y-9379950D01*
X15164322Y-9384042D01*
X15164321Y-9384042D01*
X15164321Y-9384042D01*
X15150628Y-9391948D01*
X15139448Y-9403128D01*
X15132788Y-9414664D01*
X15131542Y-9416822D01*
X15131284Y-9417787D01*
X15127450Y-9432094D01*
X14787924Y-9432094D01*
X14790050Y-9421407D01*
X14790050Y-9408593D01*
X14787550Y-9396026D01*
X14782646Y-9384187D01*
X14775528Y-9373533D01*
X14766467Y-9364472D01*
X14755813Y-9357354D01*
X14755812Y-9357353D01*
X14755812Y-9357353D01*
X14743974Y-9352450D01*
X14743974Y-9352450D01*
X14731407Y-9349950D01*
X14731407Y-9349950D01*
X14718593Y-9349950D01*
X14718593Y-9349950D01*
X14706026Y-9352450D01*
X14706025Y-9352450D01*
X14694188Y-9357353D01*
X14694187Y-9357354D01*
X14686698Y-9362358D01*
X14683533Y-9364473D01*
X14674473Y-9373533D01*
X14667353Y-9384187D01*
X14667353Y-9384188D01*
X14662450Y-9396025D01*
X14662450Y-9396026D01*
X14659950Y-9408593D01*
X14189981Y-9408593D01*
X14185336Y-9403949D01*
X14185336Y-9403948D01*
X14185336Y-9403948D01*
X14172214Y-9396372D01*
X14172214Y-9396372D01*
X14172213Y-9396372D01*
X14166856Y-9394936D01*
X14157577Y-9392450D01*
X14157577Y-9392450D01*
X14142423Y-9392450D01*
X14142423Y-9392450D01*
X14127786Y-9396372D01*
X14119950Y-9400896D01*
X14112500Y-9402892D01*
X14105050Y-9400896D01*
X14097214Y-9396372D01*
X14082577Y-9392450D01*
X14082577Y-9392450D01*
X14067423Y-9392450D01*
X14067423Y-9392450D01*
X14055051Y-9395765D01*
X14052786Y-9396372D01*
X14052786Y-9396372D01*
X14052786Y-9396372D01*
X14039664Y-9403948D01*
X14028948Y-9414664D01*
X14021372Y-9427786D01*
X14021372Y-9427786D01*
X14021372Y-9427787D01*
X14020869Y-9429664D01*
X14017450Y-9442423D01*
X13918418Y-9442423D01*
X13913883Y-9434567D01*
X13911052Y-9429664D01*
X13911052Y-9429664D01*
X13911051Y-9429664D01*
X13900336Y-9418949D01*
X13900336Y-9418948D01*
X13900336Y-9418948D01*
X13887214Y-9411372D01*
X13887214Y-9411372D01*
X13887213Y-9411372D01*
X13881856Y-9409936D01*
X13872577Y-9407450D01*
X13872577Y-9407450D01*
X13857423Y-9407450D01*
X13857423Y-9407450D01*
X13845051Y-9410765D01*
X13842786Y-9411372D01*
X13842786Y-9411372D01*
X13842786Y-9411372D01*
X13829664Y-9418948D01*
X13818948Y-9429664D01*
X13811372Y-9442786D01*
X13807450Y-9457423D01*
X12720050Y-9457423D01*
X12720050Y-9288101D01*
X15664950Y-9288101D01*
X15664950Y-9301899D01*
X15667642Y-9315433D01*
X15667642Y-9315433D01*
X15672922Y-9328181D01*
X15672923Y-9328182D01*
X15680588Y-9339654D01*
X15680589Y-9339654D01*
X15690346Y-9349411D01*
X15690346Y-9349412D01*
X15701818Y-9357077D01*
X15701819Y-9357077D01*
X15701819Y-9357078D01*
X15714567Y-9362358D01*
X15728101Y-9365050D01*
X15741899Y-9365050D01*
X15755433Y-9362358D01*
X15768181Y-9357078D01*
X15779654Y-9349411D01*
X15789411Y-9339654D01*
X15797077Y-9328181D01*
X15802358Y-9315433D01*
X15805050Y-9301899D01*
X15805050Y-9288101D01*
X15802358Y-9274567D01*
X15797077Y-9261819D01*
X15789411Y-9250346D01*
X15779654Y-9240589D01*
X15779654Y-9240588D01*
X15768181Y-9232923D01*
X15768181Y-9232922D01*
X15755433Y-9227642D01*
X15755432Y-9227642D01*
X15741899Y-9224950D01*
X15728101Y-9224950D01*
X15714567Y-9227642D01*
X15714567Y-9227642D01*
X15701819Y-9232922D01*
X15701818Y-9232923D01*
X15690346Y-9240588D01*
X15690345Y-9240589D01*
X15680589Y-9250345D01*
X15680588Y-9250346D01*
X15672923Y-9261818D01*
X15672922Y-9261819D01*
X15667642Y-9274567D01*
X15667642Y-9274567D01*
X15664950Y-9288101D01*
X12720050Y-9288101D01*
X12720050Y-9093101D01*
X14304950Y-9093101D01*
X14304950Y-9106899D01*
X14307642Y-9120433D01*
X14307642Y-9120433D01*
X14312922Y-9133181D01*
X14312923Y-9133182D01*
X14320588Y-9144654D01*
X14320589Y-9144654D01*
X14330346Y-9154411D01*
X14330346Y-9154412D01*
X14341818Y-9162077D01*
X14341819Y-9162077D01*
X14341819Y-9162078D01*
X14354567Y-9167358D01*
X14368101Y-9170050D01*
X14381899Y-9170050D01*
X14395433Y-9167358D01*
X14408181Y-9162078D01*
X14419654Y-9154411D01*
X14429411Y-9144654D01*
X14437077Y-9133181D01*
X14442358Y-9120433D01*
X14445050Y-9106899D01*
X14445050Y-9093101D01*
X14444316Y-9089411D01*
X14444153Y-9088590D01*
X14442358Y-9079567D01*
X14437077Y-9066819D01*
X14433798Y-9061912D01*
X14429412Y-9055346D01*
X14429411Y-9055346D01*
X14419654Y-9045589D01*
X14419654Y-9045588D01*
X14408181Y-9037923D01*
X14408181Y-9037922D01*
X14395433Y-9032642D01*
X14395432Y-9032642D01*
X14381899Y-9029950D01*
X14368101Y-9029950D01*
X14354567Y-9032642D01*
X14354567Y-9032642D01*
X14341819Y-9037922D01*
X14341818Y-9037923D01*
X14330346Y-9045588D01*
X14330345Y-9045589D01*
X14320589Y-9055345D01*
X14320588Y-9055346D01*
X14312923Y-9066818D01*
X14312922Y-9066819D01*
X14307642Y-9079567D01*
X14307642Y-9079567D01*
X14304950Y-9093101D01*
X12720050Y-9093101D01*
X12720050Y-9000601D01*
X14005950Y-9000601D01*
X14005950Y-9014399D01*
X14008642Y-9027933D01*
X14008642Y-9027933D01*
X14013922Y-9040681D01*
X14013923Y-9040682D01*
X14018577Y-9047647D01*
X14021589Y-9052154D01*
X14031346Y-9061911D01*
X14031346Y-9061912D01*
X14042818Y-9069577D01*
X14042819Y-9069577D01*
X14042819Y-9069578D01*
X14055567Y-9074858D01*
X14069101Y-9077550D01*
X14082899Y-9077550D01*
X14096433Y-9074858D01*
X14109181Y-9069578D01*
X14120654Y-9061911D01*
X14130411Y-9052154D01*
X14130411Y-9052154D01*
X14130464Y-9052102D01*
X14137144Y-9048245D01*
X14144856Y-9048245D01*
X14151536Y-9052102D01*
X14151589Y-9052154D01*
X14161346Y-9061911D01*
X14161346Y-9061912D01*
X14172818Y-9069577D01*
X14172819Y-9069577D01*
X14172819Y-9069578D01*
X14185567Y-9074858D01*
X14199101Y-9077550D01*
X14212899Y-9077550D01*
X14226433Y-9074858D01*
X14239181Y-9069578D01*
X14250654Y-9061911D01*
X14260411Y-9052154D01*
X14268077Y-9040681D01*
X14273358Y-9027933D01*
X14276050Y-9014399D01*
X14276050Y-9000601D01*
X14273358Y-8987067D01*
X14268077Y-8974319D01*
X14265877Y-8971025D01*
X14260412Y-8962846D01*
X14260411Y-8962846D01*
X14250654Y-8953089D01*
X14250654Y-8953088D01*
X14239181Y-8945423D01*
X14239181Y-8945422D01*
X14226433Y-8940142D01*
X14226432Y-8940142D01*
X14212899Y-8937450D01*
X14199101Y-8937450D01*
X14185567Y-8940142D01*
X14185567Y-8940142D01*
X14172819Y-8945422D01*
X14172818Y-8945423D01*
X14161346Y-8953088D01*
X14161345Y-8953089D01*
X14151536Y-8962899D01*
X14144856Y-8966755D01*
X14137144Y-8966755D01*
X14130464Y-8962899D01*
X14120654Y-8953089D01*
X14120654Y-8953089D01*
X14120654Y-8953088D01*
X14109181Y-8945423D01*
X14109181Y-8945422D01*
X14096433Y-8940142D01*
X14096432Y-8940142D01*
X14082899Y-8937450D01*
X14069101Y-8937450D01*
X14055567Y-8940142D01*
X14055567Y-8940142D01*
X14042819Y-8945422D01*
X14042818Y-8945423D01*
X14031346Y-8953088D01*
X14031345Y-8953089D01*
X14021589Y-8962845D01*
X14021588Y-8962846D01*
X14013923Y-8974318D01*
X14013922Y-8974319D01*
X14008642Y-8987067D01*
X14008642Y-8987067D01*
X14005950Y-9000601D01*
X12720050Y-9000601D01*
X12720050Y-8917605D01*
X14341247Y-8917605D01*
X14341247Y-8930326D01*
X14342684Y-8937550D01*
X14343729Y-8942803D01*
X14344814Y-8945423D01*
X14348597Y-8954555D01*
X14348597Y-8954556D01*
X14351692Y-8959187D01*
X14355664Y-8965133D01*
X14364660Y-8974128D01*
X14364945Y-8974319D01*
X14375236Y-8981195D01*
X14375237Y-8981196D01*
X14378240Y-8982440D01*
X14386990Y-8986064D01*
X14399466Y-8988546D01*
X14412187Y-8988546D01*
X14412188Y-8988546D01*
X14422143Y-8986565D01*
X14429839Y-8987070D01*
X14436252Y-8991355D01*
X14439664Y-8998272D01*
X14439950Y-9001179D01*
X14439950Y-9001407D01*
X14442450Y-9013974D01*
X14442450Y-9013975D01*
X14447353Y-9025812D01*
X14447353Y-9025812D01*
X14447353Y-9025813D01*
X14454472Y-9036467D01*
X14463533Y-9045528D01*
X14474187Y-9052647D01*
X14486026Y-9057550D01*
X14498593Y-9060050D01*
X14498593Y-9060050D01*
X14511406Y-9060050D01*
X14511407Y-9060050D01*
X14523974Y-9057550D01*
X14535813Y-9052647D01*
X14546467Y-9045528D01*
X14555528Y-9036467D01*
X14562646Y-9025813D01*
X14567550Y-9013974D01*
X14570050Y-9001407D01*
X14570050Y-8988593D01*
X14569055Y-8983593D01*
X14919950Y-8983593D01*
X14919950Y-8996407D01*
X14922450Y-9008974D01*
X14922450Y-9008975D01*
X14927353Y-9020812D01*
X14927353Y-9020812D01*
X14927353Y-9020813D01*
X14934472Y-9031467D01*
X14943533Y-9040528D01*
X14954187Y-9047647D01*
X14966026Y-9052550D01*
X14978593Y-9055050D01*
X14978593Y-9055050D01*
X14991406Y-9055050D01*
X14991407Y-9055050D01*
X15003974Y-9052550D01*
X15015813Y-9047647D01*
X15026467Y-9040528D01*
X15035528Y-9031467D01*
X15037777Y-9028101D01*
X15074950Y-9028101D01*
X15074950Y-9041899D01*
X15077642Y-9055433D01*
X15077642Y-9055433D01*
X15082922Y-9068181D01*
X15082923Y-9068182D01*
X15090531Y-9079567D01*
X15090589Y-9079654D01*
X15100346Y-9089411D01*
X15100346Y-9089412D01*
X15111818Y-9097077D01*
X15111819Y-9097077D01*
X15111819Y-9097078D01*
X15124567Y-9102358D01*
X15138101Y-9105050D01*
X15151899Y-9105050D01*
X15165433Y-9102358D01*
X15178181Y-9097078D01*
X15189654Y-9089411D01*
X15199411Y-9079654D01*
X15207077Y-9068181D01*
X15212358Y-9055433D01*
X15215050Y-9041899D01*
X15215050Y-9028101D01*
X15215016Y-9027933D01*
X15213600Y-9020812D01*
X15212358Y-9014567D01*
X15207077Y-9001819D01*
X15206650Y-9001179D01*
X15199412Y-8990346D01*
X15199411Y-8990346D01*
X15189654Y-8980589D01*
X15189654Y-8980588D01*
X15178181Y-8972923D01*
X15178181Y-8972922D01*
X15165433Y-8967642D01*
X15165432Y-8967642D01*
X15151899Y-8964950D01*
X15138101Y-8964950D01*
X15124567Y-8967642D01*
X15124567Y-8967642D01*
X15111819Y-8972922D01*
X15111818Y-8972923D01*
X15100346Y-8980588D01*
X15100345Y-8980589D01*
X15090589Y-8990345D01*
X15090588Y-8990346D01*
X15082923Y-9001818D01*
X15082922Y-9001819D01*
X15077642Y-9014567D01*
X15077642Y-9014567D01*
X15074950Y-9028101D01*
X15037777Y-9028101D01*
X15042646Y-9020813D01*
X15042647Y-9020812D01*
X15045233Y-9014567D01*
X15047550Y-9008974D01*
X15050050Y-8996407D01*
X15050050Y-8983593D01*
X15047550Y-8971026D01*
X15042646Y-8959187D01*
X15035528Y-8948533D01*
X15026467Y-8939472D01*
X15015813Y-8932354D01*
X15015812Y-8932353D01*
X15015812Y-8932353D01*
X15003974Y-8927450D01*
X15003974Y-8927450D01*
X14991407Y-8924950D01*
X14991407Y-8924950D01*
X14978593Y-8924950D01*
X14978593Y-8924950D01*
X14966026Y-8927450D01*
X14966025Y-8927450D01*
X14954188Y-8932353D01*
X14954187Y-8932354D01*
X14946410Y-8937550D01*
X14943533Y-8939473D01*
X14934473Y-8948533D01*
X14927353Y-8959187D01*
X14927353Y-8959188D01*
X14922450Y-8971025D01*
X14922450Y-8971026D01*
X14919950Y-8983593D01*
X14569055Y-8983593D01*
X14567550Y-8976026D01*
X14563710Y-8966755D01*
X14562647Y-8964188D01*
X14562647Y-8964188D01*
X14562646Y-8964187D01*
X14555528Y-8953533D01*
X14546467Y-8944472D01*
X14535813Y-8937354D01*
X14535812Y-8937353D01*
X14535812Y-8937353D01*
X14523974Y-8932450D01*
X14523974Y-8932450D01*
X14511407Y-8929950D01*
X14511407Y-8929950D01*
X14498593Y-8929950D01*
X14498593Y-8929950D01*
X14488214Y-8932015D01*
X14480518Y-8931510D01*
X14474105Y-8927225D01*
X14470693Y-8920308D01*
X14470499Y-8918332D01*
X14470479Y-8918334D01*
X14470407Y-8917605D01*
X14470407Y-8917605D01*
X14467925Y-8905128D01*
X14463305Y-8893974D01*
X14463057Y-8893376D01*
X14463057Y-8893375D01*
X14458761Y-8886946D01*
X14455990Y-8882798D01*
X14446994Y-8873803D01*
X14443469Y-8871447D01*
X14439197Y-8868593D01*
X15669950Y-8868593D01*
X15669950Y-8881407D01*
X15672450Y-8893974D01*
X15672450Y-8893975D01*
X15677353Y-8905812D01*
X15677353Y-8905812D01*
X15677353Y-8905813D01*
X15684472Y-8916467D01*
X15693533Y-8925528D01*
X15704187Y-8932647D01*
X15716026Y-8937550D01*
X15728593Y-8940050D01*
X15728593Y-8940050D01*
X15741406Y-8940050D01*
X15741407Y-8940050D01*
X15753974Y-8937550D01*
X15765813Y-8932647D01*
X15776467Y-8925528D01*
X15785528Y-8916467D01*
X15792646Y-8905813D01*
X15797550Y-8893974D01*
X15800050Y-8881407D01*
X15800050Y-8868593D01*
X15797550Y-8856026D01*
X15792646Y-8844187D01*
X15785528Y-8833533D01*
X15776467Y-8824472D01*
X15765813Y-8817354D01*
X15765812Y-8817353D01*
X15765812Y-8817353D01*
X15753974Y-8812450D01*
X15753974Y-8812450D01*
X15741407Y-8809950D01*
X15741407Y-8809950D01*
X15728593Y-8809950D01*
X15728593Y-8809950D01*
X15716026Y-8812450D01*
X15716025Y-8812450D01*
X15704188Y-8817353D01*
X15704187Y-8817354D01*
X15693533Y-8824473D01*
X15684473Y-8833533D01*
X15677353Y-8844187D01*
X15677353Y-8844188D01*
X15672450Y-8856025D01*
X15672450Y-8856026D01*
X15669950Y-8868593D01*
X14439197Y-8868593D01*
X14436417Y-8866736D01*
X14436417Y-8866735D01*
X14428288Y-8863369D01*
X14424664Y-8861867D01*
X14424664Y-8861867D01*
X14424664Y-8861867D01*
X14412188Y-8859386D01*
X14399466Y-8859386D01*
X14386990Y-8861867D01*
X14386990Y-8861867D01*
X14375237Y-8866735D01*
X14375236Y-8866736D01*
X14364660Y-8873803D01*
X14364659Y-8873803D01*
X14355665Y-8882798D01*
X14355664Y-8882798D01*
X14348597Y-8893375D01*
X14348597Y-8893376D01*
X14343729Y-8905128D01*
X14343729Y-8905129D01*
X14341247Y-8917605D01*
X12720050Y-8917605D01*
X12720050Y-8816005D01*
X13833247Y-8816005D01*
X13833247Y-8828726D01*
X13835729Y-8841203D01*
X13835729Y-8841203D01*
X13840597Y-8852955D01*
X13840597Y-8852956D01*
X13842648Y-8856025D01*
X13847664Y-8863533D01*
X13856660Y-8872528D01*
X13863663Y-8877208D01*
X13867236Y-8879595D01*
X13867237Y-8879596D01*
X13870240Y-8880840D01*
X13878990Y-8884464D01*
X13891466Y-8886946D01*
X13904188Y-8886946D01*
X13916664Y-8884464D01*
X13928417Y-8879596D01*
X13938994Y-8872528D01*
X13947990Y-8863533D01*
X13955057Y-8852956D01*
X13959925Y-8841203D01*
X13962407Y-8828726D01*
X13962407Y-8816005D01*
X13959925Y-8803528D01*
X13955057Y-8791776D01*
X13947990Y-8781198D01*
X13938994Y-8772203D01*
X13935469Y-8769847D01*
X13928417Y-8765136D01*
X13928417Y-8765135D01*
X13920288Y-8761769D01*
X13916664Y-8760267D01*
X13916664Y-8760267D01*
X13916664Y-8760267D01*
X13904188Y-8757786D01*
X13891466Y-8757786D01*
X13878990Y-8760267D01*
X13878990Y-8760267D01*
X13867237Y-8765135D01*
X13867236Y-8765136D01*
X13856660Y-8772203D01*
X13856659Y-8772203D01*
X13847665Y-8781198D01*
X13847664Y-8781198D01*
X13840597Y-8791775D01*
X13840597Y-8791776D01*
X13835729Y-8803528D01*
X13835729Y-8803529D01*
X13833247Y-8816005D01*
X12720050Y-8816005D01*
X12720050Y-8714405D01*
X14341247Y-8714405D01*
X14341247Y-8727126D01*
X14343729Y-8739603D01*
X14343729Y-8739603D01*
X14348597Y-8751355D01*
X14348597Y-8751356D01*
X14352012Y-8756467D01*
X14355664Y-8761933D01*
X14364660Y-8770928D01*
X14367232Y-8772647D01*
X14375236Y-8777995D01*
X14375237Y-8777996D01*
X14378240Y-8779240D01*
X14386990Y-8782864D01*
X14399466Y-8785346D01*
X14412188Y-8785346D01*
X14424664Y-8782864D01*
X14436417Y-8777996D01*
X14446994Y-8770928D01*
X14455990Y-8761933D01*
X14463057Y-8751356D01*
X14467925Y-8739603D01*
X14470407Y-8727126D01*
X14470407Y-8714405D01*
X14470407Y-8714405D01*
X14470407Y-8714405D01*
X14469684Y-8710768D01*
X14469251Y-8708593D01*
X15184950Y-8708593D01*
X15184950Y-8721407D01*
X15187450Y-8733974D01*
X15187450Y-8733975D01*
X15192353Y-8745812D01*
X15192353Y-8745812D01*
X15192353Y-8745813D01*
X15199472Y-8756467D01*
X15208533Y-8765528D01*
X15219187Y-8772647D01*
X15231026Y-8777550D01*
X15243593Y-8780050D01*
X15243593Y-8780050D01*
X15256406Y-8780050D01*
X15256407Y-8780050D01*
X15268974Y-8777550D01*
X15280813Y-8772647D01*
X15291467Y-8765528D01*
X15300528Y-8756467D01*
X15307646Y-8745813D01*
X15312550Y-8733974D01*
X15315050Y-8721407D01*
X15315050Y-8708593D01*
X15312550Y-8696026D01*
X15307646Y-8684187D01*
X15306920Y-8683101D01*
X16074950Y-8683101D01*
X16074950Y-8696899D01*
X16077642Y-8710433D01*
X16077642Y-8710433D01*
X16082922Y-8723181D01*
X16082923Y-8723182D01*
X16090134Y-8733975D01*
X16090589Y-8734654D01*
X16100346Y-8744411D01*
X16100346Y-8744412D01*
X16111818Y-8752077D01*
X16111819Y-8752077D01*
X16111819Y-8752078D01*
X16124567Y-8757358D01*
X16138101Y-8760050D01*
X16151899Y-8760050D01*
X16165433Y-8757358D01*
X16178181Y-8752078D01*
X16189654Y-8744411D01*
X16199411Y-8734654D01*
X16207077Y-8723181D01*
X16212358Y-8710433D01*
X16215050Y-8696899D01*
X16215050Y-8683101D01*
X16214862Y-8682154D01*
X16214084Y-8678245D01*
X16212358Y-8669567D01*
X16207077Y-8656819D01*
X16206654Y-8656186D01*
X16199412Y-8645346D01*
X16199411Y-8645346D01*
X16189654Y-8635589D01*
X16189654Y-8635588D01*
X16178181Y-8627923D01*
X16178181Y-8627922D01*
X16165433Y-8622642D01*
X16165432Y-8622642D01*
X16151899Y-8619950D01*
X16138101Y-8619950D01*
X16124567Y-8622642D01*
X16124567Y-8622642D01*
X16111819Y-8627922D01*
X16111818Y-8627923D01*
X16100346Y-8635588D01*
X16100345Y-8635589D01*
X16090589Y-8645345D01*
X16090588Y-8645346D01*
X16082923Y-8656818D01*
X16082922Y-8656819D01*
X16077642Y-8669567D01*
X16077642Y-8669567D01*
X16074950Y-8683101D01*
X15306920Y-8683101D01*
X15300528Y-8673533D01*
X15291467Y-8664472D01*
X15280813Y-8657354D01*
X15280812Y-8657353D01*
X15280812Y-8657353D01*
X15268974Y-8652450D01*
X15268974Y-8652450D01*
X15256407Y-8649950D01*
X15256407Y-8649950D01*
X15243593Y-8649950D01*
X15243593Y-8649950D01*
X15231026Y-8652450D01*
X15231025Y-8652450D01*
X15219188Y-8657353D01*
X15219187Y-8657354D01*
X15209936Y-8663535D01*
X15208533Y-8664473D01*
X15199473Y-8673533D01*
X15199472Y-8673533D01*
X15199472Y-8673533D01*
X15195420Y-8679598D01*
X15192353Y-8684187D01*
X15192353Y-8684188D01*
X15187450Y-8696025D01*
X15187450Y-8696026D01*
X15184950Y-8708593D01*
X14469251Y-8708593D01*
X14467925Y-8701929D01*
X14467925Y-8701928D01*
X14463776Y-8691912D01*
X14463057Y-8690176D01*
X14463057Y-8690175D01*
X14458330Y-8683101D01*
X14455990Y-8679598D01*
X14446994Y-8670603D01*
X14437977Y-8664578D01*
X14436417Y-8663536D01*
X14436417Y-8663535D01*
X14428288Y-8660169D01*
X14424664Y-8658667D01*
X14424664Y-8658667D01*
X14424664Y-8658667D01*
X14412188Y-8656186D01*
X14399466Y-8656186D01*
X14386990Y-8658667D01*
X14386990Y-8658667D01*
X14375237Y-8663535D01*
X14375236Y-8663536D01*
X14364660Y-8670603D01*
X14364659Y-8670603D01*
X14355665Y-8679598D01*
X14355664Y-8679598D01*
X14348597Y-8690175D01*
X14348597Y-8690176D01*
X14343729Y-8701928D01*
X14343729Y-8701929D01*
X14341247Y-8714405D01*
X12720050Y-8714405D01*
X12720050Y-8630601D01*
X14005950Y-8630601D01*
X14005950Y-8644399D01*
X14008642Y-8657933D01*
X14008642Y-8657933D01*
X14013922Y-8670681D01*
X14013923Y-8670682D01*
X14019881Y-8679598D01*
X14021589Y-8682154D01*
X14031346Y-8691911D01*
X14031346Y-8691912D01*
X14042818Y-8699577D01*
X14042819Y-8699577D01*
X14042819Y-8699578D01*
X14055567Y-8704858D01*
X14069101Y-8707550D01*
X14082899Y-8707550D01*
X14096433Y-8704858D01*
X14109181Y-8699578D01*
X14120654Y-8691911D01*
X14130411Y-8682154D01*
X14130411Y-8682154D01*
X14130464Y-8682102D01*
X14137144Y-8678245D01*
X14144856Y-8678245D01*
X14151536Y-8682102D01*
X14151589Y-8682154D01*
X14161346Y-8691911D01*
X14161346Y-8691912D01*
X14172818Y-8699577D01*
X14172819Y-8699577D01*
X14172819Y-8699578D01*
X14185567Y-8704858D01*
X14199101Y-8707550D01*
X14212899Y-8707550D01*
X14226433Y-8704858D01*
X14234464Y-8701531D01*
X14238385Y-8699907D01*
X14238589Y-8699823D01*
X14239181Y-8699578D01*
X14250654Y-8691911D01*
X14260411Y-8682154D01*
X14268077Y-8670681D01*
X14273358Y-8657933D01*
X14276050Y-8644399D01*
X14276050Y-8630601D01*
X14275517Y-8627922D01*
X14273358Y-8617067D01*
X14273358Y-8617067D01*
X14268077Y-8604319D01*
X14267294Y-8603147D01*
X14267294Y-8603147D01*
X14262252Y-8595601D01*
X15754950Y-8595601D01*
X15754950Y-8609399D01*
X15757642Y-8622933D01*
X15757642Y-8622933D01*
X15762922Y-8635681D01*
X15762923Y-8635682D01*
X15770588Y-8647154D01*
X15770589Y-8647154D01*
X15780346Y-8656911D01*
X15780346Y-8656912D01*
X15791818Y-8664577D01*
X15791819Y-8664577D01*
X15791819Y-8664578D01*
X15804567Y-8669858D01*
X15818101Y-8672550D01*
X15831899Y-8672550D01*
X15845433Y-8669858D01*
X15858181Y-8664578D01*
X15869654Y-8656911D01*
X15879411Y-8647154D01*
X15887077Y-8635681D01*
X15892358Y-8622933D01*
X15895050Y-8609399D01*
X15895050Y-8595601D01*
X15892358Y-8582067D01*
X15887077Y-8569319D01*
X15885829Y-8567450D01*
X15879412Y-8557846D01*
X15879411Y-8557846D01*
X15869654Y-8548089D01*
X15869654Y-8548088D01*
X15858181Y-8540423D01*
X15858181Y-8540422D01*
X15845433Y-8535142D01*
X15845432Y-8535142D01*
X15831899Y-8532450D01*
X15818101Y-8532450D01*
X15804567Y-8535142D01*
X15804567Y-8535142D01*
X15791819Y-8540422D01*
X15791818Y-8540423D01*
X15780346Y-8548088D01*
X15780345Y-8548089D01*
X15770589Y-8557845D01*
X15770588Y-8557846D01*
X15762923Y-8569318D01*
X15762922Y-8569319D01*
X15757642Y-8582067D01*
X15757642Y-8582067D01*
X15754950Y-8595601D01*
X14262252Y-8595601D01*
X14260412Y-8592846D01*
X14260411Y-8592846D01*
X14250654Y-8583089D01*
X14249125Y-8582067D01*
X14239181Y-8575423D01*
X14239181Y-8575422D01*
X14226433Y-8570142D01*
X14226432Y-8570142D01*
X14212899Y-8567450D01*
X14199101Y-8567450D01*
X14185567Y-8570142D01*
X14185567Y-8570142D01*
X14172819Y-8575422D01*
X14172818Y-8575423D01*
X14161346Y-8583088D01*
X14161345Y-8583089D01*
X14151536Y-8592899D01*
X14144856Y-8596755D01*
X14137144Y-8596755D01*
X14130464Y-8592899D01*
X14120654Y-8583089D01*
X14120654Y-8583089D01*
X14119125Y-8582067D01*
X14109181Y-8575423D01*
X14109181Y-8575422D01*
X14096433Y-8570142D01*
X14096432Y-8570142D01*
X14082899Y-8567450D01*
X14069101Y-8567450D01*
X14055567Y-8570142D01*
X14055567Y-8570142D01*
X14042819Y-8575422D01*
X14042818Y-8575423D01*
X14031346Y-8583088D01*
X14031345Y-8583089D01*
X14021589Y-8592845D01*
X14021588Y-8592846D01*
X14013923Y-8604318D01*
X14013922Y-8604319D01*
X14008642Y-8617067D01*
X14008642Y-8617067D01*
X14005950Y-8630601D01*
X12720050Y-8630601D01*
X12720050Y-8428593D01*
X13089950Y-8428593D01*
X13089950Y-8441407D01*
X13092450Y-8453974D01*
X13092450Y-8453975D01*
X13097353Y-8465812D01*
X13097353Y-8465812D01*
X13097353Y-8465813D01*
X13104472Y-8476467D01*
X13113533Y-8485528D01*
X13124187Y-8492647D01*
X13136026Y-8497550D01*
X13148593Y-8500050D01*
X13148593Y-8500050D01*
X13161406Y-8500050D01*
X13161407Y-8500050D01*
X13173974Y-8497550D01*
X13185813Y-8492647D01*
X13196467Y-8485528D01*
X13205528Y-8476467D01*
X13212646Y-8465813D01*
X13217550Y-8453974D01*
X13220050Y-8441407D01*
X13220050Y-8428593D01*
X13220050Y-8428593D01*
X13249950Y-8428593D01*
X13249950Y-8441407D01*
X13252450Y-8453974D01*
X13252450Y-8453975D01*
X13257353Y-8465812D01*
X13257353Y-8465812D01*
X13257353Y-8465813D01*
X13264472Y-8476467D01*
X13273533Y-8485528D01*
X13284187Y-8492647D01*
X13296026Y-8497550D01*
X13308593Y-8500050D01*
X13308593Y-8500050D01*
X13321406Y-8500050D01*
X13321407Y-8500050D01*
X13333974Y-8497550D01*
X13345813Y-8492647D01*
X13356467Y-8485528D01*
X13365528Y-8476467D01*
X13372646Y-8465813D01*
X13377550Y-8453974D01*
X13380050Y-8441407D01*
X13380050Y-8428593D01*
X13377550Y-8416026D01*
X13373566Y-8406406D01*
X13372647Y-8404188D01*
X13372647Y-8404188D01*
X13372646Y-8404187D01*
X13365528Y-8393533D01*
X13356467Y-8384472D01*
X13345813Y-8377353D01*
X13345812Y-8377353D01*
X13345812Y-8377353D01*
X13333974Y-8372450D01*
X13333974Y-8372450D01*
X13321407Y-8369950D01*
X13321407Y-8369950D01*
X13308593Y-8369950D01*
X13308593Y-8369950D01*
X13296026Y-8372450D01*
X13296025Y-8372450D01*
X13284188Y-8377353D01*
X13284187Y-8377353D01*
X13276747Y-8382325D01*
X13273533Y-8384473D01*
X13264473Y-8393533D01*
X13264472Y-8393533D01*
X13264472Y-8393533D01*
X13261724Y-8397646D01*
X13257353Y-8404187D01*
X13257353Y-8404188D01*
X13252450Y-8416025D01*
X13252450Y-8416026D01*
X13249950Y-8428593D01*
X13220050Y-8428593D01*
X13217550Y-8416026D01*
X13213566Y-8406406D01*
X13212647Y-8404188D01*
X13212647Y-8404188D01*
X13212646Y-8404187D01*
X13205528Y-8393533D01*
X13196467Y-8384472D01*
X13185813Y-8377353D01*
X13185812Y-8377353D01*
X13185812Y-8377353D01*
X13173974Y-8372450D01*
X13173974Y-8372450D01*
X13161407Y-8369950D01*
X13161407Y-8369950D01*
X13148593Y-8369950D01*
X13148593Y-8369950D01*
X13136026Y-8372450D01*
X13136025Y-8372450D01*
X13124188Y-8377353D01*
X13124187Y-8377353D01*
X13116747Y-8382325D01*
X13113533Y-8384473D01*
X13104473Y-8393533D01*
X13104472Y-8393533D01*
X13104472Y-8393533D01*
X13101724Y-8397646D01*
X13097353Y-8404187D01*
X13097353Y-8404188D01*
X13092450Y-8416025D01*
X13092450Y-8416026D01*
X13089950Y-8428593D01*
X12720050Y-8428593D01*
X12720050Y-8348101D01*
X13852450Y-8348101D01*
X13852450Y-8361899D01*
X13855142Y-8375432D01*
X13855142Y-8375433D01*
X13860422Y-8388181D01*
X13860423Y-8388181D01*
X13866747Y-8397646D01*
X13868089Y-8399654D01*
X13877846Y-8409411D01*
X13877846Y-8409412D01*
X13889318Y-8417077D01*
X13889319Y-8417077D01*
X13889319Y-8417078D01*
X13902067Y-8422358D01*
X13915601Y-8425050D01*
X13929399Y-8425050D01*
X13942933Y-8422358D01*
X13955681Y-8417078D01*
X13967154Y-8409411D01*
X13976911Y-8399654D01*
X13984577Y-8388181D01*
X13989858Y-8375433D01*
X13992550Y-8361899D01*
X13992550Y-8348101D01*
X13992362Y-8347154D01*
X13991007Y-8340346D01*
X13989858Y-8334567D01*
X13984577Y-8321819D01*
X13984047Y-8321026D01*
X13976912Y-8310346D01*
X13976911Y-8310346D01*
X13967154Y-8300589D01*
X13967154Y-8300588D01*
X13955681Y-8292923D01*
X13955681Y-8292922D01*
X13949139Y-8290213D01*
X13942933Y-8287642D01*
X13942933Y-8287642D01*
X13942932Y-8287642D01*
X13929399Y-8284950D01*
X13915601Y-8284950D01*
X13902067Y-8287642D01*
X13902067Y-8287642D01*
X13889319Y-8292922D01*
X13889318Y-8292923D01*
X13877846Y-8300588D01*
X13877845Y-8300589D01*
X13868089Y-8310345D01*
X13868088Y-8310346D01*
X13860423Y-8321818D01*
X13860422Y-8321819D01*
X13855142Y-8334567D01*
X13855142Y-8334567D01*
X13852450Y-8348101D01*
X12720050Y-8348101D01*
X12720050Y-8277423D01*
X14202450Y-8277423D01*
X14202450Y-8292577D01*
X14206372Y-8307214D01*
X14213948Y-8320336D01*
X14213948Y-8320336D01*
X14213948Y-8320336D01*
X14224663Y-8331051D01*
X14224664Y-8331052D01*
X14224664Y-8331052D01*
X14230752Y-8334567D01*
X14237786Y-8338628D01*
X14251594Y-8342328D01*
X14251688Y-8342353D01*
X14252423Y-8342550D01*
X14267577Y-8342550D01*
X14282213Y-8338628D01*
X14295336Y-8331051D01*
X14306051Y-8320336D01*
X14313628Y-8307213D01*
X14316740Y-8295601D01*
X14409950Y-8295601D01*
X14409950Y-8309399D01*
X14412642Y-8322932D01*
X14412642Y-8322933D01*
X14417922Y-8335681D01*
X14417923Y-8335681D01*
X14425588Y-8347154D01*
X14425589Y-8347154D01*
X14435346Y-8356911D01*
X14435346Y-8356912D01*
X14446818Y-8364577D01*
X14446819Y-8364577D01*
X14446819Y-8364577D01*
X14459567Y-8369858D01*
X14473101Y-8372550D01*
X14486899Y-8372550D01*
X14500433Y-8369858D01*
X14513181Y-8364577D01*
X14524654Y-8356911D01*
X14534411Y-8347154D01*
X14542077Y-8335681D01*
X14542942Y-8333593D01*
X15294950Y-8333593D01*
X15294950Y-8346407D01*
X15297450Y-8358974D01*
X15297450Y-8358974D01*
X15302353Y-8370812D01*
X15302353Y-8370812D01*
X15302353Y-8370813D01*
X15309472Y-8381467D01*
X15318533Y-8390528D01*
X15329187Y-8397647D01*
X15341026Y-8402550D01*
X15353593Y-8405050D01*
X15353593Y-8405050D01*
X15366406Y-8405050D01*
X15366407Y-8405050D01*
X15378974Y-8402550D01*
X15390813Y-8397647D01*
X15396880Y-8393593D01*
X15819950Y-8393593D01*
X15819950Y-8406407D01*
X15822450Y-8418974D01*
X15822450Y-8418975D01*
X15827353Y-8430812D01*
X15827353Y-8430812D01*
X15827353Y-8430813D01*
X15834472Y-8441467D01*
X15843533Y-8450528D01*
X15854187Y-8457647D01*
X15866026Y-8462550D01*
X15878593Y-8465050D01*
X15878593Y-8465050D01*
X15891406Y-8465050D01*
X15891407Y-8465050D01*
X15903974Y-8462550D01*
X15915813Y-8457647D01*
X15926467Y-8450528D01*
X15935528Y-8441467D01*
X15942646Y-8430813D01*
X15947550Y-8418974D01*
X15950050Y-8406407D01*
X15950050Y-8393593D01*
X15947550Y-8381026D01*
X15946338Y-8378101D01*
X16234950Y-8378101D01*
X16234950Y-8391899D01*
X16237642Y-8405433D01*
X16237642Y-8405433D01*
X16242922Y-8418181D01*
X16242923Y-8418182D01*
X16250588Y-8429654D01*
X16250589Y-8429654D01*
X16260346Y-8439411D01*
X16260346Y-8439412D01*
X16271818Y-8447077D01*
X16271819Y-8447077D01*
X16271819Y-8447078D01*
X16284567Y-8452358D01*
X16298101Y-8455050D01*
X16311899Y-8455050D01*
X16325433Y-8452358D01*
X16338181Y-8447078D01*
X16349654Y-8439411D01*
X16359411Y-8429654D01*
X16367077Y-8418181D01*
X16372358Y-8405433D01*
X16375050Y-8391899D01*
X16375050Y-8378101D01*
X16372358Y-8364567D01*
X16367077Y-8351819D01*
X16363961Y-8347154D01*
X16359412Y-8340346D01*
X16359411Y-8340346D01*
X16349654Y-8330589D01*
X16349654Y-8330588D01*
X16338181Y-8322923D01*
X16338181Y-8322922D01*
X16325433Y-8317642D01*
X16325432Y-8317642D01*
X16311899Y-8314950D01*
X16298101Y-8314950D01*
X16284567Y-8317642D01*
X16284567Y-8317642D01*
X16271819Y-8322922D01*
X16271818Y-8322923D01*
X16260346Y-8330588D01*
X16260345Y-8330589D01*
X16250589Y-8340345D01*
X16250588Y-8340346D01*
X16242923Y-8351818D01*
X16242922Y-8351819D01*
X16237642Y-8364567D01*
X16237642Y-8364567D01*
X16234950Y-8378101D01*
X15946338Y-8378101D01*
X15942646Y-8369187D01*
X15935528Y-8358533D01*
X15926467Y-8349472D01*
X15915813Y-8342353D01*
X15915812Y-8342353D01*
X15915812Y-8342353D01*
X15903974Y-8337450D01*
X15903974Y-8337450D01*
X15891407Y-8334950D01*
X15891407Y-8334950D01*
X15878593Y-8334950D01*
X15878593Y-8334950D01*
X15866026Y-8337450D01*
X15866025Y-8337450D01*
X15854188Y-8342353D01*
X15854187Y-8342353D01*
X15845586Y-8348101D01*
X15843533Y-8349473D01*
X15834473Y-8358533D01*
X15834472Y-8358533D01*
X15834472Y-8358533D01*
X15830440Y-8364567D01*
X15827353Y-8369187D01*
X15827353Y-8369188D01*
X15822450Y-8381025D01*
X15822450Y-8381026D01*
X15819950Y-8393593D01*
X15396880Y-8393593D01*
X15401467Y-8390528D01*
X15410528Y-8381467D01*
X15417646Y-8370813D01*
X15422550Y-8358974D01*
X15425050Y-8346407D01*
X15425050Y-8333593D01*
X15422550Y-8321026D01*
X15417646Y-8309187D01*
X15410528Y-8298533D01*
X15401467Y-8289472D01*
X15390813Y-8282353D01*
X15390812Y-8282353D01*
X15390812Y-8282353D01*
X15378974Y-8277450D01*
X15378974Y-8277450D01*
X15366407Y-8274950D01*
X15366407Y-8274950D01*
X15353593Y-8274950D01*
X15353593Y-8274950D01*
X15341026Y-8277450D01*
X15341025Y-8277450D01*
X15329188Y-8282353D01*
X15329187Y-8282353D01*
X15321273Y-8287642D01*
X15318533Y-8289473D01*
X15309473Y-8298533D01*
X15309472Y-8298533D01*
X15309472Y-8298533D01*
X15303672Y-8307214D01*
X15302353Y-8309187D01*
X15302353Y-8309188D01*
X15297450Y-8321025D01*
X15297450Y-8321026D01*
X15294950Y-8333593D01*
X14542942Y-8333593D01*
X14547358Y-8322933D01*
X14550050Y-8309399D01*
X14550050Y-8295601D01*
X14549517Y-8292922D01*
X14548978Y-8290213D01*
X14547358Y-8282067D01*
X14542077Y-8269319D01*
X14534411Y-8257846D01*
X14524654Y-8248089D01*
X14524654Y-8248088D01*
X14513181Y-8240423D01*
X14513181Y-8240422D01*
X14500433Y-8235142D01*
X14500432Y-8235142D01*
X14486899Y-8232450D01*
X14473101Y-8232450D01*
X14459567Y-8235142D01*
X14459567Y-8235142D01*
X14446819Y-8240422D01*
X14446818Y-8240423D01*
X14435346Y-8248088D01*
X14435345Y-8248089D01*
X14425589Y-8257845D01*
X14425588Y-8257846D01*
X14417923Y-8269318D01*
X14417922Y-8269319D01*
X14412642Y-8282067D01*
X14412642Y-8282067D01*
X14409950Y-8295601D01*
X14316740Y-8295601D01*
X14317550Y-8292577D01*
X14317550Y-8277423D01*
X14313628Y-8262786D01*
X14306051Y-8249663D01*
X14295336Y-8238948D01*
X14295336Y-8238948D01*
X14295336Y-8238948D01*
X14282214Y-8231372D01*
X14282214Y-8231372D01*
X14282213Y-8231372D01*
X14276856Y-8229936D01*
X14267577Y-8227450D01*
X14267577Y-8227450D01*
X14252423Y-8227450D01*
X14252423Y-8227450D01*
X14240051Y-8230765D01*
X14237786Y-8231372D01*
X14237786Y-8231372D01*
X14237786Y-8231372D01*
X14224664Y-8238948D01*
X14213948Y-8249664D01*
X14206372Y-8262786D01*
X14202450Y-8277423D01*
X12720050Y-8277423D01*
X12720050Y-7938593D01*
X13444950Y-7938593D01*
X13444950Y-7951407D01*
X13447450Y-7963974D01*
X13447450Y-7963974D01*
X13452353Y-7975812D01*
X13452353Y-7975812D01*
X13452353Y-7975813D01*
X13459472Y-7986467D01*
X13468533Y-7995528D01*
X13479187Y-8002646D01*
X13491026Y-8007550D01*
X13503593Y-8010050D01*
X13503593Y-8010050D01*
X13516406Y-8010050D01*
X13516407Y-8010050D01*
X13528974Y-8007550D01*
X13532493Y-8006093D01*
X15294950Y-8006093D01*
X15294950Y-8018907D01*
X15297450Y-8031474D01*
X15297450Y-8031474D01*
X15302353Y-8043312D01*
X15302353Y-8043312D01*
X15302353Y-8043313D01*
X15309472Y-8053967D01*
X15318533Y-8063028D01*
X15329187Y-8070146D01*
X15341026Y-8075050D01*
X15353593Y-8077550D01*
X15353593Y-8077550D01*
X15366406Y-8077550D01*
X15366407Y-8077550D01*
X15378974Y-8075050D01*
X15390813Y-8070146D01*
X15401467Y-8063028D01*
X15410528Y-8053967D01*
X15417646Y-8043313D01*
X15422550Y-8031474D01*
X15425050Y-8018907D01*
X15425050Y-8006093D01*
X15422550Y-7993526D01*
X15417646Y-7981687D01*
X15410528Y-7971033D01*
X15401467Y-7961972D01*
X15390813Y-7954853D01*
X15390812Y-7954853D01*
X15390812Y-7954853D01*
X15378974Y-7949950D01*
X15378974Y-7949950D01*
X15366407Y-7947450D01*
X15366407Y-7947450D01*
X15353593Y-7947450D01*
X15353593Y-7947450D01*
X15341026Y-7949950D01*
X15341025Y-7949950D01*
X15329188Y-7954853D01*
X15329187Y-7954853D01*
X15318533Y-7961973D01*
X15309473Y-7971033D01*
X15309472Y-7971033D01*
X15309472Y-7971033D01*
X15306279Y-7975813D01*
X15302353Y-7981687D01*
X15302353Y-7981688D01*
X15297450Y-7993525D01*
X15297450Y-7993526D01*
X15294950Y-8006093D01*
X13532493Y-8006093D01*
X13540813Y-8002646D01*
X13551467Y-7995528D01*
X13560528Y-7986467D01*
X13567646Y-7975813D01*
X13572550Y-7963974D01*
X13575050Y-7951407D01*
X13575050Y-7938593D01*
X13572550Y-7926026D01*
X13571964Y-7924611D01*
X13569255Y-7918071D01*
X13567647Y-7914188D01*
X13567647Y-7914187D01*
X13567646Y-7914187D01*
X13566920Y-7913101D01*
X14407450Y-7913101D01*
X14407450Y-7926899D01*
X14410142Y-7940432D01*
X14410142Y-7940433D01*
X14415422Y-7953181D01*
X14415423Y-7953181D01*
X14422634Y-7963974D01*
X14423089Y-7964654D01*
X14432846Y-7974411D01*
X14432846Y-7974412D01*
X14444318Y-7982077D01*
X14444319Y-7982077D01*
X14444319Y-7982077D01*
X14457067Y-7987358D01*
X14470601Y-7990050D01*
X14484399Y-7990050D01*
X14497933Y-7987358D01*
X14510681Y-7982077D01*
X14522154Y-7974411D01*
X14531911Y-7964654D01*
X14539577Y-7953181D01*
X14544858Y-7940433D01*
X14547550Y-7926899D01*
X14547550Y-7913101D01*
X14544858Y-7899567D01*
X14539577Y-7886819D01*
X14538718Y-7885533D01*
X14531912Y-7875346D01*
X14531911Y-7875346D01*
X14522154Y-7865589D01*
X14521314Y-7865027D01*
X14510681Y-7857923D01*
X14510681Y-7857922D01*
X14497933Y-7852642D01*
X14497932Y-7852642D01*
X14484399Y-7849950D01*
X14470601Y-7849950D01*
X14457067Y-7852642D01*
X14457067Y-7852642D01*
X14444319Y-7857922D01*
X14444318Y-7857923D01*
X14432846Y-7865588D01*
X14432845Y-7865589D01*
X14423089Y-7875345D01*
X14423088Y-7875346D01*
X14415423Y-7886818D01*
X14415422Y-7886819D01*
X14410142Y-7899567D01*
X14410142Y-7899567D01*
X14407450Y-7913101D01*
X13566920Y-7913101D01*
X13560528Y-7903533D01*
X13551467Y-7894472D01*
X13540813Y-7887353D01*
X13540812Y-7887353D01*
X13540812Y-7887353D01*
X13528974Y-7882450D01*
X13528974Y-7882450D01*
X13516407Y-7879950D01*
X13516407Y-7879950D01*
X13503593Y-7879950D01*
X13503593Y-7879950D01*
X13491026Y-7882450D01*
X13491025Y-7882450D01*
X13479188Y-7887353D01*
X13479187Y-7887353D01*
X13468533Y-7894473D01*
X13459473Y-7903533D01*
X13452353Y-7914187D01*
X13452353Y-7914188D01*
X13447450Y-7926025D01*
X13447450Y-7926026D01*
X13444950Y-7938593D01*
X12720050Y-7938593D01*
X12720050Y-7759803D01*
X12784950Y-7759803D01*
X12784950Y-7779486D01*
X12788029Y-7798927D01*
X12794112Y-7817647D01*
X12794112Y-7817647D01*
X12794112Y-7817648D01*
X12802518Y-7834145D01*
X12803048Y-7835185D01*
X12814617Y-7851109D01*
X12828535Y-7865027D01*
X12844459Y-7876597D01*
X12861997Y-7885533D01*
X12880717Y-7891615D01*
X12900158Y-7894694D01*
X12900159Y-7894694D01*
X12919841Y-7894694D01*
X12919842Y-7894694D01*
X12939283Y-7891615D01*
X12958002Y-7885533D01*
X12975540Y-7876597D01*
X12991465Y-7865027D01*
X13005383Y-7851109D01*
X13016952Y-7835185D01*
X13025888Y-7817647D01*
X13031971Y-7798927D01*
X13035050Y-7779486D01*
X13035050Y-7759803D01*
X13031971Y-7740362D01*
X13025888Y-7721642D01*
X13016952Y-7704104D01*
X13005383Y-7688180D01*
X12991465Y-7674262D01*
X12975540Y-7662692D01*
X12974501Y-7662162D01*
X12958004Y-7653757D01*
X12958003Y-7653756D01*
X12958002Y-7653756D01*
X12939283Y-7647674D01*
X12919842Y-7644594D01*
X12900158Y-7644594D01*
X12880717Y-7647674D01*
X12874165Y-7649803D01*
X12861997Y-7653756D01*
X12861997Y-7653756D01*
X12861996Y-7653757D01*
X12844460Y-7662692D01*
X12844459Y-7662692D01*
X12828536Y-7674261D01*
X12828535Y-7674262D01*
X12814617Y-7688180D01*
X12814616Y-7688181D01*
X12803048Y-7704104D01*
X12803047Y-7704104D01*
X12794112Y-7721641D01*
X12794111Y-7721643D01*
X12790715Y-7732094D01*
X12788029Y-7740362D01*
X12784950Y-7759803D01*
X12720050Y-7759803D01*
X12720050Y-7594594D01*
X12722046Y-7587144D01*
X12727500Y-7581691D01*
X12734950Y-7579694D01*
X13766463Y-7579694D01*
X13773913Y-7581691D01*
G37*
%TD.AperFunction*%
%TD*%
M02*
