%TF.GenerationSoftware,KiCad,Pcbnew,9.0.7*%
%TF.CreationDate,2026-09-02T11:28:57-04:00*%
%TF.ProjectId,sleep_mask,736c6565-705f-46d6-9173-6b2e6b696361,rev?*%
%TF.SameCoordinates,Original*%
%TF.FileFunction,Paste,Top*%
%TF.FilePolarity,Positive*%
%FSLAX45Y45*%
G04 Gerber Fmt 4.5, Leading zero omitted, Abs format (unit mm)*
G04 Created by KiCad (PCBNEW 9.0.7) date 2026-09-02 11:28:57*
%MOMM*%
%LPD*%
G01*
G04 APERTURE LIST*
G04 Aperture macros list*
%AMRoundRect*
0 Rectangle with rounded corners*
0 $1 Rounding radius*
0 $2 $3 $4 $5 $6 $7 $8 $9 X,Y pos of 4 corners*
0 Add a 4 corners polygon primitive as box body*
4,1,4,$2,$3,$4,$5,$6,$7,$8,$9,$2,$3,0*
0 Add four circle primitives for the rounded corners*
1,1,$1+$1,$2,$3*
1,1,$1+$1,$4,$5*
1,1,$1+$1,$6,$7*
1,1,$1+$1,$8,$9*
0 Add four rect primitives between the rounded corners*
20,1,$1+$1,$2,$3,$4,$5,0*
20,1,$1+$1,$4,$5,$6,$7,0*
20,1,$1+$1,$6,$7,$8,$9,0*
20,1,$1+$1,$8,$9,$2,$3,0*%
%AMFreePoly0*
4,1,6,0.325000,0.000000,0.325000,-0.150000,-0.175000,-0.150000,-0.175000,0.150000,0.175000,0.150000,0.325000,0.000000,0.325000,0.000000,$1*%
%AMFreePoly1*
4,1,6,0.325000,0.000000,0.175000,-0.150000,-0.175000,-0.150000,-0.175000,0.150000,0.325000,0.150000,0.325000,0.000000,0.325000,0.000000,$1*%
%AMFreePoly2*
4,1,6,0.150000,-0.175000,-0.150000,-0.175000,-0.150000,0.175000,0.000000,0.325000,0.150000,0.325000,0.150000,-0.175000,0.150000,-0.175000,$1*%
%AMFreePoly3*
4,1,6,0.150000,0.175000,0.150000,-0.175000,-0.150000,-0.175000,-0.150000,0.325000,0.000000,0.325000,0.150000,0.175000,0.150000,0.175000,$1*%
%AMFreePoly4*
4,1,6,0.175000,-0.150000,-0.175000,-0.150000,-0.325000,0.000000,-0.325000,0.150000,0.175000,0.150000,0.175000,-0.150000,0.175000,-0.150000,$1*%
%AMFreePoly5*
4,1,7,0.175000,-0.150000,-0.175000,-0.150000,-0.325000,-0.150000,-0.325000,0.000000,-0.175000,0.150000,0.175000,0.150000,0.175000,-0.150000,0.175000,-0.150000,$1*%
%AMFreePoly6*
4,1,6,0.150000,-0.175000,0.000000,-0.325000,-0.150000,-0.325000,-0.150000,0.175000,0.150000,0.175000,0.150000,-0.175000,0.150000,-0.175000,$1*%
%AMFreePoly7*
4,1,6,0.150000,-0.325000,0.000000,-0.325000,-0.150000,-0.175000,-0.150000,0.175000,0.150000,0.175000,0.150000,-0.325000,0.150000,-0.325000,$1*%
G04 Aperture macros list end*
%ADD10RoundRect,0.200000X-0.275000X0.200000X-0.275000X-0.200000X0.275000X-0.200000X0.275000X0.200000X0*%
%ADD11RoundRect,0.218750X-0.381250X0.218750X-0.381250X-0.218750X0.381250X-0.218750X0.381250X0.218750X0*%
%ADD12RoundRect,0.150000X0.512500X0.150000X-0.512500X0.150000X-0.512500X-0.150000X0.512500X-0.150000X0*%
%ADD13RoundRect,0.225000X-0.225000X-0.250000X0.225000X-0.250000X0.225000X0.250000X-0.225000X0.250000X0*%
%ADD14RoundRect,0.200000X-0.200000X-0.275000X0.200000X-0.275000X0.200000X0.275000X-0.200000X0.275000X0*%
%ADD15RoundRect,0.225000X-0.250000X0.225000X-0.250000X-0.225000X0.250000X-0.225000X0.250000X0.225000X0*%
%ADD16RoundRect,0.140000X0.170000X-0.140000X0.170000X0.140000X-0.170000X0.140000X-0.170000X-0.140000X0*%
%ADD17RoundRect,0.050000X-0.100000X-0.250000X0.100000X-0.250000X0.100000X0.250000X-0.100000X0.250000X0*%
%ADD18RoundRect,0.140000X-0.140000X-0.170000X0.140000X-0.170000X0.140000X0.170000X-0.140000X0.170000X0*%
%ADD19RoundRect,0.250000X-0.250000X-0.475000X0.250000X-0.475000X0.250000X0.475000X-0.250000X0.475000X0*%
%ADD20RoundRect,0.140000X-0.170000X0.140000X-0.170000X-0.140000X0.170000X-0.140000X0.170000X0.140000X0*%
%ADD21R,0.500000X1.050000*%
%ADD22R,1.200000X1.700000*%
%ADD23RoundRect,0.200000X0.200000X0.275000X-0.200000X0.275000X-0.200000X-0.275000X0.200000X-0.275000X0*%
%ADD24RoundRect,0.162500X-0.162500X0.447500X-0.162500X-0.447500X0.162500X-0.447500X0.162500X0.447500X0*%
%ADD25RoundRect,0.140000X0.140000X0.170000X-0.140000X0.170000X-0.140000X-0.170000X0.140000X-0.170000X0*%
%ADD26FreePoly0,0.000000*%
%ADD27R,0.700000X0.300000*%
%ADD28FreePoly1,0.000000*%
%ADD29FreePoly2,0.000000*%
%ADD30R,0.300000X0.700000*%
%ADD31FreePoly3,0.000000*%
%ADD32FreePoly4,0.000000*%
%ADD33FreePoly5,0.000000*%
%ADD34FreePoly6,0.000000*%
%ADD35FreePoly7,0.000000*%
%ADD36RoundRect,0.050000X0.100000X0.250000X-0.100000X0.250000X-0.100000X-0.250000X0.100000X-0.250000X0*%
%ADD37RoundRect,0.075000X0.075000X0.175000X-0.075000X0.175000X-0.075000X-0.175000X0.075000X-0.175000X0*%
%ADD38RoundRect,0.050600X-0.311900X0.064400X-0.311900X-0.064400X0.311900X-0.064400X0.311900X0.064400X0*%
%ADD39RoundRect,0.050920X-0.724080X0.619080X-0.724080X-0.619080X0.724080X-0.619080X0.724080X0.619080X0*%
%ADD40RoundRect,0.049600X-0.105400X0.250400X-0.105400X-0.250400X0.105400X-0.250400X0.105400X0.250400X0*%
%ADD41RoundRect,0.150000X-0.512500X-0.150000X0.512500X-0.150000X0.512500X0.150000X-0.512500X0.150000X0*%
%ADD42RoundRect,0.225000X-0.225000X-0.375000X0.225000X-0.375000X0.225000X0.375000X-0.225000X0.375000X0*%
%ADD43RoundRect,0.225000X0.225000X0.375000X-0.225000X0.375000X-0.225000X-0.375000X0.225000X-0.375000X0*%
%ADD44RoundRect,0.218750X-0.256250X0.218750X-0.256250X-0.218750X0.256250X-0.218750X0.256250X0.218750X0*%
%ADD45RoundRect,0.225000X0.250000X-0.225000X0.250000X0.225000X-0.250000X0.225000X-0.250000X-0.225000X0*%
%ADD46RoundRect,0.200000X0.275000X-0.200000X0.275000X0.200000X-0.275000X0.200000X-0.275000X-0.200000X0*%
%ADD47RoundRect,0.050000X0.285000X0.100000X-0.285000X0.100000X-0.285000X-0.100000X0.285000X-0.100000X0*%
%ADD48RoundRect,0.225000X0.225000X0.250000X-0.225000X0.250000X-0.225000X-0.250000X0.225000X-0.250000X0*%
%ADD49RoundRect,0.250000X0.250000X0.650000X-0.250000X0.650000X-0.250000X-0.650000X0.250000X-0.650000X0*%
G04 APERTURE END LIST*
D10*
%TO.C,R10*%
X15175000Y-8107500D03*
X15175000Y-8272500D03*
%TD*%
%TO.C,R4*%
X13155000Y-8552500D03*
X13155000Y-8717500D03*
%TD*%
D11*
%TO.C,L3*%
X15707500Y-9552305D03*
X15707500Y-9764805D03*
%TD*%
D12*
%TO.C,Q1*%
X14733750Y-8200000D03*
X14733750Y-8105000D03*
X14733750Y-8010000D03*
X14506250Y-8010000D03*
X14506250Y-8105000D03*
X14506250Y-8200000D03*
%TD*%
D13*
%TO.C,C12*%
X15180000Y-9315000D03*
X15335000Y-9315000D03*
%TD*%
D14*
%TO.C,R13*%
X15917500Y-8872750D03*
X16082500Y-8872750D03*
%TD*%
D15*
%TO.C,C16*%
X14550000Y-9662500D03*
X14550000Y-9817500D03*
%TD*%
D10*
%TO.C,R14*%
X15360000Y-8435000D03*
X15360000Y-8600000D03*
%TD*%
%TO.C,R9*%
X15005000Y-8107500D03*
X15005000Y-8272500D03*
%TD*%
D16*
%TO.C,C7*%
X16660500Y-8243000D03*
X16660500Y-8147000D03*
%TD*%
D17*
%TO.C,D7*%
X14026000Y-8892500D03*
X14096000Y-8892500D03*
%TD*%
D18*
%TO.C,C11*%
X15042000Y-8407500D03*
X15138000Y-8407500D03*
%TD*%
D19*
%TO.C,C8*%
X16345000Y-8872500D03*
X16535000Y-8872500D03*
%TD*%
D20*
%TO.C,C18*%
X13915000Y-9762000D03*
X13915000Y-9858000D03*
%TD*%
D21*
%TO.C,J4*%
X16507500Y-9933000D03*
X16587500Y-9933000D03*
D22*
X16412500Y-10130500D03*
X16682500Y-10130500D03*
%TD*%
D23*
%TO.C,R6*%
X14072500Y-7665000D03*
X13907500Y-7665000D03*
%TD*%
D24*
%TO.C,D4*%
X15160000Y-8579000D03*
X14970000Y-8579000D03*
X15065000Y-8841000D03*
%TD*%
D25*
%TO.C,C21*%
X13360500Y-9395000D03*
X13264500Y-9395000D03*
%TD*%
D19*
%TO.C,C10*%
X16345000Y-9354262D03*
X16535000Y-9354262D03*
%TD*%
D26*
%TO.C,U4*%
X14007500Y-9595000D03*
D27*
X14025000Y-9645000D03*
X14025000Y-9695000D03*
X14025000Y-9745000D03*
D28*
X14007500Y-9795000D03*
D29*
X14055000Y-9842500D03*
D30*
X14105000Y-9825000D03*
X14155000Y-9825000D03*
X14205000Y-9825000D03*
D31*
X14255000Y-9842500D03*
D32*
X14302500Y-9795000D03*
D27*
X14285000Y-9745000D03*
X14285000Y-9695000D03*
X14285000Y-9645000D03*
D33*
X14302500Y-9595000D03*
D34*
X14255000Y-9547500D03*
D30*
X14205000Y-9565000D03*
X14155000Y-9565000D03*
X14105000Y-9565000D03*
D35*
X14055000Y-9547500D03*
%TD*%
D10*
%TO.C,R19*%
X14375000Y-9203750D03*
X14375000Y-9368750D03*
%TD*%
D20*
%TO.C,C3*%
X14340000Y-8104500D03*
X14340000Y-8200500D03*
%TD*%
D23*
%TO.C,R1*%
X13772500Y-8337500D03*
X13607500Y-8337500D03*
%TD*%
D15*
%TO.C,C19*%
X13777500Y-9787500D03*
X13777500Y-9942500D03*
%TD*%
D10*
%TO.C,R18*%
X14205000Y-9203750D03*
X14205000Y-9368750D03*
%TD*%
D14*
%TO.C,R27*%
X13070000Y-9600000D03*
X13235000Y-9600000D03*
%TD*%
D25*
%TO.C,C1*%
X13795500Y-8477500D03*
X13699500Y-8477500D03*
%TD*%
D20*
%TO.C,C14*%
X13720000Y-9272000D03*
X13720000Y-9368000D03*
%TD*%
D10*
%TO.C,R17*%
X13865000Y-9203750D03*
X13865000Y-9368750D03*
%TD*%
%TO.C,R3*%
X13315000Y-8552500D03*
X13315000Y-8717500D03*
%TD*%
D16*
%TO.C,C4*%
X13792500Y-8198000D03*
X13792500Y-8102000D03*
%TD*%
D23*
%TO.C,R15*%
X16082500Y-9202750D03*
X15917500Y-9202750D03*
%TD*%
D13*
%TO.C,C13*%
X15075000Y-10020000D03*
X15230000Y-10020000D03*
%TD*%
D36*
%TO.C,D8*%
X14276000Y-8892500D03*
X14206000Y-8892500D03*
%TD*%
D37*
%TO.C,D2*%
X14017500Y-8415000D03*
X13947500Y-8415000D03*
%TD*%
D23*
%TO.C,R8*%
X15705000Y-8602500D03*
X15540000Y-8602500D03*
%TD*%
D38*
%TO.C,U3*%
X15501200Y-9626055D03*
X15233800Y-9626055D03*
D39*
X15367500Y-9658555D03*
D38*
X15501200Y-9691055D03*
X15233800Y-9691055D03*
D40*
X15465000Y-9518555D03*
X15400000Y-9518555D03*
X15335000Y-9518555D03*
X15270000Y-9518555D03*
X15270000Y-9798555D03*
X15335000Y-9798555D03*
X15400000Y-9798555D03*
X15465000Y-9798555D03*
%TD*%
D20*
%TO.C,C17*%
X14410000Y-9692000D03*
X14410000Y-9788000D03*
%TD*%
D41*
%TO.C,Q2*%
X15476250Y-8012500D03*
X15476250Y-8107500D03*
X15476250Y-8202500D03*
X15703750Y-8202500D03*
X15703750Y-8107500D03*
X15703750Y-8012500D03*
%TD*%
D23*
%TO.C,R21*%
X15090000Y-9520000D03*
X14925000Y-9520000D03*
%TD*%
D42*
%TO.C,D5*%
X15395000Y-10020000D03*
X15725000Y-10020000D03*
%TD*%
D43*
%TO.C,D1*%
X14737500Y-8417500D03*
X14407500Y-8417500D03*
%TD*%
D10*
%TO.C,R11*%
X16520500Y-8112500D03*
X16520500Y-8277500D03*
%TD*%
D14*
%TO.C,R5*%
X13907500Y-7835000D03*
X14072500Y-7835000D03*
%TD*%
D18*
%TO.C,C22*%
X13064500Y-9395000D03*
X13160500Y-9395000D03*
%TD*%
D21*
%TO.C,J2*%
X12957500Y-9933000D03*
X13037500Y-9933000D03*
D22*
X12862500Y-10130500D03*
X13132500Y-10130500D03*
%TD*%
D10*
%TO.C,R28*%
X14035000Y-9203750D03*
X14035000Y-9368750D03*
%TD*%
D16*
%TO.C,C2*%
X13682500Y-8198000D03*
X13682500Y-8102000D03*
%TD*%
D44*
%TO.C,L2*%
X16702500Y-9036500D03*
X16702500Y-9194000D03*
%TD*%
D10*
%TO.C,F1*%
X16185500Y-8112500D03*
X16185500Y-8277500D03*
%TD*%
D14*
%TO.C,R2*%
X14605000Y-7820000D03*
X14770000Y-7820000D03*
%TD*%
D10*
%TO.C,R25*%
X13605000Y-9782500D03*
X13605000Y-9947500D03*
%TD*%
D45*
%TO.C,C20*%
X13435000Y-9942500D03*
X13435000Y-9787500D03*
%TD*%
D19*
%TO.C,C9*%
X16345000Y-9564262D03*
X16535000Y-9564262D03*
%TD*%
D46*
%TO.C,R12*%
X16080000Y-9525250D03*
X16080000Y-9360250D03*
%TD*%
D47*
%TO.C,U2*%
X16504000Y-9187750D03*
X16504000Y-9137750D03*
X16504000Y-9087750D03*
X16504000Y-9037750D03*
X16356000Y-9037750D03*
X16356000Y-9087750D03*
X16356000Y-9137750D03*
X16356000Y-9187750D03*
%TD*%
D23*
%TO.C,R16*%
X16082500Y-9035000D03*
X15917500Y-9035000D03*
%TD*%
D12*
%TO.C,U1*%
X14173750Y-8200000D03*
X14173750Y-8105000D03*
X14173750Y-8010000D03*
X13946250Y-8010000D03*
X13946250Y-8105000D03*
X13946250Y-8200000D03*
%TD*%
D48*
%TO.C,C6*%
X15700000Y-8432500D03*
X15545000Y-8432500D03*
%TD*%
D36*
%TO.C,D9*%
X14276000Y-8752500D03*
X14206000Y-8752500D03*
%TD*%
D17*
%TO.C,D6*%
X14026000Y-8752500D03*
X14096000Y-8752500D03*
%TD*%
D10*
%TO.C,R7*%
X16355000Y-8112500D03*
X16355000Y-8277500D03*
%TD*%
D20*
%TO.C,C5*%
X15315000Y-8107000D03*
X15315000Y-8203000D03*
%TD*%
D49*
%TO.C,Y1*%
X13337500Y-9215000D03*
X13087500Y-9215000D03*
%TD*%
D14*
%TO.C,R20*%
X14927500Y-9685000D03*
X15092500Y-9685000D03*
%TD*%
M02*
