%TF.GenerationSoftware,KiCad,Pcbnew,9.0.7*%
%TF.CreationDate,2026-09-02T11:28:57-04:00*%
%TF.ProjectId,sleep_mask,736c6565-705f-46d6-9173-6b2e6b696361,rev?*%
%TF.SameCoordinates,Original*%
%TF.FileFunction,Soldermask,Top*%
%TF.FilePolarity,Negative*%
%FSLAX45Y45*%
G04 Gerber Fmt 4.5, Leading zero omitted, Abs format (unit mm)*
G04 Created by KiCad (PCBNEW 9.0.7) date 2026-09-02 11:28:57*
%MOMM*%
%LPD*%
G01*
G04 APERTURE LIST*
G04 APERTURE END LIST*
G36*
X12924796Y-10039957D02*
G01*
X12926743Y-10041257D01*
X12928043Y-10043204D01*
X12928500Y-10045500D01*
X12928500Y-10215500D01*
X12928043Y-10217796D01*
X12926743Y-10219743D01*
X12924796Y-10221043D01*
X12922500Y-10221500D01*
X12802500Y-10221500D01*
X12800204Y-10221043D01*
X12798257Y-10219743D01*
X12796957Y-10217796D01*
X12796500Y-10215500D01*
X12796500Y-10045500D01*
X12796957Y-10043204D01*
X12798257Y-10041257D01*
X12800204Y-10039957D01*
X12802500Y-10039500D01*
X12922500Y-10039500D01*
X12924796Y-10039957D01*
G37*
G36*
X13194796Y-10039957D02*
G01*
X13196743Y-10041257D01*
X13198043Y-10043204D01*
X13198500Y-10045500D01*
X13198500Y-10215500D01*
X13198043Y-10217796D01*
X13196743Y-10219743D01*
X13194796Y-10221043D01*
X13192500Y-10221500D01*
X13072500Y-10221500D01*
X13070204Y-10221043D01*
X13068257Y-10219743D01*
X13066957Y-10217796D01*
X13066500Y-10215500D01*
X13066500Y-10045500D01*
X13066957Y-10043204D01*
X13068257Y-10041257D01*
X13070204Y-10039957D01*
X13072500Y-10039500D01*
X13192500Y-10039500D01*
X13194796Y-10039957D01*
G37*
G36*
X16474796Y-10039957D02*
G01*
X16476743Y-10041257D01*
X16478043Y-10043204D01*
X16478500Y-10045500D01*
X16478500Y-10215500D01*
X16478043Y-10217796D01*
X16476743Y-10219743D01*
X16474796Y-10221043D01*
X16472500Y-10221500D01*
X16352500Y-10221500D01*
X16350204Y-10221043D01*
X16348257Y-10219743D01*
X16346957Y-10217796D01*
X16346500Y-10215500D01*
X16346500Y-10045500D01*
X16346957Y-10043204D01*
X16348257Y-10041257D01*
X16350204Y-10039957D01*
X16352500Y-10039500D01*
X16472500Y-10039500D01*
X16474796Y-10039957D01*
G37*
G36*
X16744796Y-10039957D02*
G01*
X16746743Y-10041257D01*
X16748043Y-10043204D01*
X16748500Y-10045500D01*
X16748500Y-10215500D01*
X16748043Y-10217796D01*
X16746743Y-10219743D01*
X16744796Y-10221043D01*
X16742500Y-10221500D01*
X16622500Y-10221500D01*
X16620204Y-10221043D01*
X16618257Y-10219743D01*
X16616957Y-10217796D01*
X16616500Y-10215500D01*
X16616500Y-10045500D01*
X16616957Y-10043204D01*
X16618257Y-10041257D01*
X16620204Y-10039957D01*
X16622500Y-10039500D01*
X16742500Y-10039500D01*
X16744796Y-10039957D01*
G37*
G36*
X15424025Y-9954757D02*
G01*
X15424438Y-9954939D01*
X15424803Y-9954987D01*
X15429381Y-9957122D01*
X15433606Y-9958988D01*
X15433802Y-9959184D01*
X15433820Y-9959192D01*
X15440808Y-9966180D01*
X15440816Y-9966197D01*
X15441012Y-9966394D01*
X15442879Y-9970621D01*
X15445013Y-9975197D01*
X15445061Y-9975562D01*
X15445243Y-9975975D01*
X15446000Y-9982500D01*
X15446000Y-10057500D01*
X15445243Y-10064025D01*
X15445061Y-10064438D01*
X15445013Y-10064803D01*
X15442880Y-10069377D01*
X15441012Y-10073606D01*
X15440816Y-10073803D01*
X15440808Y-10073820D01*
X15433820Y-10080808D01*
X15433802Y-10080816D01*
X15433606Y-10081012D01*
X15429377Y-10082880D01*
X15424803Y-10085013D01*
X15424438Y-10085061D01*
X15424025Y-10085243D01*
X15417500Y-10086000D01*
X15372500Y-10086000D01*
X15365975Y-10085243D01*
X15365562Y-10085061D01*
X15365196Y-10085013D01*
X15360621Y-10082879D01*
X15356394Y-10081012D01*
X15356197Y-10080816D01*
X15356179Y-10080808D01*
X15349192Y-10073820D01*
X15349184Y-10073802D01*
X15348988Y-10073606D01*
X15347122Y-10069382D01*
X15344987Y-10064803D01*
X15344939Y-10064438D01*
X15344757Y-10064025D01*
X15344000Y-10057500D01*
X15344000Y-9982500D01*
X15344757Y-9975975D01*
X15344939Y-9975562D01*
X15344987Y-9975197D01*
X15347123Y-9970617D01*
X15348988Y-9966394D01*
X15349183Y-9966198D01*
X15349192Y-9966180D01*
X15356179Y-9959192D01*
X15356198Y-9959184D01*
X15356394Y-9958988D01*
X15360616Y-9957123D01*
X15365196Y-9954987D01*
X15365562Y-9954939D01*
X15365975Y-9954757D01*
X15372500Y-9954000D01*
X15417500Y-9954000D01*
X15424025Y-9954757D01*
G37*
G36*
X15754025Y-9954757D02*
G01*
X15754438Y-9954939D01*
X15754803Y-9954987D01*
X15759381Y-9957122D01*
X15763606Y-9958988D01*
X15763802Y-9959184D01*
X15763820Y-9959192D01*
X15770808Y-9966180D01*
X15770816Y-9966197D01*
X15771012Y-9966394D01*
X15772879Y-9970621D01*
X15775013Y-9975197D01*
X15775061Y-9975562D01*
X15775243Y-9975975D01*
X15776000Y-9982500D01*
X15776000Y-10057500D01*
X15775243Y-10064025D01*
X15775061Y-10064438D01*
X15775013Y-10064803D01*
X15772880Y-10069377D01*
X15771012Y-10073606D01*
X15770816Y-10073803D01*
X15770808Y-10073820D01*
X15763820Y-10080808D01*
X15763802Y-10080816D01*
X15763606Y-10081012D01*
X15759377Y-10082880D01*
X15754803Y-10085013D01*
X15754438Y-10085061D01*
X15754025Y-10085243D01*
X15747500Y-10086000D01*
X15702500Y-10086000D01*
X15695975Y-10085243D01*
X15695562Y-10085061D01*
X15695196Y-10085013D01*
X15690621Y-10082879D01*
X15686394Y-10081012D01*
X15686197Y-10080816D01*
X15686179Y-10080808D01*
X15679192Y-10073820D01*
X15679184Y-10073802D01*
X15678988Y-10073606D01*
X15677122Y-10069382D01*
X15674987Y-10064803D01*
X15674939Y-10064438D01*
X15674757Y-10064025D01*
X15674000Y-10057500D01*
X15674000Y-9982500D01*
X15674757Y-9975975D01*
X15674939Y-9975562D01*
X15674987Y-9975197D01*
X15677123Y-9970617D01*
X15678988Y-9966394D01*
X15679183Y-9966198D01*
X15679192Y-9966180D01*
X15686179Y-9959192D01*
X15686198Y-9959184D01*
X15686394Y-9958988D01*
X15690616Y-9957123D01*
X15695196Y-9954987D01*
X15695562Y-9954939D01*
X15695975Y-9954757D01*
X15702500Y-9954000D01*
X15747500Y-9954000D01*
X15754025Y-9954757D01*
G37*
G36*
X15104025Y-9967257D02*
G01*
X15104438Y-9967439D01*
X15104803Y-9967487D01*
X15109381Y-9969622D01*
X15113606Y-9971488D01*
X15113802Y-9971684D01*
X15113820Y-9971692D01*
X15120808Y-9978680D01*
X15120816Y-9978697D01*
X15121012Y-9978894D01*
X15122879Y-9983121D01*
X15125013Y-9987697D01*
X15125061Y-9988062D01*
X15125243Y-9988475D01*
X15126000Y-9995000D01*
X15126000Y-10045000D01*
X15125243Y-10051525D01*
X15125061Y-10051938D01*
X15125013Y-10052303D01*
X15122880Y-10056877D01*
X15121012Y-10061106D01*
X15120816Y-10061303D01*
X15120808Y-10061320D01*
X15113820Y-10068308D01*
X15113802Y-10068316D01*
X15113606Y-10068512D01*
X15109377Y-10070380D01*
X15104803Y-10072513D01*
X15104438Y-10072561D01*
X15104025Y-10072743D01*
X15097500Y-10073500D01*
X15052500Y-10073500D01*
X15045975Y-10072743D01*
X15045562Y-10072561D01*
X15045196Y-10072513D01*
X15040621Y-10070379D01*
X15036394Y-10068512D01*
X15036197Y-10068316D01*
X15036179Y-10068308D01*
X15029192Y-10061320D01*
X15029184Y-10061302D01*
X15028988Y-10061106D01*
X15027122Y-10056882D01*
X15024987Y-10052303D01*
X15024939Y-10051938D01*
X15024757Y-10051525D01*
X15024000Y-10045000D01*
X15024000Y-9995000D01*
X15024757Y-9988475D01*
X15024939Y-9988062D01*
X15024987Y-9987697D01*
X15027123Y-9983117D01*
X15028988Y-9978894D01*
X15029183Y-9978698D01*
X15029192Y-9978680D01*
X15036179Y-9971692D01*
X15036198Y-9971684D01*
X15036394Y-9971488D01*
X15040616Y-9969623D01*
X15045196Y-9967487D01*
X15045562Y-9967439D01*
X15045975Y-9967257D01*
X15052500Y-9966500D01*
X15097500Y-9966500D01*
X15104025Y-9967257D01*
G37*
G36*
X15259025Y-9967257D02*
G01*
X15259438Y-9967439D01*
X15259803Y-9967487D01*
X15264381Y-9969622D01*
X15268606Y-9971488D01*
X15268802Y-9971684D01*
X15268820Y-9971692D01*
X15275808Y-9978680D01*
X15275816Y-9978697D01*
X15276012Y-9978894D01*
X15277879Y-9983121D01*
X15280013Y-9987697D01*
X15280061Y-9988062D01*
X15280243Y-9988475D01*
X15281000Y-9995000D01*
X15281000Y-10045000D01*
X15280243Y-10051525D01*
X15280061Y-10051938D01*
X15280013Y-10052303D01*
X15277880Y-10056877D01*
X15276012Y-10061106D01*
X15275816Y-10061303D01*
X15275808Y-10061320D01*
X15268820Y-10068308D01*
X15268802Y-10068316D01*
X15268606Y-10068512D01*
X15264377Y-10070380D01*
X15259803Y-10072513D01*
X15259438Y-10072561D01*
X15259025Y-10072743D01*
X15252500Y-10073500D01*
X15207500Y-10073500D01*
X15200975Y-10072743D01*
X15200562Y-10072561D01*
X15200196Y-10072513D01*
X15195621Y-10070379D01*
X15191394Y-10068512D01*
X15191197Y-10068316D01*
X15191179Y-10068308D01*
X15184192Y-10061320D01*
X15184184Y-10061302D01*
X15183988Y-10061106D01*
X15182122Y-10056882D01*
X15179987Y-10052303D01*
X15179939Y-10051938D01*
X15179757Y-10051525D01*
X15179000Y-10045000D01*
X15179000Y-9995000D01*
X15179757Y-9988475D01*
X15179939Y-9988062D01*
X15179987Y-9987697D01*
X15182123Y-9983117D01*
X15183988Y-9978894D01*
X15184183Y-9978698D01*
X15184192Y-9978680D01*
X15191179Y-9971692D01*
X15191198Y-9971684D01*
X15191394Y-9971488D01*
X15195616Y-9969623D01*
X15200196Y-9967487D01*
X15200562Y-9967439D01*
X15200975Y-9967257D01*
X15207500Y-9966500D01*
X15252500Y-9966500D01*
X15259025Y-9967257D01*
G37*
G36*
X13466525Y-9892257D02*
G01*
X13466938Y-9892439D01*
X13467303Y-9892487D01*
X13471881Y-9894622D01*
X13476106Y-9896488D01*
X13476302Y-9896684D01*
X13476320Y-9896692D01*
X13483308Y-9903680D01*
X13483316Y-9903697D01*
X13483512Y-9903894D01*
X13485379Y-9908121D01*
X13487513Y-9912697D01*
X13487561Y-9913062D01*
X13487743Y-9913475D01*
X13488500Y-9920000D01*
X13488500Y-9965000D01*
X13487743Y-9971525D01*
X13487561Y-9971938D01*
X13487513Y-9972303D01*
X13485380Y-9976877D01*
X13483512Y-9981106D01*
X13483316Y-9981303D01*
X13483308Y-9981320D01*
X13476320Y-9988308D01*
X13476302Y-9988316D01*
X13476106Y-9988512D01*
X13471877Y-9990380D01*
X13467303Y-9992513D01*
X13466938Y-9992561D01*
X13466525Y-9992743D01*
X13460000Y-9993500D01*
X13410000Y-9993500D01*
X13403475Y-9992743D01*
X13403062Y-9992561D01*
X13402696Y-9992513D01*
X13398121Y-9990379D01*
X13393894Y-9988512D01*
X13393697Y-9988316D01*
X13393679Y-9988308D01*
X13386692Y-9981320D01*
X13386684Y-9981302D01*
X13386488Y-9981106D01*
X13384622Y-9976882D01*
X13382487Y-9972303D01*
X13382439Y-9971938D01*
X13382257Y-9971525D01*
X13381500Y-9965000D01*
X13381500Y-9920000D01*
X13382257Y-9913475D01*
X13382439Y-9913062D01*
X13382487Y-9912697D01*
X13384623Y-9908117D01*
X13386488Y-9903894D01*
X13386683Y-9903698D01*
X13386692Y-9903680D01*
X13393679Y-9896692D01*
X13393698Y-9896684D01*
X13393894Y-9896488D01*
X13398116Y-9894623D01*
X13402696Y-9892487D01*
X13403062Y-9892439D01*
X13403475Y-9892257D01*
X13410000Y-9891500D01*
X13460000Y-9891500D01*
X13466525Y-9892257D01*
G37*
G36*
X13632743Y-9901548D02*
G01*
X13638343Y-9902198D01*
X13640256Y-9903043D01*
X13642450Y-9903479D01*
X13644798Y-9905048D01*
X13647164Y-9906093D01*
X13648780Y-9907709D01*
X13650885Y-9909115D01*
X13652291Y-9911220D01*
X13653907Y-9912836D01*
X13654952Y-9915202D01*
X13656521Y-9917550D01*
X13656957Y-9919744D01*
X13657802Y-9921657D01*
X13658451Y-9927256D01*
X13658500Y-9927500D01*
X13658500Y-9967500D01*
X13658451Y-9967744D01*
X13657802Y-9973343D01*
X13656957Y-9975256D01*
X13656521Y-9977450D01*
X13654951Y-9979799D01*
X13653907Y-9982164D01*
X13652291Y-9983780D01*
X13650885Y-9985885D01*
X13648780Y-9987291D01*
X13647164Y-9988907D01*
X13644799Y-9989951D01*
X13642450Y-9991521D01*
X13640256Y-9991957D01*
X13638343Y-9992802D01*
X13632744Y-9993452D01*
X13632500Y-9993500D01*
X13577500Y-9993500D01*
X13577256Y-9993452D01*
X13571657Y-9992802D01*
X13569744Y-9991957D01*
X13567550Y-9991521D01*
X13565201Y-9989952D01*
X13562836Y-9988907D01*
X13561220Y-9987291D01*
X13559115Y-9985885D01*
X13557709Y-9983780D01*
X13556093Y-9982164D01*
X13555048Y-9979798D01*
X13553479Y-9977450D01*
X13553043Y-9975256D01*
X13552198Y-9973343D01*
X13551548Y-9967743D01*
X13551500Y-9967500D01*
X13551500Y-9927500D01*
X13551548Y-9927258D01*
X13552198Y-9921657D01*
X13553043Y-9919743D01*
X13553479Y-9917550D01*
X13555048Y-9915202D01*
X13556093Y-9912836D01*
X13557709Y-9911219D01*
X13559115Y-9909115D01*
X13561219Y-9907709D01*
X13562836Y-9906093D01*
X13565202Y-9905048D01*
X13567550Y-9903479D01*
X13569743Y-9903043D01*
X13571657Y-9902198D01*
X13577257Y-9901548D01*
X13577500Y-9901500D01*
X13632500Y-9901500D01*
X13632743Y-9901548D01*
G37*
G36*
X13809025Y-9892257D02*
G01*
X13809438Y-9892439D01*
X13809803Y-9892487D01*
X13814381Y-9894622D01*
X13818606Y-9896488D01*
X13818802Y-9896684D01*
X13818820Y-9896692D01*
X13825808Y-9903680D01*
X13825816Y-9903697D01*
X13826012Y-9903894D01*
X13827879Y-9908121D01*
X13830013Y-9912697D01*
X13830061Y-9913062D01*
X13830243Y-9913475D01*
X13831000Y-9920000D01*
X13831000Y-9965000D01*
X13830243Y-9971525D01*
X13830061Y-9971938D01*
X13830013Y-9972303D01*
X13827880Y-9976877D01*
X13826012Y-9981106D01*
X13825816Y-9981303D01*
X13825808Y-9981320D01*
X13818820Y-9988308D01*
X13818802Y-9988316D01*
X13818606Y-9988512D01*
X13814377Y-9990380D01*
X13809803Y-9992513D01*
X13809438Y-9992561D01*
X13809025Y-9992743D01*
X13802500Y-9993500D01*
X13752500Y-9993500D01*
X13745975Y-9992743D01*
X13745562Y-9992561D01*
X13745196Y-9992513D01*
X13740621Y-9990379D01*
X13736394Y-9988512D01*
X13736197Y-9988316D01*
X13736179Y-9988308D01*
X13729192Y-9981320D01*
X13729184Y-9981302D01*
X13728988Y-9981106D01*
X13727122Y-9976882D01*
X13724987Y-9972303D01*
X13724939Y-9971938D01*
X13724757Y-9971525D01*
X13724000Y-9965000D01*
X13724000Y-9920000D01*
X13724757Y-9913475D01*
X13724939Y-9913062D01*
X13724987Y-9912697D01*
X13727123Y-9908117D01*
X13728988Y-9903894D01*
X13729183Y-9903698D01*
X13729192Y-9903680D01*
X13736179Y-9896692D01*
X13736198Y-9896684D01*
X13736394Y-9896488D01*
X13740616Y-9894623D01*
X13745196Y-9892487D01*
X13745562Y-9892439D01*
X13745975Y-9892257D01*
X13752500Y-9891500D01*
X13802500Y-9891500D01*
X13809025Y-9892257D01*
G37*
G36*
X12984796Y-9874957D02*
G01*
X12986743Y-9876257D01*
X12988043Y-9878204D01*
X12988500Y-9880500D01*
X12988500Y-9985500D01*
X12988043Y-9987796D01*
X12986743Y-9989743D01*
X12984796Y-9991043D01*
X12982500Y-9991500D01*
X12932500Y-9991500D01*
X12930204Y-9991043D01*
X12928257Y-9989743D01*
X12926957Y-9987796D01*
X12926500Y-9985500D01*
X12926500Y-9880500D01*
X12926957Y-9878204D01*
X12928257Y-9876257D01*
X12930204Y-9874957D01*
X12932500Y-9874500D01*
X12982500Y-9874500D01*
X12984796Y-9874957D01*
G37*
G36*
X13064796Y-9874957D02*
G01*
X13066743Y-9876257D01*
X13068043Y-9878204D01*
X13068500Y-9880500D01*
X13068500Y-9985500D01*
X13068043Y-9987796D01*
X13066743Y-9989743D01*
X13064796Y-9991043D01*
X13062500Y-9991500D01*
X13012500Y-9991500D01*
X13010204Y-9991043D01*
X13008257Y-9989743D01*
X13006957Y-9987796D01*
X13006500Y-9985500D01*
X13006500Y-9880500D01*
X13006957Y-9878204D01*
X13008257Y-9876257D01*
X13010204Y-9874957D01*
X13012500Y-9874500D01*
X13062500Y-9874500D01*
X13064796Y-9874957D01*
G37*
G36*
X16534796Y-9874957D02*
G01*
X16536743Y-9876257D01*
X16538043Y-9878204D01*
X16538500Y-9880500D01*
X16538500Y-9985500D01*
X16538043Y-9987796D01*
X16536743Y-9989743D01*
X16534796Y-9991043D01*
X16532500Y-9991500D01*
X16482500Y-9991500D01*
X16480204Y-9991043D01*
X16478257Y-9989743D01*
X16476957Y-9987796D01*
X16476500Y-9985500D01*
X16476500Y-9880500D01*
X16476957Y-9878204D01*
X16478257Y-9876257D01*
X16480204Y-9874957D01*
X16482500Y-9874500D01*
X16532500Y-9874500D01*
X16534796Y-9874957D01*
G37*
G36*
X16614796Y-9874957D02*
G01*
X16616743Y-9876257D01*
X16618043Y-9878204D01*
X16618500Y-9880500D01*
X16618500Y-9985500D01*
X16618043Y-9987796D01*
X16616743Y-9989743D01*
X16614796Y-9991043D01*
X16612500Y-9991500D01*
X16562500Y-9991500D01*
X16560204Y-9991043D01*
X16558257Y-9989743D01*
X16556957Y-9987796D01*
X16556500Y-9985500D01*
X16556500Y-9880500D01*
X16556957Y-9878204D01*
X16558257Y-9876257D01*
X16560204Y-9874957D01*
X16562500Y-9874500D01*
X16612500Y-9874500D01*
X16614796Y-9874957D01*
G37*
G36*
X13939654Y-9825522D02*
G01*
X13946142Y-9829858D01*
X13950478Y-9836346D01*
X13952000Y-9844000D01*
X13952000Y-9872000D01*
X13950478Y-9879654D01*
X13946142Y-9886142D01*
X13939654Y-9890478D01*
X13932000Y-9892000D01*
X13898000Y-9892000D01*
X13890346Y-9890478D01*
X13883858Y-9886142D01*
X13879522Y-9879654D01*
X13878000Y-9872000D01*
X13878000Y-9844000D01*
X13879522Y-9836346D01*
X13883858Y-9829858D01*
X13890346Y-9825522D01*
X13898000Y-9824000D01*
X13932000Y-9824000D01*
X13939654Y-9825522D01*
G37*
G36*
X14581525Y-9767257D02*
G01*
X14581938Y-9767439D01*
X14582303Y-9767487D01*
X14586881Y-9769622D01*
X14591106Y-9771488D01*
X14591302Y-9771684D01*
X14591320Y-9771692D01*
X14598308Y-9778680D01*
X14598316Y-9778697D01*
X14598512Y-9778894D01*
X14600379Y-9783121D01*
X14602513Y-9787697D01*
X14602561Y-9788062D01*
X14602743Y-9788475D01*
X14603500Y-9795000D01*
X14603500Y-9840000D01*
X14602743Y-9846525D01*
X14602561Y-9846938D01*
X14602513Y-9847303D01*
X14600380Y-9851877D01*
X14598512Y-9856106D01*
X14598316Y-9856303D01*
X14598308Y-9856320D01*
X14591320Y-9863308D01*
X14591302Y-9863316D01*
X14591106Y-9863512D01*
X14586877Y-9865380D01*
X14582303Y-9867513D01*
X14581938Y-9867561D01*
X14581525Y-9867743D01*
X14575000Y-9868500D01*
X14525000Y-9868500D01*
X14518475Y-9867743D01*
X14518062Y-9867561D01*
X14517696Y-9867513D01*
X14513121Y-9865379D01*
X14508894Y-9863512D01*
X14508697Y-9863316D01*
X14508679Y-9863308D01*
X14501692Y-9856320D01*
X14501684Y-9856302D01*
X14501488Y-9856106D01*
X14499622Y-9851882D01*
X14497487Y-9847303D01*
X14497439Y-9846938D01*
X14497257Y-9846525D01*
X14496500Y-9840000D01*
X14496500Y-9795000D01*
X14497257Y-9788475D01*
X14497439Y-9788062D01*
X14497487Y-9787697D01*
X14499623Y-9783117D01*
X14501488Y-9778894D01*
X14501683Y-9778698D01*
X14501692Y-9778680D01*
X14508679Y-9771692D01*
X14508698Y-9771684D01*
X14508894Y-9771488D01*
X14513116Y-9769623D01*
X14517696Y-9767487D01*
X14518062Y-9767439D01*
X14518475Y-9767257D01*
X14525000Y-9766500D01*
X14575000Y-9766500D01*
X14581525Y-9767257D01*
G37*
G36*
X14071729Y-9804216D02*
G01*
X14073730Y-9804866D01*
X14073915Y-9805122D01*
X14074596Y-9805404D01*
X14075227Y-9806927D01*
X14076184Y-9808245D01*
X14076439Y-9809854D01*
X14076500Y-9810000D01*
X14076500Y-9860000D01*
X14075784Y-9861729D01*
X14075134Y-9863730D01*
X14074878Y-9863915D01*
X14074596Y-9864596D01*
X14073072Y-9865227D01*
X14071755Y-9866185D01*
X14070146Y-9866439D01*
X14070000Y-9866500D01*
X14069764Y-9866500D01*
X14040475Y-9866500D01*
X14040000Y-9866500D01*
X14038271Y-9865784D01*
X14036270Y-9865134D01*
X14036084Y-9864878D01*
X14035404Y-9864596D01*
X14034773Y-9863073D01*
X14033815Y-9861755D01*
X14033561Y-9860146D01*
X14033500Y-9860000D01*
X14033500Y-9825000D01*
X14034216Y-9823271D01*
X14034983Y-9820911D01*
X14035392Y-9820431D01*
X14035404Y-9820404D01*
X14035487Y-9820321D01*
X14035487Y-9820320D01*
X14050068Y-9805740D01*
X14050068Y-9805740D01*
X14050404Y-9805404D01*
X14052132Y-9804688D01*
X14054344Y-9803561D01*
X14054972Y-9803511D01*
X14055000Y-9803500D01*
X14070000Y-9803500D01*
X14071729Y-9804216D01*
G37*
G36*
X14256729Y-9804216D02*
G01*
X14259089Y-9804983D01*
X14259568Y-9805392D01*
X14259596Y-9805404D01*
X14274596Y-9820404D01*
X14275312Y-9822133D01*
X14276439Y-9824344D01*
X14276488Y-9824972D01*
X14276500Y-9825000D01*
X14276500Y-9860000D01*
X14275784Y-9861729D01*
X14275134Y-9863730D01*
X14274878Y-9863915D01*
X14274596Y-9864596D01*
X14273072Y-9865227D01*
X14271755Y-9866185D01*
X14270146Y-9866439D01*
X14270000Y-9866500D01*
X14269764Y-9866500D01*
X14240475Y-9866500D01*
X14240000Y-9866500D01*
X14238271Y-9865784D01*
X14236270Y-9865134D01*
X14236084Y-9864878D01*
X14235404Y-9864596D01*
X14234773Y-9863073D01*
X14233815Y-9861755D01*
X14233561Y-9860146D01*
X14233500Y-9860000D01*
X14233500Y-9810000D01*
X14234216Y-9808272D01*
X14234866Y-9806270D01*
X14235122Y-9806084D01*
X14235404Y-9805404D01*
X14236927Y-9804773D01*
X14238245Y-9803815D01*
X14239854Y-9803561D01*
X14240000Y-9803500D01*
X14255000Y-9803500D01*
X14256729Y-9804216D01*
G37*
G36*
X14122296Y-9784457D02*
G01*
X14124243Y-9785757D01*
X14125543Y-9787704D01*
X14126000Y-9790000D01*
X14126000Y-9860000D01*
X14125543Y-9862296D01*
X14124243Y-9864243D01*
X14122296Y-9865543D01*
X14120000Y-9866000D01*
X14090000Y-9866000D01*
X14087704Y-9865543D01*
X14085757Y-9864243D01*
X14084457Y-9862296D01*
X14084000Y-9860000D01*
X14084000Y-9790000D01*
X14084457Y-9787704D01*
X14085757Y-9785757D01*
X14087704Y-9784457D01*
X14090000Y-9784000D01*
X14120000Y-9784000D01*
X14122296Y-9784457D01*
G37*
G36*
X14172296Y-9784457D02*
G01*
X14174243Y-9785757D01*
X14175543Y-9787704D01*
X14176000Y-9790000D01*
X14176000Y-9860000D01*
X14175543Y-9862296D01*
X14174243Y-9864243D01*
X14172296Y-9865543D01*
X14170000Y-9866000D01*
X14140000Y-9866000D01*
X14137704Y-9865543D01*
X14135757Y-9864243D01*
X14134457Y-9862296D01*
X14134000Y-9860000D01*
X14134000Y-9790000D01*
X14134457Y-9787704D01*
X14135757Y-9785757D01*
X14137704Y-9784457D01*
X14140000Y-9784000D01*
X14170000Y-9784000D01*
X14172296Y-9784457D01*
G37*
G36*
X14222296Y-9784457D02*
G01*
X14224243Y-9785757D01*
X14225543Y-9787704D01*
X14226000Y-9790000D01*
X14226000Y-9860000D01*
X14225543Y-9862296D01*
X14224243Y-9864243D01*
X14222296Y-9865543D01*
X14220000Y-9866000D01*
X14190000Y-9866000D01*
X14187704Y-9865543D01*
X14185757Y-9864243D01*
X14184457Y-9862296D01*
X14184000Y-9860000D01*
X14184000Y-9790000D01*
X14184457Y-9787704D01*
X14185757Y-9785757D01*
X14187704Y-9784457D01*
X14190000Y-9784000D01*
X14220000Y-9784000D01*
X14222296Y-9784457D01*
G37*
G36*
X13466525Y-9737257D02*
G01*
X13466938Y-9737439D01*
X13467303Y-9737487D01*
X13471881Y-9739622D01*
X13476106Y-9741488D01*
X13476302Y-9741684D01*
X13476320Y-9741692D01*
X13483308Y-9748680D01*
X13483316Y-9748697D01*
X13483512Y-9748894D01*
X13485379Y-9753121D01*
X13487513Y-9757697D01*
X13487561Y-9758062D01*
X13487743Y-9758475D01*
X13488500Y-9765000D01*
X13488500Y-9810000D01*
X13487743Y-9816525D01*
X13487561Y-9816938D01*
X13487513Y-9817303D01*
X13485380Y-9821877D01*
X13483512Y-9826106D01*
X13483316Y-9826303D01*
X13483308Y-9826320D01*
X13476320Y-9833308D01*
X13476302Y-9833316D01*
X13476106Y-9833512D01*
X13471877Y-9835380D01*
X13467303Y-9837513D01*
X13466938Y-9837561D01*
X13466525Y-9837743D01*
X13460000Y-9838500D01*
X13410000Y-9838500D01*
X13403475Y-9837743D01*
X13403062Y-9837561D01*
X13402696Y-9837513D01*
X13398121Y-9835379D01*
X13393894Y-9833512D01*
X13393697Y-9833316D01*
X13393679Y-9833308D01*
X13386692Y-9826320D01*
X13386684Y-9826302D01*
X13386488Y-9826106D01*
X13384622Y-9821882D01*
X13382487Y-9817303D01*
X13382439Y-9816938D01*
X13382257Y-9816525D01*
X13381500Y-9810000D01*
X13381500Y-9765000D01*
X13382257Y-9758475D01*
X13382439Y-9758062D01*
X13382487Y-9757697D01*
X13384623Y-9753117D01*
X13386488Y-9748894D01*
X13386683Y-9748698D01*
X13386692Y-9748680D01*
X13393679Y-9741692D01*
X13393698Y-9741684D01*
X13393894Y-9741488D01*
X13398116Y-9739623D01*
X13402696Y-9737487D01*
X13403062Y-9737439D01*
X13403475Y-9737257D01*
X13410000Y-9736500D01*
X13460000Y-9736500D01*
X13466525Y-9737257D01*
G37*
G36*
X13809025Y-9737257D02*
G01*
X13809438Y-9737439D01*
X13809803Y-9737487D01*
X13814381Y-9739622D01*
X13818606Y-9741488D01*
X13818802Y-9741684D01*
X13818820Y-9741692D01*
X13825808Y-9748680D01*
X13825816Y-9748697D01*
X13826012Y-9748894D01*
X13827879Y-9753121D01*
X13830013Y-9757697D01*
X13830061Y-9758062D01*
X13830243Y-9758475D01*
X13831000Y-9765000D01*
X13831000Y-9810000D01*
X13830243Y-9816525D01*
X13830061Y-9816938D01*
X13830013Y-9817303D01*
X13827880Y-9821877D01*
X13826012Y-9826106D01*
X13825816Y-9826303D01*
X13825808Y-9826320D01*
X13818820Y-9833308D01*
X13818802Y-9833316D01*
X13818606Y-9833512D01*
X13814377Y-9835380D01*
X13809803Y-9837513D01*
X13809438Y-9837561D01*
X13809025Y-9837743D01*
X13802500Y-9838500D01*
X13752500Y-9838500D01*
X13745975Y-9837743D01*
X13745562Y-9837561D01*
X13745196Y-9837513D01*
X13740621Y-9835379D01*
X13736394Y-9833512D01*
X13736197Y-9833316D01*
X13736179Y-9833308D01*
X13729192Y-9826320D01*
X13729184Y-9826302D01*
X13728988Y-9826106D01*
X13727122Y-9821882D01*
X13724987Y-9817303D01*
X13724939Y-9816938D01*
X13724757Y-9816525D01*
X13724000Y-9810000D01*
X13724000Y-9765000D01*
X13724757Y-9758475D01*
X13724939Y-9758062D01*
X13724987Y-9757697D01*
X13727123Y-9753117D01*
X13728988Y-9748894D01*
X13729183Y-9748698D01*
X13729192Y-9748680D01*
X13736179Y-9741692D01*
X13736198Y-9741684D01*
X13736394Y-9741488D01*
X13740616Y-9739623D01*
X13745196Y-9737487D01*
X13745562Y-9737439D01*
X13745975Y-9737257D01*
X13752500Y-9736500D01*
X13802500Y-9736500D01*
X13809025Y-9737257D01*
G37*
G36*
X15285117Y-9762465D02*
G01*
X15288997Y-9765058D01*
X15291590Y-9768938D01*
X15292500Y-9773515D01*
X15292500Y-9823595D01*
X15291590Y-9828172D01*
X15288997Y-9832052D01*
X15285117Y-9834644D01*
X15280540Y-9835555D01*
X15259460Y-9835555D01*
X15254883Y-9834644D01*
X15251003Y-9832052D01*
X15248410Y-9828172D01*
X15247500Y-9823595D01*
X15247500Y-9773515D01*
X15248410Y-9768938D01*
X15251003Y-9765058D01*
X15254883Y-9762465D01*
X15259460Y-9761555D01*
X15280540Y-9761555D01*
X15285117Y-9762465D01*
G37*
G36*
X15350117Y-9762465D02*
G01*
X15353997Y-9765058D01*
X15356590Y-9768938D01*
X15357500Y-9773515D01*
X15357500Y-9823595D01*
X15356590Y-9828172D01*
X15353997Y-9832052D01*
X15350117Y-9834644D01*
X15345540Y-9835555D01*
X15324460Y-9835555D01*
X15319883Y-9834644D01*
X15316003Y-9832052D01*
X15313410Y-9828172D01*
X15312500Y-9823595D01*
X15312500Y-9773515D01*
X15313410Y-9768938D01*
X15316003Y-9765058D01*
X15319883Y-9762465D01*
X15324460Y-9761555D01*
X15345540Y-9761555D01*
X15350117Y-9762465D01*
G37*
G36*
X15415117Y-9762465D02*
G01*
X15418997Y-9765058D01*
X15421590Y-9768938D01*
X15422500Y-9773515D01*
X15422500Y-9823595D01*
X15421590Y-9828172D01*
X15418997Y-9832052D01*
X15415117Y-9834644D01*
X15410540Y-9835555D01*
X15389460Y-9835555D01*
X15384883Y-9834644D01*
X15381003Y-9832052D01*
X15378410Y-9828172D01*
X15377500Y-9823595D01*
X15377500Y-9773515D01*
X15378410Y-9768938D01*
X15381003Y-9765058D01*
X15384883Y-9762465D01*
X15389460Y-9761555D01*
X15410540Y-9761555D01*
X15415117Y-9762465D01*
G37*
G36*
X15480117Y-9762465D02*
G01*
X15483997Y-9765058D01*
X15486590Y-9768938D01*
X15487500Y-9773515D01*
X15487500Y-9823595D01*
X15486590Y-9828172D01*
X15483997Y-9832052D01*
X15480117Y-9834644D01*
X15475540Y-9835555D01*
X15454460Y-9835555D01*
X15449883Y-9834644D01*
X15446003Y-9832052D01*
X15443410Y-9828172D01*
X15442500Y-9823595D01*
X15442500Y-9773515D01*
X15443410Y-9768938D01*
X15446003Y-9765058D01*
X15449883Y-9762465D01*
X15454460Y-9761555D01*
X15475540Y-9761555D01*
X15480117Y-9762465D01*
G37*
G36*
X13632743Y-9736548D02*
G01*
X13638343Y-9737198D01*
X13640256Y-9738043D01*
X13642450Y-9738479D01*
X13644798Y-9740048D01*
X13647164Y-9741093D01*
X13648780Y-9742709D01*
X13650885Y-9744115D01*
X13652291Y-9746220D01*
X13653907Y-9747836D01*
X13654952Y-9750202D01*
X13656521Y-9752550D01*
X13656957Y-9754744D01*
X13657802Y-9756657D01*
X13658451Y-9762256D01*
X13658500Y-9762500D01*
X13658500Y-9802500D01*
X13658451Y-9802744D01*
X13657802Y-9808343D01*
X13656957Y-9810256D01*
X13656521Y-9812450D01*
X13654951Y-9814799D01*
X13653907Y-9817164D01*
X13652291Y-9818780D01*
X13650885Y-9820885D01*
X13648780Y-9822291D01*
X13647164Y-9823907D01*
X13644799Y-9824951D01*
X13642450Y-9826521D01*
X13640256Y-9826957D01*
X13638343Y-9827802D01*
X13632744Y-9828452D01*
X13632500Y-9828500D01*
X13577500Y-9828500D01*
X13577256Y-9828452D01*
X13571657Y-9827802D01*
X13569744Y-9826957D01*
X13567550Y-9826521D01*
X13565201Y-9824952D01*
X13562836Y-9823907D01*
X13561220Y-9822291D01*
X13559115Y-9820885D01*
X13557709Y-9818780D01*
X13556093Y-9817164D01*
X13555048Y-9814798D01*
X13553479Y-9812450D01*
X13553043Y-9810256D01*
X13552198Y-9808343D01*
X13551548Y-9802743D01*
X13551500Y-9802500D01*
X13551500Y-9762500D01*
X13551548Y-9762258D01*
X13552198Y-9756657D01*
X13553043Y-9754743D01*
X13553479Y-9752550D01*
X13555048Y-9750202D01*
X13556093Y-9747836D01*
X13557709Y-9746219D01*
X13559115Y-9744115D01*
X13561219Y-9742709D01*
X13562836Y-9741093D01*
X13565202Y-9740048D01*
X13567550Y-9738479D01*
X13569743Y-9738043D01*
X13571657Y-9737198D01*
X13577257Y-9736548D01*
X13577500Y-9736500D01*
X13632500Y-9736500D01*
X13632743Y-9736548D01*
G37*
G36*
X14434654Y-9755522D02*
G01*
X14441142Y-9759858D01*
X14445478Y-9766346D01*
X14447000Y-9774000D01*
X14447000Y-9802000D01*
X14445478Y-9809654D01*
X14441142Y-9816142D01*
X14434654Y-9820478D01*
X14427000Y-9822000D01*
X14393000Y-9822000D01*
X14385346Y-9820478D01*
X14378858Y-9816142D01*
X14374522Y-9809654D01*
X14373000Y-9802000D01*
X14373000Y-9774000D01*
X14374522Y-9766346D01*
X14378858Y-9759858D01*
X14385346Y-9755522D01*
X14393000Y-9754000D01*
X14427000Y-9754000D01*
X14434654Y-9755522D01*
G37*
G36*
X14041729Y-9774216D02*
G01*
X14043730Y-9774866D01*
X14043915Y-9775122D01*
X14044596Y-9775404D01*
X14045227Y-9776927D01*
X14046184Y-9778245D01*
X14046439Y-9779854D01*
X14046500Y-9780000D01*
X14046500Y-9795000D01*
X14045783Y-9796730D01*
X14045017Y-9799089D01*
X14044608Y-9799568D01*
X14044596Y-9799596D01*
X14029596Y-9814596D01*
X14027866Y-9815313D01*
X14025656Y-9816439D01*
X14025027Y-9816489D01*
X14025000Y-9816500D01*
X14024883Y-9816500D01*
X13990475Y-9816500D01*
X13990000Y-9816500D01*
X13988271Y-9815784D01*
X13986270Y-9815134D01*
X13986084Y-9814878D01*
X13985404Y-9814596D01*
X13984773Y-9813073D01*
X13983815Y-9811755D01*
X13983561Y-9810146D01*
X13983500Y-9810000D01*
X13983500Y-9780000D01*
X13984216Y-9778272D01*
X13984866Y-9776270D01*
X13985122Y-9776084D01*
X13985404Y-9775404D01*
X13986927Y-9774773D01*
X13988245Y-9773815D01*
X13989854Y-9773561D01*
X13990000Y-9773500D01*
X14040000Y-9773500D01*
X14041729Y-9774216D01*
G37*
G36*
X14321729Y-9774216D02*
G01*
X14323730Y-9774866D01*
X14323915Y-9775122D01*
X14324596Y-9775404D01*
X14325227Y-9776927D01*
X14326184Y-9778245D01*
X14326439Y-9779854D01*
X14326500Y-9780000D01*
X14326500Y-9810000D01*
X14325784Y-9811729D01*
X14325134Y-9813730D01*
X14324878Y-9813915D01*
X14324596Y-9814596D01*
X14323072Y-9815227D01*
X14321755Y-9816185D01*
X14320146Y-9816439D01*
X14320000Y-9816500D01*
X14319764Y-9816500D01*
X14285475Y-9816500D01*
X14285000Y-9816500D01*
X14283271Y-9815784D01*
X14280910Y-9815017D01*
X14280431Y-9814608D01*
X14280404Y-9814596D01*
X14265404Y-9799596D01*
X14264688Y-9797868D01*
X14263561Y-9795656D01*
X14263511Y-9795028D01*
X14263500Y-9795000D01*
X14263500Y-9780000D01*
X14264216Y-9778272D01*
X14264866Y-9776270D01*
X14265122Y-9776084D01*
X14265404Y-9775404D01*
X14266927Y-9774773D01*
X14268245Y-9773815D01*
X14269854Y-9773561D01*
X14270000Y-9773500D01*
X14320000Y-9773500D01*
X14321729Y-9774216D01*
G37*
G36*
X15752007Y-9715795D02*
G01*
X15761378Y-9719933D01*
X15768622Y-9727176D01*
X15772760Y-9736548D01*
X15773500Y-9742930D01*
X15773500Y-9786680D01*
X15772760Y-9793062D01*
X15768622Y-9802433D01*
X15761378Y-9809676D01*
X15752007Y-9813814D01*
X15745625Y-9814555D01*
X15669375Y-9814555D01*
X15662993Y-9813814D01*
X15653622Y-9809676D01*
X15646378Y-9802433D01*
X15642240Y-9793062D01*
X15641500Y-9786680D01*
X15641500Y-9742930D01*
X15642240Y-9736548D01*
X15646378Y-9727176D01*
X15653622Y-9719933D01*
X15662993Y-9715795D01*
X15669375Y-9715055D01*
X15745625Y-9715055D01*
X15752007Y-9715795D01*
G37*
G36*
X13939654Y-9729522D02*
G01*
X13946142Y-9733858D01*
X13950478Y-9740346D01*
X13952000Y-9748000D01*
X13952000Y-9776000D01*
X13950478Y-9783654D01*
X13946142Y-9790142D01*
X13939654Y-9794478D01*
X13932000Y-9796000D01*
X13898000Y-9796000D01*
X13890346Y-9794478D01*
X13883858Y-9790142D01*
X13879522Y-9783654D01*
X13878000Y-9776000D01*
X13878000Y-9748000D01*
X13879522Y-9740346D01*
X13883858Y-9733858D01*
X13890346Y-9729522D01*
X13898000Y-9728000D01*
X13932000Y-9728000D01*
X13939654Y-9729522D01*
G37*
G36*
X14062296Y-9724457D02*
G01*
X14064243Y-9725757D01*
X14065543Y-9727704D01*
X14066000Y-9730000D01*
X14066000Y-9760000D01*
X14065543Y-9762296D01*
X14064243Y-9764243D01*
X14062296Y-9765543D01*
X14060000Y-9766000D01*
X13990000Y-9766000D01*
X13987704Y-9765543D01*
X13985757Y-9764243D01*
X13984457Y-9762296D01*
X13984000Y-9760000D01*
X13984000Y-9730000D01*
X13984457Y-9727704D01*
X13985757Y-9725757D01*
X13987704Y-9724457D01*
X13990000Y-9724000D01*
X14060000Y-9724000D01*
X14062296Y-9724457D01*
G37*
G36*
X14322296Y-9724457D02*
G01*
X14324243Y-9725757D01*
X14325543Y-9727704D01*
X14326000Y-9730000D01*
X14326000Y-9760000D01*
X14325543Y-9762296D01*
X14324243Y-9764243D01*
X14322296Y-9765543D01*
X14320000Y-9766000D01*
X14250000Y-9766000D01*
X14247704Y-9765543D01*
X14245757Y-9764243D01*
X14244457Y-9762296D01*
X14244000Y-9760000D01*
X14244000Y-9730000D01*
X14244457Y-9727704D01*
X14245757Y-9725757D01*
X14247704Y-9724457D01*
X14250000Y-9724000D01*
X14320000Y-9724000D01*
X14322296Y-9724457D01*
G37*
G36*
X16103930Y-9653263D02*
G01*
X16116591Y-9660572D01*
X16126928Y-9670909D01*
X16134237Y-9683570D01*
X16138021Y-9697691D01*
X16138021Y-9712310D01*
X16134237Y-9726430D01*
X16126928Y-9739091D01*
X16116591Y-9749428D01*
X16103930Y-9756737D01*
X16089809Y-9760521D01*
X16075190Y-9760521D01*
X16061070Y-9756737D01*
X16048409Y-9749428D01*
X16038072Y-9739091D01*
X16030763Y-9726430D01*
X16026979Y-9712310D01*
X16026979Y-9697691D01*
X16030763Y-9683570D01*
X16038072Y-9670909D01*
X16048409Y-9660572D01*
X16061070Y-9653263D01*
X16075190Y-9649479D01*
X16089809Y-9649479D01*
X16103930Y-9653263D01*
G37*
G36*
X15454530Y-9577476D02*
G01*
X15458456Y-9580099D01*
X15461079Y-9584024D01*
X15462000Y-9588655D01*
X15462000Y-9605797D01*
X15463757Y-9607555D01*
X15532440Y-9607555D01*
X15537055Y-9608473D01*
X15540968Y-9611087D01*
X15543582Y-9614999D01*
X15544500Y-9619615D01*
X15544500Y-9632495D01*
X15543582Y-9637110D01*
X15540968Y-9641022D01*
X15537055Y-9643637D01*
X15532440Y-9644555D01*
X15463757Y-9644555D01*
X15462000Y-9646312D01*
X15462000Y-9670797D01*
X15463757Y-9672555D01*
X15532440Y-9672555D01*
X15537055Y-9673473D01*
X15540968Y-9676087D01*
X15543582Y-9679999D01*
X15544500Y-9684615D01*
X15544500Y-9697495D01*
X15543582Y-9702110D01*
X15540968Y-9706022D01*
X15537055Y-9708637D01*
X15532440Y-9709555D01*
X15463757Y-9709555D01*
X15462000Y-9711312D01*
X15462000Y-9728455D01*
X15461079Y-9733085D01*
X15458456Y-9737011D01*
X15454530Y-9739634D01*
X15449900Y-9740555D01*
X15285100Y-9740555D01*
X15280469Y-9739634D01*
X15276544Y-9737011D01*
X15273921Y-9733085D01*
X15273000Y-9728455D01*
X15273000Y-9711312D01*
X15271243Y-9709555D01*
X15202560Y-9709555D01*
X15197945Y-9708637D01*
X15194032Y-9706022D01*
X15191418Y-9702110D01*
X15190500Y-9697495D01*
X15190500Y-9684615D01*
X15191418Y-9679999D01*
X15194032Y-9676087D01*
X15197945Y-9673473D01*
X15202560Y-9672555D01*
X15271243Y-9672555D01*
X15273000Y-9670797D01*
X15273000Y-9646312D01*
X15271243Y-9644555D01*
X15202560Y-9644555D01*
X15197945Y-9643637D01*
X15194032Y-9641022D01*
X15191418Y-9637110D01*
X15190500Y-9632495D01*
X15190500Y-9619615D01*
X15191418Y-9614999D01*
X15194032Y-9611087D01*
X15197945Y-9608473D01*
X15202560Y-9607555D01*
X15271243Y-9607555D01*
X15273000Y-9605797D01*
X15273000Y-9588950D01*
X15273000Y-9588655D01*
X15273921Y-9584024D01*
X15276544Y-9580099D01*
X15280469Y-9577476D01*
X15285100Y-9576555D01*
X15449900Y-9576555D01*
X15454530Y-9577476D01*
G37*
G36*
X14947743Y-9631548D02*
G01*
X14953343Y-9632198D01*
X14955256Y-9633043D01*
X14957450Y-9633479D01*
X14959798Y-9635048D01*
X14962164Y-9636093D01*
X14963780Y-9637709D01*
X14965885Y-9639115D01*
X14967291Y-9641220D01*
X14968907Y-9642836D01*
X14969952Y-9645202D01*
X14971521Y-9647550D01*
X14971957Y-9649744D01*
X14972802Y-9651657D01*
X14973451Y-9657256D01*
X14973500Y-9657500D01*
X14973500Y-9712500D01*
X14973451Y-9712744D01*
X14972802Y-9718343D01*
X14971957Y-9720256D01*
X14971521Y-9722450D01*
X14969951Y-9724799D01*
X14968907Y-9727164D01*
X14967291Y-9728780D01*
X14965885Y-9730885D01*
X14963780Y-9732291D01*
X14962164Y-9733907D01*
X14959799Y-9734951D01*
X14957450Y-9736521D01*
X14955256Y-9736957D01*
X14953343Y-9737802D01*
X14947744Y-9738452D01*
X14947500Y-9738500D01*
X14907500Y-9738500D01*
X14907256Y-9738452D01*
X14901657Y-9737802D01*
X14899744Y-9736957D01*
X14897550Y-9736521D01*
X14895201Y-9734952D01*
X14892836Y-9733907D01*
X14891220Y-9732291D01*
X14889115Y-9730885D01*
X14887709Y-9728780D01*
X14886093Y-9727164D01*
X14885048Y-9724798D01*
X14883479Y-9722450D01*
X14883043Y-9720256D01*
X14882198Y-9718343D01*
X14881548Y-9712743D01*
X14881500Y-9712500D01*
X14881500Y-9657500D01*
X14881548Y-9657258D01*
X14882198Y-9651657D01*
X14883043Y-9649743D01*
X14883479Y-9647550D01*
X14885048Y-9645202D01*
X14886093Y-9642836D01*
X14887709Y-9641219D01*
X14889115Y-9639115D01*
X14891219Y-9637709D01*
X14892836Y-9636093D01*
X14895202Y-9635048D01*
X14897550Y-9633479D01*
X14899743Y-9633043D01*
X14901657Y-9632198D01*
X14907257Y-9631548D01*
X14907500Y-9631500D01*
X14947500Y-9631500D01*
X14947743Y-9631548D01*
G37*
G36*
X15112743Y-9631548D02*
G01*
X15118343Y-9632198D01*
X15120256Y-9633043D01*
X15122450Y-9633479D01*
X15124798Y-9635048D01*
X15127164Y-9636093D01*
X15128780Y-9637709D01*
X15130885Y-9639115D01*
X15132291Y-9641220D01*
X15133907Y-9642836D01*
X15134952Y-9645202D01*
X15136521Y-9647550D01*
X15136957Y-9649744D01*
X15137802Y-9651657D01*
X15138451Y-9657256D01*
X15138500Y-9657500D01*
X15138500Y-9712500D01*
X15138451Y-9712744D01*
X15137802Y-9718343D01*
X15136957Y-9720256D01*
X15136521Y-9722450D01*
X15134951Y-9724799D01*
X15133907Y-9727164D01*
X15132291Y-9728780D01*
X15130885Y-9730885D01*
X15128780Y-9732291D01*
X15127164Y-9733907D01*
X15124799Y-9734951D01*
X15122450Y-9736521D01*
X15120256Y-9736957D01*
X15118343Y-9737802D01*
X15112744Y-9738452D01*
X15112500Y-9738500D01*
X15072500Y-9738500D01*
X15072256Y-9738452D01*
X15066657Y-9737802D01*
X15064744Y-9736957D01*
X15062550Y-9736521D01*
X15060201Y-9734952D01*
X15057836Y-9733907D01*
X15056220Y-9732291D01*
X15054115Y-9730885D01*
X15052709Y-9728780D01*
X15051093Y-9727164D01*
X15050048Y-9724798D01*
X15048479Y-9722450D01*
X15048043Y-9720256D01*
X15047198Y-9718343D01*
X15046548Y-9712743D01*
X15046500Y-9712500D01*
X15046500Y-9657500D01*
X15046548Y-9657258D01*
X15047198Y-9651657D01*
X15048043Y-9649743D01*
X15048479Y-9647550D01*
X15050048Y-9645202D01*
X15051093Y-9642836D01*
X15052709Y-9641219D01*
X15054115Y-9639115D01*
X15056219Y-9637709D01*
X15057836Y-9636093D01*
X15060202Y-9635048D01*
X15062550Y-9633479D01*
X15064743Y-9633043D01*
X15066657Y-9632198D01*
X15072257Y-9631548D01*
X15072500Y-9631500D01*
X15112500Y-9631500D01*
X15112743Y-9631548D01*
G37*
G36*
X14434654Y-9659522D02*
G01*
X14441142Y-9663858D01*
X14445478Y-9670346D01*
X14447000Y-9678000D01*
X14447000Y-9706000D01*
X14445478Y-9713654D01*
X14441142Y-9720142D01*
X14434654Y-9724478D01*
X14427000Y-9726000D01*
X14393000Y-9726000D01*
X14385346Y-9724478D01*
X14378858Y-9720142D01*
X14374522Y-9713654D01*
X14373000Y-9706000D01*
X14373000Y-9678000D01*
X14374522Y-9670346D01*
X14378858Y-9663858D01*
X14385346Y-9659522D01*
X14393000Y-9658000D01*
X14427000Y-9658000D01*
X14434654Y-9659522D01*
G37*
G36*
X14062296Y-9674457D02*
G01*
X14064243Y-9675757D01*
X14065543Y-9677704D01*
X14066000Y-9680000D01*
X14066000Y-9710000D01*
X14065543Y-9712296D01*
X14064243Y-9714243D01*
X14062296Y-9715543D01*
X14060000Y-9716000D01*
X13990000Y-9716000D01*
X13987704Y-9715543D01*
X13985757Y-9714243D01*
X13984457Y-9712296D01*
X13984000Y-9710000D01*
X13984000Y-9680000D01*
X13984457Y-9677704D01*
X13985757Y-9675757D01*
X13987704Y-9674457D01*
X13990000Y-9674000D01*
X14060000Y-9674000D01*
X14062296Y-9674457D01*
G37*
G36*
X14322296Y-9674457D02*
G01*
X14324243Y-9675757D01*
X14325543Y-9677704D01*
X14326000Y-9680000D01*
X14326000Y-9710000D01*
X14325543Y-9712296D01*
X14324243Y-9714243D01*
X14322296Y-9715543D01*
X14320000Y-9716000D01*
X14250000Y-9716000D01*
X14247704Y-9715543D01*
X14245757Y-9714243D01*
X14244457Y-9712296D01*
X14244000Y-9710000D01*
X14244000Y-9680000D01*
X14244457Y-9677704D01*
X14245757Y-9675757D01*
X14247704Y-9674457D01*
X14250000Y-9674000D01*
X14320000Y-9674000D01*
X14322296Y-9674457D01*
G37*
G36*
X14581525Y-9612257D02*
G01*
X14581938Y-9612439D01*
X14582303Y-9612487D01*
X14586881Y-9614622D01*
X14591106Y-9616488D01*
X14591302Y-9616684D01*
X14591320Y-9616692D01*
X14598308Y-9623680D01*
X14598316Y-9623697D01*
X14598512Y-9623894D01*
X14600379Y-9628121D01*
X14602513Y-9632697D01*
X14602561Y-9633062D01*
X14602743Y-9633475D01*
X14603500Y-9640000D01*
X14603500Y-9685000D01*
X14602743Y-9691525D01*
X14602561Y-9691938D01*
X14602513Y-9692303D01*
X14600380Y-9696877D01*
X14598512Y-9701106D01*
X14598316Y-9701303D01*
X14598308Y-9701320D01*
X14591320Y-9708308D01*
X14591302Y-9708316D01*
X14591106Y-9708512D01*
X14586877Y-9710380D01*
X14582303Y-9712513D01*
X14581938Y-9712561D01*
X14581525Y-9712743D01*
X14575000Y-9713500D01*
X14525000Y-9713500D01*
X14518475Y-9712743D01*
X14518062Y-9712561D01*
X14517696Y-9712513D01*
X14513121Y-9710379D01*
X14508894Y-9708512D01*
X14508697Y-9708316D01*
X14508679Y-9708308D01*
X14501692Y-9701320D01*
X14501684Y-9701302D01*
X14501488Y-9701106D01*
X14499622Y-9696882D01*
X14497487Y-9692303D01*
X14497439Y-9691938D01*
X14497257Y-9691525D01*
X14496500Y-9685000D01*
X14496500Y-9640000D01*
X14497257Y-9633475D01*
X14497439Y-9633062D01*
X14497487Y-9632697D01*
X14499623Y-9628117D01*
X14501488Y-9623894D01*
X14501683Y-9623698D01*
X14501692Y-9623680D01*
X14508679Y-9616692D01*
X14508698Y-9616684D01*
X14508894Y-9616488D01*
X14513116Y-9614623D01*
X14517696Y-9612487D01*
X14518062Y-9612439D01*
X14518475Y-9612257D01*
X14525000Y-9611500D01*
X14575000Y-9611500D01*
X14581525Y-9612257D01*
G37*
G36*
X14062296Y-9624457D02*
G01*
X14064243Y-9625757D01*
X14065543Y-9627704D01*
X14066000Y-9630000D01*
X14066000Y-9660000D01*
X14065543Y-9662296D01*
X14064243Y-9664243D01*
X14062296Y-9665543D01*
X14060000Y-9666000D01*
X13990000Y-9666000D01*
X13987704Y-9665543D01*
X13985757Y-9664243D01*
X13984457Y-9662296D01*
X13984000Y-9660000D01*
X13984000Y-9630000D01*
X13984457Y-9627704D01*
X13985757Y-9625757D01*
X13987704Y-9624457D01*
X13990000Y-9624000D01*
X14060000Y-9624000D01*
X14062296Y-9624457D01*
G37*
G36*
X14322296Y-9624457D02*
G01*
X14324243Y-9625757D01*
X14325543Y-9627704D01*
X14326000Y-9630000D01*
X14326000Y-9660000D01*
X14325543Y-9662296D01*
X14324243Y-9664243D01*
X14322296Y-9665543D01*
X14320000Y-9666000D01*
X14250000Y-9666000D01*
X14247704Y-9665543D01*
X14245757Y-9664243D01*
X14244457Y-9662296D01*
X14244000Y-9660000D01*
X14244000Y-9630000D01*
X14244457Y-9627704D01*
X14245757Y-9625757D01*
X14247704Y-9624457D01*
X14250000Y-9624000D01*
X14320000Y-9624000D01*
X14322296Y-9624457D01*
G37*
G36*
X13090243Y-9546548D02*
G01*
X13095843Y-9547198D01*
X13097756Y-9548043D01*
X13099950Y-9548479D01*
X13102298Y-9550048D01*
X13104664Y-9551093D01*
X13106280Y-9552709D01*
X13108385Y-9554115D01*
X13109791Y-9556220D01*
X13111407Y-9557836D01*
X13112452Y-9560202D01*
X13114021Y-9562550D01*
X13114457Y-9564744D01*
X13115302Y-9566657D01*
X13115951Y-9572256D01*
X13116000Y-9572500D01*
X13116000Y-9627500D01*
X13115951Y-9627744D01*
X13115302Y-9633343D01*
X13114457Y-9635256D01*
X13114021Y-9637450D01*
X13112451Y-9639799D01*
X13111407Y-9642164D01*
X13109791Y-9643780D01*
X13108385Y-9645885D01*
X13106280Y-9647291D01*
X13104664Y-9648907D01*
X13102299Y-9649951D01*
X13099950Y-9651521D01*
X13097756Y-9651957D01*
X13095843Y-9652802D01*
X13090244Y-9653452D01*
X13090000Y-9653500D01*
X13050000Y-9653500D01*
X13049756Y-9653452D01*
X13044157Y-9652802D01*
X13042244Y-9651957D01*
X13040050Y-9651521D01*
X13037701Y-9649952D01*
X13035336Y-9648907D01*
X13033720Y-9647291D01*
X13031615Y-9645885D01*
X13030209Y-9643780D01*
X13028593Y-9642164D01*
X13027548Y-9639798D01*
X13025979Y-9637450D01*
X13025543Y-9635256D01*
X13024698Y-9633343D01*
X13024048Y-9627743D01*
X13024000Y-9627500D01*
X13024000Y-9572500D01*
X13024048Y-9572258D01*
X13024698Y-9566657D01*
X13025543Y-9564743D01*
X13025979Y-9562550D01*
X13027548Y-9560202D01*
X13028593Y-9557836D01*
X13030209Y-9556219D01*
X13031615Y-9554115D01*
X13033719Y-9552709D01*
X13035336Y-9551093D01*
X13037702Y-9550048D01*
X13040050Y-9548479D01*
X13042243Y-9548043D01*
X13044157Y-9547198D01*
X13049757Y-9546548D01*
X13050000Y-9546500D01*
X13090000Y-9546500D01*
X13090243Y-9546548D01*
G37*
G36*
X13255243Y-9546548D02*
G01*
X13260843Y-9547198D01*
X13262756Y-9548043D01*
X13264950Y-9548479D01*
X13267298Y-9550048D01*
X13269664Y-9551093D01*
X13271280Y-9552709D01*
X13273385Y-9554115D01*
X13274791Y-9556220D01*
X13276407Y-9557836D01*
X13277452Y-9560202D01*
X13279021Y-9562550D01*
X13279457Y-9564744D01*
X13280302Y-9566657D01*
X13280951Y-9572256D01*
X13281000Y-9572500D01*
X13281000Y-9627500D01*
X13280951Y-9627744D01*
X13280302Y-9633343D01*
X13279457Y-9635256D01*
X13279021Y-9637450D01*
X13277451Y-9639799D01*
X13276407Y-9642164D01*
X13274791Y-9643780D01*
X13273385Y-9645885D01*
X13271280Y-9647291D01*
X13269664Y-9648907D01*
X13267299Y-9649951D01*
X13264950Y-9651521D01*
X13262756Y-9651957D01*
X13260843Y-9652802D01*
X13255244Y-9653452D01*
X13255000Y-9653500D01*
X13215000Y-9653500D01*
X13214756Y-9653452D01*
X13209157Y-9652802D01*
X13207244Y-9651957D01*
X13205050Y-9651521D01*
X13202701Y-9649952D01*
X13200336Y-9648907D01*
X13198720Y-9647291D01*
X13196615Y-9645885D01*
X13195209Y-9643780D01*
X13193593Y-9642164D01*
X13192548Y-9639798D01*
X13190979Y-9637450D01*
X13190543Y-9635256D01*
X13189698Y-9633343D01*
X13189048Y-9627743D01*
X13189000Y-9627500D01*
X13189000Y-9572500D01*
X13189048Y-9572258D01*
X13189698Y-9566657D01*
X13190543Y-9564743D01*
X13190979Y-9562550D01*
X13192548Y-9560202D01*
X13193593Y-9557836D01*
X13195209Y-9556219D01*
X13196615Y-9554115D01*
X13198719Y-9552709D01*
X13200336Y-9551093D01*
X13202702Y-9550048D01*
X13205050Y-9548479D01*
X13207243Y-9548043D01*
X13209157Y-9547198D01*
X13214757Y-9546548D01*
X13215000Y-9546500D01*
X13255000Y-9546500D01*
X13255243Y-9546548D01*
G37*
G36*
X16377097Y-9486586D02*
G01*
X16377539Y-9486781D01*
X16377950Y-9486835D01*
X16383101Y-9489237D01*
X16387519Y-9491188D01*
X16387724Y-9491392D01*
X16387754Y-9491407D01*
X16395356Y-9499008D01*
X16395370Y-9499038D01*
X16395575Y-9499243D01*
X16397527Y-9503664D01*
X16399927Y-9508812D01*
X16399981Y-9509223D01*
X16400177Y-9509665D01*
X16401000Y-9516762D01*
X16401000Y-9611762D01*
X16400177Y-9618860D01*
X16399981Y-9619302D01*
X16399927Y-9619713D01*
X16397527Y-9624859D01*
X16395575Y-9629282D01*
X16395370Y-9629487D01*
X16395356Y-9629517D01*
X16387754Y-9637118D01*
X16387724Y-9637132D01*
X16387519Y-9637337D01*
X16383097Y-9639290D01*
X16377950Y-9641690D01*
X16377539Y-9641744D01*
X16377097Y-9641939D01*
X16370000Y-9642762D01*
X16320000Y-9642762D01*
X16312902Y-9641939D01*
X16312461Y-9641744D01*
X16312049Y-9641690D01*
X16306901Y-9639289D01*
X16302481Y-9637337D01*
X16302276Y-9637132D01*
X16302246Y-9637118D01*
X16294644Y-9629517D01*
X16294630Y-9629487D01*
X16294425Y-9629282D01*
X16292474Y-9624863D01*
X16290072Y-9619713D01*
X16290018Y-9619301D01*
X16289823Y-9618860D01*
X16289000Y-9611762D01*
X16289000Y-9516762D01*
X16289823Y-9509665D01*
X16290018Y-9509223D01*
X16290072Y-9508812D01*
X16292475Y-9503660D01*
X16294425Y-9499243D01*
X16294630Y-9499038D01*
X16294644Y-9499008D01*
X16302246Y-9491407D01*
X16302276Y-9491392D01*
X16302481Y-9491188D01*
X16306897Y-9489237D01*
X16312049Y-9486835D01*
X16312461Y-9486781D01*
X16312902Y-9486586D01*
X16320000Y-9485762D01*
X16370000Y-9485762D01*
X16377097Y-9486586D01*
G37*
G36*
X16567097Y-9486586D02*
G01*
X16567539Y-9486781D01*
X16567950Y-9486835D01*
X16573101Y-9489237D01*
X16577519Y-9491188D01*
X16577724Y-9491392D01*
X16577754Y-9491407D01*
X16585356Y-9499008D01*
X16585370Y-9499038D01*
X16585575Y-9499243D01*
X16587527Y-9503664D01*
X16589927Y-9508812D01*
X16589981Y-9509223D01*
X16590177Y-9509665D01*
X16591000Y-9516762D01*
X16591000Y-9611762D01*
X16590177Y-9618860D01*
X16589981Y-9619302D01*
X16589927Y-9619713D01*
X16587527Y-9624859D01*
X16585575Y-9629282D01*
X16585370Y-9629487D01*
X16585356Y-9629517D01*
X16577754Y-9637118D01*
X16577724Y-9637132D01*
X16577519Y-9637337D01*
X16573097Y-9639290D01*
X16567950Y-9641690D01*
X16567539Y-9641744D01*
X16567097Y-9641939D01*
X16560000Y-9642762D01*
X16510000Y-9642762D01*
X16502902Y-9641939D01*
X16502461Y-9641744D01*
X16502049Y-9641690D01*
X16496901Y-9639289D01*
X16492481Y-9637337D01*
X16492276Y-9637132D01*
X16492246Y-9637118D01*
X16484644Y-9629517D01*
X16484630Y-9629487D01*
X16484425Y-9629282D01*
X16482474Y-9624863D01*
X16480072Y-9619713D01*
X16480018Y-9619301D01*
X16479823Y-9618860D01*
X16479000Y-9611762D01*
X16479000Y-9516762D01*
X16479823Y-9509665D01*
X16480018Y-9509223D01*
X16480072Y-9508812D01*
X16482475Y-9503660D01*
X16484425Y-9499243D01*
X16484630Y-9499038D01*
X16484644Y-9499008D01*
X16492246Y-9491407D01*
X16492276Y-9491392D01*
X16492481Y-9491188D01*
X16496897Y-9489237D01*
X16502049Y-9486835D01*
X16502461Y-9486781D01*
X16502902Y-9486586D01*
X16510000Y-9485762D01*
X16560000Y-9485762D01*
X16567097Y-9486586D01*
G37*
G36*
X14026729Y-9574216D02*
G01*
X14029089Y-9574983D01*
X14029568Y-9575392D01*
X14029596Y-9575404D01*
X14044596Y-9590404D01*
X14045312Y-9592133D01*
X14046439Y-9594344D01*
X14046488Y-9594972D01*
X14046500Y-9595000D01*
X14046500Y-9610000D01*
X14045784Y-9611729D01*
X14045134Y-9613730D01*
X14044878Y-9613915D01*
X14044596Y-9614596D01*
X14043072Y-9615227D01*
X14041755Y-9616185D01*
X14040146Y-9616439D01*
X14040000Y-9616500D01*
X14039764Y-9616500D01*
X13990475Y-9616500D01*
X13990000Y-9616500D01*
X13988271Y-9615784D01*
X13986270Y-9615134D01*
X13986084Y-9614878D01*
X13985404Y-9614596D01*
X13984773Y-9613073D01*
X13983815Y-9611755D01*
X13983561Y-9610146D01*
X13983500Y-9610000D01*
X13983500Y-9580000D01*
X13984216Y-9578272D01*
X13984866Y-9576270D01*
X13985122Y-9576084D01*
X13985404Y-9575404D01*
X13986927Y-9574773D01*
X13988245Y-9573815D01*
X13989854Y-9573561D01*
X13990000Y-9573500D01*
X14025000Y-9573500D01*
X14026729Y-9574216D01*
G37*
G36*
X14321729Y-9574216D02*
G01*
X14323730Y-9574866D01*
X14323915Y-9575122D01*
X14324596Y-9575404D01*
X14325227Y-9576927D01*
X14326184Y-9578245D01*
X14326439Y-9579854D01*
X14326500Y-9580000D01*
X14326500Y-9610000D01*
X14325784Y-9611729D01*
X14325134Y-9613730D01*
X14324878Y-9613915D01*
X14324596Y-9614596D01*
X14323072Y-9615227D01*
X14321755Y-9616185D01*
X14320146Y-9616439D01*
X14320000Y-9616500D01*
X14319764Y-9616500D01*
X14270475Y-9616500D01*
X14270000Y-9616500D01*
X14268271Y-9615784D01*
X14266270Y-9615134D01*
X14266084Y-9614878D01*
X14265404Y-9614596D01*
X14264773Y-9613073D01*
X14263815Y-9611755D01*
X14263561Y-9610146D01*
X14263500Y-9610000D01*
X14263500Y-9595000D01*
X14264216Y-9593271D01*
X14264983Y-9590911D01*
X14265392Y-9590431D01*
X14265404Y-9590404D01*
X14265487Y-9590321D01*
X14265487Y-9590320D01*
X14280068Y-9575740D01*
X14280068Y-9575740D01*
X14280404Y-9575404D01*
X14282132Y-9574688D01*
X14284344Y-9573561D01*
X14284972Y-9573511D01*
X14285000Y-9573500D01*
X14320000Y-9573500D01*
X14321729Y-9574216D01*
G37*
G36*
X14122296Y-9524457D02*
G01*
X14124243Y-9525757D01*
X14125543Y-9527704D01*
X14126000Y-9530000D01*
X14126000Y-9600000D01*
X14125543Y-9602296D01*
X14124243Y-9604243D01*
X14122296Y-9605543D01*
X14120000Y-9606000D01*
X14090000Y-9606000D01*
X14087704Y-9605543D01*
X14085757Y-9604243D01*
X14084457Y-9602296D01*
X14084000Y-9600000D01*
X14084000Y-9530000D01*
X14084457Y-9527704D01*
X14085757Y-9525757D01*
X14087704Y-9524457D01*
X14090000Y-9524000D01*
X14120000Y-9524000D01*
X14122296Y-9524457D01*
G37*
G36*
X14172296Y-9524457D02*
G01*
X14174243Y-9525757D01*
X14175543Y-9527704D01*
X14176000Y-9530000D01*
X14176000Y-9600000D01*
X14175543Y-9602296D01*
X14174243Y-9604243D01*
X14172296Y-9605543D01*
X14170000Y-9606000D01*
X14140000Y-9606000D01*
X14137704Y-9605543D01*
X14135757Y-9604243D01*
X14134457Y-9602296D01*
X14134000Y-9600000D01*
X14134000Y-9530000D01*
X14134457Y-9527704D01*
X14135757Y-9525757D01*
X14137704Y-9524457D01*
X14140000Y-9524000D01*
X14170000Y-9524000D01*
X14172296Y-9524457D01*
G37*
G36*
X14222296Y-9524457D02*
G01*
X14224243Y-9525757D01*
X14225543Y-9527704D01*
X14226000Y-9530000D01*
X14226000Y-9600000D01*
X14225543Y-9602296D01*
X14224243Y-9604243D01*
X14222296Y-9605543D01*
X14220000Y-9606000D01*
X14190000Y-9606000D01*
X14187704Y-9605543D01*
X14185757Y-9604243D01*
X14184457Y-9602296D01*
X14184000Y-9600000D01*
X14184000Y-9530000D01*
X14184457Y-9527704D01*
X14185757Y-9525757D01*
X14187704Y-9524457D01*
X14190000Y-9524000D01*
X14220000Y-9524000D01*
X14222296Y-9524457D01*
G37*
G36*
X15752007Y-9503295D02*
G01*
X15761378Y-9507433D01*
X15768622Y-9514676D01*
X15772760Y-9524048D01*
X15773500Y-9530430D01*
X15773500Y-9574180D01*
X15772760Y-9580562D01*
X15768622Y-9589933D01*
X15761378Y-9597176D01*
X15752007Y-9601314D01*
X15745625Y-9602055D01*
X15669375Y-9602055D01*
X15662993Y-9601314D01*
X15653622Y-9597176D01*
X15646378Y-9589933D01*
X15642240Y-9580562D01*
X15641500Y-9574180D01*
X15641500Y-9530430D01*
X15642240Y-9524048D01*
X15646378Y-9514676D01*
X15653622Y-9507433D01*
X15662993Y-9503295D01*
X15669375Y-9502555D01*
X15745625Y-9502555D01*
X15752007Y-9503295D01*
G37*
G36*
X14071729Y-9524216D02*
G01*
X14073730Y-9524866D01*
X14073915Y-9525122D01*
X14074596Y-9525404D01*
X14075227Y-9526927D01*
X14076184Y-9528245D01*
X14076439Y-9529854D01*
X14076500Y-9530000D01*
X14076500Y-9580000D01*
X14075784Y-9581729D01*
X14075134Y-9583730D01*
X14074878Y-9583915D01*
X14074596Y-9584596D01*
X14073072Y-9585227D01*
X14071755Y-9586185D01*
X14070146Y-9586439D01*
X14070000Y-9586500D01*
X14069764Y-9586500D01*
X14055475Y-9586500D01*
X14055000Y-9586500D01*
X14053271Y-9585784D01*
X14050910Y-9585017D01*
X14050431Y-9584608D01*
X14050404Y-9584596D01*
X14035404Y-9569596D01*
X14034688Y-9567868D01*
X14033561Y-9565656D01*
X14033511Y-9565028D01*
X14033500Y-9565000D01*
X14033500Y-9530000D01*
X14034216Y-9528272D01*
X14034866Y-9526270D01*
X14035122Y-9526084D01*
X14035404Y-9525404D01*
X14036927Y-9524773D01*
X14038245Y-9523815D01*
X14039854Y-9523561D01*
X14040000Y-9523500D01*
X14070000Y-9523500D01*
X14071729Y-9524216D01*
G37*
G36*
X14271729Y-9524216D02*
G01*
X14273730Y-9524866D01*
X14273915Y-9525122D01*
X14274596Y-9525404D01*
X14275227Y-9526927D01*
X14276184Y-9528245D01*
X14276439Y-9529854D01*
X14276500Y-9530000D01*
X14276500Y-9565000D01*
X14275783Y-9566730D01*
X14275017Y-9569089D01*
X14274608Y-9569568D01*
X14274596Y-9569596D01*
X14259596Y-9584596D01*
X14257866Y-9585313D01*
X14255656Y-9586439D01*
X14255027Y-9586489D01*
X14255000Y-9586500D01*
X14254883Y-9586500D01*
X14240475Y-9586500D01*
X14240000Y-9586500D01*
X14238271Y-9585784D01*
X14236270Y-9585134D01*
X14236084Y-9584878D01*
X14235404Y-9584596D01*
X14234773Y-9583073D01*
X14233815Y-9581755D01*
X14233561Y-9580146D01*
X14233500Y-9580000D01*
X14233500Y-9530000D01*
X14234216Y-9528272D01*
X14234866Y-9526270D01*
X14235122Y-9526084D01*
X14235404Y-9525404D01*
X14236927Y-9524773D01*
X14238245Y-9523815D01*
X14239854Y-9523561D01*
X14240000Y-9523500D01*
X14270000Y-9523500D01*
X14271729Y-9524216D01*
G37*
G36*
X14945243Y-9466548D02*
G01*
X14950843Y-9467198D01*
X14952756Y-9468043D01*
X14954950Y-9468479D01*
X14957298Y-9470048D01*
X14959664Y-9471093D01*
X14961280Y-9472709D01*
X14963385Y-9474115D01*
X14964791Y-9476220D01*
X14966407Y-9477836D01*
X14967452Y-9480202D01*
X14969021Y-9482550D01*
X14969457Y-9484744D01*
X14970302Y-9486657D01*
X14970951Y-9492256D01*
X14971000Y-9492500D01*
X14971000Y-9547500D01*
X14970951Y-9547744D01*
X14970302Y-9553343D01*
X14969457Y-9555256D01*
X14969021Y-9557450D01*
X14967451Y-9559799D01*
X14966407Y-9562164D01*
X14964791Y-9563780D01*
X14963385Y-9565885D01*
X14961280Y-9567291D01*
X14959664Y-9568907D01*
X14957299Y-9569951D01*
X14954950Y-9571521D01*
X14952756Y-9571957D01*
X14950843Y-9572802D01*
X14945244Y-9573452D01*
X14945000Y-9573500D01*
X14905000Y-9573500D01*
X14904756Y-9573452D01*
X14899157Y-9572802D01*
X14897244Y-9571957D01*
X14895050Y-9571521D01*
X14892701Y-9569952D01*
X14890336Y-9568907D01*
X14888720Y-9567291D01*
X14886615Y-9565885D01*
X14885209Y-9563780D01*
X14883593Y-9562164D01*
X14882548Y-9559798D01*
X14880979Y-9557450D01*
X14880543Y-9555256D01*
X14879698Y-9553343D01*
X14879048Y-9547743D01*
X14879000Y-9547500D01*
X14879000Y-9492500D01*
X14879048Y-9492258D01*
X14879698Y-9486657D01*
X14880543Y-9484743D01*
X14880979Y-9482550D01*
X14882548Y-9480202D01*
X14883593Y-9477836D01*
X14885209Y-9476219D01*
X14886615Y-9474115D01*
X14888719Y-9472709D01*
X14890336Y-9471093D01*
X14892702Y-9470048D01*
X14895050Y-9468479D01*
X14897243Y-9468043D01*
X14899157Y-9467198D01*
X14904757Y-9466548D01*
X14905000Y-9466500D01*
X14945000Y-9466500D01*
X14945243Y-9466548D01*
G37*
G36*
X15110243Y-9466548D02*
G01*
X15115843Y-9467198D01*
X15117756Y-9468043D01*
X15119950Y-9468479D01*
X15122298Y-9470048D01*
X15124664Y-9471093D01*
X15126280Y-9472709D01*
X15128385Y-9474115D01*
X15129791Y-9476220D01*
X15131407Y-9477836D01*
X15132452Y-9480202D01*
X15134021Y-9482550D01*
X15134457Y-9484744D01*
X15135302Y-9486657D01*
X15135951Y-9492256D01*
X15136000Y-9492500D01*
X15136000Y-9547500D01*
X15135951Y-9547744D01*
X15135302Y-9553343D01*
X15134457Y-9555256D01*
X15134021Y-9557450D01*
X15132451Y-9559799D01*
X15131407Y-9562164D01*
X15129791Y-9563780D01*
X15128385Y-9565885D01*
X15126280Y-9567291D01*
X15124664Y-9568907D01*
X15122299Y-9569951D01*
X15119950Y-9571521D01*
X15117756Y-9571957D01*
X15115843Y-9572802D01*
X15110244Y-9573452D01*
X15110000Y-9573500D01*
X15070000Y-9573500D01*
X15069756Y-9573452D01*
X15064157Y-9572802D01*
X15062244Y-9571957D01*
X15060050Y-9571521D01*
X15057701Y-9569952D01*
X15055336Y-9568907D01*
X15053720Y-9567291D01*
X15051615Y-9565885D01*
X15050209Y-9563780D01*
X15048593Y-9562164D01*
X15047548Y-9559798D01*
X15045979Y-9557450D01*
X15045543Y-9555256D01*
X15044698Y-9553343D01*
X15044048Y-9547743D01*
X15044000Y-9547500D01*
X15044000Y-9492500D01*
X15044048Y-9492258D01*
X15044698Y-9486657D01*
X15045543Y-9484743D01*
X15045979Y-9482550D01*
X15047548Y-9480202D01*
X15048593Y-9477836D01*
X15050209Y-9476219D01*
X15051615Y-9474115D01*
X15053719Y-9472709D01*
X15055336Y-9471093D01*
X15057702Y-9470048D01*
X15060050Y-9468479D01*
X15062243Y-9468043D01*
X15064157Y-9467198D01*
X15069757Y-9466548D01*
X15070000Y-9466500D01*
X15110000Y-9466500D01*
X15110243Y-9466548D01*
G37*
G36*
X16107743Y-9479298D02*
G01*
X16113343Y-9479948D01*
X16115256Y-9480793D01*
X16117450Y-9481229D01*
X16119798Y-9482798D01*
X16122164Y-9483843D01*
X16123780Y-9485459D01*
X16125885Y-9486865D01*
X16127291Y-9488970D01*
X16128907Y-9490586D01*
X16129952Y-9492952D01*
X16131521Y-9495300D01*
X16131957Y-9497494D01*
X16132802Y-9499407D01*
X16133451Y-9505006D01*
X16133500Y-9505250D01*
X16133500Y-9545250D01*
X16133451Y-9545494D01*
X16132802Y-9551093D01*
X16131957Y-9553006D01*
X16131521Y-9555200D01*
X16129951Y-9557549D01*
X16128907Y-9559914D01*
X16127291Y-9561530D01*
X16125885Y-9563635D01*
X16123780Y-9565041D01*
X16122164Y-9566657D01*
X16119799Y-9567701D01*
X16117450Y-9569271D01*
X16115256Y-9569707D01*
X16113343Y-9570552D01*
X16107744Y-9571202D01*
X16107500Y-9571250D01*
X16052500Y-9571250D01*
X16052256Y-9571202D01*
X16046657Y-9570552D01*
X16044744Y-9569707D01*
X16042550Y-9569271D01*
X16040201Y-9567702D01*
X16037836Y-9566657D01*
X16036220Y-9565041D01*
X16034115Y-9563635D01*
X16032709Y-9561530D01*
X16031093Y-9559914D01*
X16030048Y-9557548D01*
X16028479Y-9555200D01*
X16028043Y-9553006D01*
X16027198Y-9551093D01*
X16026548Y-9545493D01*
X16026500Y-9545250D01*
X16026500Y-9505250D01*
X16026548Y-9505008D01*
X16027198Y-9499407D01*
X16028043Y-9497493D01*
X16028479Y-9495300D01*
X16030048Y-9492952D01*
X16031093Y-9490586D01*
X16032709Y-9488969D01*
X16034115Y-9486865D01*
X16036219Y-9485459D01*
X16037836Y-9483843D01*
X16040202Y-9482798D01*
X16042550Y-9481229D01*
X16044743Y-9480793D01*
X16046657Y-9479948D01*
X16052257Y-9479298D01*
X16052500Y-9479250D01*
X16107500Y-9479250D01*
X16107743Y-9479298D01*
G37*
G36*
X15285117Y-9482465D02*
G01*
X15288997Y-9485058D01*
X15291590Y-9488938D01*
X15292500Y-9493515D01*
X15292500Y-9543595D01*
X15291590Y-9548172D01*
X15288997Y-9552052D01*
X15285117Y-9554644D01*
X15280540Y-9555555D01*
X15259460Y-9555555D01*
X15254883Y-9554644D01*
X15251003Y-9552052D01*
X15248410Y-9548172D01*
X15247500Y-9543595D01*
X15247500Y-9493515D01*
X15248410Y-9488938D01*
X15251003Y-9485058D01*
X15254883Y-9482465D01*
X15259460Y-9481555D01*
X15280540Y-9481555D01*
X15285117Y-9482465D01*
G37*
G36*
X15350117Y-9482465D02*
G01*
X15353997Y-9485058D01*
X15356590Y-9488938D01*
X15357500Y-9493515D01*
X15357500Y-9543595D01*
X15356590Y-9548172D01*
X15353997Y-9552052D01*
X15350117Y-9554644D01*
X15345540Y-9555555D01*
X15324460Y-9555555D01*
X15319883Y-9554644D01*
X15316003Y-9552052D01*
X15313410Y-9548172D01*
X15312500Y-9543595D01*
X15312500Y-9493515D01*
X15313410Y-9488938D01*
X15316003Y-9485058D01*
X15319883Y-9482465D01*
X15324460Y-9481555D01*
X15345540Y-9481555D01*
X15350117Y-9482465D01*
G37*
G36*
X15415117Y-9482465D02*
G01*
X15418997Y-9485058D01*
X15421590Y-9488938D01*
X15422500Y-9493515D01*
X15422500Y-9543595D01*
X15421590Y-9548172D01*
X15418997Y-9552052D01*
X15415117Y-9554644D01*
X15410540Y-9555555D01*
X15389460Y-9555555D01*
X15384883Y-9554644D01*
X15381003Y-9552052D01*
X15378410Y-9548172D01*
X15377500Y-9543595D01*
X15377500Y-9493515D01*
X15378410Y-9488938D01*
X15381003Y-9485058D01*
X15384883Y-9482465D01*
X15389460Y-9481555D01*
X15410540Y-9481555D01*
X15415117Y-9482465D01*
G37*
G36*
X15480117Y-9482465D02*
G01*
X15483997Y-9485058D01*
X15486590Y-9488938D01*
X15487500Y-9493515D01*
X15487500Y-9543595D01*
X15486590Y-9548172D01*
X15483997Y-9552052D01*
X15480117Y-9554644D01*
X15475540Y-9555555D01*
X15454460Y-9555555D01*
X15449883Y-9554644D01*
X15446003Y-9552052D01*
X15443410Y-9548172D01*
X15442500Y-9543595D01*
X15442500Y-9493515D01*
X15443410Y-9488938D01*
X15446003Y-9485058D01*
X15449883Y-9482465D01*
X15454460Y-9481555D01*
X15475540Y-9481555D01*
X15480117Y-9482465D01*
G37*
G36*
X16377097Y-9276586D02*
G01*
X16377539Y-9276781D01*
X16377950Y-9276835D01*
X16383101Y-9279237D01*
X16387519Y-9281188D01*
X16387724Y-9281392D01*
X16387754Y-9281407D01*
X16395356Y-9289008D01*
X16395370Y-9289038D01*
X16395575Y-9289243D01*
X16397527Y-9293664D01*
X16399927Y-9298812D01*
X16399981Y-9299223D01*
X16400177Y-9299665D01*
X16401000Y-9306762D01*
X16401000Y-9401762D01*
X16400177Y-9408860D01*
X16399981Y-9409302D01*
X16399927Y-9409713D01*
X16397527Y-9414859D01*
X16395575Y-9419282D01*
X16395370Y-9419487D01*
X16395356Y-9419517D01*
X16387754Y-9427118D01*
X16387724Y-9427132D01*
X16387519Y-9427337D01*
X16383097Y-9429290D01*
X16377950Y-9431690D01*
X16377539Y-9431744D01*
X16377097Y-9431939D01*
X16370000Y-9432762D01*
X16320000Y-9432762D01*
X16312902Y-9431939D01*
X16312461Y-9431744D01*
X16312049Y-9431690D01*
X16306901Y-9429289D01*
X16302481Y-9427337D01*
X16302276Y-9427132D01*
X16302246Y-9427118D01*
X16294644Y-9419517D01*
X16294630Y-9419487D01*
X16294425Y-9419282D01*
X16292474Y-9414863D01*
X16290072Y-9409713D01*
X16290018Y-9409301D01*
X16289823Y-9408860D01*
X16289000Y-9401762D01*
X16289000Y-9306762D01*
X16289823Y-9299665D01*
X16290018Y-9299223D01*
X16290072Y-9298812D01*
X16292475Y-9293660D01*
X16294425Y-9289243D01*
X16294630Y-9289038D01*
X16294644Y-9289008D01*
X16302246Y-9281407D01*
X16302276Y-9281392D01*
X16302481Y-9281188D01*
X16306897Y-9279237D01*
X16312049Y-9276835D01*
X16312461Y-9276781D01*
X16312902Y-9276586D01*
X16320000Y-9275762D01*
X16370000Y-9275762D01*
X16377097Y-9276586D01*
G37*
G36*
X16567097Y-9276586D02*
G01*
X16567539Y-9276781D01*
X16567950Y-9276835D01*
X16573101Y-9279237D01*
X16577519Y-9281188D01*
X16577724Y-9281392D01*
X16577754Y-9281407D01*
X16585356Y-9289008D01*
X16585370Y-9289038D01*
X16585575Y-9289243D01*
X16587527Y-9293664D01*
X16589927Y-9298812D01*
X16589981Y-9299223D01*
X16590177Y-9299665D01*
X16591000Y-9306762D01*
X16591000Y-9401762D01*
X16590177Y-9408860D01*
X16589981Y-9409302D01*
X16589927Y-9409713D01*
X16587527Y-9414859D01*
X16585575Y-9419282D01*
X16585370Y-9419487D01*
X16585356Y-9419517D01*
X16577754Y-9427118D01*
X16577724Y-9427132D01*
X16577519Y-9427337D01*
X16573097Y-9429290D01*
X16567950Y-9431690D01*
X16567539Y-9431744D01*
X16567097Y-9431939D01*
X16560000Y-9432762D01*
X16510000Y-9432762D01*
X16502902Y-9431939D01*
X16502461Y-9431744D01*
X16502049Y-9431690D01*
X16496901Y-9429289D01*
X16492481Y-9427337D01*
X16492276Y-9427132D01*
X16492246Y-9427118D01*
X16484644Y-9419517D01*
X16484630Y-9419487D01*
X16484425Y-9419282D01*
X16482474Y-9414863D01*
X16480072Y-9409713D01*
X16480018Y-9409301D01*
X16479823Y-9408860D01*
X16479000Y-9401762D01*
X16479000Y-9306762D01*
X16479823Y-9299665D01*
X16480018Y-9299223D01*
X16480072Y-9298812D01*
X16482475Y-9293660D01*
X16484425Y-9289243D01*
X16484630Y-9289038D01*
X16484644Y-9289008D01*
X16492246Y-9281407D01*
X16492276Y-9281392D01*
X16492481Y-9281188D01*
X16496897Y-9279237D01*
X16502049Y-9276835D01*
X16502461Y-9276781D01*
X16502902Y-9276586D01*
X16510000Y-9275762D01*
X16560000Y-9275762D01*
X16567097Y-9276586D01*
G37*
G36*
X13086154Y-9359522D02*
G01*
X13092642Y-9363858D01*
X13096978Y-9370346D01*
X13098500Y-9378000D01*
X13098500Y-9412000D01*
X13096978Y-9419654D01*
X13092642Y-9426142D01*
X13086154Y-9430478D01*
X13078500Y-9432000D01*
X13050500Y-9432000D01*
X13042846Y-9430478D01*
X13036358Y-9426142D01*
X13032022Y-9419654D01*
X13030500Y-9412000D01*
X13030500Y-9378000D01*
X13032022Y-9370346D01*
X13036358Y-9363858D01*
X13042846Y-9359522D01*
X13050500Y-9358000D01*
X13078500Y-9358000D01*
X13086154Y-9359522D01*
G37*
G36*
X13182154Y-9359522D02*
G01*
X13188642Y-9363858D01*
X13192978Y-9370346D01*
X13194500Y-9378000D01*
X13194500Y-9412000D01*
X13192978Y-9419654D01*
X13188642Y-9426142D01*
X13182154Y-9430478D01*
X13174500Y-9432000D01*
X13146500Y-9432000D01*
X13138846Y-9430478D01*
X13132358Y-9426142D01*
X13128022Y-9419654D01*
X13126500Y-9412000D01*
X13126500Y-9378000D01*
X13128022Y-9370346D01*
X13132358Y-9363858D01*
X13138846Y-9359522D01*
X13146500Y-9358000D01*
X13174500Y-9358000D01*
X13182154Y-9359522D01*
G37*
G36*
X13286154Y-9359522D02*
G01*
X13292642Y-9363858D01*
X13296978Y-9370346D01*
X13298500Y-9378000D01*
X13298500Y-9412000D01*
X13296978Y-9419654D01*
X13292642Y-9426142D01*
X13286154Y-9430478D01*
X13278500Y-9432000D01*
X13250500Y-9432000D01*
X13242846Y-9430478D01*
X13236358Y-9426142D01*
X13232022Y-9419654D01*
X13230500Y-9412000D01*
X13230500Y-9378000D01*
X13232022Y-9370346D01*
X13236358Y-9363858D01*
X13242846Y-9359522D01*
X13250500Y-9358000D01*
X13278500Y-9358000D01*
X13286154Y-9359522D01*
G37*
G36*
X13382154Y-9359522D02*
G01*
X13388642Y-9363858D01*
X13392978Y-9370346D01*
X13394500Y-9378000D01*
X13394500Y-9412000D01*
X13392978Y-9419654D01*
X13388642Y-9426142D01*
X13382154Y-9430478D01*
X13374500Y-9432000D01*
X13346500Y-9432000D01*
X13338846Y-9430478D01*
X13332358Y-9426142D01*
X13328022Y-9419654D01*
X13326500Y-9412000D01*
X13326500Y-9378000D01*
X13328022Y-9370346D01*
X13332358Y-9363858D01*
X13338846Y-9359522D01*
X13346500Y-9358000D01*
X13374500Y-9358000D01*
X13382154Y-9359522D01*
G37*
G36*
X13892743Y-9322798D02*
G01*
X13898343Y-9323448D01*
X13900256Y-9324293D01*
X13902450Y-9324729D01*
X13904798Y-9326298D01*
X13907164Y-9327343D01*
X13908780Y-9328959D01*
X13910885Y-9330365D01*
X13912291Y-9332470D01*
X13913907Y-9334086D01*
X13914952Y-9336452D01*
X13916521Y-9338800D01*
X13916957Y-9340994D01*
X13917802Y-9342907D01*
X13918451Y-9348506D01*
X13918500Y-9348750D01*
X13918500Y-9388750D01*
X13918451Y-9388994D01*
X13917802Y-9394593D01*
X13916957Y-9396506D01*
X13916521Y-9398700D01*
X13914951Y-9401049D01*
X13913907Y-9403414D01*
X13912291Y-9405030D01*
X13910885Y-9407135D01*
X13908780Y-9408541D01*
X13907164Y-9410157D01*
X13904799Y-9411201D01*
X13902450Y-9412771D01*
X13900256Y-9413207D01*
X13898343Y-9414052D01*
X13892744Y-9414702D01*
X13892500Y-9414750D01*
X13837500Y-9414750D01*
X13837256Y-9414702D01*
X13831657Y-9414052D01*
X13829744Y-9413207D01*
X13827550Y-9412771D01*
X13825201Y-9411202D01*
X13822836Y-9410157D01*
X13821220Y-9408541D01*
X13819115Y-9407135D01*
X13817709Y-9405030D01*
X13816093Y-9403414D01*
X13815048Y-9401048D01*
X13813479Y-9398700D01*
X13813043Y-9396506D01*
X13812198Y-9394593D01*
X13811548Y-9388993D01*
X13811500Y-9388750D01*
X13811500Y-9348750D01*
X13811548Y-9348508D01*
X13812198Y-9342907D01*
X13813043Y-9340993D01*
X13813479Y-9338800D01*
X13815048Y-9336452D01*
X13816093Y-9334086D01*
X13817709Y-9332469D01*
X13819115Y-9330365D01*
X13821219Y-9328959D01*
X13822836Y-9327343D01*
X13825202Y-9326298D01*
X13827550Y-9324729D01*
X13829743Y-9324293D01*
X13831657Y-9323448D01*
X13837257Y-9322798D01*
X13837500Y-9322750D01*
X13892500Y-9322750D01*
X13892743Y-9322798D01*
G37*
G36*
X14062743Y-9322798D02*
G01*
X14068343Y-9323448D01*
X14070256Y-9324293D01*
X14072450Y-9324729D01*
X14074798Y-9326298D01*
X14077164Y-9327343D01*
X14078780Y-9328959D01*
X14080885Y-9330365D01*
X14082291Y-9332470D01*
X14083907Y-9334086D01*
X14084952Y-9336452D01*
X14086521Y-9338800D01*
X14086957Y-9340994D01*
X14087802Y-9342907D01*
X14088451Y-9348506D01*
X14088500Y-9348750D01*
X14088500Y-9388750D01*
X14088451Y-9388994D01*
X14087802Y-9394593D01*
X14086957Y-9396506D01*
X14086521Y-9398700D01*
X14084951Y-9401049D01*
X14083907Y-9403414D01*
X14082291Y-9405030D01*
X14080885Y-9407135D01*
X14078780Y-9408541D01*
X14077164Y-9410157D01*
X14074799Y-9411201D01*
X14072450Y-9412771D01*
X14070256Y-9413207D01*
X14068343Y-9414052D01*
X14062744Y-9414702D01*
X14062500Y-9414750D01*
X14007500Y-9414750D01*
X14007256Y-9414702D01*
X14001657Y-9414052D01*
X13999744Y-9413207D01*
X13997550Y-9412771D01*
X13995201Y-9411202D01*
X13992836Y-9410157D01*
X13991220Y-9408541D01*
X13989115Y-9407135D01*
X13987709Y-9405030D01*
X13986093Y-9403414D01*
X13985048Y-9401048D01*
X13983479Y-9398700D01*
X13983043Y-9396506D01*
X13982198Y-9394593D01*
X13981548Y-9388993D01*
X13981500Y-9388750D01*
X13981500Y-9348750D01*
X13981548Y-9348508D01*
X13982198Y-9342907D01*
X13983043Y-9340993D01*
X13983479Y-9338800D01*
X13985048Y-9336452D01*
X13986093Y-9334086D01*
X13987709Y-9332469D01*
X13989115Y-9330365D01*
X13991219Y-9328959D01*
X13992836Y-9327343D01*
X13995202Y-9326298D01*
X13997550Y-9324729D01*
X13999743Y-9324293D01*
X14001657Y-9323448D01*
X14007257Y-9322798D01*
X14007500Y-9322750D01*
X14062500Y-9322750D01*
X14062743Y-9322798D01*
G37*
G36*
X14232743Y-9322798D02*
G01*
X14238343Y-9323448D01*
X14240256Y-9324293D01*
X14242450Y-9324729D01*
X14244798Y-9326298D01*
X14247164Y-9327343D01*
X14248780Y-9328959D01*
X14250885Y-9330365D01*
X14252291Y-9332470D01*
X14253907Y-9334086D01*
X14254952Y-9336452D01*
X14256521Y-9338800D01*
X14256957Y-9340994D01*
X14257802Y-9342907D01*
X14258451Y-9348506D01*
X14258500Y-9348750D01*
X14258500Y-9388750D01*
X14258451Y-9388994D01*
X14257802Y-9394593D01*
X14256957Y-9396506D01*
X14256521Y-9398700D01*
X14254951Y-9401049D01*
X14253907Y-9403414D01*
X14252291Y-9405030D01*
X14250885Y-9407135D01*
X14248780Y-9408541D01*
X14247164Y-9410157D01*
X14244799Y-9411201D01*
X14242450Y-9412771D01*
X14240256Y-9413207D01*
X14238343Y-9414052D01*
X14232744Y-9414702D01*
X14232500Y-9414750D01*
X14177500Y-9414750D01*
X14177256Y-9414702D01*
X14171657Y-9414052D01*
X14169744Y-9413207D01*
X14167550Y-9412771D01*
X14165201Y-9411202D01*
X14162836Y-9410157D01*
X14161220Y-9408541D01*
X14159115Y-9407135D01*
X14157709Y-9405030D01*
X14156093Y-9403414D01*
X14155048Y-9401048D01*
X14153479Y-9398700D01*
X14153043Y-9396506D01*
X14152198Y-9394593D01*
X14151548Y-9388993D01*
X14151500Y-9388750D01*
X14151500Y-9348750D01*
X14151548Y-9348508D01*
X14152198Y-9342907D01*
X14153043Y-9340993D01*
X14153479Y-9338800D01*
X14155048Y-9336452D01*
X14156093Y-9334086D01*
X14157709Y-9332469D01*
X14159115Y-9330365D01*
X14161219Y-9328959D01*
X14162836Y-9327343D01*
X14165202Y-9326298D01*
X14167550Y-9324729D01*
X14169743Y-9324293D01*
X14171657Y-9323448D01*
X14177257Y-9322798D01*
X14177500Y-9322750D01*
X14232500Y-9322750D01*
X14232743Y-9322798D01*
G37*
G36*
X14402743Y-9322798D02*
G01*
X14408343Y-9323448D01*
X14410256Y-9324293D01*
X14412450Y-9324729D01*
X14414798Y-9326298D01*
X14417164Y-9327343D01*
X14418780Y-9328959D01*
X14420885Y-9330365D01*
X14422291Y-9332470D01*
X14423907Y-9334086D01*
X14424952Y-9336452D01*
X14426521Y-9338800D01*
X14426957Y-9340994D01*
X14427802Y-9342907D01*
X14428451Y-9348506D01*
X14428500Y-9348750D01*
X14428500Y-9388750D01*
X14428451Y-9388994D01*
X14427802Y-9394593D01*
X14426957Y-9396506D01*
X14426521Y-9398700D01*
X14424951Y-9401049D01*
X14423907Y-9403414D01*
X14422291Y-9405030D01*
X14420885Y-9407135D01*
X14418780Y-9408541D01*
X14417164Y-9410157D01*
X14414799Y-9411201D01*
X14412450Y-9412771D01*
X14410256Y-9413207D01*
X14408343Y-9414052D01*
X14402744Y-9414702D01*
X14402500Y-9414750D01*
X14347500Y-9414750D01*
X14347256Y-9414702D01*
X14341657Y-9414052D01*
X14339744Y-9413207D01*
X14337550Y-9412771D01*
X14335201Y-9411202D01*
X14332836Y-9410157D01*
X14331220Y-9408541D01*
X14329115Y-9407135D01*
X14327709Y-9405030D01*
X14326093Y-9403414D01*
X14325048Y-9401048D01*
X14323479Y-9398700D01*
X14323043Y-9396506D01*
X14322198Y-9394593D01*
X14321548Y-9388993D01*
X14321500Y-9388750D01*
X14321500Y-9348750D01*
X14321548Y-9348508D01*
X14322198Y-9342907D01*
X14323043Y-9340993D01*
X14323479Y-9338800D01*
X14325048Y-9336452D01*
X14326093Y-9334086D01*
X14327709Y-9332469D01*
X14329115Y-9330365D01*
X14331219Y-9328959D01*
X14332836Y-9327343D01*
X14335202Y-9326298D01*
X14337550Y-9324729D01*
X14339743Y-9324293D01*
X14341657Y-9323448D01*
X14347257Y-9322798D01*
X14347500Y-9322750D01*
X14402500Y-9322750D01*
X14402743Y-9322798D01*
G37*
G36*
X16107743Y-9314298D02*
G01*
X16113343Y-9314948D01*
X16115256Y-9315793D01*
X16117450Y-9316229D01*
X16119798Y-9317798D01*
X16122164Y-9318843D01*
X16123780Y-9320459D01*
X16125885Y-9321865D01*
X16127291Y-9323970D01*
X16128907Y-9325586D01*
X16129952Y-9327952D01*
X16131521Y-9330300D01*
X16131957Y-9332494D01*
X16132802Y-9334407D01*
X16133451Y-9340006D01*
X16133500Y-9340250D01*
X16133500Y-9380250D01*
X16133451Y-9380494D01*
X16132802Y-9386093D01*
X16131957Y-9388006D01*
X16131521Y-9390200D01*
X16129951Y-9392549D01*
X16128907Y-9394914D01*
X16127291Y-9396530D01*
X16125885Y-9398635D01*
X16123780Y-9400041D01*
X16122164Y-9401657D01*
X16119799Y-9402701D01*
X16117450Y-9404271D01*
X16115256Y-9404707D01*
X16113343Y-9405552D01*
X16107744Y-9406202D01*
X16107500Y-9406250D01*
X16052500Y-9406250D01*
X16052256Y-9406202D01*
X16046657Y-9405552D01*
X16044744Y-9404707D01*
X16042550Y-9404271D01*
X16040201Y-9402702D01*
X16037836Y-9401657D01*
X16036220Y-9400041D01*
X16034115Y-9398635D01*
X16032709Y-9396530D01*
X16031093Y-9394914D01*
X16030048Y-9392548D01*
X16028479Y-9390200D01*
X16028043Y-9388006D01*
X16027198Y-9386093D01*
X16026548Y-9380493D01*
X16026500Y-9380250D01*
X16026500Y-9340250D01*
X16026548Y-9340008D01*
X16027198Y-9334407D01*
X16028043Y-9332493D01*
X16028479Y-9330300D01*
X16030048Y-9327952D01*
X16031093Y-9325586D01*
X16032709Y-9323969D01*
X16034115Y-9321865D01*
X16036219Y-9320459D01*
X16037836Y-9318843D01*
X16040202Y-9317798D01*
X16042550Y-9316229D01*
X16044743Y-9315793D01*
X16046657Y-9314948D01*
X16052257Y-9314298D01*
X16052500Y-9314250D01*
X16107500Y-9314250D01*
X16107743Y-9314298D01*
G37*
G36*
X13744654Y-9335522D02*
G01*
X13751142Y-9339858D01*
X13755478Y-9346346D01*
X13757000Y-9354000D01*
X13757000Y-9382000D01*
X13755478Y-9389654D01*
X13751142Y-9396142D01*
X13744654Y-9400478D01*
X13737000Y-9402000D01*
X13703000Y-9402000D01*
X13695346Y-9400478D01*
X13688858Y-9396142D01*
X13684522Y-9389654D01*
X13683000Y-9382000D01*
X13683000Y-9354000D01*
X13684522Y-9346346D01*
X13688858Y-9339858D01*
X13695346Y-9335522D01*
X13703000Y-9334000D01*
X13737000Y-9334000D01*
X13744654Y-9335522D01*
G37*
G36*
X15209025Y-9262257D02*
G01*
X15209438Y-9262439D01*
X15209803Y-9262487D01*
X15214381Y-9264622D01*
X15218606Y-9266488D01*
X15218802Y-9266684D01*
X15218820Y-9266692D01*
X15225808Y-9273680D01*
X15225816Y-9273697D01*
X15226012Y-9273894D01*
X15227879Y-9278121D01*
X15230013Y-9282697D01*
X15230061Y-9283062D01*
X15230243Y-9283475D01*
X15231000Y-9290000D01*
X15231000Y-9340000D01*
X15230243Y-9346525D01*
X15230061Y-9346938D01*
X15230013Y-9347303D01*
X15227880Y-9351877D01*
X15226012Y-9356106D01*
X15225816Y-9356303D01*
X15225808Y-9356320D01*
X15218820Y-9363308D01*
X15218802Y-9363316D01*
X15218606Y-9363512D01*
X15214377Y-9365380D01*
X15209803Y-9367513D01*
X15209438Y-9367561D01*
X15209025Y-9367743D01*
X15202500Y-9368500D01*
X15157500Y-9368500D01*
X15150975Y-9367743D01*
X15150562Y-9367561D01*
X15150196Y-9367513D01*
X15145621Y-9365379D01*
X15141394Y-9363512D01*
X15141197Y-9363316D01*
X15141179Y-9363308D01*
X15134192Y-9356320D01*
X15134184Y-9356302D01*
X15133988Y-9356106D01*
X15132122Y-9351882D01*
X15129987Y-9347303D01*
X15129939Y-9346938D01*
X15129757Y-9346525D01*
X15129000Y-9340000D01*
X15129000Y-9290000D01*
X15129757Y-9283475D01*
X15129939Y-9283062D01*
X15129987Y-9282697D01*
X15132123Y-9278117D01*
X15133988Y-9273894D01*
X15134183Y-9273698D01*
X15134192Y-9273680D01*
X15141179Y-9266692D01*
X15141198Y-9266684D01*
X15141394Y-9266488D01*
X15145616Y-9264623D01*
X15150196Y-9262487D01*
X15150562Y-9262439D01*
X15150975Y-9262257D01*
X15157500Y-9261500D01*
X15202500Y-9261500D01*
X15209025Y-9262257D01*
G37*
G36*
X15364025Y-9262257D02*
G01*
X15364438Y-9262439D01*
X15364803Y-9262487D01*
X15369381Y-9264622D01*
X15373606Y-9266488D01*
X15373802Y-9266684D01*
X15373820Y-9266692D01*
X15380808Y-9273680D01*
X15380816Y-9273697D01*
X15381012Y-9273894D01*
X15382879Y-9278121D01*
X15385013Y-9282697D01*
X15385061Y-9283062D01*
X15385243Y-9283475D01*
X15386000Y-9290000D01*
X15386000Y-9340000D01*
X15385243Y-9346525D01*
X15385061Y-9346938D01*
X15385013Y-9347303D01*
X15382880Y-9351877D01*
X15381012Y-9356106D01*
X15380816Y-9356303D01*
X15380808Y-9356320D01*
X15373820Y-9363308D01*
X15373802Y-9363316D01*
X15373606Y-9363512D01*
X15369377Y-9365380D01*
X15364803Y-9367513D01*
X15364438Y-9367561D01*
X15364025Y-9367743D01*
X15357500Y-9368500D01*
X15312500Y-9368500D01*
X15305975Y-9367743D01*
X15305562Y-9367561D01*
X15305196Y-9367513D01*
X15300621Y-9365379D01*
X15296394Y-9363512D01*
X15296197Y-9363316D01*
X15296179Y-9363308D01*
X15289192Y-9356320D01*
X15289184Y-9356302D01*
X15288988Y-9356106D01*
X15287122Y-9351882D01*
X15284987Y-9347303D01*
X15284939Y-9346938D01*
X15284757Y-9346525D01*
X15284000Y-9340000D01*
X15284000Y-9290000D01*
X15284757Y-9283475D01*
X15284939Y-9283062D01*
X15284987Y-9282697D01*
X15287123Y-9278117D01*
X15288988Y-9273894D01*
X15289183Y-9273698D01*
X15289192Y-9273680D01*
X15296179Y-9266692D01*
X15296198Y-9266684D01*
X15296394Y-9266488D01*
X15300616Y-9264623D01*
X15305196Y-9262487D01*
X15305562Y-9262439D01*
X15305975Y-9262257D01*
X15312500Y-9261500D01*
X15357500Y-9261500D01*
X15364025Y-9262257D01*
G37*
G36*
X13119597Y-9119823D02*
G01*
X13120039Y-9120018D01*
X13120450Y-9120073D01*
X13125601Y-9122474D01*
X13130019Y-9124425D01*
X13130224Y-9124630D01*
X13130254Y-9124644D01*
X13137856Y-9132246D01*
X13137870Y-9132276D01*
X13138075Y-9132481D01*
X13140027Y-9136901D01*
X13142427Y-9142050D01*
X13142481Y-9142461D01*
X13142677Y-9142903D01*
X13143500Y-9150000D01*
X13143500Y-9280000D01*
X13142677Y-9287098D01*
X13142481Y-9287539D01*
X13142427Y-9287950D01*
X13140027Y-9293097D01*
X13138075Y-9297519D01*
X13137870Y-9297724D01*
X13137856Y-9297754D01*
X13130254Y-9305356D01*
X13130224Y-9305370D01*
X13130019Y-9305575D01*
X13125597Y-9307528D01*
X13120450Y-9309927D01*
X13120039Y-9309982D01*
X13119597Y-9310177D01*
X13112500Y-9311000D01*
X13062500Y-9311000D01*
X13055402Y-9310177D01*
X13054961Y-9309982D01*
X13054549Y-9309927D01*
X13049401Y-9307527D01*
X13044981Y-9305575D01*
X13044776Y-9305370D01*
X13044746Y-9305356D01*
X13037144Y-9297754D01*
X13037130Y-9297724D01*
X13036925Y-9297519D01*
X13034974Y-9293101D01*
X13032572Y-9287950D01*
X13032518Y-9287539D01*
X13032323Y-9287098D01*
X13031500Y-9280000D01*
X13031500Y-9150000D01*
X13032323Y-9142903D01*
X13032518Y-9142461D01*
X13032572Y-9142050D01*
X13034975Y-9136897D01*
X13036925Y-9132481D01*
X13037130Y-9132276D01*
X13037144Y-9132246D01*
X13044746Y-9124644D01*
X13044776Y-9124630D01*
X13044981Y-9124425D01*
X13049397Y-9122475D01*
X13054549Y-9120073D01*
X13054961Y-9120018D01*
X13055402Y-9119823D01*
X13062500Y-9119000D01*
X13112500Y-9119000D01*
X13119597Y-9119823D01*
G37*
G36*
X13369597Y-9119823D02*
G01*
X13370039Y-9120018D01*
X13370450Y-9120073D01*
X13375601Y-9122474D01*
X13380019Y-9124425D01*
X13380224Y-9124630D01*
X13380254Y-9124644D01*
X13387856Y-9132246D01*
X13387870Y-9132276D01*
X13388075Y-9132481D01*
X13390027Y-9136901D01*
X13392427Y-9142050D01*
X13392481Y-9142461D01*
X13392677Y-9142903D01*
X13393500Y-9150000D01*
X13393500Y-9280000D01*
X13392677Y-9287098D01*
X13392481Y-9287539D01*
X13392427Y-9287950D01*
X13390027Y-9293097D01*
X13388075Y-9297519D01*
X13387870Y-9297724D01*
X13387856Y-9297754D01*
X13380254Y-9305356D01*
X13380224Y-9305370D01*
X13380019Y-9305575D01*
X13375597Y-9307528D01*
X13370450Y-9309927D01*
X13370039Y-9309982D01*
X13369597Y-9310177D01*
X13362500Y-9311000D01*
X13312500Y-9311000D01*
X13305402Y-9310177D01*
X13304961Y-9309982D01*
X13304549Y-9309927D01*
X13299401Y-9307527D01*
X13294981Y-9305575D01*
X13294776Y-9305370D01*
X13294746Y-9305356D01*
X13287144Y-9297754D01*
X13287130Y-9297724D01*
X13286925Y-9297519D01*
X13284974Y-9293101D01*
X13282572Y-9287950D01*
X13282518Y-9287539D01*
X13282323Y-9287098D01*
X13281500Y-9280000D01*
X13281500Y-9150000D01*
X13282323Y-9142903D01*
X13282518Y-9142461D01*
X13282572Y-9142050D01*
X13284975Y-9136897D01*
X13286925Y-9132481D01*
X13287130Y-9132276D01*
X13287144Y-9132246D01*
X13294746Y-9124644D01*
X13294776Y-9124630D01*
X13294981Y-9124425D01*
X13299397Y-9122475D01*
X13304549Y-9120073D01*
X13304961Y-9120018D01*
X13305402Y-9119823D01*
X13312500Y-9119000D01*
X13362500Y-9119000D01*
X13369597Y-9119823D01*
G37*
G36*
X13744654Y-9239522D02*
G01*
X13751142Y-9243858D01*
X13755478Y-9250346D01*
X13757000Y-9258000D01*
X13757000Y-9286000D01*
X13755478Y-9293654D01*
X13751142Y-9300142D01*
X13744654Y-9304478D01*
X13737000Y-9306000D01*
X13703000Y-9306000D01*
X13695346Y-9304478D01*
X13688858Y-9300142D01*
X13684522Y-9293654D01*
X13683000Y-9286000D01*
X13683000Y-9258000D01*
X13684522Y-9250346D01*
X13688858Y-9243858D01*
X13695346Y-9239522D01*
X13703000Y-9238000D01*
X13737000Y-9238000D01*
X13744654Y-9239522D01*
G37*
G36*
X15937743Y-9149298D02*
G01*
X15943343Y-9149948D01*
X15945256Y-9150793D01*
X15947450Y-9151229D01*
X15949798Y-9152798D01*
X15952164Y-9153843D01*
X15953780Y-9155459D01*
X15955885Y-9156865D01*
X15957291Y-9158970D01*
X15958907Y-9160586D01*
X15959952Y-9162952D01*
X15961521Y-9165300D01*
X15961957Y-9167494D01*
X15962802Y-9169407D01*
X15963451Y-9175006D01*
X15963500Y-9175250D01*
X15963500Y-9230250D01*
X15963451Y-9230494D01*
X15962802Y-9236093D01*
X15961957Y-9238006D01*
X15961521Y-9240200D01*
X15959951Y-9242549D01*
X15958907Y-9244914D01*
X15957291Y-9246530D01*
X15955885Y-9248635D01*
X15953780Y-9250041D01*
X15952164Y-9251657D01*
X15949799Y-9252701D01*
X15947450Y-9254271D01*
X15945256Y-9254707D01*
X15943343Y-9255552D01*
X15937744Y-9256202D01*
X15937500Y-9256250D01*
X15897500Y-9256250D01*
X15897256Y-9256202D01*
X15891657Y-9255552D01*
X15889744Y-9254707D01*
X15887550Y-9254271D01*
X15885201Y-9252702D01*
X15882836Y-9251657D01*
X15881220Y-9250041D01*
X15879115Y-9248635D01*
X15877709Y-9246530D01*
X15876093Y-9244914D01*
X15875048Y-9242548D01*
X15873479Y-9240200D01*
X15873043Y-9238006D01*
X15872198Y-9236093D01*
X15871548Y-9230493D01*
X15871500Y-9230250D01*
X15871500Y-9175250D01*
X15871548Y-9175008D01*
X15872198Y-9169407D01*
X15873043Y-9167493D01*
X15873479Y-9165300D01*
X15875048Y-9162952D01*
X15876093Y-9160586D01*
X15877709Y-9158969D01*
X15879115Y-9156865D01*
X15881219Y-9155459D01*
X15882836Y-9153843D01*
X15885202Y-9152798D01*
X15887550Y-9151229D01*
X15889743Y-9150793D01*
X15891657Y-9149948D01*
X15897257Y-9149298D01*
X15897500Y-9149250D01*
X15937500Y-9149250D01*
X15937743Y-9149298D01*
G37*
G36*
X16102743Y-9149298D02*
G01*
X16108343Y-9149948D01*
X16110256Y-9150793D01*
X16112450Y-9151229D01*
X16114798Y-9152798D01*
X16117164Y-9153843D01*
X16118780Y-9155459D01*
X16120885Y-9156865D01*
X16122291Y-9158970D01*
X16123907Y-9160586D01*
X16124952Y-9162952D01*
X16126521Y-9165300D01*
X16126957Y-9167494D01*
X16127802Y-9169407D01*
X16128451Y-9175006D01*
X16128500Y-9175250D01*
X16128500Y-9230250D01*
X16128451Y-9230494D01*
X16127802Y-9236093D01*
X16126957Y-9238006D01*
X16126521Y-9240200D01*
X16124951Y-9242549D01*
X16123907Y-9244914D01*
X16122291Y-9246530D01*
X16120885Y-9248635D01*
X16118780Y-9250041D01*
X16117164Y-9251657D01*
X16114799Y-9252701D01*
X16112450Y-9254271D01*
X16110256Y-9254707D01*
X16108343Y-9255552D01*
X16102744Y-9256202D01*
X16102500Y-9256250D01*
X16062500Y-9256250D01*
X16062256Y-9256202D01*
X16056657Y-9255552D01*
X16054744Y-9254707D01*
X16052550Y-9254271D01*
X16050201Y-9252702D01*
X16047836Y-9251657D01*
X16046220Y-9250041D01*
X16044115Y-9248635D01*
X16042709Y-9246530D01*
X16041093Y-9244914D01*
X16040048Y-9242548D01*
X16038479Y-9240200D01*
X16038043Y-9238006D01*
X16037198Y-9236093D01*
X16036548Y-9230493D01*
X16036500Y-9230250D01*
X16036500Y-9175250D01*
X16036548Y-9175008D01*
X16037198Y-9169407D01*
X16038043Y-9167493D01*
X16038479Y-9165300D01*
X16040048Y-9162952D01*
X16041093Y-9160586D01*
X16042709Y-9158969D01*
X16044115Y-9156865D01*
X16046219Y-9155459D01*
X16047836Y-9153843D01*
X16050202Y-9152798D01*
X16052550Y-9151229D01*
X16054743Y-9150793D01*
X16056657Y-9149948D01*
X16062257Y-9149298D01*
X16062500Y-9149250D01*
X16102500Y-9149250D01*
X16102743Y-9149298D01*
G37*
G36*
X13892743Y-9157798D02*
G01*
X13898343Y-9158448D01*
X13900256Y-9159293D01*
X13902450Y-9159729D01*
X13904798Y-9161298D01*
X13907164Y-9162343D01*
X13908780Y-9163959D01*
X13910885Y-9165365D01*
X13912291Y-9167470D01*
X13913907Y-9169086D01*
X13914952Y-9171452D01*
X13916521Y-9173800D01*
X13916957Y-9175994D01*
X13917802Y-9177907D01*
X13918451Y-9183506D01*
X13918500Y-9183750D01*
X13918500Y-9223750D01*
X13918451Y-9223994D01*
X13917802Y-9229593D01*
X13916957Y-9231506D01*
X13916521Y-9233700D01*
X13914951Y-9236049D01*
X13913907Y-9238414D01*
X13912291Y-9240030D01*
X13910885Y-9242135D01*
X13908780Y-9243541D01*
X13907164Y-9245157D01*
X13904799Y-9246201D01*
X13902450Y-9247771D01*
X13900256Y-9248207D01*
X13898343Y-9249052D01*
X13892744Y-9249702D01*
X13892500Y-9249750D01*
X13837500Y-9249750D01*
X13837256Y-9249702D01*
X13831657Y-9249052D01*
X13829744Y-9248207D01*
X13827550Y-9247771D01*
X13825201Y-9246202D01*
X13822836Y-9245157D01*
X13821220Y-9243541D01*
X13819115Y-9242135D01*
X13817709Y-9240030D01*
X13816093Y-9238414D01*
X13815048Y-9236048D01*
X13813479Y-9233700D01*
X13813043Y-9231506D01*
X13812198Y-9229593D01*
X13811548Y-9223993D01*
X13811500Y-9223750D01*
X13811500Y-9183750D01*
X13811548Y-9183508D01*
X13812198Y-9177907D01*
X13813043Y-9175993D01*
X13813479Y-9173800D01*
X13815048Y-9171452D01*
X13816093Y-9169086D01*
X13817709Y-9167469D01*
X13819115Y-9165365D01*
X13821219Y-9163959D01*
X13822836Y-9162343D01*
X13825202Y-9161298D01*
X13827550Y-9159729D01*
X13829743Y-9159293D01*
X13831657Y-9158448D01*
X13837257Y-9157798D01*
X13837500Y-9157750D01*
X13892500Y-9157750D01*
X13892743Y-9157798D01*
G37*
G36*
X14062743Y-9157798D02*
G01*
X14068343Y-9158448D01*
X14070256Y-9159293D01*
X14072450Y-9159729D01*
X14074798Y-9161298D01*
X14077164Y-9162343D01*
X14078780Y-9163959D01*
X14080885Y-9165365D01*
X14082291Y-9167470D01*
X14083907Y-9169086D01*
X14084952Y-9171452D01*
X14086521Y-9173800D01*
X14086957Y-9175994D01*
X14087802Y-9177907D01*
X14088451Y-9183506D01*
X14088500Y-9183750D01*
X14088500Y-9223750D01*
X14088451Y-9223994D01*
X14087802Y-9229593D01*
X14086957Y-9231506D01*
X14086521Y-9233700D01*
X14084951Y-9236049D01*
X14083907Y-9238414D01*
X14082291Y-9240030D01*
X14080885Y-9242135D01*
X14078780Y-9243541D01*
X14077164Y-9245157D01*
X14074799Y-9246201D01*
X14072450Y-9247771D01*
X14070256Y-9248207D01*
X14068343Y-9249052D01*
X14062744Y-9249702D01*
X14062500Y-9249750D01*
X14007500Y-9249750D01*
X14007256Y-9249702D01*
X14001657Y-9249052D01*
X13999744Y-9248207D01*
X13997550Y-9247771D01*
X13995201Y-9246202D01*
X13992836Y-9245157D01*
X13991220Y-9243541D01*
X13989115Y-9242135D01*
X13987709Y-9240030D01*
X13986093Y-9238414D01*
X13985048Y-9236048D01*
X13983479Y-9233700D01*
X13983043Y-9231506D01*
X13982198Y-9229593D01*
X13981548Y-9223993D01*
X13981500Y-9223750D01*
X13981500Y-9183750D01*
X13981548Y-9183508D01*
X13982198Y-9177907D01*
X13983043Y-9175993D01*
X13983479Y-9173800D01*
X13985048Y-9171452D01*
X13986093Y-9169086D01*
X13987709Y-9167469D01*
X13989115Y-9165365D01*
X13991219Y-9163959D01*
X13992836Y-9162343D01*
X13995202Y-9161298D01*
X13997550Y-9159729D01*
X13999743Y-9159293D01*
X14001657Y-9158448D01*
X14007257Y-9157798D01*
X14007500Y-9157750D01*
X14062500Y-9157750D01*
X14062743Y-9157798D01*
G37*
G36*
X14232743Y-9157798D02*
G01*
X14238343Y-9158448D01*
X14240256Y-9159293D01*
X14242450Y-9159729D01*
X14244798Y-9161298D01*
X14247164Y-9162343D01*
X14248780Y-9163959D01*
X14250885Y-9165365D01*
X14252291Y-9167470D01*
X14253907Y-9169086D01*
X14254952Y-9171452D01*
X14256521Y-9173800D01*
X14256957Y-9175994D01*
X14257802Y-9177907D01*
X14258451Y-9183506D01*
X14258500Y-9183750D01*
X14258500Y-9223750D01*
X14258451Y-9223994D01*
X14257802Y-9229593D01*
X14256957Y-9231506D01*
X14256521Y-9233700D01*
X14254951Y-9236049D01*
X14253907Y-9238414D01*
X14252291Y-9240030D01*
X14250885Y-9242135D01*
X14248780Y-9243541D01*
X14247164Y-9245157D01*
X14244799Y-9246201D01*
X14242450Y-9247771D01*
X14240256Y-9248207D01*
X14238343Y-9249052D01*
X14232744Y-9249702D01*
X14232500Y-9249750D01*
X14177500Y-9249750D01*
X14177256Y-9249702D01*
X14171657Y-9249052D01*
X14169744Y-9248207D01*
X14167550Y-9247771D01*
X14165201Y-9246202D01*
X14162836Y-9245157D01*
X14161220Y-9243541D01*
X14159115Y-9242135D01*
X14157709Y-9240030D01*
X14156093Y-9238414D01*
X14155048Y-9236048D01*
X14153479Y-9233700D01*
X14153043Y-9231506D01*
X14152198Y-9229593D01*
X14151548Y-9223993D01*
X14151500Y-9223750D01*
X14151500Y-9183750D01*
X14151548Y-9183508D01*
X14152198Y-9177907D01*
X14153043Y-9175993D01*
X14153479Y-9173800D01*
X14155048Y-9171452D01*
X14156093Y-9169086D01*
X14157709Y-9167469D01*
X14159115Y-9165365D01*
X14161219Y-9163959D01*
X14162836Y-9162343D01*
X14165202Y-9161298D01*
X14167550Y-9159729D01*
X14169743Y-9159293D01*
X14171657Y-9158448D01*
X14177257Y-9157798D01*
X14177500Y-9157750D01*
X14232500Y-9157750D01*
X14232743Y-9157798D01*
G37*
G36*
X14402743Y-9157798D02*
G01*
X14408343Y-9158448D01*
X14410256Y-9159293D01*
X14412450Y-9159729D01*
X14414798Y-9161298D01*
X14417164Y-9162343D01*
X14418780Y-9163959D01*
X14420885Y-9165365D01*
X14422291Y-9167470D01*
X14423907Y-9169086D01*
X14424952Y-9171452D01*
X14426521Y-9173800D01*
X14426957Y-9175994D01*
X14427802Y-9177907D01*
X14428451Y-9183506D01*
X14428500Y-9183750D01*
X14428500Y-9223750D01*
X14428451Y-9223994D01*
X14427802Y-9229593D01*
X14426957Y-9231506D01*
X14426521Y-9233700D01*
X14424951Y-9236049D01*
X14423907Y-9238414D01*
X14422291Y-9240030D01*
X14420885Y-9242135D01*
X14418780Y-9243541D01*
X14417164Y-9245157D01*
X14414799Y-9246201D01*
X14412450Y-9247771D01*
X14410256Y-9248207D01*
X14408343Y-9249052D01*
X14402744Y-9249702D01*
X14402500Y-9249750D01*
X14347500Y-9249750D01*
X14347256Y-9249702D01*
X14341657Y-9249052D01*
X14339744Y-9248207D01*
X14337550Y-9247771D01*
X14335201Y-9246202D01*
X14332836Y-9245157D01*
X14331220Y-9243541D01*
X14329115Y-9242135D01*
X14327709Y-9240030D01*
X14326093Y-9238414D01*
X14325048Y-9236048D01*
X14323479Y-9233700D01*
X14323043Y-9231506D01*
X14322198Y-9229593D01*
X14321548Y-9223993D01*
X14321500Y-9223750D01*
X14321500Y-9183750D01*
X14321548Y-9183508D01*
X14322198Y-9177907D01*
X14323043Y-9175993D01*
X14323479Y-9173800D01*
X14325048Y-9171452D01*
X14326093Y-9169086D01*
X14327709Y-9167469D01*
X14329115Y-9165365D01*
X14331219Y-9163959D01*
X14332836Y-9162343D01*
X14335202Y-9161298D01*
X14337550Y-9159729D01*
X14339743Y-9159293D01*
X14341657Y-9158448D01*
X14347257Y-9157798D01*
X14347500Y-9157750D01*
X14402500Y-9157750D01*
X14402743Y-9157798D01*
G37*
G36*
X16734507Y-9144990D02*
G01*
X16743878Y-9149128D01*
X16751122Y-9156372D01*
X16755260Y-9165743D01*
X16756000Y-9172125D01*
X16756000Y-9215875D01*
X16755260Y-9222257D01*
X16751122Y-9231628D01*
X16743878Y-9238872D01*
X16734507Y-9243010D01*
X16728125Y-9243750D01*
X16676875Y-9243750D01*
X16670493Y-9243010D01*
X16661122Y-9238872D01*
X16653878Y-9231628D01*
X16649740Y-9222257D01*
X16649000Y-9215875D01*
X16649000Y-9172125D01*
X16649740Y-9165743D01*
X16653878Y-9156372D01*
X16661122Y-9149128D01*
X16670493Y-9144990D01*
X16676875Y-9144250D01*
X16728125Y-9144250D01*
X16734507Y-9144990D01*
G37*
G36*
X16388709Y-9167587D02*
G01*
X16392278Y-9169972D01*
X16394663Y-9173541D01*
X16395500Y-9177750D01*
X16395500Y-9197750D01*
X16394663Y-9201960D01*
X16392278Y-9205528D01*
X16388709Y-9207913D01*
X16384500Y-9208750D01*
X16327500Y-9208750D01*
X16323290Y-9207913D01*
X16319722Y-9205528D01*
X16317337Y-9201960D01*
X16316500Y-9197750D01*
X16316500Y-9177750D01*
X16317337Y-9173541D01*
X16319722Y-9169972D01*
X16323290Y-9167587D01*
X16327500Y-9166750D01*
X16384500Y-9166750D01*
X16388709Y-9167587D01*
G37*
G36*
X16536709Y-9167587D02*
G01*
X16540278Y-9169972D01*
X16542663Y-9173541D01*
X16543500Y-9177750D01*
X16543500Y-9197750D01*
X16542663Y-9201960D01*
X16540278Y-9205528D01*
X16536709Y-9207913D01*
X16532500Y-9208750D01*
X16475500Y-9208750D01*
X16471290Y-9207913D01*
X16467722Y-9205528D01*
X16465337Y-9201960D01*
X16464500Y-9197750D01*
X16464500Y-9177750D01*
X16465337Y-9173541D01*
X16467722Y-9169972D01*
X16471290Y-9167587D01*
X16475500Y-9166750D01*
X16532500Y-9166750D01*
X16536709Y-9167587D01*
G37*
G36*
X16388709Y-9117587D02*
G01*
X16392278Y-9119972D01*
X16394663Y-9123541D01*
X16395500Y-9127750D01*
X16395500Y-9147750D01*
X16394663Y-9151960D01*
X16392278Y-9155528D01*
X16388709Y-9157913D01*
X16384500Y-9158750D01*
X16327500Y-9158750D01*
X16323290Y-9157913D01*
X16319722Y-9155528D01*
X16317337Y-9151960D01*
X16316500Y-9147750D01*
X16316500Y-9127750D01*
X16317337Y-9123541D01*
X16319722Y-9119972D01*
X16323290Y-9117587D01*
X16327500Y-9116750D01*
X16384500Y-9116750D01*
X16388709Y-9117587D01*
G37*
G36*
X16536709Y-9117587D02*
G01*
X16540278Y-9119972D01*
X16542663Y-9123541D01*
X16543500Y-9127750D01*
X16543500Y-9147750D01*
X16542663Y-9151960D01*
X16540278Y-9155528D01*
X16536709Y-9157913D01*
X16532500Y-9158750D01*
X16475500Y-9158750D01*
X16471290Y-9157913D01*
X16467722Y-9155528D01*
X16465337Y-9151960D01*
X16464500Y-9147750D01*
X16464500Y-9127750D01*
X16465337Y-9123541D01*
X16467722Y-9119972D01*
X16471290Y-9117587D01*
X16475500Y-9116750D01*
X16532500Y-9116750D01*
X16536709Y-9117587D01*
G37*
G36*
X16388709Y-9067587D02*
G01*
X16392278Y-9069972D01*
X16394663Y-9073541D01*
X16395500Y-9077750D01*
X16395500Y-9097750D01*
X16394663Y-9101960D01*
X16392278Y-9105528D01*
X16388709Y-9107913D01*
X16384500Y-9108750D01*
X16327500Y-9108750D01*
X16323290Y-9107913D01*
X16319722Y-9105528D01*
X16317337Y-9101960D01*
X16316500Y-9097750D01*
X16316500Y-9077750D01*
X16317337Y-9073541D01*
X16319722Y-9069972D01*
X16323290Y-9067587D01*
X16327500Y-9066750D01*
X16384500Y-9066750D01*
X16388709Y-9067587D01*
G37*
G36*
X16536709Y-9067587D02*
G01*
X16540278Y-9069972D01*
X16542663Y-9073541D01*
X16543500Y-9077750D01*
X16543500Y-9097750D01*
X16542663Y-9101960D01*
X16540278Y-9105528D01*
X16536709Y-9107913D01*
X16532500Y-9108750D01*
X16475500Y-9108750D01*
X16471290Y-9107913D01*
X16467722Y-9105528D01*
X16465337Y-9101960D01*
X16464500Y-9097750D01*
X16464500Y-9077750D01*
X16465337Y-9073541D01*
X16467722Y-9069972D01*
X16471290Y-9067587D01*
X16475500Y-9066750D01*
X16532500Y-9066750D01*
X16536709Y-9067587D01*
G37*
G36*
X15937743Y-8981548D02*
G01*
X15943343Y-8982198D01*
X15945256Y-8983043D01*
X15947450Y-8983479D01*
X15949798Y-8985048D01*
X15952164Y-8986093D01*
X15953780Y-8987709D01*
X15955885Y-8989115D01*
X15957291Y-8991220D01*
X15958907Y-8992836D01*
X15959952Y-8995202D01*
X15961521Y-8997550D01*
X15961957Y-8999744D01*
X15962802Y-9001657D01*
X15963451Y-9007256D01*
X15963500Y-9007500D01*
X15963500Y-9062500D01*
X15963451Y-9062744D01*
X15962802Y-9068343D01*
X15961957Y-9070256D01*
X15961521Y-9072450D01*
X15959951Y-9074799D01*
X15958907Y-9077164D01*
X15957291Y-9078780D01*
X15955885Y-9080885D01*
X15953780Y-9082291D01*
X15952164Y-9083907D01*
X15949799Y-9084951D01*
X15947450Y-9086521D01*
X15945256Y-9086957D01*
X15943343Y-9087802D01*
X15937744Y-9088452D01*
X15937500Y-9088500D01*
X15897500Y-9088500D01*
X15897256Y-9088452D01*
X15891657Y-9087802D01*
X15889744Y-9086957D01*
X15887550Y-9086521D01*
X15885201Y-9084952D01*
X15882836Y-9083907D01*
X15881220Y-9082291D01*
X15879115Y-9080885D01*
X15877709Y-9078780D01*
X15876093Y-9077164D01*
X15875048Y-9074798D01*
X15873479Y-9072450D01*
X15873043Y-9070256D01*
X15872198Y-9068343D01*
X15871548Y-9062743D01*
X15871500Y-9062500D01*
X15871500Y-9007500D01*
X15871548Y-9007258D01*
X15872198Y-9001657D01*
X15873043Y-8999743D01*
X15873479Y-8997550D01*
X15875048Y-8995202D01*
X15876093Y-8992836D01*
X15877709Y-8991219D01*
X15879115Y-8989115D01*
X15881219Y-8987709D01*
X15882836Y-8986093D01*
X15885202Y-8985048D01*
X15887550Y-8983479D01*
X15889743Y-8983043D01*
X15891657Y-8982198D01*
X15897257Y-8981548D01*
X15897500Y-8981500D01*
X15937500Y-8981500D01*
X15937743Y-8981548D01*
G37*
G36*
X16102743Y-8981548D02*
G01*
X16108343Y-8982198D01*
X16110256Y-8983043D01*
X16112450Y-8983479D01*
X16114798Y-8985048D01*
X16117164Y-8986093D01*
X16118780Y-8987709D01*
X16120885Y-8989115D01*
X16122291Y-8991220D01*
X16123907Y-8992836D01*
X16124952Y-8995202D01*
X16126521Y-8997550D01*
X16126957Y-8999744D01*
X16127802Y-9001657D01*
X16128451Y-9007256D01*
X16128500Y-9007500D01*
X16128500Y-9062500D01*
X16128451Y-9062744D01*
X16127802Y-9068343D01*
X16126957Y-9070256D01*
X16126521Y-9072450D01*
X16124951Y-9074799D01*
X16123907Y-9077164D01*
X16122291Y-9078780D01*
X16120885Y-9080885D01*
X16118780Y-9082291D01*
X16117164Y-9083907D01*
X16114799Y-9084951D01*
X16112450Y-9086521D01*
X16110256Y-9086957D01*
X16108343Y-9087802D01*
X16102744Y-9088452D01*
X16102500Y-9088500D01*
X16062500Y-9088500D01*
X16062256Y-9088452D01*
X16056657Y-9087802D01*
X16054744Y-9086957D01*
X16052550Y-9086521D01*
X16050201Y-9084952D01*
X16047836Y-9083907D01*
X16046220Y-9082291D01*
X16044115Y-9080885D01*
X16042709Y-9078780D01*
X16041093Y-9077164D01*
X16040048Y-9074798D01*
X16038479Y-9072450D01*
X16038043Y-9070256D01*
X16037198Y-9068343D01*
X16036548Y-9062743D01*
X16036500Y-9062500D01*
X16036500Y-9007500D01*
X16036548Y-9007258D01*
X16037198Y-9001657D01*
X16038043Y-8999743D01*
X16038479Y-8997550D01*
X16040048Y-8995202D01*
X16041093Y-8992836D01*
X16042709Y-8991219D01*
X16044115Y-8989115D01*
X16046219Y-8987709D01*
X16047836Y-8986093D01*
X16050202Y-8985048D01*
X16052550Y-8983479D01*
X16054743Y-8983043D01*
X16056657Y-8982198D01*
X16062257Y-8981548D01*
X16062500Y-8981500D01*
X16102500Y-8981500D01*
X16102743Y-8981548D01*
G37*
G36*
X16734507Y-8987490D02*
G01*
X16743878Y-8991628D01*
X16751122Y-8998872D01*
X16755260Y-9008243D01*
X16756000Y-9014625D01*
X16756000Y-9058375D01*
X16755260Y-9064757D01*
X16751122Y-9074128D01*
X16743878Y-9081372D01*
X16734507Y-9085510D01*
X16728125Y-9086250D01*
X16676875Y-9086250D01*
X16670493Y-9085510D01*
X16661122Y-9081372D01*
X16653878Y-9074128D01*
X16649740Y-9064757D01*
X16649000Y-9058375D01*
X16649000Y-9014625D01*
X16649740Y-9008243D01*
X16653878Y-8998872D01*
X16661122Y-8991628D01*
X16670493Y-8987490D01*
X16676875Y-8986750D01*
X16728125Y-8986750D01*
X16734507Y-8987490D01*
G37*
G36*
X16388709Y-9017587D02*
G01*
X16392278Y-9019972D01*
X16394663Y-9023541D01*
X16395500Y-9027750D01*
X16395500Y-9047750D01*
X16394663Y-9051960D01*
X16392278Y-9055528D01*
X16388709Y-9057913D01*
X16384500Y-9058750D01*
X16327500Y-9058750D01*
X16323290Y-9057913D01*
X16319722Y-9055528D01*
X16317337Y-9051960D01*
X16316500Y-9047750D01*
X16316500Y-9027750D01*
X16317337Y-9023541D01*
X16319722Y-9019972D01*
X16323290Y-9017587D01*
X16327500Y-9016750D01*
X16384500Y-9016750D01*
X16388709Y-9017587D01*
G37*
G36*
X16536709Y-9017587D02*
G01*
X16540278Y-9019972D01*
X16542663Y-9023541D01*
X16543500Y-9027750D01*
X16543500Y-9047750D01*
X16542663Y-9051960D01*
X16540278Y-9055528D01*
X16536709Y-9057913D01*
X16532500Y-9058750D01*
X16475500Y-9058750D01*
X16471290Y-9057913D01*
X16467722Y-9055528D01*
X16465337Y-9051960D01*
X16464500Y-9047750D01*
X16464500Y-9027750D01*
X16465337Y-9023541D01*
X16467722Y-9019972D01*
X16471290Y-9017587D01*
X16475500Y-9016750D01*
X16532500Y-9016750D01*
X16536709Y-9017587D01*
G37*
G36*
X14427077Y-8872663D02*
G01*
X14439631Y-8879911D01*
X14449882Y-8890161D01*
X14457130Y-8902715D01*
X14460882Y-8916718D01*
X14460882Y-8931214D01*
X14457130Y-8945216D01*
X14449882Y-8957770D01*
X14439631Y-8968021D01*
X14427077Y-8975269D01*
X14413075Y-8979021D01*
X14398579Y-8979021D01*
X14384577Y-8975269D01*
X14372022Y-8968021D01*
X14361772Y-8957770D01*
X14354524Y-8945216D01*
X14350772Y-8931214D01*
X14350772Y-8916718D01*
X14354524Y-8902715D01*
X14361772Y-8890161D01*
X14372022Y-8879911D01*
X14384577Y-8872663D01*
X14398579Y-8868911D01*
X14413075Y-8868911D01*
X14427077Y-8872663D01*
G37*
G36*
X16377097Y-8794823D02*
G01*
X16377539Y-8795018D01*
X16377950Y-8795073D01*
X16383101Y-8797474D01*
X16387519Y-8799425D01*
X16387724Y-8799630D01*
X16387754Y-8799644D01*
X16395356Y-8807246D01*
X16395370Y-8807276D01*
X16395575Y-8807481D01*
X16397527Y-8811901D01*
X16399927Y-8817050D01*
X16399981Y-8817461D01*
X16400177Y-8817903D01*
X16401000Y-8825000D01*
X16401000Y-8920000D01*
X16400177Y-8927098D01*
X16399981Y-8927539D01*
X16399927Y-8927950D01*
X16397527Y-8933097D01*
X16395575Y-8937519D01*
X16395370Y-8937724D01*
X16395356Y-8937754D01*
X16387754Y-8945356D01*
X16387724Y-8945370D01*
X16387519Y-8945575D01*
X16383097Y-8947528D01*
X16377950Y-8949927D01*
X16377539Y-8949982D01*
X16377097Y-8950177D01*
X16370000Y-8951000D01*
X16320000Y-8951000D01*
X16312902Y-8950177D01*
X16312461Y-8949982D01*
X16312049Y-8949927D01*
X16306901Y-8947527D01*
X16302481Y-8945575D01*
X16302276Y-8945370D01*
X16302246Y-8945356D01*
X16294644Y-8937754D01*
X16294630Y-8937724D01*
X16294425Y-8937519D01*
X16292474Y-8933101D01*
X16290072Y-8927950D01*
X16290018Y-8927539D01*
X16289823Y-8927098D01*
X16289000Y-8920000D01*
X16289000Y-8825000D01*
X16289823Y-8817903D01*
X16290018Y-8817461D01*
X16290072Y-8817050D01*
X16292475Y-8811897D01*
X16294425Y-8807481D01*
X16294630Y-8807276D01*
X16294644Y-8807246D01*
X16302246Y-8799644D01*
X16302276Y-8799630D01*
X16302481Y-8799425D01*
X16306897Y-8797475D01*
X16312049Y-8795073D01*
X16312461Y-8795018D01*
X16312902Y-8794823D01*
X16320000Y-8794000D01*
X16370000Y-8794000D01*
X16377097Y-8794823D01*
G37*
G36*
X16567097Y-8794823D02*
G01*
X16567539Y-8795018D01*
X16567950Y-8795073D01*
X16573101Y-8797474D01*
X16577519Y-8799425D01*
X16577724Y-8799630D01*
X16577754Y-8799644D01*
X16585356Y-8807246D01*
X16585370Y-8807276D01*
X16585575Y-8807481D01*
X16587527Y-8811901D01*
X16589927Y-8817050D01*
X16589981Y-8817461D01*
X16590177Y-8817903D01*
X16591000Y-8825000D01*
X16591000Y-8920000D01*
X16590177Y-8927098D01*
X16589981Y-8927539D01*
X16589927Y-8927950D01*
X16587527Y-8933097D01*
X16585575Y-8937519D01*
X16585370Y-8937724D01*
X16585356Y-8937754D01*
X16577754Y-8945356D01*
X16577724Y-8945370D01*
X16577519Y-8945575D01*
X16573097Y-8947528D01*
X16567950Y-8949927D01*
X16567539Y-8949982D01*
X16567097Y-8950177D01*
X16560000Y-8951000D01*
X16510000Y-8951000D01*
X16502902Y-8950177D01*
X16502461Y-8949982D01*
X16502049Y-8949927D01*
X16496901Y-8947527D01*
X16492481Y-8945575D01*
X16492276Y-8945370D01*
X16492246Y-8945356D01*
X16484644Y-8937754D01*
X16484630Y-8937724D01*
X16484425Y-8937519D01*
X16482474Y-8933101D01*
X16480072Y-8927950D01*
X16480018Y-8927539D01*
X16479823Y-8927098D01*
X16479000Y-8920000D01*
X16479000Y-8825000D01*
X16479823Y-8817903D01*
X16480018Y-8817461D01*
X16480072Y-8817050D01*
X16482475Y-8811897D01*
X16484425Y-8807481D01*
X16484630Y-8807276D01*
X16484644Y-8807246D01*
X16492246Y-8799644D01*
X16492276Y-8799630D01*
X16492481Y-8799425D01*
X16496897Y-8797475D01*
X16502049Y-8795073D01*
X16502461Y-8795018D01*
X16502902Y-8794823D01*
X16510000Y-8794000D01*
X16560000Y-8794000D01*
X16567097Y-8794823D01*
G37*
G36*
X14045209Y-8852337D02*
G01*
X14048778Y-8854722D01*
X14051163Y-8858291D01*
X14052000Y-8862500D01*
X14052000Y-8922500D01*
X14051163Y-8926710D01*
X14048778Y-8930278D01*
X14045209Y-8932663D01*
X14041000Y-8933500D01*
X14011000Y-8933500D01*
X14006790Y-8932663D01*
X14003222Y-8930278D01*
X14000837Y-8926710D01*
X14000000Y-8922500D01*
X14000000Y-8862500D01*
X14000837Y-8858291D01*
X14003222Y-8854722D01*
X14006790Y-8852337D01*
X14011000Y-8851500D01*
X14041000Y-8851500D01*
X14045209Y-8852337D01*
G37*
G36*
X14115209Y-8852337D02*
G01*
X14118778Y-8854722D01*
X14121163Y-8858291D01*
X14122000Y-8862500D01*
X14122000Y-8922500D01*
X14121163Y-8926710D01*
X14118778Y-8930278D01*
X14115209Y-8932663D01*
X14111000Y-8933500D01*
X14081000Y-8933500D01*
X14076790Y-8932663D01*
X14073222Y-8930278D01*
X14070837Y-8926710D01*
X14070000Y-8922500D01*
X14070000Y-8862500D01*
X14070837Y-8858291D01*
X14073222Y-8854722D01*
X14076790Y-8852337D01*
X14081000Y-8851500D01*
X14111000Y-8851500D01*
X14115209Y-8852337D01*
G37*
G36*
X14225209Y-8852337D02*
G01*
X14228778Y-8854722D01*
X14231163Y-8858291D01*
X14232000Y-8862500D01*
X14232000Y-8922500D01*
X14231163Y-8926710D01*
X14228778Y-8930278D01*
X14225209Y-8932663D01*
X14221000Y-8933500D01*
X14191000Y-8933500D01*
X14186790Y-8932663D01*
X14183222Y-8930278D01*
X14180837Y-8926710D01*
X14180000Y-8922500D01*
X14180000Y-8862500D01*
X14180837Y-8858291D01*
X14183222Y-8854722D01*
X14186790Y-8852337D01*
X14191000Y-8851500D01*
X14221000Y-8851500D01*
X14225209Y-8852337D01*
G37*
G36*
X14295209Y-8852337D02*
G01*
X14298778Y-8854722D01*
X14301163Y-8858291D01*
X14302000Y-8862500D01*
X14302000Y-8922500D01*
X14301163Y-8926710D01*
X14298778Y-8930278D01*
X14295209Y-8932663D01*
X14291000Y-8933500D01*
X14261000Y-8933500D01*
X14256790Y-8932663D01*
X14253222Y-8930278D01*
X14250837Y-8926710D01*
X14250000Y-8922500D01*
X14250000Y-8862500D01*
X14250837Y-8858291D01*
X14253222Y-8854722D01*
X14256790Y-8852337D01*
X14261000Y-8851500D01*
X14291000Y-8851500D01*
X14295209Y-8852337D01*
G37*
G36*
X15937743Y-8819298D02*
G01*
X15943343Y-8819948D01*
X15945256Y-8820793D01*
X15947450Y-8821229D01*
X15949798Y-8822798D01*
X15952164Y-8823843D01*
X15953780Y-8825459D01*
X15955885Y-8826865D01*
X15957291Y-8828970D01*
X15958907Y-8830586D01*
X15959952Y-8832952D01*
X15961521Y-8835300D01*
X15961957Y-8837494D01*
X15962802Y-8839407D01*
X15963451Y-8845006D01*
X15963500Y-8845250D01*
X15963500Y-8900250D01*
X15963451Y-8900494D01*
X15962802Y-8906093D01*
X15961957Y-8908006D01*
X15961521Y-8910200D01*
X15959951Y-8912549D01*
X15958907Y-8914914D01*
X15957291Y-8916530D01*
X15955885Y-8918635D01*
X15953780Y-8920041D01*
X15952164Y-8921657D01*
X15949799Y-8922701D01*
X15947450Y-8924271D01*
X15945256Y-8924707D01*
X15943343Y-8925552D01*
X15937744Y-8926202D01*
X15937500Y-8926250D01*
X15897500Y-8926250D01*
X15897256Y-8926202D01*
X15891657Y-8925552D01*
X15889744Y-8924707D01*
X15887550Y-8924271D01*
X15885201Y-8922702D01*
X15882836Y-8921657D01*
X15881220Y-8920041D01*
X15879115Y-8918635D01*
X15877709Y-8916530D01*
X15876093Y-8914914D01*
X15875048Y-8912548D01*
X15873479Y-8910200D01*
X15873043Y-8908006D01*
X15872198Y-8906093D01*
X15871548Y-8900493D01*
X15871500Y-8900250D01*
X15871500Y-8845250D01*
X15871548Y-8845008D01*
X15872198Y-8839407D01*
X15873043Y-8837493D01*
X15873479Y-8835300D01*
X15875048Y-8832952D01*
X15876093Y-8830586D01*
X15877709Y-8828969D01*
X15879115Y-8826865D01*
X15881219Y-8825459D01*
X15882836Y-8823843D01*
X15885202Y-8822798D01*
X15887550Y-8821229D01*
X15889743Y-8820793D01*
X15891657Y-8819948D01*
X15897257Y-8819298D01*
X15897500Y-8819250D01*
X15937500Y-8819250D01*
X15937743Y-8819298D01*
G37*
G36*
X16102743Y-8819298D02*
G01*
X16108343Y-8819948D01*
X16110256Y-8820793D01*
X16112450Y-8821229D01*
X16114798Y-8822798D01*
X16117164Y-8823843D01*
X16118780Y-8825459D01*
X16120885Y-8826865D01*
X16122291Y-8828970D01*
X16123907Y-8830586D01*
X16124952Y-8832952D01*
X16126521Y-8835300D01*
X16126957Y-8837494D01*
X16127802Y-8839407D01*
X16128451Y-8845006D01*
X16128500Y-8845250D01*
X16128500Y-8900250D01*
X16128451Y-8900494D01*
X16127802Y-8906093D01*
X16126957Y-8908006D01*
X16126521Y-8910200D01*
X16124951Y-8912549D01*
X16123907Y-8914914D01*
X16122291Y-8916530D01*
X16120885Y-8918635D01*
X16118780Y-8920041D01*
X16117164Y-8921657D01*
X16114799Y-8922701D01*
X16112450Y-8924271D01*
X16110256Y-8924707D01*
X16108343Y-8925552D01*
X16102744Y-8926202D01*
X16102500Y-8926250D01*
X16062500Y-8926250D01*
X16062256Y-8926202D01*
X16056657Y-8925552D01*
X16054744Y-8924707D01*
X16052550Y-8924271D01*
X16050201Y-8922702D01*
X16047836Y-8921657D01*
X16046220Y-8920041D01*
X16044115Y-8918635D01*
X16042709Y-8916530D01*
X16041093Y-8914914D01*
X16040048Y-8912548D01*
X16038479Y-8910200D01*
X16038043Y-8908006D01*
X16037198Y-8906093D01*
X16036548Y-8900493D01*
X16036500Y-8900250D01*
X16036500Y-8845250D01*
X16036548Y-8845008D01*
X16037198Y-8839407D01*
X16038043Y-8837493D01*
X16038479Y-8835300D01*
X16040048Y-8832952D01*
X16041093Y-8830586D01*
X16042709Y-8828969D01*
X16044115Y-8826865D01*
X16046219Y-8825459D01*
X16047836Y-8823843D01*
X16050202Y-8822798D01*
X16052550Y-8821229D01*
X16054743Y-8820793D01*
X16056657Y-8819948D01*
X16062257Y-8819298D01*
X16062500Y-8819250D01*
X16102500Y-8819250D01*
X16102743Y-8819298D01*
G37*
G36*
X15089765Y-8775694D02*
G01*
X15096983Y-8780517D01*
X15101806Y-8787735D01*
X15103500Y-8796250D01*
X15103500Y-8885750D01*
X15101806Y-8894265D01*
X15096983Y-8901483D01*
X15089765Y-8906306D01*
X15081250Y-8908000D01*
X15048750Y-8908000D01*
X15040235Y-8906306D01*
X15033017Y-8901483D01*
X15028194Y-8894265D01*
X15026500Y-8885750D01*
X15026500Y-8796250D01*
X15028194Y-8787735D01*
X15033017Y-8780517D01*
X15040235Y-8775694D01*
X15048750Y-8774000D01*
X15081250Y-8774000D01*
X15089765Y-8775694D01*
G37*
G36*
X13919077Y-8771063D02*
G01*
X13931631Y-8778311D01*
X13941882Y-8788561D01*
X13949130Y-8801115D01*
X13952882Y-8815118D01*
X13952882Y-8829614D01*
X13949130Y-8843616D01*
X13941882Y-8856170D01*
X13931631Y-8866421D01*
X13919077Y-8873669D01*
X13905075Y-8877421D01*
X13890579Y-8877421D01*
X13876577Y-8873669D01*
X13864022Y-8866421D01*
X13853772Y-8856170D01*
X13846524Y-8843616D01*
X13842772Y-8829614D01*
X13842772Y-8815118D01*
X13846524Y-8801115D01*
X13853772Y-8788561D01*
X13864022Y-8778311D01*
X13876577Y-8771063D01*
X13890579Y-8767311D01*
X13905075Y-8767311D01*
X13919077Y-8771063D01*
G37*
G36*
X14045209Y-8712337D02*
G01*
X14048778Y-8714722D01*
X14051163Y-8718291D01*
X14052000Y-8722500D01*
X14052000Y-8782500D01*
X14051163Y-8786710D01*
X14048778Y-8790278D01*
X14045209Y-8792663D01*
X14041000Y-8793500D01*
X14011000Y-8793500D01*
X14006790Y-8792663D01*
X14003222Y-8790278D01*
X14000837Y-8786710D01*
X14000000Y-8782500D01*
X14000000Y-8722500D01*
X14000837Y-8718291D01*
X14003222Y-8714722D01*
X14006790Y-8712337D01*
X14011000Y-8711500D01*
X14041000Y-8711500D01*
X14045209Y-8712337D01*
G37*
G36*
X14115209Y-8712337D02*
G01*
X14118778Y-8714722D01*
X14121163Y-8718291D01*
X14122000Y-8722500D01*
X14122000Y-8782500D01*
X14121163Y-8786710D01*
X14118778Y-8790278D01*
X14115209Y-8792663D01*
X14111000Y-8793500D01*
X14081000Y-8793500D01*
X14076790Y-8792663D01*
X14073222Y-8790278D01*
X14070837Y-8786710D01*
X14070000Y-8782500D01*
X14070000Y-8722500D01*
X14070837Y-8718291D01*
X14073222Y-8714722D01*
X14076790Y-8712337D01*
X14081000Y-8711500D01*
X14111000Y-8711500D01*
X14115209Y-8712337D01*
G37*
G36*
X14225209Y-8712337D02*
G01*
X14228778Y-8714722D01*
X14231163Y-8718291D01*
X14232000Y-8722500D01*
X14232000Y-8782500D01*
X14231163Y-8786710D01*
X14228778Y-8790278D01*
X14225209Y-8792663D01*
X14221000Y-8793500D01*
X14191000Y-8793500D01*
X14186790Y-8792663D01*
X14183222Y-8790278D01*
X14180837Y-8786710D01*
X14180000Y-8782500D01*
X14180000Y-8722500D01*
X14180837Y-8718291D01*
X14183222Y-8714722D01*
X14186790Y-8712337D01*
X14191000Y-8711500D01*
X14221000Y-8711500D01*
X14225209Y-8712337D01*
G37*
G36*
X14295209Y-8712337D02*
G01*
X14298778Y-8714722D01*
X14301163Y-8718291D01*
X14302000Y-8722500D01*
X14302000Y-8782500D01*
X14301163Y-8786710D01*
X14298778Y-8790278D01*
X14295209Y-8792663D01*
X14291000Y-8793500D01*
X14261000Y-8793500D01*
X14256790Y-8792663D01*
X14253222Y-8790278D01*
X14250837Y-8786710D01*
X14250000Y-8782500D01*
X14250000Y-8722500D01*
X14250837Y-8718291D01*
X14253222Y-8714722D01*
X14256790Y-8712337D01*
X14261000Y-8711500D01*
X14291000Y-8711500D01*
X14295209Y-8712337D01*
G37*
G36*
X14427077Y-8669463D02*
G01*
X14439631Y-8676711D01*
X14449882Y-8686961D01*
X14457130Y-8699515D01*
X14460882Y-8713518D01*
X14460882Y-8728014D01*
X14457130Y-8742016D01*
X14449882Y-8754570D01*
X14439631Y-8764821D01*
X14427077Y-8772069D01*
X14413075Y-8775821D01*
X14398579Y-8775821D01*
X14384577Y-8772069D01*
X14372022Y-8764821D01*
X14361772Y-8754570D01*
X14354524Y-8742016D01*
X14350772Y-8728014D01*
X14350772Y-8713518D01*
X14354524Y-8699515D01*
X14361772Y-8686961D01*
X14372022Y-8676711D01*
X14384577Y-8669463D01*
X14398579Y-8665711D01*
X14413075Y-8665711D01*
X14427077Y-8669463D01*
G37*
G36*
X13182743Y-8671548D02*
G01*
X13188343Y-8672198D01*
X13190256Y-8673043D01*
X13192450Y-8673479D01*
X13194798Y-8675048D01*
X13197164Y-8676093D01*
X13198780Y-8677709D01*
X13200885Y-8679115D01*
X13202291Y-8681220D01*
X13203907Y-8682836D01*
X13204952Y-8685202D01*
X13206521Y-8687550D01*
X13206957Y-8689744D01*
X13207802Y-8691657D01*
X13208451Y-8697256D01*
X13208500Y-8697500D01*
X13208500Y-8737500D01*
X13208451Y-8737744D01*
X13207802Y-8743343D01*
X13206957Y-8745256D01*
X13206521Y-8747450D01*
X13204951Y-8749799D01*
X13203907Y-8752164D01*
X13202291Y-8753780D01*
X13200885Y-8755885D01*
X13198780Y-8757291D01*
X13197164Y-8758907D01*
X13194799Y-8759951D01*
X13192450Y-8761521D01*
X13190256Y-8761957D01*
X13188343Y-8762802D01*
X13182744Y-8763452D01*
X13182500Y-8763500D01*
X13127500Y-8763500D01*
X13127256Y-8763452D01*
X13121657Y-8762802D01*
X13119744Y-8761957D01*
X13117550Y-8761521D01*
X13115201Y-8759952D01*
X13112836Y-8758907D01*
X13111220Y-8757291D01*
X13109115Y-8755885D01*
X13107709Y-8753780D01*
X13106093Y-8752164D01*
X13105048Y-8749798D01*
X13103479Y-8747450D01*
X13103043Y-8745256D01*
X13102198Y-8743343D01*
X13101548Y-8737743D01*
X13101500Y-8737500D01*
X13101500Y-8697500D01*
X13101548Y-8697258D01*
X13102198Y-8691657D01*
X13103043Y-8689743D01*
X13103479Y-8687550D01*
X13105048Y-8685202D01*
X13106093Y-8682836D01*
X13107709Y-8681219D01*
X13109115Y-8679115D01*
X13111219Y-8677709D01*
X13112836Y-8676093D01*
X13115202Y-8675048D01*
X13117550Y-8673479D01*
X13119743Y-8673043D01*
X13121657Y-8672198D01*
X13127257Y-8671548D01*
X13127500Y-8671500D01*
X13182500Y-8671500D01*
X13182743Y-8671548D01*
G37*
G36*
X13342743Y-8671548D02*
G01*
X13348343Y-8672198D01*
X13350256Y-8673043D01*
X13352450Y-8673479D01*
X13354798Y-8675048D01*
X13357164Y-8676093D01*
X13358780Y-8677709D01*
X13360885Y-8679115D01*
X13362291Y-8681220D01*
X13363907Y-8682836D01*
X13364952Y-8685202D01*
X13366521Y-8687550D01*
X13366957Y-8689744D01*
X13367802Y-8691657D01*
X13368451Y-8697256D01*
X13368500Y-8697500D01*
X13368500Y-8737500D01*
X13368451Y-8737744D01*
X13367802Y-8743343D01*
X13366957Y-8745256D01*
X13366521Y-8747450D01*
X13364951Y-8749799D01*
X13363907Y-8752164D01*
X13362291Y-8753780D01*
X13360885Y-8755885D01*
X13358780Y-8757291D01*
X13357164Y-8758907D01*
X13354799Y-8759951D01*
X13352450Y-8761521D01*
X13350256Y-8761957D01*
X13348343Y-8762802D01*
X13342744Y-8763452D01*
X13342500Y-8763500D01*
X13287500Y-8763500D01*
X13287256Y-8763452D01*
X13281657Y-8762802D01*
X13279744Y-8761957D01*
X13277550Y-8761521D01*
X13275201Y-8759952D01*
X13272836Y-8758907D01*
X13271220Y-8757291D01*
X13269115Y-8755885D01*
X13267709Y-8753780D01*
X13266093Y-8752164D01*
X13265048Y-8749798D01*
X13263479Y-8747450D01*
X13263043Y-8745256D01*
X13262198Y-8743343D01*
X13261548Y-8737743D01*
X13261500Y-8737500D01*
X13261500Y-8697500D01*
X13261548Y-8697258D01*
X13262198Y-8691657D01*
X13263043Y-8689743D01*
X13263479Y-8687550D01*
X13265048Y-8685202D01*
X13266093Y-8682836D01*
X13267709Y-8681219D01*
X13269115Y-8679115D01*
X13271219Y-8677709D01*
X13272836Y-8676093D01*
X13275202Y-8675048D01*
X13277550Y-8673479D01*
X13279743Y-8673043D01*
X13281657Y-8672198D01*
X13287257Y-8671548D01*
X13287500Y-8671500D01*
X13342500Y-8671500D01*
X13342743Y-8671548D01*
G37*
G36*
X15560243Y-8549048D02*
G01*
X15565843Y-8549698D01*
X15567756Y-8550543D01*
X15569950Y-8550979D01*
X15572298Y-8552548D01*
X15574664Y-8553593D01*
X15576280Y-8555209D01*
X15578385Y-8556615D01*
X15579791Y-8558720D01*
X15581407Y-8560336D01*
X15582452Y-8562702D01*
X15584021Y-8565050D01*
X15584457Y-8567244D01*
X15585302Y-8569157D01*
X15585951Y-8574756D01*
X15586000Y-8575000D01*
X15586000Y-8630000D01*
X15585951Y-8630244D01*
X15585302Y-8635843D01*
X15584457Y-8637756D01*
X15584021Y-8639950D01*
X15582451Y-8642299D01*
X15581407Y-8644664D01*
X15579791Y-8646280D01*
X15578385Y-8648385D01*
X15576280Y-8649791D01*
X15574664Y-8651407D01*
X15572299Y-8652451D01*
X15569950Y-8654021D01*
X15567756Y-8654457D01*
X15565843Y-8655302D01*
X15560244Y-8655952D01*
X15560000Y-8656000D01*
X15520000Y-8656000D01*
X15519756Y-8655952D01*
X15514157Y-8655302D01*
X15512244Y-8654457D01*
X15510050Y-8654021D01*
X15507701Y-8652452D01*
X15505336Y-8651407D01*
X15503720Y-8649791D01*
X15501615Y-8648385D01*
X15500209Y-8646280D01*
X15498593Y-8644664D01*
X15497548Y-8642298D01*
X15495979Y-8639950D01*
X15495543Y-8637756D01*
X15494698Y-8635843D01*
X15494048Y-8630243D01*
X15494000Y-8630000D01*
X15494000Y-8575000D01*
X15494048Y-8574758D01*
X15494698Y-8569157D01*
X15495543Y-8567243D01*
X15495979Y-8565050D01*
X15497548Y-8562702D01*
X15498593Y-8560336D01*
X15500209Y-8558719D01*
X15501615Y-8556615D01*
X15503719Y-8555209D01*
X15505336Y-8553593D01*
X15507702Y-8552548D01*
X15510050Y-8550979D01*
X15512243Y-8550543D01*
X15514157Y-8549698D01*
X15519757Y-8549048D01*
X15520000Y-8549000D01*
X15560000Y-8549000D01*
X15560243Y-8549048D01*
G37*
G36*
X15725243Y-8549048D02*
G01*
X15730843Y-8549698D01*
X15732756Y-8550543D01*
X15734950Y-8550979D01*
X15737298Y-8552548D01*
X15739664Y-8553593D01*
X15741280Y-8555209D01*
X15743385Y-8556615D01*
X15744791Y-8558720D01*
X15746407Y-8560336D01*
X15747452Y-8562702D01*
X15749021Y-8565050D01*
X15749457Y-8567244D01*
X15750302Y-8569157D01*
X15750951Y-8574756D01*
X15751000Y-8575000D01*
X15751000Y-8630000D01*
X15750951Y-8630244D01*
X15750302Y-8635843D01*
X15749457Y-8637756D01*
X15749021Y-8639950D01*
X15747451Y-8642299D01*
X15746407Y-8644664D01*
X15744791Y-8646280D01*
X15743385Y-8648385D01*
X15741280Y-8649791D01*
X15739664Y-8651407D01*
X15737299Y-8652451D01*
X15734950Y-8654021D01*
X15732756Y-8654457D01*
X15730843Y-8655302D01*
X15725244Y-8655952D01*
X15725000Y-8656000D01*
X15685000Y-8656000D01*
X15684756Y-8655952D01*
X15679157Y-8655302D01*
X15677244Y-8654457D01*
X15675050Y-8654021D01*
X15672701Y-8652452D01*
X15670336Y-8651407D01*
X15668720Y-8649791D01*
X15666615Y-8648385D01*
X15665209Y-8646280D01*
X15663593Y-8644664D01*
X15662548Y-8642298D01*
X15660979Y-8639950D01*
X15660543Y-8637756D01*
X15659698Y-8635843D01*
X15659048Y-8630243D01*
X15659000Y-8630000D01*
X15659000Y-8575000D01*
X15659048Y-8574758D01*
X15659698Y-8569157D01*
X15660543Y-8567243D01*
X15660979Y-8565050D01*
X15662548Y-8562702D01*
X15663593Y-8560336D01*
X15665209Y-8558719D01*
X15666615Y-8556615D01*
X15668719Y-8555209D01*
X15670336Y-8553593D01*
X15672702Y-8552548D01*
X15675050Y-8550979D01*
X15677243Y-8550543D01*
X15679157Y-8549698D01*
X15684757Y-8549048D01*
X15685000Y-8549000D01*
X15725000Y-8549000D01*
X15725243Y-8549048D01*
G37*
G36*
X14994765Y-8513694D02*
G01*
X15001983Y-8518517D01*
X15006806Y-8525735D01*
X15008500Y-8534250D01*
X15008500Y-8623750D01*
X15006806Y-8632265D01*
X15001983Y-8639483D01*
X14994765Y-8644306D01*
X14986250Y-8646000D01*
X14953750Y-8646000D01*
X14945235Y-8644306D01*
X14938017Y-8639483D01*
X14933194Y-8632265D01*
X14931500Y-8623750D01*
X14931500Y-8534250D01*
X14933194Y-8525735D01*
X14938017Y-8518517D01*
X14945235Y-8513694D01*
X14953750Y-8512000D01*
X14986250Y-8512000D01*
X14994765Y-8513694D01*
G37*
G36*
X15184765Y-8513694D02*
G01*
X15191983Y-8518517D01*
X15196806Y-8525735D01*
X15198500Y-8534250D01*
X15198500Y-8623750D01*
X15196806Y-8632265D01*
X15191983Y-8639483D01*
X15184765Y-8644306D01*
X15176250Y-8646000D01*
X15143750Y-8646000D01*
X15135235Y-8644306D01*
X15128017Y-8639483D01*
X15123194Y-8632265D01*
X15121500Y-8623750D01*
X15121500Y-8534250D01*
X15123194Y-8525735D01*
X15128017Y-8518517D01*
X15135235Y-8513694D01*
X15143750Y-8512000D01*
X15176250Y-8512000D01*
X15184765Y-8513694D01*
G37*
G36*
X15387743Y-8554048D02*
G01*
X15393343Y-8554698D01*
X15395256Y-8555543D01*
X15397450Y-8555979D01*
X15399798Y-8557548D01*
X15402164Y-8558593D01*
X15403780Y-8560209D01*
X15405885Y-8561615D01*
X15407291Y-8563720D01*
X15408907Y-8565336D01*
X15409952Y-8567702D01*
X15411521Y-8570050D01*
X15411957Y-8572244D01*
X15412802Y-8574157D01*
X15413451Y-8579756D01*
X15413500Y-8580000D01*
X15413500Y-8620000D01*
X15413451Y-8620244D01*
X15412802Y-8625843D01*
X15411957Y-8627756D01*
X15411521Y-8629950D01*
X15409951Y-8632299D01*
X15408907Y-8634664D01*
X15407291Y-8636280D01*
X15405885Y-8638385D01*
X15403780Y-8639791D01*
X15402164Y-8641407D01*
X15399799Y-8642451D01*
X15397450Y-8644021D01*
X15395256Y-8644457D01*
X15393343Y-8645302D01*
X15387744Y-8645952D01*
X15387500Y-8646000D01*
X15332500Y-8646000D01*
X15332256Y-8645952D01*
X15326657Y-8645302D01*
X15324744Y-8644457D01*
X15322550Y-8644021D01*
X15320201Y-8642452D01*
X15317836Y-8641407D01*
X15316220Y-8639791D01*
X15314115Y-8638385D01*
X15312709Y-8636280D01*
X15311093Y-8634664D01*
X15310048Y-8632298D01*
X15308479Y-8629950D01*
X15308043Y-8627756D01*
X15307198Y-8625843D01*
X15306548Y-8620243D01*
X15306500Y-8620000D01*
X15306500Y-8580000D01*
X15306548Y-8579758D01*
X15307198Y-8574157D01*
X15308043Y-8572243D01*
X15308479Y-8570050D01*
X15310048Y-8567702D01*
X15311093Y-8565336D01*
X15312709Y-8563719D01*
X15314115Y-8561615D01*
X15316219Y-8560209D01*
X15317836Y-8558593D01*
X15320202Y-8557548D01*
X15322550Y-8555979D01*
X15324743Y-8555543D01*
X15326657Y-8554698D01*
X15332257Y-8554048D01*
X15332500Y-8554000D01*
X15387500Y-8554000D01*
X15387743Y-8554048D01*
G37*
G36*
X13182743Y-8506548D02*
G01*
X13188343Y-8507198D01*
X13190256Y-8508043D01*
X13192450Y-8508479D01*
X13194798Y-8510048D01*
X13197164Y-8511093D01*
X13198780Y-8512709D01*
X13200885Y-8514115D01*
X13202291Y-8516220D01*
X13203907Y-8517836D01*
X13204952Y-8520202D01*
X13206521Y-8522550D01*
X13206957Y-8524744D01*
X13207802Y-8526657D01*
X13208451Y-8532256D01*
X13208500Y-8532500D01*
X13208500Y-8572500D01*
X13208451Y-8572744D01*
X13207802Y-8578343D01*
X13206957Y-8580256D01*
X13206521Y-8582450D01*
X13204951Y-8584799D01*
X13203907Y-8587164D01*
X13202291Y-8588780D01*
X13200885Y-8590885D01*
X13198780Y-8592291D01*
X13197164Y-8593907D01*
X13194799Y-8594951D01*
X13192450Y-8596521D01*
X13190256Y-8596957D01*
X13188343Y-8597802D01*
X13182744Y-8598452D01*
X13182500Y-8598500D01*
X13127500Y-8598500D01*
X13127256Y-8598452D01*
X13121657Y-8597802D01*
X13119744Y-8596957D01*
X13117550Y-8596521D01*
X13115201Y-8594952D01*
X13112836Y-8593907D01*
X13111220Y-8592291D01*
X13109115Y-8590885D01*
X13107709Y-8588780D01*
X13106093Y-8587164D01*
X13105048Y-8584798D01*
X13103479Y-8582450D01*
X13103043Y-8580256D01*
X13102198Y-8578343D01*
X13101548Y-8572743D01*
X13101500Y-8572500D01*
X13101500Y-8532500D01*
X13101548Y-8532258D01*
X13102198Y-8526657D01*
X13103043Y-8524743D01*
X13103479Y-8522550D01*
X13105048Y-8520202D01*
X13106093Y-8517836D01*
X13107709Y-8516219D01*
X13109115Y-8514115D01*
X13111219Y-8512709D01*
X13112836Y-8511093D01*
X13115202Y-8510048D01*
X13117550Y-8508479D01*
X13119743Y-8508043D01*
X13121657Y-8507198D01*
X13127257Y-8506548D01*
X13127500Y-8506500D01*
X13182500Y-8506500D01*
X13182743Y-8506548D01*
G37*
G36*
X13342743Y-8506548D02*
G01*
X13348343Y-8507198D01*
X13350256Y-8508043D01*
X13352450Y-8508479D01*
X13354798Y-8510048D01*
X13357164Y-8511093D01*
X13358780Y-8512709D01*
X13360885Y-8514115D01*
X13362291Y-8516220D01*
X13363907Y-8517836D01*
X13364952Y-8520202D01*
X13366521Y-8522550D01*
X13366957Y-8524744D01*
X13367802Y-8526657D01*
X13368451Y-8532256D01*
X13368500Y-8532500D01*
X13368500Y-8572500D01*
X13368451Y-8572744D01*
X13367802Y-8578343D01*
X13366957Y-8580256D01*
X13366521Y-8582450D01*
X13364951Y-8584799D01*
X13363907Y-8587164D01*
X13362291Y-8588780D01*
X13360885Y-8590885D01*
X13358780Y-8592291D01*
X13357164Y-8593907D01*
X13354799Y-8594951D01*
X13352450Y-8596521D01*
X13350256Y-8596957D01*
X13348343Y-8597802D01*
X13342744Y-8598452D01*
X13342500Y-8598500D01*
X13287500Y-8598500D01*
X13287256Y-8598452D01*
X13281657Y-8597802D01*
X13279744Y-8596957D01*
X13277550Y-8596521D01*
X13275201Y-8594952D01*
X13272836Y-8593907D01*
X13271220Y-8592291D01*
X13269115Y-8590885D01*
X13267709Y-8588780D01*
X13266093Y-8587164D01*
X13265048Y-8584798D01*
X13263479Y-8582450D01*
X13263043Y-8580256D01*
X13262198Y-8578343D01*
X13261548Y-8572743D01*
X13261500Y-8572500D01*
X13261500Y-8532500D01*
X13261548Y-8532258D01*
X13262198Y-8526657D01*
X13263043Y-8524743D01*
X13263479Y-8522550D01*
X13265048Y-8520202D01*
X13266093Y-8517836D01*
X13267709Y-8516219D01*
X13269115Y-8514115D01*
X13271219Y-8512709D01*
X13272836Y-8511093D01*
X13275202Y-8510048D01*
X13277550Y-8508479D01*
X13279743Y-8508043D01*
X13281657Y-8507198D01*
X13287257Y-8506548D01*
X13287500Y-8506500D01*
X13342500Y-8506500D01*
X13342743Y-8506548D01*
G37*
G36*
X13721154Y-8442022D02*
G01*
X13727642Y-8446358D01*
X13731978Y-8452846D01*
X13733500Y-8460500D01*
X13733500Y-8494500D01*
X13731978Y-8502154D01*
X13727642Y-8508642D01*
X13721154Y-8512978D01*
X13713500Y-8514500D01*
X13685500Y-8514500D01*
X13677846Y-8512978D01*
X13671358Y-8508642D01*
X13667022Y-8502154D01*
X13665500Y-8494500D01*
X13665500Y-8460500D01*
X13667022Y-8452846D01*
X13671358Y-8446358D01*
X13677846Y-8442022D01*
X13685500Y-8440500D01*
X13713500Y-8440500D01*
X13721154Y-8442022D01*
G37*
G36*
X13817154Y-8442022D02*
G01*
X13823642Y-8446358D01*
X13827978Y-8452846D01*
X13829500Y-8460500D01*
X13829500Y-8494500D01*
X13827978Y-8502154D01*
X13823642Y-8508642D01*
X13817154Y-8512978D01*
X13809500Y-8514500D01*
X13781500Y-8514500D01*
X13773846Y-8512978D01*
X13767358Y-8508642D01*
X13763022Y-8502154D01*
X13761500Y-8494500D01*
X13761500Y-8460500D01*
X13763022Y-8452846D01*
X13767358Y-8446358D01*
X13773846Y-8442022D01*
X13781500Y-8440500D01*
X13809500Y-8440500D01*
X13817154Y-8442022D01*
G37*
G36*
X15574025Y-8379757D02*
G01*
X15574438Y-8379939D01*
X15574803Y-8379987D01*
X15579381Y-8382122D01*
X15583606Y-8383988D01*
X15583802Y-8384184D01*
X15583820Y-8384192D01*
X15590808Y-8391180D01*
X15590816Y-8391197D01*
X15591012Y-8391394D01*
X15592879Y-8395621D01*
X15595013Y-8400197D01*
X15595061Y-8400562D01*
X15595243Y-8400975D01*
X15596000Y-8407500D01*
X15596000Y-8457500D01*
X15595243Y-8464025D01*
X15595061Y-8464438D01*
X15595013Y-8464803D01*
X15592880Y-8469377D01*
X15591012Y-8473606D01*
X15590816Y-8473803D01*
X15590808Y-8473820D01*
X15583820Y-8480808D01*
X15583802Y-8480816D01*
X15583606Y-8481012D01*
X15579377Y-8482880D01*
X15574803Y-8485013D01*
X15574438Y-8485061D01*
X15574025Y-8485243D01*
X15567500Y-8486000D01*
X15522500Y-8486000D01*
X15515975Y-8485243D01*
X15515562Y-8485061D01*
X15515196Y-8485013D01*
X15510621Y-8482879D01*
X15506394Y-8481012D01*
X15506197Y-8480816D01*
X15506179Y-8480808D01*
X15499192Y-8473820D01*
X15499184Y-8473802D01*
X15498988Y-8473606D01*
X15497122Y-8469382D01*
X15494987Y-8464803D01*
X15494939Y-8464438D01*
X15494757Y-8464025D01*
X15494000Y-8457500D01*
X15494000Y-8407500D01*
X15494757Y-8400975D01*
X15494939Y-8400562D01*
X15494987Y-8400197D01*
X15497123Y-8395617D01*
X15498988Y-8391394D01*
X15499183Y-8391198D01*
X15499192Y-8391180D01*
X15506179Y-8384192D01*
X15506198Y-8384183D01*
X15506394Y-8383988D01*
X15510616Y-8382123D01*
X15515196Y-8379987D01*
X15515562Y-8379939D01*
X15515975Y-8379757D01*
X15522500Y-8379000D01*
X15567500Y-8379000D01*
X15574025Y-8379757D01*
G37*
G36*
X15729025Y-8379757D02*
G01*
X15729438Y-8379939D01*
X15729803Y-8379987D01*
X15734381Y-8382122D01*
X15738606Y-8383988D01*
X15738802Y-8384184D01*
X15738820Y-8384192D01*
X15745808Y-8391180D01*
X15745816Y-8391197D01*
X15746012Y-8391394D01*
X15747879Y-8395621D01*
X15750013Y-8400197D01*
X15750061Y-8400562D01*
X15750243Y-8400975D01*
X15751000Y-8407500D01*
X15751000Y-8457500D01*
X15750243Y-8464025D01*
X15750061Y-8464438D01*
X15750013Y-8464803D01*
X15747880Y-8469377D01*
X15746012Y-8473606D01*
X15745816Y-8473803D01*
X15745808Y-8473820D01*
X15738820Y-8480808D01*
X15738802Y-8480816D01*
X15738606Y-8481012D01*
X15734377Y-8482880D01*
X15729803Y-8485013D01*
X15729438Y-8485061D01*
X15729025Y-8485243D01*
X15722500Y-8486000D01*
X15677500Y-8486000D01*
X15670975Y-8485243D01*
X15670562Y-8485061D01*
X15670196Y-8485013D01*
X15665621Y-8482879D01*
X15661394Y-8481012D01*
X15661197Y-8480816D01*
X15661179Y-8480808D01*
X15654192Y-8473820D01*
X15654184Y-8473802D01*
X15653988Y-8473606D01*
X15652122Y-8469382D01*
X15649987Y-8464803D01*
X15649939Y-8464438D01*
X15649757Y-8464025D01*
X15649000Y-8457500D01*
X15649000Y-8407500D01*
X15649757Y-8400975D01*
X15649939Y-8400562D01*
X15649987Y-8400197D01*
X15652123Y-8395617D01*
X15653988Y-8391394D01*
X15654183Y-8391198D01*
X15654192Y-8391180D01*
X15661179Y-8384192D01*
X15661198Y-8384183D01*
X15661394Y-8383988D01*
X15665616Y-8382123D01*
X15670196Y-8379987D01*
X15670562Y-8379939D01*
X15670975Y-8379757D01*
X15677500Y-8379000D01*
X15722500Y-8379000D01*
X15729025Y-8379757D01*
G37*
G36*
X14436525Y-8352257D02*
G01*
X14436938Y-8352439D01*
X14437303Y-8352487D01*
X14441881Y-8354622D01*
X14446106Y-8356488D01*
X14446302Y-8356684D01*
X14446320Y-8356692D01*
X14453308Y-8363679D01*
X14453316Y-8363697D01*
X14453512Y-8363894D01*
X14455379Y-8368121D01*
X14457513Y-8372696D01*
X14457561Y-8373062D01*
X14457743Y-8373475D01*
X14458500Y-8380000D01*
X14458500Y-8455000D01*
X14457743Y-8461525D01*
X14457561Y-8461938D01*
X14457513Y-8462303D01*
X14455380Y-8466877D01*
X14453512Y-8471106D01*
X14453316Y-8471303D01*
X14453308Y-8471320D01*
X14446320Y-8478308D01*
X14446302Y-8478316D01*
X14446106Y-8478512D01*
X14441877Y-8480380D01*
X14437303Y-8482513D01*
X14436938Y-8482561D01*
X14436525Y-8482743D01*
X14430000Y-8483500D01*
X14385000Y-8483500D01*
X14378475Y-8482743D01*
X14378062Y-8482561D01*
X14377696Y-8482513D01*
X14373121Y-8480379D01*
X14368894Y-8478512D01*
X14368697Y-8478316D01*
X14368679Y-8478308D01*
X14361692Y-8471320D01*
X14361684Y-8471302D01*
X14361488Y-8471106D01*
X14359622Y-8466882D01*
X14357487Y-8462303D01*
X14357439Y-8461938D01*
X14357257Y-8461525D01*
X14356500Y-8455000D01*
X14356500Y-8380000D01*
X14357257Y-8373475D01*
X14357439Y-8373062D01*
X14357487Y-8372696D01*
X14359623Y-8368116D01*
X14361488Y-8363894D01*
X14361683Y-8363698D01*
X14361692Y-8363679D01*
X14368679Y-8356692D01*
X14368698Y-8356683D01*
X14368894Y-8356488D01*
X14373116Y-8354623D01*
X14377696Y-8352487D01*
X14378062Y-8352439D01*
X14378475Y-8352257D01*
X14385000Y-8351500D01*
X14430000Y-8351500D01*
X14436525Y-8352257D01*
G37*
G36*
X14766525Y-8352257D02*
G01*
X14766938Y-8352439D01*
X14767303Y-8352487D01*
X14771881Y-8354622D01*
X14776106Y-8356488D01*
X14776302Y-8356684D01*
X14776320Y-8356692D01*
X14783308Y-8363679D01*
X14783316Y-8363697D01*
X14783512Y-8363894D01*
X14785379Y-8368121D01*
X14787513Y-8372696D01*
X14787561Y-8373062D01*
X14787743Y-8373475D01*
X14788500Y-8380000D01*
X14788500Y-8455000D01*
X14787743Y-8461525D01*
X14787561Y-8461938D01*
X14787513Y-8462303D01*
X14785380Y-8466877D01*
X14783512Y-8471106D01*
X14783316Y-8471303D01*
X14783308Y-8471320D01*
X14776320Y-8478308D01*
X14776302Y-8478316D01*
X14776106Y-8478512D01*
X14771877Y-8480380D01*
X14767303Y-8482513D01*
X14766938Y-8482561D01*
X14766525Y-8482743D01*
X14760000Y-8483500D01*
X14715000Y-8483500D01*
X14708475Y-8482743D01*
X14708062Y-8482561D01*
X14707696Y-8482513D01*
X14703121Y-8480379D01*
X14698894Y-8478512D01*
X14698697Y-8478316D01*
X14698679Y-8478308D01*
X14691692Y-8471320D01*
X14691684Y-8471302D01*
X14691488Y-8471106D01*
X14689622Y-8466882D01*
X14687487Y-8462303D01*
X14687439Y-8461938D01*
X14687257Y-8461525D01*
X14686500Y-8455000D01*
X14686500Y-8380000D01*
X14687257Y-8373475D01*
X14687439Y-8373062D01*
X14687487Y-8372696D01*
X14689623Y-8368116D01*
X14691488Y-8363894D01*
X14691683Y-8363698D01*
X14691692Y-8363679D01*
X14698679Y-8356692D01*
X14698698Y-8356683D01*
X14698894Y-8356488D01*
X14703116Y-8354623D01*
X14707696Y-8352487D01*
X14708062Y-8352439D01*
X14708475Y-8352257D01*
X14715000Y-8351500D01*
X14760000Y-8351500D01*
X14766525Y-8352257D01*
G37*
G36*
X15387743Y-8389048D02*
G01*
X15393343Y-8389698D01*
X15395256Y-8390543D01*
X15397450Y-8390979D01*
X15399798Y-8392548D01*
X15402164Y-8393593D01*
X15403780Y-8395209D01*
X15405885Y-8396615D01*
X15407291Y-8398720D01*
X15408907Y-8400336D01*
X15409952Y-8402702D01*
X15411521Y-8405050D01*
X15411957Y-8407244D01*
X15412802Y-8409157D01*
X15413451Y-8414756D01*
X15413500Y-8415000D01*
X15413500Y-8455000D01*
X15413451Y-8455244D01*
X15412802Y-8460843D01*
X15411957Y-8462756D01*
X15411521Y-8464950D01*
X15409951Y-8467299D01*
X15408907Y-8469664D01*
X15407291Y-8471280D01*
X15405885Y-8473385D01*
X15403780Y-8474791D01*
X15402164Y-8476407D01*
X15399799Y-8477451D01*
X15397450Y-8479021D01*
X15395256Y-8479457D01*
X15393343Y-8480302D01*
X15387744Y-8480952D01*
X15387500Y-8481000D01*
X15332500Y-8481000D01*
X15332256Y-8480952D01*
X15326657Y-8480302D01*
X15324744Y-8479457D01*
X15322550Y-8479021D01*
X15320201Y-8477452D01*
X15317836Y-8476407D01*
X15316220Y-8474791D01*
X15314115Y-8473385D01*
X15312709Y-8471280D01*
X15311093Y-8469664D01*
X15310048Y-8467298D01*
X15308479Y-8464950D01*
X15308043Y-8462756D01*
X15307198Y-8460843D01*
X15306548Y-8455243D01*
X15306500Y-8455000D01*
X15306500Y-8415000D01*
X15306548Y-8414758D01*
X15307198Y-8409157D01*
X15308043Y-8407243D01*
X15308479Y-8405050D01*
X15310048Y-8402702D01*
X15311093Y-8400336D01*
X15312709Y-8398719D01*
X15314115Y-8396615D01*
X15316219Y-8395209D01*
X15317836Y-8393593D01*
X15320202Y-8392548D01*
X15322550Y-8390979D01*
X15324743Y-8390543D01*
X15326657Y-8389698D01*
X15332257Y-8389048D01*
X15332500Y-8389000D01*
X15387500Y-8389000D01*
X15387743Y-8389048D01*
G37*
G36*
X13960166Y-8385028D02*
G01*
X13964546Y-8387954D01*
X13967472Y-8392334D01*
X13968500Y-8397500D01*
X13968500Y-8432500D01*
X13967472Y-8437666D01*
X13964546Y-8442046D01*
X13960166Y-8444972D01*
X13955000Y-8446000D01*
X13940000Y-8446000D01*
X13934834Y-8444972D01*
X13930454Y-8442046D01*
X13927528Y-8437666D01*
X13926500Y-8432500D01*
X13926500Y-8397500D01*
X13927528Y-8392334D01*
X13930454Y-8387954D01*
X13934834Y-8385028D01*
X13940000Y-8384000D01*
X13955000Y-8384000D01*
X13960166Y-8385028D01*
G37*
G36*
X14030166Y-8385028D02*
G01*
X14034546Y-8387954D01*
X14037472Y-8392334D01*
X14038500Y-8397500D01*
X14038500Y-8432500D01*
X14037472Y-8437666D01*
X14034546Y-8442046D01*
X14030166Y-8444972D01*
X14025000Y-8446000D01*
X14010000Y-8446000D01*
X14004834Y-8444972D01*
X14000454Y-8442046D01*
X13997528Y-8437666D01*
X13996500Y-8432500D01*
X13996500Y-8397500D01*
X13997528Y-8392334D01*
X14000454Y-8387954D01*
X14004834Y-8385028D01*
X14010000Y-8384000D01*
X14025000Y-8384000D01*
X14030166Y-8385028D01*
G37*
G36*
X15063654Y-8372022D02*
G01*
X15070142Y-8376358D01*
X15074478Y-8382846D01*
X15076000Y-8390500D01*
X15076000Y-8424500D01*
X15074478Y-8432154D01*
X15070142Y-8438642D01*
X15063654Y-8442978D01*
X15056000Y-8444500D01*
X15028000Y-8444500D01*
X15020346Y-8442978D01*
X15013858Y-8438642D01*
X15009522Y-8432154D01*
X15008000Y-8424500D01*
X15008000Y-8390500D01*
X15009522Y-8382846D01*
X15013858Y-8376358D01*
X15020346Y-8372022D01*
X15028000Y-8370500D01*
X15056000Y-8370500D01*
X15063654Y-8372022D01*
G37*
G36*
X15159654Y-8372022D02*
G01*
X15166142Y-8376358D01*
X15170478Y-8382846D01*
X15172000Y-8390500D01*
X15172000Y-8424500D01*
X15170478Y-8432154D01*
X15166142Y-8438642D01*
X15159654Y-8442978D01*
X15152000Y-8444500D01*
X15124000Y-8444500D01*
X15116346Y-8442978D01*
X15109858Y-8438642D01*
X15105522Y-8432154D01*
X15104000Y-8424500D01*
X15104000Y-8390500D01*
X15105522Y-8382846D01*
X15109858Y-8376358D01*
X15116346Y-8372022D01*
X15124000Y-8370500D01*
X15152000Y-8370500D01*
X15159654Y-8372022D01*
G37*
G36*
X13627743Y-8284048D02*
G01*
X13633343Y-8284698D01*
X13635256Y-8285543D01*
X13637450Y-8285979D01*
X13639798Y-8287548D01*
X13642164Y-8288593D01*
X13643780Y-8290209D01*
X13645885Y-8291615D01*
X13647291Y-8293720D01*
X13648907Y-8295336D01*
X13649952Y-8297701D01*
X13651521Y-8300050D01*
X13651957Y-8302244D01*
X13652802Y-8304157D01*
X13653451Y-8309756D01*
X13653500Y-8310000D01*
X13653500Y-8365000D01*
X13653451Y-8365244D01*
X13652802Y-8370843D01*
X13651957Y-8372756D01*
X13651521Y-8374950D01*
X13649951Y-8377299D01*
X13648907Y-8379664D01*
X13647291Y-8381280D01*
X13645885Y-8383385D01*
X13643780Y-8384791D01*
X13642164Y-8386407D01*
X13639799Y-8387451D01*
X13637450Y-8389021D01*
X13635256Y-8389457D01*
X13633343Y-8390302D01*
X13627744Y-8390952D01*
X13627500Y-8391000D01*
X13587500Y-8391000D01*
X13587256Y-8390952D01*
X13581657Y-8390302D01*
X13579744Y-8389457D01*
X13577550Y-8389021D01*
X13575201Y-8387452D01*
X13572836Y-8386407D01*
X13571220Y-8384791D01*
X13569115Y-8383385D01*
X13567709Y-8381280D01*
X13566093Y-8379664D01*
X13565048Y-8377298D01*
X13563479Y-8374950D01*
X13563043Y-8372756D01*
X13562198Y-8370843D01*
X13561548Y-8365243D01*
X13561500Y-8365000D01*
X13561500Y-8310000D01*
X13561548Y-8309757D01*
X13562198Y-8304157D01*
X13563043Y-8302243D01*
X13563479Y-8300050D01*
X13565048Y-8297702D01*
X13566093Y-8295336D01*
X13567709Y-8293719D01*
X13569115Y-8291615D01*
X13571219Y-8290209D01*
X13572836Y-8288593D01*
X13575202Y-8287548D01*
X13577550Y-8285979D01*
X13579743Y-8285543D01*
X13581657Y-8284698D01*
X13587257Y-8284048D01*
X13587500Y-8284000D01*
X13627500Y-8284000D01*
X13627743Y-8284048D01*
G37*
G36*
X13792743Y-8284048D02*
G01*
X13798343Y-8284698D01*
X13800256Y-8285543D01*
X13802450Y-8285979D01*
X13804798Y-8287548D01*
X13807164Y-8288593D01*
X13808780Y-8290209D01*
X13810885Y-8291615D01*
X13812291Y-8293720D01*
X13813907Y-8295336D01*
X13814952Y-8297701D01*
X13816521Y-8300050D01*
X13816957Y-8302244D01*
X13817802Y-8304157D01*
X13818451Y-8309756D01*
X13818500Y-8310000D01*
X13818500Y-8365000D01*
X13818451Y-8365244D01*
X13817802Y-8370843D01*
X13816957Y-8372756D01*
X13816521Y-8374950D01*
X13814951Y-8377299D01*
X13813907Y-8379664D01*
X13812291Y-8381280D01*
X13810885Y-8383385D01*
X13808780Y-8384791D01*
X13807164Y-8386407D01*
X13804799Y-8387451D01*
X13802450Y-8389021D01*
X13800256Y-8389457D01*
X13798343Y-8390302D01*
X13792744Y-8390952D01*
X13792500Y-8391000D01*
X13752500Y-8391000D01*
X13752256Y-8390952D01*
X13746657Y-8390302D01*
X13744744Y-8389457D01*
X13742550Y-8389021D01*
X13740201Y-8387452D01*
X13737836Y-8386407D01*
X13736220Y-8384791D01*
X13734115Y-8383385D01*
X13732709Y-8381280D01*
X13731093Y-8379664D01*
X13730048Y-8377298D01*
X13728479Y-8374950D01*
X13728043Y-8372756D01*
X13727198Y-8370843D01*
X13726548Y-8365243D01*
X13726500Y-8365000D01*
X13726500Y-8310000D01*
X13726548Y-8309757D01*
X13727198Y-8304157D01*
X13728043Y-8302243D01*
X13728479Y-8300050D01*
X13730048Y-8297702D01*
X13731093Y-8295336D01*
X13732709Y-8293719D01*
X13734115Y-8291615D01*
X13736219Y-8290209D01*
X13737836Y-8288593D01*
X13740202Y-8287548D01*
X13742550Y-8285979D01*
X13744743Y-8285543D01*
X13746657Y-8284698D01*
X13752257Y-8284048D01*
X13752500Y-8284000D01*
X13792500Y-8284000D01*
X13792743Y-8284048D01*
G37*
G36*
X16213243Y-8231548D02*
G01*
X16218843Y-8232198D01*
X16220756Y-8233043D01*
X16222950Y-8233479D01*
X16225298Y-8235048D01*
X16227664Y-8236093D01*
X16229280Y-8237709D01*
X16231385Y-8239115D01*
X16232791Y-8241220D01*
X16234407Y-8242836D01*
X16235452Y-8245201D01*
X16237021Y-8247550D01*
X16237457Y-8249744D01*
X16238302Y-8251657D01*
X16238951Y-8257256D01*
X16239000Y-8257500D01*
X16239000Y-8297500D01*
X16238951Y-8297744D01*
X16238302Y-8303343D01*
X16237457Y-8305256D01*
X16237021Y-8307450D01*
X16235451Y-8309799D01*
X16234407Y-8312164D01*
X16232791Y-8313780D01*
X16231385Y-8315885D01*
X16229280Y-8317291D01*
X16227664Y-8318907D01*
X16225299Y-8319951D01*
X16222950Y-8321521D01*
X16220756Y-8321957D01*
X16218843Y-8322802D01*
X16213244Y-8323451D01*
X16213000Y-8323500D01*
X16158000Y-8323500D01*
X16157756Y-8323451D01*
X16152157Y-8322802D01*
X16150244Y-8321957D01*
X16148050Y-8321521D01*
X16145701Y-8319952D01*
X16143336Y-8318907D01*
X16141720Y-8317291D01*
X16139615Y-8315885D01*
X16138209Y-8313780D01*
X16136593Y-8312164D01*
X16135548Y-8309798D01*
X16133979Y-8307450D01*
X16133543Y-8305256D01*
X16132698Y-8303343D01*
X16132048Y-8297743D01*
X16132000Y-8297500D01*
X16132000Y-8257500D01*
X16132048Y-8257257D01*
X16132698Y-8251657D01*
X16133543Y-8249743D01*
X16133979Y-8247550D01*
X16135548Y-8245202D01*
X16136593Y-8242836D01*
X16138209Y-8241219D01*
X16139615Y-8239115D01*
X16141719Y-8237709D01*
X16143336Y-8236093D01*
X16145702Y-8235048D01*
X16148050Y-8233479D01*
X16150243Y-8233043D01*
X16152157Y-8232198D01*
X16157757Y-8231548D01*
X16158000Y-8231500D01*
X16213000Y-8231500D01*
X16213243Y-8231548D01*
G37*
G36*
X16382743Y-8231548D02*
G01*
X16388343Y-8232198D01*
X16390256Y-8233043D01*
X16392450Y-8233479D01*
X16394798Y-8235048D01*
X16397164Y-8236093D01*
X16398780Y-8237709D01*
X16400885Y-8239115D01*
X16402291Y-8241220D01*
X16403907Y-8242836D01*
X16404952Y-8245201D01*
X16406521Y-8247550D01*
X16406957Y-8249744D01*
X16407802Y-8251657D01*
X16408451Y-8257256D01*
X16408500Y-8257500D01*
X16408500Y-8297500D01*
X16408451Y-8297744D01*
X16407802Y-8303343D01*
X16406957Y-8305256D01*
X16406521Y-8307450D01*
X16404951Y-8309799D01*
X16403907Y-8312164D01*
X16402291Y-8313780D01*
X16400885Y-8315885D01*
X16398780Y-8317291D01*
X16397164Y-8318907D01*
X16394799Y-8319951D01*
X16392450Y-8321521D01*
X16390256Y-8321957D01*
X16388343Y-8322802D01*
X16382744Y-8323451D01*
X16382500Y-8323500D01*
X16327500Y-8323500D01*
X16327256Y-8323451D01*
X16321657Y-8322802D01*
X16319744Y-8321957D01*
X16317550Y-8321521D01*
X16315201Y-8319952D01*
X16312836Y-8318907D01*
X16311220Y-8317291D01*
X16309115Y-8315885D01*
X16307709Y-8313780D01*
X16306093Y-8312164D01*
X16305048Y-8309798D01*
X16303479Y-8307450D01*
X16303043Y-8305256D01*
X16302198Y-8303343D01*
X16301548Y-8297743D01*
X16301500Y-8297500D01*
X16301500Y-8257500D01*
X16301548Y-8257257D01*
X16302198Y-8251657D01*
X16303043Y-8249743D01*
X16303479Y-8247550D01*
X16305048Y-8245202D01*
X16306093Y-8242836D01*
X16307709Y-8241219D01*
X16309115Y-8239115D01*
X16311219Y-8237709D01*
X16312836Y-8236093D01*
X16315202Y-8235048D01*
X16317550Y-8233479D01*
X16319743Y-8233043D01*
X16321657Y-8232198D01*
X16327257Y-8231548D01*
X16327500Y-8231500D01*
X16382500Y-8231500D01*
X16382743Y-8231548D01*
G37*
G36*
X16548243Y-8231548D02*
G01*
X16553843Y-8232198D01*
X16555756Y-8233043D01*
X16557950Y-8233479D01*
X16560298Y-8235048D01*
X16562664Y-8236093D01*
X16564280Y-8237709D01*
X16566385Y-8239115D01*
X16567791Y-8241220D01*
X16569407Y-8242836D01*
X16570452Y-8245201D01*
X16572021Y-8247550D01*
X16572457Y-8249744D01*
X16573302Y-8251657D01*
X16573951Y-8257256D01*
X16574000Y-8257500D01*
X16574000Y-8297500D01*
X16573951Y-8297744D01*
X16573302Y-8303343D01*
X16572457Y-8305256D01*
X16572021Y-8307450D01*
X16570451Y-8309799D01*
X16569407Y-8312164D01*
X16567791Y-8313780D01*
X16566385Y-8315885D01*
X16564280Y-8317291D01*
X16562664Y-8318907D01*
X16560299Y-8319951D01*
X16557950Y-8321521D01*
X16555756Y-8321957D01*
X16553843Y-8322802D01*
X16548244Y-8323451D01*
X16548000Y-8323500D01*
X16493000Y-8323500D01*
X16492756Y-8323451D01*
X16487157Y-8322802D01*
X16485244Y-8321957D01*
X16483050Y-8321521D01*
X16480701Y-8319952D01*
X16478336Y-8318907D01*
X16476720Y-8317291D01*
X16474615Y-8315885D01*
X16473209Y-8313780D01*
X16471593Y-8312164D01*
X16470548Y-8309798D01*
X16468979Y-8307450D01*
X16468543Y-8305256D01*
X16467698Y-8303343D01*
X16467048Y-8297743D01*
X16467000Y-8297500D01*
X16467000Y-8257500D01*
X16467048Y-8257257D01*
X16467698Y-8251657D01*
X16468543Y-8249743D01*
X16468979Y-8247550D01*
X16470548Y-8245202D01*
X16471593Y-8242836D01*
X16473209Y-8241219D01*
X16474615Y-8239115D01*
X16476719Y-8237709D01*
X16478336Y-8236093D01*
X16480702Y-8235048D01*
X16483050Y-8233479D01*
X16485243Y-8233043D01*
X16487157Y-8232198D01*
X16492757Y-8231548D01*
X16493000Y-8231500D01*
X16548000Y-8231500D01*
X16548243Y-8231548D01*
G37*
G36*
X15032743Y-8226548D02*
G01*
X15038343Y-8227198D01*
X15040256Y-8228043D01*
X15042450Y-8228479D01*
X15044798Y-8230048D01*
X15047164Y-8231093D01*
X15048780Y-8232709D01*
X15050885Y-8234115D01*
X15052291Y-8236220D01*
X15053907Y-8237836D01*
X15054952Y-8240201D01*
X15056521Y-8242550D01*
X15056957Y-8244744D01*
X15057802Y-8246657D01*
X15058451Y-8252256D01*
X15058500Y-8252500D01*
X15058500Y-8292500D01*
X15058451Y-8292744D01*
X15057802Y-8298343D01*
X15056957Y-8300256D01*
X15056521Y-8302450D01*
X15054951Y-8304799D01*
X15053907Y-8307164D01*
X15052291Y-8308780D01*
X15050885Y-8310885D01*
X15048780Y-8312291D01*
X15047164Y-8313907D01*
X15044799Y-8314951D01*
X15042450Y-8316521D01*
X15040256Y-8316957D01*
X15038343Y-8317802D01*
X15032744Y-8318451D01*
X15032500Y-8318500D01*
X14977500Y-8318500D01*
X14977256Y-8318451D01*
X14971657Y-8317802D01*
X14969744Y-8316957D01*
X14967550Y-8316521D01*
X14965201Y-8314952D01*
X14962836Y-8313907D01*
X14961220Y-8312291D01*
X14959115Y-8310885D01*
X14957709Y-8308780D01*
X14956093Y-8307164D01*
X14955048Y-8304798D01*
X14953479Y-8302450D01*
X14953043Y-8300256D01*
X14952198Y-8298343D01*
X14951548Y-8292743D01*
X14951500Y-8292500D01*
X14951500Y-8252500D01*
X14951548Y-8252257D01*
X14952198Y-8246657D01*
X14953043Y-8244743D01*
X14953479Y-8242550D01*
X14955048Y-8240202D01*
X14956093Y-8237836D01*
X14957709Y-8236219D01*
X14959115Y-8234115D01*
X14961219Y-8232709D01*
X14962836Y-8231093D01*
X14965202Y-8230048D01*
X14967550Y-8228479D01*
X14969743Y-8228043D01*
X14971657Y-8227198D01*
X14977257Y-8226548D01*
X14977500Y-8226500D01*
X15032500Y-8226500D01*
X15032743Y-8226548D01*
G37*
G36*
X15202743Y-8226548D02*
G01*
X15208343Y-8227198D01*
X15210256Y-8228043D01*
X15212450Y-8228479D01*
X15214798Y-8230048D01*
X15217164Y-8231093D01*
X15218780Y-8232709D01*
X15220885Y-8234115D01*
X15222291Y-8236220D01*
X15223907Y-8237836D01*
X15224952Y-8240201D01*
X15226521Y-8242550D01*
X15226957Y-8244744D01*
X15227802Y-8246657D01*
X15228451Y-8252256D01*
X15228500Y-8252500D01*
X15228500Y-8292500D01*
X15228451Y-8292744D01*
X15227802Y-8298343D01*
X15226957Y-8300256D01*
X15226521Y-8302450D01*
X15224951Y-8304799D01*
X15223907Y-8307164D01*
X15222291Y-8308780D01*
X15220885Y-8310885D01*
X15218780Y-8312291D01*
X15217164Y-8313907D01*
X15214799Y-8314951D01*
X15212450Y-8316521D01*
X15210256Y-8316957D01*
X15208343Y-8317802D01*
X15202744Y-8318451D01*
X15202500Y-8318500D01*
X15147500Y-8318500D01*
X15147256Y-8318451D01*
X15141657Y-8317802D01*
X15139744Y-8316957D01*
X15137550Y-8316521D01*
X15135201Y-8314952D01*
X15132836Y-8313907D01*
X15131220Y-8312291D01*
X15129115Y-8310885D01*
X15127709Y-8308780D01*
X15126093Y-8307164D01*
X15125048Y-8304798D01*
X15123479Y-8302450D01*
X15123043Y-8300256D01*
X15122198Y-8298343D01*
X15121548Y-8292743D01*
X15121500Y-8292500D01*
X15121500Y-8252500D01*
X15121548Y-8252257D01*
X15122198Y-8246657D01*
X15123043Y-8244743D01*
X15123479Y-8242550D01*
X15125048Y-8240202D01*
X15126093Y-8237836D01*
X15127709Y-8236219D01*
X15129115Y-8234115D01*
X15131219Y-8232709D01*
X15132836Y-8231093D01*
X15135202Y-8230048D01*
X15137550Y-8228479D01*
X15139743Y-8228043D01*
X15141657Y-8227198D01*
X15147257Y-8226548D01*
X15147500Y-8226500D01*
X15202500Y-8226500D01*
X15202743Y-8226548D01*
G37*
G36*
X16685154Y-8210522D02*
G01*
X16691642Y-8214858D01*
X16695978Y-8221346D01*
X16697500Y-8229000D01*
X16697500Y-8257000D01*
X16695978Y-8264654D01*
X16691642Y-8271142D01*
X16685154Y-8275478D01*
X16677500Y-8277000D01*
X16643500Y-8277000D01*
X16635846Y-8275478D01*
X16629358Y-8271142D01*
X16625022Y-8264654D01*
X16623500Y-8257000D01*
X16623500Y-8229000D01*
X16625022Y-8221346D01*
X16629358Y-8214858D01*
X16635846Y-8210522D01*
X16643500Y-8209000D01*
X16677500Y-8209000D01*
X16685154Y-8210522D01*
G37*
G36*
X15951430Y-8150763D02*
G01*
X15964091Y-8158072D01*
X15974428Y-8168409D01*
X15981737Y-8181070D01*
X15985521Y-8195190D01*
X15985521Y-8209809D01*
X15981737Y-8223930D01*
X15974428Y-8236591D01*
X15964091Y-8246928D01*
X15951430Y-8254237D01*
X15937309Y-8258021D01*
X15922690Y-8258021D01*
X15908570Y-8254237D01*
X15895909Y-8246928D01*
X15885572Y-8236591D01*
X15878263Y-8223930D01*
X15874479Y-8209809D01*
X15874479Y-8195190D01*
X15878263Y-8181070D01*
X15885572Y-8168409D01*
X15895909Y-8158072D01*
X15908570Y-8150763D01*
X15922690Y-8146979D01*
X15937309Y-8146979D01*
X15951430Y-8150763D01*
G37*
G36*
X15535536Y-8168098D02*
G01*
X15542349Y-8172651D01*
X15546901Y-8179464D01*
X15548500Y-8187500D01*
X15548500Y-8217500D01*
X15546901Y-8225536D01*
X15542349Y-8232349D01*
X15535536Y-8236901D01*
X15527500Y-8238500D01*
X15425000Y-8238500D01*
X15416964Y-8236901D01*
X15410151Y-8232349D01*
X15405598Y-8225536D01*
X15404000Y-8217500D01*
X15404000Y-8187500D01*
X15405598Y-8179464D01*
X15410151Y-8172651D01*
X15416964Y-8168098D01*
X15425000Y-8166500D01*
X15527500Y-8166500D01*
X15535536Y-8168098D01*
G37*
G36*
X15763036Y-8168098D02*
G01*
X15769849Y-8172651D01*
X15774401Y-8179464D01*
X15776000Y-8187500D01*
X15776000Y-8217500D01*
X15774401Y-8225536D01*
X15769849Y-8232349D01*
X15763036Y-8236901D01*
X15755000Y-8238500D01*
X15652500Y-8238500D01*
X15644464Y-8236901D01*
X15637651Y-8232349D01*
X15633098Y-8225536D01*
X15631500Y-8217500D01*
X15631500Y-8187500D01*
X15633098Y-8179464D01*
X15637651Y-8172651D01*
X15644464Y-8168098D01*
X15652500Y-8166500D01*
X15755000Y-8166500D01*
X15763036Y-8168098D01*
G37*
G36*
X15339654Y-8170522D02*
G01*
X15346142Y-8174858D01*
X15350478Y-8181346D01*
X15352000Y-8189000D01*
X15352000Y-8217000D01*
X15350478Y-8224654D01*
X15346142Y-8231142D01*
X15339654Y-8235478D01*
X15332000Y-8237000D01*
X15298000Y-8237000D01*
X15290346Y-8235478D01*
X15283858Y-8231142D01*
X15279522Y-8224654D01*
X15278000Y-8217000D01*
X15278000Y-8189000D01*
X15279522Y-8181346D01*
X15283858Y-8174858D01*
X15290346Y-8170522D01*
X15298000Y-8169000D01*
X15332000Y-8169000D01*
X15339654Y-8170522D01*
G37*
G36*
X14005536Y-8165598D02*
G01*
X14012349Y-8170151D01*
X14016901Y-8176964D01*
X14018500Y-8185000D01*
X14018500Y-8215000D01*
X14016901Y-8223036D01*
X14012349Y-8229849D01*
X14005536Y-8234401D01*
X13997500Y-8236000D01*
X13895000Y-8236000D01*
X13886964Y-8234401D01*
X13880151Y-8229849D01*
X13875598Y-8223036D01*
X13874000Y-8215000D01*
X13874000Y-8185000D01*
X13875598Y-8176964D01*
X13880151Y-8170151D01*
X13886964Y-8165598D01*
X13895000Y-8164000D01*
X13997500Y-8164000D01*
X14005536Y-8165598D01*
G37*
G36*
X14233036Y-8165598D02*
G01*
X14239849Y-8170151D01*
X14244401Y-8176964D01*
X14246000Y-8185000D01*
X14246000Y-8215000D01*
X14244401Y-8223036D01*
X14239849Y-8229849D01*
X14233036Y-8234401D01*
X14225000Y-8236000D01*
X14122500Y-8236000D01*
X14114464Y-8234401D01*
X14107651Y-8229849D01*
X14103098Y-8223036D01*
X14101500Y-8215000D01*
X14101500Y-8185000D01*
X14103098Y-8176964D01*
X14107651Y-8170151D01*
X14114464Y-8165598D01*
X14122500Y-8164000D01*
X14225000Y-8164000D01*
X14233036Y-8165598D01*
G37*
G36*
X14565536Y-8165598D02*
G01*
X14572349Y-8170151D01*
X14576901Y-8176964D01*
X14578500Y-8185000D01*
X14578500Y-8215000D01*
X14576901Y-8223036D01*
X14572349Y-8229849D01*
X14565536Y-8234401D01*
X14557500Y-8236000D01*
X14455000Y-8236000D01*
X14446964Y-8234401D01*
X14440151Y-8229849D01*
X14435598Y-8223036D01*
X14434000Y-8215000D01*
X14434000Y-8185000D01*
X14435598Y-8176964D01*
X14440151Y-8170151D01*
X14446964Y-8165598D01*
X14455000Y-8164000D01*
X14557500Y-8164000D01*
X14565536Y-8165598D01*
G37*
G36*
X14793036Y-8165598D02*
G01*
X14799849Y-8170151D01*
X14804401Y-8176964D01*
X14806000Y-8185000D01*
X14806000Y-8215000D01*
X14804401Y-8223036D01*
X14799849Y-8229849D01*
X14793036Y-8234401D01*
X14785000Y-8236000D01*
X14682500Y-8236000D01*
X14674464Y-8234401D01*
X14667651Y-8229849D01*
X14663098Y-8223036D01*
X14661500Y-8215000D01*
X14661500Y-8185000D01*
X14663098Y-8176964D01*
X14667651Y-8170151D01*
X14674464Y-8165598D01*
X14682500Y-8164000D01*
X14785000Y-8164000D01*
X14793036Y-8165598D01*
G37*
G36*
X14364654Y-8168022D02*
G01*
X14371142Y-8172358D01*
X14375478Y-8178846D01*
X14377000Y-8186500D01*
X14377000Y-8214500D01*
X14375478Y-8222154D01*
X14371142Y-8228642D01*
X14364654Y-8232978D01*
X14357000Y-8234500D01*
X14323000Y-8234500D01*
X14315346Y-8232978D01*
X14308858Y-8228642D01*
X14304522Y-8222154D01*
X14303000Y-8214500D01*
X14303000Y-8186500D01*
X14304522Y-8178846D01*
X14308858Y-8172358D01*
X14315346Y-8168022D01*
X14323000Y-8166500D01*
X14357000Y-8166500D01*
X14364654Y-8168022D01*
G37*
G36*
X13707154Y-8165522D02*
G01*
X13713642Y-8169858D01*
X13717978Y-8176346D01*
X13719500Y-8184000D01*
X13719500Y-8212000D01*
X13717978Y-8219654D01*
X13713642Y-8226142D01*
X13707154Y-8230478D01*
X13699500Y-8232000D01*
X13665500Y-8232000D01*
X13657846Y-8230478D01*
X13651358Y-8226142D01*
X13647022Y-8219654D01*
X13645500Y-8212000D01*
X13645500Y-8184000D01*
X13647022Y-8176346D01*
X13651358Y-8169858D01*
X13657846Y-8165522D01*
X13665500Y-8164000D01*
X13699500Y-8164000D01*
X13707154Y-8165522D01*
G37*
G36*
X13817154Y-8165522D02*
G01*
X13823642Y-8169858D01*
X13827978Y-8176346D01*
X13829500Y-8184000D01*
X13829500Y-8212000D01*
X13827978Y-8219654D01*
X13823642Y-8226142D01*
X13817154Y-8230478D01*
X13809500Y-8232000D01*
X13775500Y-8232000D01*
X13767846Y-8230478D01*
X13761358Y-8226142D01*
X13757022Y-8219654D01*
X13755500Y-8212000D01*
X13755500Y-8184000D01*
X13757022Y-8176346D01*
X13761358Y-8169858D01*
X13767846Y-8165522D01*
X13775500Y-8164000D01*
X13809500Y-8164000D01*
X13817154Y-8165522D01*
G37*
G36*
X16685154Y-8114522D02*
G01*
X16691642Y-8118858D01*
X16695978Y-8125346D01*
X16697500Y-8133000D01*
X16697500Y-8161000D01*
X16695978Y-8168654D01*
X16691642Y-8175142D01*
X16685154Y-8179478D01*
X16677500Y-8181000D01*
X16643500Y-8181000D01*
X16635846Y-8179478D01*
X16629358Y-8175142D01*
X16625022Y-8168654D01*
X16623500Y-8161000D01*
X16623500Y-8133000D01*
X16625022Y-8125346D01*
X16629358Y-8118858D01*
X16635846Y-8114522D01*
X16643500Y-8113000D01*
X16677500Y-8113000D01*
X16685154Y-8114522D01*
G37*
G36*
X16213243Y-8066548D02*
G01*
X16218843Y-8067198D01*
X16220756Y-8068043D01*
X16222950Y-8068479D01*
X16225298Y-8070048D01*
X16227664Y-8071093D01*
X16229280Y-8072709D01*
X16231385Y-8074115D01*
X16232791Y-8076220D01*
X16234407Y-8077836D01*
X16235452Y-8080201D01*
X16237021Y-8082550D01*
X16237457Y-8084744D01*
X16238302Y-8086657D01*
X16238951Y-8092256D01*
X16239000Y-8092500D01*
X16239000Y-8132500D01*
X16238951Y-8132744D01*
X16238302Y-8138343D01*
X16237457Y-8140256D01*
X16237021Y-8142450D01*
X16235451Y-8144799D01*
X16234407Y-8147164D01*
X16232791Y-8148780D01*
X16231385Y-8150885D01*
X16229280Y-8152291D01*
X16227664Y-8153907D01*
X16225299Y-8154951D01*
X16222950Y-8156521D01*
X16220756Y-8156957D01*
X16218843Y-8157802D01*
X16213244Y-8158451D01*
X16213000Y-8158500D01*
X16158000Y-8158500D01*
X16157756Y-8158451D01*
X16152157Y-8157802D01*
X16150244Y-8156957D01*
X16148050Y-8156521D01*
X16145701Y-8154952D01*
X16143336Y-8153907D01*
X16141720Y-8152291D01*
X16139615Y-8150885D01*
X16138209Y-8148780D01*
X16136593Y-8147164D01*
X16135548Y-8144798D01*
X16133979Y-8142450D01*
X16133543Y-8140256D01*
X16132698Y-8138343D01*
X16132048Y-8132743D01*
X16132000Y-8132500D01*
X16132000Y-8092500D01*
X16132048Y-8092257D01*
X16132698Y-8086657D01*
X16133543Y-8084743D01*
X16133979Y-8082550D01*
X16135548Y-8080202D01*
X16136593Y-8077836D01*
X16138209Y-8076219D01*
X16139615Y-8074115D01*
X16141719Y-8072709D01*
X16143336Y-8071093D01*
X16145702Y-8070048D01*
X16148050Y-8068479D01*
X16150243Y-8068043D01*
X16152157Y-8067198D01*
X16157757Y-8066548D01*
X16158000Y-8066500D01*
X16213000Y-8066500D01*
X16213243Y-8066548D01*
G37*
G36*
X16382743Y-8066548D02*
G01*
X16388343Y-8067198D01*
X16390256Y-8068043D01*
X16392450Y-8068479D01*
X16394798Y-8070048D01*
X16397164Y-8071093D01*
X16398780Y-8072709D01*
X16400885Y-8074115D01*
X16402291Y-8076220D01*
X16403907Y-8077836D01*
X16404952Y-8080201D01*
X16406521Y-8082550D01*
X16406957Y-8084744D01*
X16407802Y-8086657D01*
X16408451Y-8092256D01*
X16408500Y-8092500D01*
X16408500Y-8132500D01*
X16408451Y-8132744D01*
X16407802Y-8138343D01*
X16406957Y-8140256D01*
X16406521Y-8142450D01*
X16404951Y-8144799D01*
X16403907Y-8147164D01*
X16402291Y-8148780D01*
X16400885Y-8150885D01*
X16398780Y-8152291D01*
X16397164Y-8153907D01*
X16394799Y-8154951D01*
X16392450Y-8156521D01*
X16390256Y-8156957D01*
X16388343Y-8157802D01*
X16382744Y-8158451D01*
X16382500Y-8158500D01*
X16327500Y-8158500D01*
X16327256Y-8158451D01*
X16321657Y-8157802D01*
X16319744Y-8156957D01*
X16317550Y-8156521D01*
X16315201Y-8154952D01*
X16312836Y-8153907D01*
X16311220Y-8152291D01*
X16309115Y-8150885D01*
X16307709Y-8148780D01*
X16306093Y-8147164D01*
X16305048Y-8144798D01*
X16303479Y-8142450D01*
X16303043Y-8140256D01*
X16302198Y-8138343D01*
X16301548Y-8132743D01*
X16301500Y-8132500D01*
X16301500Y-8092500D01*
X16301548Y-8092257D01*
X16302198Y-8086657D01*
X16303043Y-8084743D01*
X16303479Y-8082550D01*
X16305048Y-8080202D01*
X16306093Y-8077836D01*
X16307709Y-8076219D01*
X16309115Y-8074115D01*
X16311219Y-8072709D01*
X16312836Y-8071093D01*
X16315202Y-8070048D01*
X16317550Y-8068479D01*
X16319743Y-8068043D01*
X16321657Y-8067198D01*
X16327257Y-8066548D01*
X16327500Y-8066500D01*
X16382500Y-8066500D01*
X16382743Y-8066548D01*
G37*
G36*
X16548243Y-8066548D02*
G01*
X16553843Y-8067198D01*
X16555756Y-8068043D01*
X16557950Y-8068479D01*
X16560298Y-8070048D01*
X16562664Y-8071093D01*
X16564280Y-8072709D01*
X16566385Y-8074115D01*
X16567791Y-8076220D01*
X16569407Y-8077836D01*
X16570452Y-8080201D01*
X16572021Y-8082550D01*
X16572457Y-8084744D01*
X16573302Y-8086657D01*
X16573951Y-8092256D01*
X16574000Y-8092500D01*
X16574000Y-8132500D01*
X16573951Y-8132744D01*
X16573302Y-8138343D01*
X16572457Y-8140256D01*
X16572021Y-8142450D01*
X16570451Y-8144799D01*
X16569407Y-8147164D01*
X16567791Y-8148780D01*
X16566385Y-8150885D01*
X16564280Y-8152291D01*
X16562664Y-8153907D01*
X16560299Y-8154951D01*
X16557950Y-8156521D01*
X16555756Y-8156957D01*
X16553843Y-8157802D01*
X16548244Y-8158451D01*
X16548000Y-8158500D01*
X16493000Y-8158500D01*
X16492756Y-8158451D01*
X16487157Y-8157802D01*
X16485244Y-8156957D01*
X16483050Y-8156521D01*
X16480701Y-8154952D01*
X16478336Y-8153907D01*
X16476720Y-8152291D01*
X16474615Y-8150885D01*
X16473209Y-8148780D01*
X16471593Y-8147164D01*
X16470548Y-8144798D01*
X16468979Y-8142450D01*
X16468543Y-8140256D01*
X16467698Y-8138343D01*
X16467048Y-8132743D01*
X16467000Y-8132500D01*
X16467000Y-8092500D01*
X16467048Y-8092257D01*
X16467698Y-8086657D01*
X16468543Y-8084743D01*
X16468979Y-8082550D01*
X16470548Y-8080202D01*
X16471593Y-8077836D01*
X16473209Y-8076219D01*
X16474615Y-8074115D01*
X16476719Y-8072709D01*
X16478336Y-8071093D01*
X16480702Y-8070048D01*
X16483050Y-8068479D01*
X16485243Y-8068043D01*
X16487157Y-8067198D01*
X16492757Y-8066548D01*
X16493000Y-8066500D01*
X16548000Y-8066500D01*
X16548243Y-8066548D01*
G37*
G36*
X15032743Y-8061548D02*
G01*
X15038343Y-8062198D01*
X15040256Y-8063043D01*
X15042450Y-8063479D01*
X15044798Y-8065048D01*
X15047164Y-8066093D01*
X15048780Y-8067709D01*
X15050885Y-8069115D01*
X15052291Y-8071220D01*
X15053907Y-8072836D01*
X15054952Y-8075201D01*
X15056521Y-8077550D01*
X15056957Y-8079744D01*
X15057802Y-8081657D01*
X15058451Y-8087256D01*
X15058500Y-8087500D01*
X15058500Y-8127500D01*
X15058451Y-8127744D01*
X15057802Y-8133343D01*
X15056957Y-8135256D01*
X15056521Y-8137450D01*
X15054951Y-8139799D01*
X15053907Y-8142164D01*
X15052291Y-8143780D01*
X15050885Y-8145885D01*
X15048780Y-8147291D01*
X15047164Y-8148907D01*
X15044799Y-8149951D01*
X15042450Y-8151521D01*
X15040256Y-8151957D01*
X15038343Y-8152802D01*
X15032744Y-8153451D01*
X15032500Y-8153500D01*
X14977500Y-8153500D01*
X14977256Y-8153451D01*
X14971657Y-8152802D01*
X14969744Y-8151957D01*
X14967550Y-8151521D01*
X14965201Y-8149952D01*
X14962836Y-8148907D01*
X14961220Y-8147291D01*
X14959115Y-8145885D01*
X14957709Y-8143780D01*
X14956093Y-8142164D01*
X14955048Y-8139798D01*
X14953479Y-8137450D01*
X14953043Y-8135256D01*
X14952198Y-8133343D01*
X14951548Y-8127743D01*
X14951500Y-8127500D01*
X14951500Y-8087500D01*
X14951548Y-8087257D01*
X14952198Y-8081657D01*
X14953043Y-8079743D01*
X14953479Y-8077550D01*
X14955048Y-8075202D01*
X14956093Y-8072836D01*
X14957709Y-8071219D01*
X14959115Y-8069115D01*
X14961219Y-8067709D01*
X14962836Y-8066093D01*
X14965202Y-8065048D01*
X14967550Y-8063479D01*
X14969743Y-8063043D01*
X14971657Y-8062198D01*
X14977257Y-8061548D01*
X14977500Y-8061500D01*
X15032500Y-8061500D01*
X15032743Y-8061548D01*
G37*
G36*
X15202743Y-8061548D02*
G01*
X15208343Y-8062198D01*
X15210256Y-8063043D01*
X15212450Y-8063479D01*
X15214798Y-8065048D01*
X15217164Y-8066093D01*
X15218780Y-8067709D01*
X15220885Y-8069115D01*
X15222291Y-8071220D01*
X15223907Y-8072836D01*
X15224952Y-8075201D01*
X15226521Y-8077550D01*
X15226957Y-8079744D01*
X15227802Y-8081657D01*
X15228451Y-8087256D01*
X15228500Y-8087500D01*
X15228500Y-8127500D01*
X15228451Y-8127744D01*
X15227802Y-8133343D01*
X15226957Y-8135256D01*
X15226521Y-8137450D01*
X15224951Y-8139799D01*
X15223907Y-8142164D01*
X15222291Y-8143780D01*
X15220885Y-8145885D01*
X15218780Y-8147291D01*
X15217164Y-8148907D01*
X15214799Y-8149951D01*
X15212450Y-8151521D01*
X15210256Y-8151957D01*
X15208343Y-8152802D01*
X15202744Y-8153451D01*
X15202500Y-8153500D01*
X15147500Y-8153500D01*
X15147256Y-8153451D01*
X15141657Y-8152802D01*
X15139744Y-8151957D01*
X15137550Y-8151521D01*
X15135201Y-8149952D01*
X15132836Y-8148907D01*
X15131220Y-8147291D01*
X15129115Y-8145885D01*
X15127709Y-8143780D01*
X15126093Y-8142164D01*
X15125048Y-8139798D01*
X15123479Y-8137450D01*
X15123043Y-8135256D01*
X15122198Y-8133343D01*
X15121548Y-8127743D01*
X15121500Y-8127500D01*
X15121500Y-8087500D01*
X15121548Y-8087257D01*
X15122198Y-8081657D01*
X15123043Y-8079743D01*
X15123479Y-8077550D01*
X15125048Y-8075202D01*
X15126093Y-8072836D01*
X15127709Y-8071219D01*
X15129115Y-8069115D01*
X15131219Y-8067709D01*
X15132836Y-8066093D01*
X15135202Y-8065048D01*
X15137550Y-8063479D01*
X15139743Y-8063043D01*
X15141657Y-8062198D01*
X15147257Y-8061548D01*
X15147500Y-8061500D01*
X15202500Y-8061500D01*
X15202743Y-8061548D01*
G37*
G36*
X15535536Y-8073098D02*
G01*
X15542349Y-8077651D01*
X15546901Y-8084464D01*
X15548500Y-8092500D01*
X15548500Y-8122500D01*
X15546901Y-8130536D01*
X15542349Y-8137349D01*
X15535536Y-8141901D01*
X15527500Y-8143500D01*
X15425000Y-8143500D01*
X15416964Y-8141901D01*
X15410151Y-8137349D01*
X15405598Y-8130536D01*
X15404000Y-8122500D01*
X15404000Y-8092500D01*
X15405598Y-8084464D01*
X15410151Y-8077651D01*
X15416964Y-8073098D01*
X15425000Y-8071500D01*
X15527500Y-8071500D01*
X15535536Y-8073098D01*
G37*
G36*
X15763036Y-8073098D02*
G01*
X15769849Y-8077651D01*
X15774401Y-8084464D01*
X15776000Y-8092500D01*
X15776000Y-8122500D01*
X15774401Y-8130536D01*
X15769849Y-8137349D01*
X15763036Y-8141901D01*
X15755000Y-8143500D01*
X15652500Y-8143500D01*
X15644464Y-8141901D01*
X15637651Y-8137349D01*
X15633098Y-8130536D01*
X15631500Y-8122500D01*
X15631500Y-8092500D01*
X15633098Y-8084464D01*
X15637651Y-8077651D01*
X15644464Y-8073098D01*
X15652500Y-8071500D01*
X15755000Y-8071500D01*
X15763036Y-8073098D01*
G37*
G36*
X14005536Y-8070598D02*
G01*
X14012349Y-8075151D01*
X14016901Y-8081964D01*
X14018500Y-8090000D01*
X14018500Y-8120000D01*
X14016901Y-8128036D01*
X14012349Y-8134849D01*
X14005536Y-8139401D01*
X13997500Y-8141000D01*
X13895000Y-8141000D01*
X13886964Y-8139401D01*
X13880151Y-8134849D01*
X13875598Y-8128036D01*
X13874000Y-8120000D01*
X13874000Y-8090000D01*
X13875598Y-8081964D01*
X13880151Y-8075151D01*
X13886964Y-8070598D01*
X13895000Y-8069000D01*
X13997500Y-8069000D01*
X14005536Y-8070598D01*
G37*
G36*
X14233036Y-8070598D02*
G01*
X14239849Y-8075151D01*
X14244401Y-8081964D01*
X14246000Y-8090000D01*
X14246000Y-8120000D01*
X14244401Y-8128036D01*
X14239849Y-8134849D01*
X14233036Y-8139401D01*
X14225000Y-8141000D01*
X14122500Y-8141000D01*
X14114464Y-8139401D01*
X14107651Y-8134849D01*
X14103098Y-8128036D01*
X14101500Y-8120000D01*
X14101500Y-8090000D01*
X14103098Y-8081964D01*
X14107651Y-8075151D01*
X14114464Y-8070598D01*
X14122500Y-8069000D01*
X14225000Y-8069000D01*
X14233036Y-8070598D01*
G37*
G36*
X14565536Y-8070598D02*
G01*
X14572349Y-8075151D01*
X14576901Y-8081964D01*
X14578500Y-8090000D01*
X14578500Y-8120000D01*
X14576901Y-8128036D01*
X14572349Y-8134849D01*
X14565536Y-8139401D01*
X14557500Y-8141000D01*
X14455000Y-8141000D01*
X14446964Y-8139401D01*
X14440151Y-8134849D01*
X14435598Y-8128036D01*
X14434000Y-8120000D01*
X14434000Y-8090000D01*
X14435598Y-8081964D01*
X14440151Y-8075151D01*
X14446964Y-8070598D01*
X14455000Y-8069000D01*
X14557500Y-8069000D01*
X14565536Y-8070598D01*
G37*
G36*
X14793036Y-8070598D02*
G01*
X14799849Y-8075151D01*
X14804401Y-8081964D01*
X14806000Y-8090000D01*
X14806000Y-8120000D01*
X14804401Y-8128036D01*
X14799849Y-8134849D01*
X14793036Y-8139401D01*
X14785000Y-8141000D01*
X14682500Y-8141000D01*
X14674464Y-8139401D01*
X14667651Y-8134849D01*
X14663098Y-8128036D01*
X14661500Y-8120000D01*
X14661500Y-8090000D01*
X14663098Y-8081964D01*
X14667651Y-8075151D01*
X14674464Y-8070598D01*
X14682500Y-8069000D01*
X14785000Y-8069000D01*
X14793036Y-8070598D01*
G37*
G36*
X15339654Y-8074522D02*
G01*
X15346142Y-8078858D01*
X15350478Y-8085346D01*
X15352000Y-8093000D01*
X15352000Y-8121000D01*
X15350478Y-8128654D01*
X15346142Y-8135142D01*
X15339654Y-8139478D01*
X15332000Y-8141000D01*
X15298000Y-8141000D01*
X15290346Y-8139478D01*
X15283858Y-8135142D01*
X15279522Y-8128654D01*
X15278000Y-8121000D01*
X15278000Y-8093000D01*
X15279522Y-8085346D01*
X15283858Y-8078858D01*
X15290346Y-8074522D01*
X15298000Y-8073000D01*
X15332000Y-8073000D01*
X15339654Y-8074522D01*
G37*
G36*
X14364654Y-8072022D02*
G01*
X14371142Y-8076358D01*
X14375478Y-8082846D01*
X14377000Y-8090500D01*
X14377000Y-8118500D01*
X14375478Y-8126154D01*
X14371142Y-8132642D01*
X14364654Y-8136978D01*
X14357000Y-8138500D01*
X14323000Y-8138500D01*
X14315346Y-8136978D01*
X14308858Y-8132642D01*
X14304522Y-8126154D01*
X14303000Y-8118500D01*
X14303000Y-8090500D01*
X14304522Y-8082846D01*
X14308858Y-8076358D01*
X14315346Y-8072022D01*
X14323000Y-8070500D01*
X14357000Y-8070500D01*
X14364654Y-8072022D01*
G37*
G36*
X13707154Y-8069522D02*
G01*
X13713642Y-8073858D01*
X13717978Y-8080346D01*
X13719500Y-8088000D01*
X13719500Y-8116000D01*
X13717978Y-8123654D01*
X13713642Y-8130142D01*
X13707154Y-8134478D01*
X13699500Y-8136000D01*
X13665500Y-8136000D01*
X13657846Y-8134478D01*
X13651358Y-8130142D01*
X13647022Y-8123654D01*
X13645500Y-8116000D01*
X13645500Y-8088000D01*
X13647022Y-8080346D01*
X13651358Y-8073858D01*
X13657846Y-8069522D01*
X13665500Y-8068000D01*
X13699500Y-8068000D01*
X13707154Y-8069522D01*
G37*
G36*
X13817154Y-8069522D02*
G01*
X13823642Y-8073858D01*
X13827978Y-8080346D01*
X13829500Y-8088000D01*
X13829500Y-8116000D01*
X13827978Y-8123654D01*
X13823642Y-8130142D01*
X13817154Y-8134478D01*
X13809500Y-8136000D01*
X13775500Y-8136000D01*
X13767846Y-8134478D01*
X13761358Y-8130142D01*
X13757022Y-8123654D01*
X13755500Y-8116000D01*
X13755500Y-8088000D01*
X13757022Y-8080346D01*
X13761358Y-8073858D01*
X13767846Y-8069522D01*
X13775500Y-8068000D01*
X13809500Y-8068000D01*
X13817154Y-8069522D01*
G37*
G36*
X15535536Y-7978098D02*
G01*
X15542349Y-7982651D01*
X15546901Y-7989464D01*
X15548500Y-7997500D01*
X15548500Y-8027500D01*
X15546901Y-8035536D01*
X15542349Y-8042349D01*
X15535536Y-8046901D01*
X15527500Y-8048500D01*
X15425000Y-8048500D01*
X15416964Y-8046901D01*
X15410151Y-8042349D01*
X15405598Y-8035536D01*
X15404000Y-8027500D01*
X15404000Y-7997500D01*
X15405598Y-7989464D01*
X15410151Y-7982651D01*
X15416964Y-7978098D01*
X15425000Y-7976500D01*
X15527500Y-7976500D01*
X15535536Y-7978098D01*
G37*
G36*
X15763036Y-7978098D02*
G01*
X15769849Y-7982651D01*
X15774401Y-7989464D01*
X15776000Y-7997500D01*
X15776000Y-8027500D01*
X15774401Y-8035536D01*
X15769849Y-8042349D01*
X15763036Y-8046901D01*
X15755000Y-8048500D01*
X15652500Y-8048500D01*
X15644464Y-8046901D01*
X15637651Y-8042349D01*
X15633098Y-8035536D01*
X15631500Y-8027500D01*
X15631500Y-7997500D01*
X15633098Y-7989464D01*
X15637651Y-7982651D01*
X15644464Y-7978098D01*
X15652500Y-7976500D01*
X15755000Y-7976500D01*
X15763036Y-7978098D01*
G37*
G36*
X14005536Y-7975598D02*
G01*
X14012349Y-7980151D01*
X14016901Y-7986964D01*
X14018500Y-7995000D01*
X14018500Y-8025000D01*
X14016901Y-8033036D01*
X14012349Y-8039849D01*
X14005536Y-8044401D01*
X13997500Y-8046000D01*
X13895000Y-8046000D01*
X13886964Y-8044401D01*
X13880151Y-8039849D01*
X13875598Y-8033036D01*
X13874000Y-8025000D01*
X13874000Y-7995000D01*
X13875598Y-7986964D01*
X13880151Y-7980151D01*
X13886964Y-7975598D01*
X13895000Y-7974000D01*
X13997500Y-7974000D01*
X14005536Y-7975598D01*
G37*
G36*
X14233036Y-7975598D02*
G01*
X14239849Y-7980151D01*
X14244401Y-7986964D01*
X14246000Y-7995000D01*
X14246000Y-8025000D01*
X14244401Y-8033036D01*
X14239849Y-8039849D01*
X14233036Y-8044401D01*
X14225000Y-8046000D01*
X14122500Y-8046000D01*
X14114464Y-8044401D01*
X14107651Y-8039849D01*
X14103098Y-8033036D01*
X14101500Y-8025000D01*
X14101500Y-7995000D01*
X14103098Y-7986964D01*
X14107651Y-7980151D01*
X14114464Y-7975598D01*
X14122500Y-7974000D01*
X14225000Y-7974000D01*
X14233036Y-7975598D01*
G37*
G36*
X14565536Y-7975598D02*
G01*
X14572349Y-7980151D01*
X14576901Y-7986964D01*
X14578500Y-7995000D01*
X14578500Y-8025000D01*
X14576901Y-8033036D01*
X14572349Y-8039849D01*
X14565536Y-8044401D01*
X14557500Y-8046000D01*
X14455000Y-8046000D01*
X14446964Y-8044401D01*
X14440151Y-8039849D01*
X14435598Y-8033036D01*
X14434000Y-8025000D01*
X14434000Y-7995000D01*
X14435598Y-7986964D01*
X14440151Y-7980151D01*
X14446964Y-7975598D01*
X14455000Y-7974000D01*
X14557500Y-7974000D01*
X14565536Y-7975598D01*
G37*
G36*
X14793036Y-7975598D02*
G01*
X14799849Y-7980151D01*
X14804401Y-7986964D01*
X14806000Y-7995000D01*
X14806000Y-8025000D01*
X14804401Y-8033036D01*
X14799849Y-8039849D01*
X14793036Y-8044401D01*
X14785000Y-8046000D01*
X14682500Y-8046000D01*
X14674464Y-8044401D01*
X14667651Y-8039849D01*
X14663098Y-8033036D01*
X14661500Y-8025000D01*
X14661500Y-7995000D01*
X14663098Y-7986964D01*
X14667651Y-7980151D01*
X14674464Y-7975598D01*
X14682500Y-7974000D01*
X14785000Y-7974000D01*
X14793036Y-7975598D01*
G37*
G36*
X15026430Y-7880763D02*
G01*
X15039091Y-7888072D01*
X15049428Y-7898409D01*
X15056737Y-7911070D01*
X15060521Y-7925190D01*
X15060521Y-7939809D01*
X15056737Y-7953930D01*
X15049428Y-7966591D01*
X15039091Y-7976928D01*
X15026430Y-7984237D01*
X15012309Y-7988021D01*
X14997690Y-7988021D01*
X14983570Y-7984237D01*
X14970909Y-7976928D01*
X14960572Y-7966591D01*
X14953263Y-7953930D01*
X14949479Y-7939809D01*
X14949479Y-7925190D01*
X14953263Y-7911070D01*
X14960572Y-7898409D01*
X14970909Y-7888072D01*
X14983570Y-7880763D01*
X14997690Y-7876979D01*
X15012309Y-7876979D01*
X15026430Y-7880763D01*
G37*
G36*
X13927743Y-7781548D02*
G01*
X13933343Y-7782198D01*
X13935256Y-7783043D01*
X13937450Y-7783479D01*
X13939798Y-7785048D01*
X13942164Y-7786093D01*
X13943780Y-7787709D01*
X13945885Y-7789115D01*
X13947291Y-7791220D01*
X13948907Y-7792836D01*
X13949952Y-7795201D01*
X13951521Y-7797550D01*
X13951957Y-7799744D01*
X13952802Y-7801657D01*
X13953451Y-7807256D01*
X13953500Y-7807500D01*
X13953500Y-7862500D01*
X13953451Y-7862744D01*
X13952802Y-7868343D01*
X13951957Y-7870256D01*
X13951521Y-7872450D01*
X13949951Y-7874799D01*
X13948907Y-7877164D01*
X13947291Y-7878780D01*
X13945885Y-7880885D01*
X13943780Y-7882291D01*
X13942164Y-7883907D01*
X13939799Y-7884951D01*
X13937450Y-7886521D01*
X13935256Y-7886957D01*
X13933343Y-7887802D01*
X13927744Y-7888451D01*
X13927500Y-7888500D01*
X13887500Y-7888500D01*
X13887256Y-7888451D01*
X13881657Y-7887802D01*
X13879744Y-7886957D01*
X13877550Y-7886521D01*
X13875201Y-7884952D01*
X13872836Y-7883907D01*
X13871220Y-7882291D01*
X13869115Y-7880885D01*
X13867709Y-7878780D01*
X13866093Y-7877164D01*
X13865048Y-7874798D01*
X13863479Y-7872450D01*
X13863043Y-7870256D01*
X13862198Y-7868343D01*
X13861548Y-7862743D01*
X13861500Y-7862500D01*
X13861500Y-7807500D01*
X13861548Y-7807257D01*
X13862198Y-7801657D01*
X13863043Y-7799743D01*
X13863479Y-7797550D01*
X13865048Y-7795202D01*
X13866093Y-7792836D01*
X13867709Y-7791219D01*
X13869115Y-7789115D01*
X13871219Y-7787709D01*
X13872836Y-7786093D01*
X13875202Y-7785048D01*
X13877550Y-7783479D01*
X13879743Y-7783043D01*
X13881657Y-7782198D01*
X13887257Y-7781548D01*
X13887500Y-7781500D01*
X13927500Y-7781500D01*
X13927743Y-7781548D01*
G37*
G36*
X14092743Y-7781548D02*
G01*
X14098343Y-7782198D01*
X14100256Y-7783043D01*
X14102450Y-7783479D01*
X14104798Y-7785048D01*
X14107164Y-7786093D01*
X14108780Y-7787709D01*
X14110885Y-7789115D01*
X14112291Y-7791220D01*
X14113907Y-7792836D01*
X14114952Y-7795201D01*
X14116521Y-7797550D01*
X14116957Y-7799744D01*
X14117802Y-7801657D01*
X14118451Y-7807256D01*
X14118500Y-7807500D01*
X14118500Y-7862500D01*
X14118451Y-7862744D01*
X14117802Y-7868343D01*
X14116957Y-7870256D01*
X14116521Y-7872450D01*
X14114951Y-7874799D01*
X14113907Y-7877164D01*
X14112291Y-7878780D01*
X14110885Y-7880885D01*
X14108780Y-7882291D01*
X14107164Y-7883907D01*
X14104799Y-7884951D01*
X14102450Y-7886521D01*
X14100256Y-7886957D01*
X14098343Y-7887802D01*
X14092744Y-7888451D01*
X14092500Y-7888500D01*
X14052500Y-7888500D01*
X14052256Y-7888451D01*
X14046657Y-7887802D01*
X14044744Y-7886957D01*
X14042550Y-7886521D01*
X14040201Y-7884952D01*
X14037836Y-7883907D01*
X14036220Y-7882291D01*
X14034115Y-7880885D01*
X14032709Y-7878780D01*
X14031093Y-7877164D01*
X14030048Y-7874798D01*
X14028479Y-7872450D01*
X14028043Y-7870256D01*
X14027198Y-7868343D01*
X14026548Y-7862743D01*
X14026500Y-7862500D01*
X14026500Y-7807500D01*
X14026548Y-7807257D01*
X14027198Y-7801657D01*
X14028043Y-7799743D01*
X14028479Y-7797550D01*
X14030048Y-7795202D01*
X14031093Y-7792836D01*
X14032709Y-7791219D01*
X14034115Y-7789115D01*
X14036219Y-7787709D01*
X14037836Y-7786093D01*
X14040202Y-7785048D01*
X14042550Y-7783479D01*
X14044743Y-7783043D01*
X14046657Y-7782198D01*
X14052257Y-7781548D01*
X14052500Y-7781500D01*
X14092500Y-7781500D01*
X14092743Y-7781548D01*
G37*
G36*
X12937080Y-7656850D02*
G01*
X12954391Y-7662474D01*
X12970610Y-7670738D01*
X12985336Y-7681437D01*
X12998207Y-7694308D01*
X13008906Y-7709035D01*
X13017170Y-7725253D01*
X13022795Y-7742565D01*
X13025642Y-7760543D01*
X13025642Y-7778746D01*
X13022795Y-7796724D01*
X13017170Y-7814036D01*
X13008906Y-7830254D01*
X12998207Y-7844980D01*
X12985336Y-7857852D01*
X12970610Y-7868551D01*
X12954391Y-7876814D01*
X12937080Y-7882439D01*
X12919101Y-7885287D01*
X12900899Y-7885287D01*
X12882920Y-7882439D01*
X12865609Y-7876814D01*
X12849390Y-7868551D01*
X12834664Y-7857852D01*
X12821793Y-7844980D01*
X12811094Y-7830254D01*
X12802830Y-7814036D01*
X12797205Y-7796724D01*
X12794358Y-7778746D01*
X12794358Y-7760543D01*
X12797205Y-7742565D01*
X12802830Y-7725253D01*
X12811094Y-7709035D01*
X12821793Y-7694308D01*
X12834664Y-7681437D01*
X12849390Y-7670738D01*
X12865609Y-7662474D01*
X12882920Y-7656850D01*
X12900899Y-7654002D01*
X12919101Y-7654002D01*
X12937080Y-7656850D01*
G37*
G36*
X16657080Y-7656850D02*
G01*
X16674391Y-7662474D01*
X16690610Y-7670738D01*
X16705336Y-7681437D01*
X16718207Y-7694308D01*
X16728906Y-7709035D01*
X16737170Y-7725253D01*
X16742795Y-7742565D01*
X16745642Y-7760543D01*
X16745642Y-7778746D01*
X16742795Y-7796724D01*
X16737170Y-7814036D01*
X16728906Y-7830254D01*
X16718207Y-7844980D01*
X16705336Y-7857852D01*
X16690610Y-7868551D01*
X16674391Y-7876814D01*
X16657080Y-7882439D01*
X16639101Y-7885287D01*
X16620899Y-7885287D01*
X16602920Y-7882439D01*
X16585609Y-7876814D01*
X16569390Y-7868551D01*
X16554664Y-7857852D01*
X16541793Y-7844980D01*
X16531094Y-7830254D01*
X16522830Y-7814036D01*
X16517205Y-7796724D01*
X16514358Y-7778746D01*
X16514358Y-7760543D01*
X16517205Y-7742565D01*
X16522830Y-7725253D01*
X16531094Y-7709035D01*
X16541793Y-7694308D01*
X16554664Y-7681437D01*
X16569390Y-7670738D01*
X16585609Y-7662474D01*
X16602920Y-7656850D01*
X16620899Y-7654002D01*
X16639101Y-7654002D01*
X16657080Y-7656850D01*
G37*
G36*
X14625243Y-7766548D02*
G01*
X14630843Y-7767198D01*
X14632756Y-7768043D01*
X14634950Y-7768479D01*
X14637298Y-7770048D01*
X14639664Y-7771093D01*
X14641280Y-7772709D01*
X14643385Y-7774115D01*
X14644791Y-7776220D01*
X14646407Y-7777836D01*
X14647452Y-7780201D01*
X14649021Y-7782550D01*
X14649457Y-7784744D01*
X14650302Y-7786657D01*
X14650951Y-7792256D01*
X14651000Y-7792500D01*
X14651000Y-7847500D01*
X14650951Y-7847744D01*
X14650302Y-7853343D01*
X14649457Y-7855256D01*
X14649021Y-7857450D01*
X14647451Y-7859799D01*
X14646407Y-7862164D01*
X14644791Y-7863780D01*
X14643385Y-7865885D01*
X14641280Y-7867291D01*
X14639664Y-7868907D01*
X14637299Y-7869951D01*
X14634950Y-7871521D01*
X14632756Y-7871957D01*
X14630843Y-7872802D01*
X14625244Y-7873451D01*
X14625000Y-7873500D01*
X14585000Y-7873500D01*
X14584756Y-7873451D01*
X14579157Y-7872802D01*
X14577244Y-7871957D01*
X14575050Y-7871521D01*
X14572701Y-7869952D01*
X14570336Y-7868907D01*
X14568720Y-7867291D01*
X14566615Y-7865885D01*
X14565209Y-7863780D01*
X14563593Y-7862164D01*
X14562548Y-7859798D01*
X14560979Y-7857450D01*
X14560543Y-7855256D01*
X14559698Y-7853343D01*
X14559048Y-7847743D01*
X14559000Y-7847500D01*
X14559000Y-7792500D01*
X14559048Y-7792257D01*
X14559698Y-7786657D01*
X14560543Y-7784743D01*
X14560979Y-7782550D01*
X14562548Y-7780202D01*
X14563593Y-7777836D01*
X14565209Y-7776219D01*
X14566615Y-7774115D01*
X14568719Y-7772709D01*
X14570336Y-7771093D01*
X14572702Y-7770048D01*
X14575050Y-7768479D01*
X14577243Y-7768043D01*
X14579157Y-7767198D01*
X14584757Y-7766548D01*
X14585000Y-7766500D01*
X14625000Y-7766500D01*
X14625243Y-7766548D01*
G37*
G36*
X14790243Y-7766548D02*
G01*
X14795843Y-7767198D01*
X14797756Y-7768043D01*
X14799950Y-7768479D01*
X14802298Y-7770048D01*
X14804664Y-7771093D01*
X14806280Y-7772709D01*
X14808385Y-7774115D01*
X14809791Y-7776220D01*
X14811407Y-7777836D01*
X14812452Y-7780201D01*
X14814021Y-7782550D01*
X14814457Y-7784744D01*
X14815302Y-7786657D01*
X14815951Y-7792256D01*
X14816000Y-7792500D01*
X14816000Y-7847500D01*
X14815951Y-7847744D01*
X14815302Y-7853343D01*
X14814457Y-7855256D01*
X14814021Y-7857450D01*
X14812451Y-7859799D01*
X14811407Y-7862164D01*
X14809791Y-7863780D01*
X14808385Y-7865885D01*
X14806280Y-7867291D01*
X14804664Y-7868907D01*
X14802299Y-7869951D01*
X14799950Y-7871521D01*
X14797756Y-7871957D01*
X14795843Y-7872802D01*
X14790244Y-7873451D01*
X14790000Y-7873500D01*
X14750000Y-7873500D01*
X14749756Y-7873451D01*
X14744157Y-7872802D01*
X14742244Y-7871957D01*
X14740050Y-7871521D01*
X14737701Y-7869952D01*
X14735336Y-7868907D01*
X14733720Y-7867291D01*
X14731615Y-7865885D01*
X14730209Y-7863780D01*
X14728593Y-7862164D01*
X14727548Y-7859798D01*
X14725979Y-7857450D01*
X14725543Y-7855256D01*
X14724698Y-7853343D01*
X14724048Y-7847743D01*
X14724000Y-7847500D01*
X14724000Y-7792500D01*
X14724048Y-7792257D01*
X14724698Y-7786657D01*
X14725543Y-7784743D01*
X14725979Y-7782550D01*
X14727548Y-7780202D01*
X14728593Y-7777836D01*
X14730209Y-7776219D01*
X14731615Y-7774115D01*
X14733719Y-7772709D01*
X14735336Y-7771093D01*
X14737702Y-7770048D01*
X14740050Y-7768479D01*
X14742243Y-7768043D01*
X14744157Y-7767198D01*
X14749757Y-7766548D01*
X14750000Y-7766500D01*
X14790000Y-7766500D01*
X14790243Y-7766548D01*
G37*
G36*
X13531430Y-7753263D02*
G01*
X13544091Y-7760572D01*
X13554428Y-7770909D01*
X13561737Y-7783570D01*
X13565521Y-7797690D01*
X13565521Y-7812309D01*
X13561737Y-7826430D01*
X13554428Y-7839091D01*
X13544091Y-7849428D01*
X13531430Y-7856737D01*
X13517309Y-7860521D01*
X13502690Y-7860521D01*
X13488570Y-7856737D01*
X13475909Y-7849428D01*
X13465572Y-7839091D01*
X13458263Y-7826430D01*
X13454479Y-7812309D01*
X13454479Y-7797690D01*
X13458263Y-7783570D01*
X13465572Y-7770909D01*
X13475909Y-7760572D01*
X13488570Y-7753263D01*
X13502690Y-7749479D01*
X13517309Y-7749479D01*
X13531430Y-7753263D01*
G37*
G36*
X15577017Y-7692882D02*
G01*
X15588547Y-7699539D01*
X15597961Y-7708953D01*
X15604618Y-7720483D01*
X15608064Y-7733343D01*
X15608064Y-7746657D01*
X15604618Y-7759517D01*
X15597961Y-7771047D01*
X15588547Y-7780461D01*
X15577017Y-7787118D01*
X15564157Y-7790564D01*
X15550843Y-7790564D01*
X15537983Y-7787118D01*
X15526453Y-7780461D01*
X15517039Y-7771047D01*
X15510382Y-7759517D01*
X15506936Y-7746657D01*
X15506936Y-7733343D01*
X15510382Y-7720483D01*
X15517039Y-7708953D01*
X15526453Y-7699539D01*
X15537983Y-7692882D01*
X15550843Y-7689436D01*
X15564157Y-7689436D01*
X15577017Y-7692882D01*
G37*
G36*
X16002017Y-7692882D02*
G01*
X16013547Y-7699539D01*
X16022961Y-7708953D01*
X16029618Y-7720483D01*
X16033064Y-7733343D01*
X16033064Y-7746657D01*
X16029618Y-7759517D01*
X16022961Y-7771047D01*
X16013547Y-7780461D01*
X16002017Y-7787118D01*
X15989157Y-7790564D01*
X15975843Y-7790564D01*
X15962983Y-7787118D01*
X15951453Y-7780461D01*
X15942039Y-7771047D01*
X15935382Y-7759517D01*
X15931936Y-7746657D01*
X15931936Y-7733343D01*
X15935382Y-7720483D01*
X15942039Y-7708953D01*
X15951453Y-7699539D01*
X15962983Y-7692882D01*
X15975843Y-7689436D01*
X15989157Y-7689436D01*
X16002017Y-7692882D01*
G37*
G36*
X13927743Y-7611548D02*
G01*
X13933343Y-7612198D01*
X13935256Y-7613043D01*
X13937450Y-7613479D01*
X13939798Y-7615048D01*
X13942164Y-7616093D01*
X13943780Y-7617709D01*
X13945885Y-7619115D01*
X13947291Y-7621220D01*
X13948907Y-7622836D01*
X13949952Y-7625201D01*
X13951521Y-7627550D01*
X13951957Y-7629744D01*
X13952802Y-7631657D01*
X13953451Y-7637256D01*
X13953500Y-7637500D01*
X13953500Y-7692500D01*
X13953451Y-7692744D01*
X13952802Y-7698343D01*
X13951957Y-7700256D01*
X13951521Y-7702450D01*
X13949951Y-7704799D01*
X13948907Y-7707164D01*
X13947291Y-7708780D01*
X13945885Y-7710885D01*
X13943780Y-7712291D01*
X13942164Y-7713907D01*
X13939799Y-7714951D01*
X13937450Y-7716521D01*
X13935256Y-7716957D01*
X13933343Y-7717802D01*
X13927744Y-7718451D01*
X13927500Y-7718500D01*
X13887500Y-7718500D01*
X13887256Y-7718451D01*
X13881657Y-7717802D01*
X13879744Y-7716957D01*
X13877550Y-7716521D01*
X13875201Y-7714952D01*
X13872836Y-7713907D01*
X13871220Y-7712291D01*
X13869115Y-7710885D01*
X13867709Y-7708780D01*
X13866093Y-7707164D01*
X13865048Y-7704798D01*
X13863479Y-7702450D01*
X13863043Y-7700256D01*
X13862198Y-7698343D01*
X13861548Y-7692743D01*
X13861500Y-7692500D01*
X13861500Y-7637500D01*
X13861548Y-7637257D01*
X13862198Y-7631657D01*
X13863043Y-7629743D01*
X13863479Y-7627550D01*
X13865048Y-7625202D01*
X13866093Y-7622836D01*
X13867709Y-7621219D01*
X13869115Y-7619115D01*
X13871219Y-7617709D01*
X13872836Y-7616093D01*
X13875202Y-7615048D01*
X13877550Y-7613479D01*
X13879743Y-7613043D01*
X13881657Y-7612198D01*
X13887257Y-7611548D01*
X13887500Y-7611500D01*
X13927500Y-7611500D01*
X13927743Y-7611548D01*
G37*
G36*
X14092743Y-7611548D02*
G01*
X14098343Y-7612198D01*
X14100256Y-7613043D01*
X14102450Y-7613479D01*
X14104798Y-7615048D01*
X14107164Y-7616093D01*
X14108780Y-7617709D01*
X14110885Y-7619115D01*
X14112291Y-7621220D01*
X14113907Y-7622836D01*
X14114952Y-7625201D01*
X14116521Y-7627550D01*
X14116957Y-7629744D01*
X14117802Y-7631657D01*
X14118451Y-7637256D01*
X14118500Y-7637500D01*
X14118500Y-7692500D01*
X14118451Y-7692744D01*
X14117802Y-7698343D01*
X14116957Y-7700256D01*
X14116521Y-7702450D01*
X14114951Y-7704799D01*
X14113907Y-7707164D01*
X14112291Y-7708780D01*
X14110885Y-7710885D01*
X14108780Y-7712291D01*
X14107164Y-7713907D01*
X14104799Y-7714951D01*
X14102450Y-7716521D01*
X14100256Y-7716957D01*
X14098343Y-7717802D01*
X14092744Y-7718451D01*
X14092500Y-7718500D01*
X14052500Y-7718500D01*
X14052256Y-7718451D01*
X14046657Y-7717802D01*
X14044744Y-7716957D01*
X14042550Y-7716521D01*
X14040201Y-7714952D01*
X14037836Y-7713907D01*
X14036220Y-7712291D01*
X14034115Y-7710885D01*
X14032709Y-7708780D01*
X14031093Y-7707164D01*
X14030048Y-7704798D01*
X14028479Y-7702450D01*
X14028043Y-7700256D01*
X14027198Y-7698343D01*
X14026548Y-7692743D01*
X14026500Y-7692500D01*
X14026500Y-7637500D01*
X14026548Y-7637257D01*
X14027198Y-7631657D01*
X14028043Y-7629743D01*
X14028479Y-7627550D01*
X14030048Y-7625202D01*
X14031093Y-7622836D01*
X14032709Y-7621219D01*
X14034115Y-7619115D01*
X14036219Y-7617709D01*
X14037836Y-7616093D01*
X14040202Y-7615048D01*
X14042550Y-7613479D01*
X14044743Y-7613043D01*
X14046657Y-7612198D01*
X14052257Y-7611548D01*
X14052500Y-7611500D01*
X14092500Y-7611500D01*
X14092743Y-7611548D01*
G37*
M02*
