%TF.GenerationSoftware,KiCad,Pcbnew,9.0.7*%
%TF.CreationDate,2026-09-02T11:28:57-04:00*%
%TF.ProjectId,sleep_mask,736c6565-705f-46d6-9173-6b2e6b696361,rev?*%
%TF.SameCoordinates,Original*%
%TF.FileFunction,Copper,L4,Bot*%
%TF.FilePolarity,Positive*%
%FSLAX45Y45*%
G04 Gerber Fmt 4.5, Leading zero omitted, Abs format (unit mm)*
G04 Created by KiCad (PCBNEW 9.0.7) date 2026-09-02 11:28:57*
%MOMM*%
%LPD*%
G01*
G04 APERTURE LIST*
G04 Aperture macros list*
%AMRoundRect*
0 Rectangle with rounded corners*
0 $1 Rounding radius*
0 $2 $3 $4 $5 $6 $7 $8 $9 X,Y pos of 4 corners*
0 Add a 4 corners polygon primitive as box body*
4,1,4,$2,$3,$4,$5,$6,$7,$8,$9,$2,$3,0*
0 Add four circle primitives for the rounded corners*
1,1,$1+$1,$2,$3*
1,1,$1+$1,$4,$5*
1,1,$1+$1,$6,$7*
1,1,$1+$1,$8,$9*
0 Add four rect primitives between the rounded corners*
20,1,$1+$1,$2,$3,$4,$5,0*
20,1,$1+$1,$4,$5,$6,$7,0*
20,1,$1+$1,$6,$7,$8,$9,0*
20,1,$1+$1,$8,$9,$2,$3,0*%
G04 Aperture macros list end*
%TA.AperFunction,HeatsinkPad*%
%ADD10C,0.500000*%
%TD*%
%TA.AperFunction,SMDPad,CuDef*%
%ADD11RoundRect,0.051000X-0.824000X0.699000X-0.824000X-0.699000X0.824000X-0.699000X0.824000X0.699000X0*%
%TD*%
%TA.AperFunction,SMDPad,CuDef*%
%ADD12RoundRect,0.187500X-0.187500X-0.712500X0.187500X-0.712500X0.187500X0.712500X-0.187500X0.712500X0*%
%TD*%
%TA.AperFunction,SMDPad,CuDef*%
%ADD13RoundRect,0.150000X-0.150000X-0.750000X0.150000X-0.750000X0.150000X0.750000X-0.150000X0.750000X0*%
%TD*%
%TA.AperFunction,SMDPad,CuDef*%
%ADD14RoundRect,0.225000X-0.425000X-0.225000X0.425000X-0.225000X0.425000X0.225000X-0.425000X0.225000X0*%
%TD*%
%TA.AperFunction,SMDPad,CuDef*%
%ADD15RoundRect,0.200000X0.275000X-0.200000X0.275000X0.200000X-0.275000X0.200000X-0.275000X-0.200000X0*%
%TD*%
%TA.AperFunction,SMDPad,CuDef*%
%ADD16RoundRect,0.175000X-0.175000X-0.425000X0.175000X-0.425000X0.175000X0.425000X-0.175000X0.425000X0*%
%TD*%
%TA.AperFunction,SMDPad,CuDef*%
%ADD17RoundRect,0.190000X0.190000X0.410000X-0.190000X0.410000X-0.190000X-0.410000X0.190000X-0.410000X0*%
%TD*%
%TA.AperFunction,SMDPad,CuDef*%
%ADD18RoundRect,0.200000X0.200000X0.400000X-0.200000X0.400000X-0.200000X-0.400000X0.200000X-0.400000X0*%
%TD*%
%TA.AperFunction,SMDPad,CuDef*%
%ADD19RoundRect,0.175000X0.175000X0.425000X-0.175000X0.425000X-0.175000X-0.425000X0.175000X-0.425000X0*%
%TD*%
%TA.AperFunction,SMDPad,CuDef*%
%ADD20RoundRect,0.190000X-0.190000X-0.410000X0.190000X-0.410000X0.190000X0.410000X-0.190000X0.410000X0*%
%TD*%
%TA.AperFunction,SMDPad,CuDef*%
%ADD21RoundRect,0.200000X-0.200000X-0.400000X0.200000X-0.400000X0.200000X0.400000X-0.200000X0.400000X0*%
%TD*%
%TA.AperFunction,SMDPad,CuDef*%
%ADD22RoundRect,0.250000X-0.650000X-0.500000X0.650000X-0.500000X0.650000X0.500000X-0.650000X0.500000X0*%
%TD*%
%TA.AperFunction,SMDPad,CuDef*%
%ADD23RoundRect,0.250000X-0.650000X-0.425000X0.650000X-0.425000X0.650000X0.425000X-0.650000X0.425000X0*%
%TD*%
%TA.AperFunction,SMDPad,CuDef*%
%ADD24RoundRect,0.075000X0.075000X0.175000X-0.075000X0.175000X-0.075000X-0.175000X0.075000X-0.175000X0*%
%TD*%
%TA.AperFunction,SMDPad,CuDef*%
%ADD25R,1.000000X0.900000*%
%TD*%
%TA.AperFunction,SMDPad,CuDef*%
%ADD26R,0.400000X0.800000*%
%TD*%
%TA.AperFunction,SMDPad,CuDef*%
%ADD27RoundRect,0.140000X0.170000X-0.140000X0.170000X0.140000X-0.170000X0.140000X-0.170000X-0.140000X0*%
%TD*%
%TA.AperFunction,SMDPad,CuDef*%
%ADD28RoundRect,0.250000X-0.400000X-0.625000X0.400000X-0.625000X0.400000X0.625000X-0.400000X0.625000X0*%
%TD*%
%TA.AperFunction,ConnectorPad*%
%ADD29C,0.787400*%
%TD*%
%TA.AperFunction,SMDPad,CuDef*%
%ADD30RoundRect,0.135000X0.135000X0.185000X-0.135000X0.185000X-0.135000X-0.185000X0.135000X-0.185000X0*%
%TD*%
%TA.AperFunction,ViaPad*%
%ADD31C,0.800000*%
%TD*%
%TA.AperFunction,ViaPad*%
%ADD32C,0.700000*%
%TD*%
%TA.AperFunction,ViaPad*%
%ADD33C,0.550000*%
%TD*%
%TA.AperFunction,ViaPad*%
%ADD34C,0.600000*%
%TD*%
%TA.AperFunction,Conductor*%
%ADD35C,0.300000*%
%TD*%
%TA.AperFunction,Conductor*%
%ADD36C,0.500000*%
%TD*%
%TA.AperFunction,Conductor*%
%ADD37C,0.750000*%
%TD*%
G04 APERTURE END LIST*
D10*
%TO.P,U3,9,TP*%
%TO.N,GND*%
X15367500Y-9608555D03*
X15430000Y-9658555D03*
D11*
X15367500Y-9658555D03*
D10*
X15305000Y-9658555D03*
X15367500Y-9708555D03*
%TD*%
D12*
%TO.P,SW1,1,1*%
%TO.N,GND*%
X15647500Y-7830000D03*
X15892500Y-7830000D03*
D13*
%TO.P,SW1,2,2*%
%TO.N,/Power/PWR_{IN}*%
X15770000Y-7830000D03*
D14*
%TO.P,SW1,MP*%
%TO.N,N/C*%
X15585000Y-7635000D03*
X15955000Y-7635000D03*
%TD*%
D15*
%TO.P,R23,1*%
%TO.N,/Processor/TIM2_CH4_G*%
X14730000Y-8090000D03*
%TO.P,R23,2*%
%TO.N,/Processor/G*%
X14730000Y-7925000D03*
%TD*%
D16*
%TO.P,J1,A5,CC1*%
%TO.N,/Power/CC1*%
X13720000Y-8173250D03*
D17*
%TO.P,J1,A9,VBUS*%
%TO.N,/Power/VBUS*%
X13922000Y-8173250D03*
D18*
%TO.P,J1,A12,GND*%
%TO.N,GND*%
X14045000Y-8173250D03*
D19*
%TO.P,J1,B5,CC2*%
%TO.N,/Power/CC2*%
X13820000Y-8173250D03*
D20*
%TO.P,J1,B9,VBUS*%
%TO.N,/Power/VBUS*%
X13618000Y-8173250D03*
D21*
%TO.P,J1,B12,GND*%
%TO.N,GND*%
X13495000Y-8173250D03*
D22*
%TO.P,J1,S1,SHIELD*%
X13257500Y-7809750D03*
D23*
X13257500Y-8167750D03*
D22*
X14282500Y-7809750D03*
D23*
X14282500Y-8167750D03*
%TD*%
D24*
%TO.P,D3,1,A1*%
%TO.N,GND*%
X15840750Y-7990000D03*
%TO.P,D3,2,A2*%
%TO.N,/Power/PWR_{IN}*%
X15770750Y-7990000D03*
%TD*%
D25*
%TO.P,D10,1,R*%
%TO.N,/Processor/R*%
X14920000Y-7680000D03*
%TO.P,D10,2,A*%
%TO.N,+3.3V*%
X14620000Y-7680000D03*
D26*
%TO.P,D10,3,G*%
%TO.N,/Processor/G*%
X14730000Y-7725000D03*
%TO.P,D10,4,B*%
%TO.N,/Processor/B*%
X14810000Y-7725000D03*
%TD*%
D27*
%TO.P,C15,1*%
%TO.N,GND*%
X14477500Y-7720500D03*
%TO.P,C15,2*%
%TO.N,+3.3V*%
X14477500Y-7624500D03*
%TD*%
D28*
%TO.P,BT1,1,+*%
%TO.N,/Power/BATT*%
X16305000Y-8150000D03*
%TO.P,BT1,2,-*%
%TO.N,GND*%
X16615000Y-8150000D03*
%TD*%
D15*
%TO.P,R22,1*%
%TO.N,/Processor/TIM21_CH1_R*%
X15030000Y-8090000D03*
%TO.P,R22,2*%
%TO.N,/Processor/R*%
X15030000Y-7925000D03*
%TD*%
D29*
%TO.P,J3,1,VCC*%
%TO.N,+3.3V*%
X14024827Y-8758866D03*
%TO.P,J3,2,SWDIO*%
%TO.N,/Processor/SWDIO_{IN}*%
X14024827Y-8885866D03*
%TO.P,J3,3,~{RESET}*%
%TO.N,/Processor/~{RESET_{IN}}*%
X14151827Y-8758866D03*
%TO.P,J3,4,SWCLK*%
%TO.N,/Processor/SWCLK_{IN}*%
X14151827Y-8885866D03*
%TO.P,J3,5,GND*%
%TO.N,GND*%
X14278827Y-8758866D03*
%TO.P,J3,6,SWO*%
%TO.N,unconnected-(J3-SWO-Pad6)*%
X14278827Y-8885866D03*
%TD*%
D30*
%TO.P,TH1,1*%
%TO.N,/Power/TS*%
X14821000Y-9310000D03*
%TO.P,TH1,2*%
%TO.N,GND*%
X14719000Y-9310000D03*
%TD*%
D15*
%TO.P,R26,1*%
%TO.N,/Processor/TIM2_CH3_B*%
X14880000Y-8090000D03*
%TO.P,R26,2*%
%TO.N,/Processor/B*%
X14880000Y-7925000D03*
%TD*%
D31*
%TO.N,+3.3V*%
X16190000Y-9455000D03*
X14076000Y-8637500D03*
X15145000Y-9035000D03*
D32*
X16505000Y-9690000D03*
X13805000Y-7665000D03*
X16580000Y-9690000D03*
D31*
X16145000Y-8690000D03*
%TO.N,/Power/VBUS*%
X13922500Y-8355000D03*
D32*
X13510000Y-7945000D03*
%TO.N,GND*%
X12930000Y-8700000D03*
X15905000Y-7990000D03*
X15272500Y-8355000D03*
X16630000Y-8690000D03*
D31*
X16305000Y-9970000D03*
D32*
X15595000Y-9650000D03*
X13162500Y-9480000D03*
X15230000Y-8010000D03*
X13065000Y-8435000D03*
X16670000Y-9300000D03*
X14120000Y-9655000D03*
X15825000Y-9035000D03*
X16780000Y-9290000D03*
X13062500Y-9030000D03*
X16780000Y-8930000D03*
X14800000Y-9810000D03*
X13750000Y-8950000D03*
X13335000Y-9790000D03*
X12952500Y-9630000D03*
D31*
X13946000Y-8637500D03*
D32*
X16270000Y-7990000D03*
D33*
X14205000Y-9745000D03*
D32*
X16100000Y-10130000D03*
X13472500Y-9330000D03*
X12760000Y-9170000D03*
D31*
X14045000Y-8355000D03*
D32*
X16250000Y-7620000D03*
X15830000Y-9205000D03*
X13770000Y-9675000D03*
D31*
X13495000Y-8045000D03*
D32*
X16382500Y-9691512D03*
D31*
X16237500Y-9564012D03*
D32*
X13470000Y-9675000D03*
D31*
X14837500Y-9602500D03*
D32*
X16780000Y-7940000D03*
D31*
X13946000Y-9007500D03*
D32*
X13320000Y-10172500D03*
X14720000Y-9222500D03*
X16780000Y-9290000D03*
X15250000Y-8620000D03*
D31*
X13232500Y-9975000D03*
D32*
X15360000Y-7922500D03*
X15840000Y-9810000D03*
X16660000Y-8920000D03*
X16090000Y-9970000D03*
X13570000Y-9465000D03*
X14475000Y-9465000D03*
X14270000Y-9990000D03*
X13390000Y-7620000D03*
X13715000Y-7665000D03*
X13162500Y-9030000D03*
X12760000Y-8550000D03*
X13402500Y-8455000D03*
X16780000Y-8440000D03*
X16780000Y-9600000D03*
X13315000Y-8812500D03*
X14660000Y-8840000D03*
D31*
X13802500Y-8020000D03*
D32*
X14640000Y-8420000D03*
X13670000Y-9465000D03*
X15280000Y-9120000D03*
X15910000Y-10140000D03*
X13052500Y-9730000D03*
X12760000Y-8860000D03*
X15830000Y-10030000D03*
X15980000Y-9310000D03*
X13570000Y-9675000D03*
X13152500Y-9730000D03*
X16580000Y-9790000D03*
X12760000Y-7930000D03*
X15450000Y-10170000D03*
X15120000Y-9915000D03*
X12952500Y-9330000D03*
D31*
X13720000Y-8020000D03*
D32*
X15660000Y-10170000D03*
X13212500Y-9307500D03*
X13915000Y-9955000D03*
X12760000Y-7620000D03*
D31*
X16405000Y-8385000D03*
D32*
X12930000Y-8080000D03*
X14580000Y-8920000D03*
X16780000Y-9910000D03*
X12760000Y-9480000D03*
X13262500Y-9480000D03*
X15225000Y-8955000D03*
X13252500Y-9730000D03*
X12952500Y-9130000D03*
X13660000Y-8680000D03*
X15840000Y-9560000D03*
X12760000Y-8240000D03*
D31*
X16342500Y-8745000D03*
D32*
X13262500Y-9030000D03*
X14060000Y-8061149D03*
X13472500Y-9130000D03*
X13070000Y-7620000D03*
X16390000Y-7820000D03*
D31*
X12792500Y-9897500D03*
D32*
X13520000Y-10080000D03*
D31*
X14336000Y-9007500D03*
D32*
X13670000Y-9675000D03*
X15180000Y-9210000D03*
X14500000Y-8490000D03*
X15470000Y-7690000D03*
X13260000Y-8045000D03*
X13472500Y-9430000D03*
X13155000Y-8812500D03*
X13770000Y-9465000D03*
D31*
X16520000Y-8005000D03*
D32*
X13472500Y-9230000D03*
X13362500Y-9030000D03*
X13490000Y-8840000D03*
X13370000Y-9675000D03*
X16510000Y-8560000D03*
X14035000Y-9105000D03*
X12952500Y-9530000D03*
X14550000Y-9925000D03*
X16672500Y-9685000D03*
X16745000Y-8150000D03*
D31*
X15275000Y-9890000D03*
D32*
X15640000Y-8860000D03*
X12952500Y-9430000D03*
X14635000Y-9405000D03*
X13720000Y-9195000D03*
X14800000Y-10090000D03*
X16770000Y-7620000D03*
X14340000Y-8295000D03*
X15545000Y-7840000D03*
D33*
X16427250Y-9137750D03*
D32*
X15970000Y-9690000D03*
X15520000Y-9890000D03*
X16780000Y-8690000D03*
D31*
X16237500Y-9132600D03*
D32*
X14260000Y-7935000D03*
D31*
X16232500Y-9354012D03*
X13607500Y-8477500D03*
D32*
X15230000Y-7690000D03*
X15500000Y-9090000D03*
X14610000Y-8640000D03*
X13810000Y-7790000D03*
X13775000Y-10065000D03*
D31*
X14336000Y-8637500D03*
D32*
X12952500Y-9730000D03*
X13472500Y-9030000D03*
X12952500Y-9230000D03*
X14020000Y-10090000D03*
X14410000Y-9875000D03*
X14900000Y-9970000D03*
X14630000Y-10090000D03*
X15455000Y-8730000D03*
X15650000Y-9190000D03*
X16420000Y-7620000D03*
X13260000Y-7680000D03*
X16307500Y-9691512D03*
D31*
X14477500Y-7817500D03*
D32*
X12952500Y-9030000D03*
X14995000Y-9080000D03*
X13070000Y-7930000D03*
X16035000Y-8685000D03*
X13510000Y-7690000D03*
X12930000Y-8390000D03*
X12760000Y-9690000D03*
X15885000Y-8510000D03*
D31*
%TO.N,/Processor/SWDIO_{IN}*%
X14076000Y-9007500D03*
X14375000Y-9100000D03*
%TO.N,/Processor/OVP*%
X12860000Y-9970000D03*
X15402500Y-9905000D03*
%TO.N,/Processor/SWCLK_{IN}*%
X14206000Y-9007500D03*
%TO.N,VCC*%
X15825000Y-8602500D03*
X15735000Y-9295000D03*
D32*
X15735000Y-8875000D03*
%TO.N,/Power/SIG.~{CHG}*%
X14135000Y-9987500D03*
X14171433Y-7700330D03*
D31*
%TO.N,/Processor/~{RESET_{IN}}*%
X14206000Y-8637500D03*
D32*
%TO.N,/Power/CC1*%
X13155000Y-8435000D03*
D31*
%TO.N,/Processor/LED*%
X16695000Y-9967500D03*
X15547500Y-9520000D03*
D32*
%TO.N,/Power/CC2*%
X13315000Y-8435000D03*
D31*
%TO.N,/Processor/LED_{CONN}*%
X13130000Y-9970000D03*
X16415000Y-9970000D03*
D33*
%TO.N,/Processor/~{RESET}*%
X13865000Y-9694500D03*
X13865000Y-9465000D03*
D32*
%TO.N,/Power/SIG.V_{BATT}*%
X15885000Y-8400000D03*
X14480000Y-10060000D03*
D33*
%TO.N,/Processor/R_{S}*%
X15417500Y-9440000D03*
D34*
X15187500Y-9440000D03*
D32*
%TO.N,/Power/SIG.IO*%
X14725000Y-9415000D03*
X14208497Y-9930918D03*
%TO.N,/Power/FET_{NG}*%
X15360000Y-8340000D03*
X15360000Y-8012500D03*
%TO.N,/Power/PWR_{IN}*%
X15250000Y-8715000D03*
D31*
%TO.N,/Power/FET_{PD_PD}*%
X14477500Y-7920000D03*
X14480000Y-8302500D03*
D33*
%TO.N,/Power/TS*%
X14260000Y-8285000D03*
D32*
X14985000Y-8990000D03*
X14505000Y-8995000D03*
D31*
%TO.N,/Power/BATT*%
X16305000Y-8385000D03*
D33*
%TO.N,/Processor/TIM2_CH3_B*%
X14150000Y-9450000D03*
%TO.N,/Processor/TIM21_CH1_R*%
X14365000Y-9535000D03*
%TO.N,/Processor/TIM2_CH4_G*%
X14075000Y-9450000D03*
%TD*%
D35*
%TO.N,/Processor/R*%
X15030000Y-7925000D02*
X15030000Y-7863750D01*
X15030000Y-7863750D02*
X14920000Y-7753750D01*
X14920000Y-7753750D02*
X14920000Y-7680000D01*
%TO.N,/Processor/G*%
X14730000Y-7725000D02*
X14730000Y-7902500D01*
%TO.N,/Processor/B*%
X14810000Y-7725000D02*
X14810000Y-7790000D01*
X14810000Y-7790000D02*
X14880000Y-7860000D01*
X14880000Y-7860000D02*
X14880000Y-7902500D01*
D36*
%TO.N,+3.3V*%
X14695255Y-7604744D02*
X14620000Y-7680000D01*
X13805000Y-7665000D02*
X13845500Y-7624500D01*
X15145000Y-7657500D02*
X15145000Y-9035000D01*
X14024827Y-8758866D02*
X14024827Y-8688673D01*
X16270000Y-9455000D02*
X16505000Y-9690000D01*
X16145000Y-8690000D02*
X16195000Y-8640000D01*
X16580000Y-9690000D02*
X16505000Y-9690000D01*
D35*
X15005000Y-7594744D02*
X15015000Y-7604744D01*
D36*
X15092244Y-7604744D02*
X15145000Y-7657500D01*
X14564500Y-7624500D02*
X14620000Y-7680000D01*
X16195000Y-8640000D02*
X16460000Y-8640000D01*
X15015000Y-7604744D02*
X15092244Y-7604744D01*
X14485000Y-7624500D02*
X14564500Y-7624500D01*
D35*
X14845255Y-7594744D02*
X15005000Y-7594744D01*
D36*
X16460000Y-8640000D02*
X16580000Y-8760000D01*
X13845500Y-7624500D02*
X14477500Y-7624500D01*
X16580000Y-8760000D02*
X16580000Y-9690000D01*
D35*
X14835255Y-7604744D02*
X14845255Y-7594744D01*
D36*
X16190000Y-9455000D02*
X16270000Y-9455000D01*
X14835255Y-7604744D02*
X14695255Y-7604744D01*
X14024827Y-8688673D02*
X14076000Y-8637500D01*
D37*
%TO.N,/Power/VBUS*%
X13922000Y-7952000D02*
X13860000Y-7890000D01*
X13922000Y-8173250D02*
X13922000Y-7952000D01*
X13680000Y-7890000D02*
X13618000Y-7952000D01*
D35*
X13510000Y-7945000D02*
X13611000Y-7945000D01*
D37*
X13922500Y-8355000D02*
X13922000Y-8354500D01*
D35*
X13611000Y-7945000D02*
X13618000Y-7952000D01*
D37*
X13922000Y-8354500D02*
X13922000Y-8173250D01*
X13860000Y-7890000D02*
X13680000Y-7890000D01*
X13618000Y-7952000D02*
X13618000Y-8173250D01*
D36*
%TO.N,GND*%
X15647500Y-7830000D02*
X15555000Y-7830000D01*
X15840750Y-7990000D02*
X15905000Y-7990000D01*
X14282500Y-7809750D02*
X14282500Y-7912500D01*
X13257500Y-7809750D02*
X13257500Y-7682500D01*
X14340000Y-8295000D02*
X14340000Y-8225250D01*
X14278827Y-8758866D02*
X14278827Y-8694673D01*
X15892500Y-7830000D02*
X15892500Y-7977500D01*
X14282500Y-8167750D02*
X14282500Y-7957500D01*
X13257500Y-8047500D02*
X13257500Y-8167750D01*
X14477500Y-7720500D02*
X14477500Y-7817500D01*
X14045000Y-8076149D02*
X14060000Y-8061149D01*
X14282500Y-7957500D02*
X14260000Y-7935000D01*
X14278827Y-8694673D02*
X14336000Y-8637500D01*
X13260000Y-8045000D02*
X13257500Y-8047500D01*
X14045000Y-8173250D02*
X14045000Y-8076149D01*
D37*
X14045000Y-8355000D02*
X14045000Y-8173250D01*
D36*
X13257500Y-7682500D02*
X13260000Y-7680000D01*
X16745000Y-8150000D02*
X16615000Y-8150000D01*
X15905000Y-7842500D02*
X15892500Y-7830000D01*
X14282500Y-7912500D02*
X14260000Y-7935000D01*
X14340000Y-8225250D02*
X14282500Y-8167750D01*
D37*
X13495000Y-8045000D02*
X13495000Y-8173250D01*
D35*
%TO.N,/Processor/SWDIO_{IN}*%
X14170000Y-9100000D02*
X14075000Y-9005000D01*
D36*
X14024827Y-8956327D02*
X14076000Y-9007500D01*
D35*
X14375000Y-9100000D02*
X14170000Y-9100000D01*
D36*
X14076000Y-9006000D02*
X14075000Y-9005000D01*
X14076000Y-9007500D02*
X14076000Y-9006000D01*
X14024827Y-8885866D02*
X14024827Y-8956327D01*
%TO.N,/Processor/OVP*%
X15327500Y-10170000D02*
X13432500Y-10170000D01*
X13260000Y-9870000D02*
X12960000Y-9870000D01*
X13320000Y-10057500D02*
X13320000Y-9930000D01*
X15402500Y-10095000D02*
X15327500Y-10170000D01*
X13432500Y-10170000D02*
X13320000Y-10057500D01*
X15402500Y-9905000D02*
X15402500Y-10095000D01*
X12960000Y-9870000D02*
X12860000Y-9970000D01*
X13320000Y-9930000D02*
X13260000Y-9870000D01*
%TO.N,/Processor/SWCLK_{IN}*%
X14203500Y-9005000D02*
X14205000Y-9005000D01*
X14151827Y-8953327D02*
X14203500Y-9005000D01*
X14151827Y-8885866D02*
X14151827Y-8953327D01*
%TO.N,VCC*%
X15735000Y-8875000D02*
X15735000Y-9295000D01*
X15825000Y-8785000D02*
X15735000Y-8875000D01*
X15825000Y-8602500D02*
X15825000Y-8785000D01*
D35*
%TO.N,/Power/SIG.~{CHG}*%
X13818197Y-8998197D02*
X14005000Y-9185000D01*
X14171433Y-7727201D02*
X14162400Y-7736234D01*
X14005000Y-9935000D02*
X14057500Y-9987500D01*
X13890000Y-8535000D02*
X13818197Y-8606803D01*
X14040000Y-8535000D02*
X13890000Y-8535000D01*
X14057500Y-9987500D02*
X14135000Y-9987500D01*
X13818197Y-8606803D02*
X13818197Y-8998197D01*
X14171433Y-7700330D02*
X14171433Y-7727201D01*
X14162400Y-8412600D02*
X14040000Y-8535000D01*
X14162400Y-7736234D02*
X14162400Y-8412600D01*
X14005000Y-9185000D02*
X14005000Y-9935000D01*
D36*
%TO.N,/Processor/~{RESET_{IN}}*%
X14151827Y-8691673D02*
X14206000Y-8637500D01*
X14151827Y-8758866D02*
X14151827Y-8691673D01*
D35*
%TO.N,/Power/CC1*%
X13205000Y-8310000D02*
X13155000Y-8360000D01*
X13720000Y-8265000D02*
X13675000Y-8310000D01*
X13675000Y-8310000D02*
X13205000Y-8310000D01*
X13155000Y-8360000D02*
X13155000Y-8435000D01*
X13720000Y-8173250D02*
X13720000Y-8265000D01*
D36*
%TO.N,/Processor/LED*%
X16607500Y-9880000D02*
X16695000Y-9967500D01*
X15672500Y-9520000D02*
X16032500Y-9880000D01*
X15547500Y-9520000D02*
X15672500Y-9520000D01*
X16032500Y-9880000D02*
X16607500Y-9880000D01*
D35*
%TO.N,/Power/CC2*%
X13820000Y-8265000D02*
X13705000Y-8380000D01*
X13705000Y-8380000D02*
X13370000Y-8380000D01*
X13820000Y-8173250D02*
X13820000Y-8265000D01*
X13370000Y-8380000D02*
X13315000Y-8435000D01*
D36*
%TO.N,/Processor/LED_{CONN}*%
X13262044Y-10254545D02*
X13130000Y-10122500D01*
X16415000Y-9970000D02*
X16415000Y-10170000D01*
X16415000Y-10170000D02*
X16330455Y-10254545D01*
X13130000Y-10122500D02*
X13130000Y-9970000D01*
X16330455Y-10254545D02*
X13262044Y-10254545D01*
D35*
%TO.N,/Processor/~{RESET}*%
X13865000Y-9694500D02*
X13865000Y-9465000D01*
%TO.N,/Power/SIG.V_{BATT}*%
X15885000Y-8400000D02*
X15885000Y-8405000D01*
X14480000Y-9810000D02*
X14480000Y-10060000D01*
X15885000Y-8405000D02*
X14480000Y-9810000D01*
%TO.N,/Processor/R_{S}*%
X15417500Y-9440000D02*
X15187500Y-9440000D01*
%TO.N,/Power/SIG.IO*%
X14725000Y-9415000D02*
X14724415Y-9415000D01*
X14724415Y-9415000D02*
X14208497Y-9930918D01*
%TO.N,/Power/FET_{NG}*%
X15360000Y-8012500D02*
X15360000Y-8340000D01*
%TO.N,/Power/PWR_{IN}*%
X15770750Y-8299250D02*
X15770750Y-7990000D01*
X15355000Y-8715000D02*
X15770750Y-8299250D01*
X15250000Y-8715000D02*
X15355000Y-8715000D01*
D36*
X15770000Y-7989250D02*
X15770750Y-7990000D01*
X15770000Y-7830000D02*
X15770000Y-7989250D01*
%TO.N,/Power/FET_{PD_PD}*%
X14477500Y-8300000D02*
X14480000Y-8302500D01*
X14477500Y-7920000D02*
X14477500Y-8300000D01*
D35*
%TO.N,/Power/TS*%
X14505000Y-8620000D02*
X14260000Y-8375000D01*
X14505000Y-8995000D02*
X14505000Y-8620000D01*
X14260000Y-8375000D02*
X14260000Y-8285000D01*
X14985000Y-8990000D02*
X14821000Y-9154000D01*
X14821000Y-9154000D02*
X14821000Y-9310000D01*
D36*
%TO.N,/Power/BATT*%
X16305000Y-8150000D02*
X16305000Y-8385000D01*
D35*
%TO.N,/Processor/TIM2_CH3_B*%
X14270000Y-9450000D02*
X14880000Y-8840000D01*
X14880000Y-8840000D02*
X14880000Y-8090000D01*
X14150000Y-9450000D02*
X14270000Y-9450000D01*
%TO.N,/Processor/TIM21_CH1_R*%
X14365000Y-9535000D02*
X14370000Y-9530000D01*
X15030000Y-8810000D02*
X15030000Y-8090000D01*
X14370000Y-9530000D02*
X14370000Y-9470000D01*
X14370000Y-9470000D02*
X15030000Y-8810000D01*
%TO.N,/Processor/TIM2_CH4_G*%
X14730000Y-8870000D02*
X14730000Y-8090000D01*
X14075000Y-9450000D02*
X14075000Y-9385000D01*
X14075000Y-9385000D02*
X14100000Y-9360000D01*
X14100000Y-9360000D02*
X14240000Y-9360000D01*
X14240000Y-9360000D02*
X14730000Y-8870000D01*
%TD*%
%TA.AperFunction,Conductor*%
%TO.N,GND*%
G36*
X13835377Y-7949445D02*
G01*
X13843455Y-7954843D01*
X13857157Y-7968545D01*
X13862555Y-7976623D01*
X13864450Y-7986152D01*
X13864450Y-8068300D01*
X13862555Y-8077829D01*
X13857157Y-8085907D01*
X13849079Y-8091305D01*
X13839550Y-8093200D01*
X13798936Y-8093200D01*
X13791637Y-8094263D01*
X13791637Y-8094263D01*
X13780936Y-8099495D01*
X13771543Y-8101977D01*
X13761915Y-8100676D01*
X13759064Y-8099495D01*
X13748362Y-8094263D01*
X13741064Y-8093200D01*
X13700450Y-8093200D01*
X13690921Y-8091305D01*
X13682843Y-8085907D01*
X13677445Y-8077829D01*
X13675550Y-8068300D01*
X13675550Y-7986152D01*
X13677445Y-7976623D01*
X13682843Y-7968545D01*
X13696545Y-7954843D01*
X13704623Y-7949445D01*
X13714152Y-7947550D01*
X13825848Y-7947550D01*
X13835377Y-7949445D01*
G37*
%TD.AperFunction*%
%TA.AperFunction,Conductor*%
G36*
X13761868Y-7581590D02*
G01*
X13769946Y-7586987D01*
X13775344Y-7595066D01*
X13777239Y-7604594D01*
X13775344Y-7614123D01*
X13769946Y-7622201D01*
X13762309Y-7629839D01*
X13760949Y-7631199D01*
X13760949Y-7631199D01*
X13753702Y-7643751D01*
X13753701Y-7643752D01*
X13749950Y-7657752D01*
X13749950Y-7672247D01*
X13753701Y-7686248D01*
X13753702Y-7686249D01*
X13760949Y-7698801D01*
X13760949Y-7698801D01*
X13760949Y-7698801D01*
X13771198Y-7709051D01*
X13771199Y-7709051D01*
X13771199Y-7709051D01*
X13777475Y-7712675D01*
X13783751Y-7716298D01*
X13797752Y-7720050D01*
X13812247Y-7720050D01*
X13812247Y-7720050D01*
X13826248Y-7716298D01*
X13838801Y-7709051D01*
X13849051Y-7698801D01*
X13856298Y-7686248D01*
X13856299Y-7686248D01*
X13856848Y-7684921D01*
X13862246Y-7676843D01*
X13870324Y-7671445D01*
X13879853Y-7669550D01*
X14091483Y-7669550D01*
X14101012Y-7671445D01*
X14109090Y-7676843D01*
X14114488Y-7684921D01*
X14115713Y-7688711D01*
X14116577Y-7692359D01*
X14116383Y-7693083D01*
X14116383Y-7707578D01*
X14120135Y-7721579D01*
X14125838Y-7731457D01*
X14126679Y-7735008D01*
X14126726Y-7736286D01*
X14127137Y-7737497D01*
X14127350Y-7740747D01*
X14127350Y-8067774D01*
X14125455Y-8077303D01*
X14120057Y-8085381D01*
X14111979Y-8090779D01*
X14102450Y-8092674D01*
X14092921Y-8090779D01*
X14090517Y-8089629D01*
X14089209Y-8088915D01*
X14075737Y-8083890D01*
X14070000Y-8083273D01*
X14070000Y-8148250D01*
X14070000Y-8148250D01*
X14102450Y-8148250D01*
X14111979Y-8150145D01*
X14120057Y-8155543D01*
X14125455Y-8163621D01*
X14127350Y-8173150D01*
X14127350Y-8173350D01*
X14125455Y-8182879D01*
X14120057Y-8190957D01*
X14111979Y-8196355D01*
X14102450Y-8198250D01*
X14070000Y-8198250D01*
X14070000Y-8198250D01*
X14070000Y-8263226D01*
X14075737Y-8262610D01*
X14089209Y-8257585D01*
X14090517Y-8256871D01*
X14099788Y-8253968D01*
X14109465Y-8254834D01*
X14118074Y-8259337D01*
X14124304Y-8266792D01*
X14127207Y-8276063D01*
X14127350Y-8278725D01*
X14127350Y-8387768D01*
X14125455Y-8397297D01*
X14120057Y-8405375D01*
X14032775Y-8492657D01*
X14024697Y-8498055D01*
X14015168Y-8499950D01*
X13885386Y-8499950D01*
X13876471Y-8502339D01*
X13868479Y-8506953D01*
X13790150Y-8585282D01*
X13786011Y-8592450D01*
X13786011Y-8592450D01*
X13785536Y-8593274D01*
X13785536Y-8593274D01*
X13783147Y-8602188D01*
X13783147Y-8602189D01*
X13783147Y-9002811D01*
X13784355Y-9007319D01*
X13784679Y-9008528D01*
X13784679Y-9008529D01*
X13784679Y-9008529D01*
X13784679Y-9008529D01*
X13785536Y-9011726D01*
X13790150Y-9019718D01*
X13880100Y-9109668D01*
X13962657Y-9192225D01*
X13968055Y-9200303D01*
X13969950Y-9209832D01*
X13969950Y-9939614D01*
X13971211Y-9944322D01*
X13971881Y-9946822D01*
X13972339Y-9948529D01*
X13976953Y-9956521D01*
X13976953Y-9956521D01*
X13976953Y-9956521D01*
X14035979Y-10015547D01*
X14035979Y-10015547D01*
X14035979Y-10015547D01*
X14043971Y-10020161D01*
X14043971Y-10020161D01*
X14043971Y-10020161D01*
X14052886Y-10022550D01*
X14081884Y-10022550D01*
X14091412Y-10024445D01*
X14099490Y-10029843D01*
X14101198Y-10031551D01*
X14113751Y-10038798D01*
X14127752Y-10042550D01*
X14142247Y-10042550D01*
X14142247Y-10042550D01*
X14156248Y-10038798D01*
X14168801Y-10031551D01*
X14179051Y-10021302D01*
X14186298Y-10008749D01*
X14187457Y-10004423D01*
X14191754Y-9995710D01*
X14199059Y-9989304D01*
X14208259Y-9986181D01*
X14211509Y-9985968D01*
X14215744Y-9985968D01*
X14215744Y-9985968D01*
X14229745Y-9982217D01*
X14242298Y-9974969D01*
X14252548Y-9964720D01*
X14259795Y-9952167D01*
X14263547Y-9938166D01*
X14263547Y-9935750D01*
X14265442Y-9926222D01*
X14270840Y-9918143D01*
X14402443Y-9786540D01*
X14410521Y-9781143D01*
X14420050Y-9779247D01*
X14429579Y-9781143D01*
X14437657Y-9786540D01*
X14443055Y-9794618D01*
X14444950Y-9804147D01*
X14444950Y-10006884D01*
X14443055Y-10016412D01*
X14437657Y-10024490D01*
X14435949Y-10026199D01*
X14435949Y-10026199D01*
X14428702Y-10038751D01*
X14428701Y-10038752D01*
X14424950Y-10052752D01*
X14424950Y-10067248D01*
X14428701Y-10081248D01*
X14428702Y-10081249D01*
X14432369Y-10087600D01*
X14435492Y-10096800D01*
X14434856Y-10106495D01*
X14430559Y-10115208D01*
X14423255Y-10121614D01*
X14414055Y-10124737D01*
X14410805Y-10124950D01*
X13461474Y-10124950D01*
X13451945Y-10123055D01*
X13443867Y-10117657D01*
X13372343Y-10046133D01*
X13366945Y-10038055D01*
X13365050Y-10028526D01*
X13365050Y-9924069D01*
X13362828Y-9915778D01*
X13362828Y-9915778D01*
X13361980Y-9912612D01*
X13360281Y-9909670D01*
X13356049Y-9902339D01*
X13287661Y-9833951D01*
X13277389Y-9828020D01*
X13277388Y-9828020D01*
X13274967Y-9827371D01*
X13274967Y-9827371D01*
X13265931Y-9824950D01*
X13265931Y-9824950D01*
X12954069Y-9824950D01*
X12942612Y-9828020D01*
X12942611Y-9828020D01*
X12932339Y-9833951D01*
X12862611Y-9903678D01*
X12854533Y-9909076D01*
X12851449Y-9910123D01*
X12836822Y-9914042D01*
X12823129Y-9921948D01*
X12811948Y-9933129D01*
X12804042Y-9946822D01*
X12799950Y-9962094D01*
X12799950Y-9977906D01*
X12804042Y-9993178D01*
X12811948Y-10006871D01*
X12811948Y-10006872D01*
X12823128Y-10018052D01*
X12836822Y-10025958D01*
X12852094Y-10030050D01*
X12867906Y-10030050D01*
X12883178Y-10025958D01*
X12896872Y-10018052D01*
X12908052Y-10006872D01*
X12915958Y-9993178D01*
X12919877Y-9978551D01*
X12924174Y-9969838D01*
X12926322Y-9967389D01*
X12971367Y-9922343D01*
X12979445Y-9916945D01*
X12988974Y-9915050D01*
X13050105Y-9915050D01*
X13059634Y-9916945D01*
X13067712Y-9922343D01*
X13073110Y-9930421D01*
X13075005Y-9939950D01*
X13074157Y-9946395D01*
X13069950Y-9962094D01*
X13069950Y-9977906D01*
X13074042Y-9993178D01*
X13074042Y-9993178D01*
X13080505Y-10004372D01*
X13081614Y-10006293D01*
X13084737Y-10015493D01*
X13084950Y-10018743D01*
X13084950Y-10128431D01*
X13087241Y-10136980D01*
X13087241Y-10136980D01*
X13088020Y-10139889D01*
X13093951Y-10150161D01*
X13180877Y-10237088D01*
X13186275Y-10245166D01*
X13188170Y-10254695D01*
X13186275Y-10264223D01*
X13180877Y-10272302D01*
X13172799Y-10277699D01*
X13163270Y-10279595D01*
X12744950Y-10279595D01*
X12735421Y-10277699D01*
X12727343Y-10272302D01*
X12721945Y-10264223D01*
X12720050Y-10254695D01*
X12720050Y-9458740D01*
X13817450Y-9458740D01*
X13817450Y-9471260D01*
X13818385Y-9474751D01*
X13820690Y-9483353D01*
X13820691Y-9483354D01*
X13826614Y-9493614D01*
X13829737Y-9502814D01*
X13829950Y-9506064D01*
X13829950Y-9653436D01*
X13828055Y-9662965D01*
X13826614Y-9665886D01*
X13820690Y-9676146D01*
X13820690Y-9676147D01*
X13817450Y-9688240D01*
X13817450Y-9700760D01*
X13820690Y-9712853D01*
X13820691Y-9712854D01*
X13826950Y-9723696D01*
X13826950Y-9723696D01*
X13826950Y-9723696D01*
X13835804Y-9732550D01*
X13835804Y-9732550D01*
X13835804Y-9732550D01*
X13846646Y-9738809D01*
X13846646Y-9738810D01*
X13858740Y-9742050D01*
X13871260Y-9742050D01*
X13883354Y-9738810D01*
X13894196Y-9732550D01*
X13903049Y-9723696D01*
X13909309Y-9712854D01*
X13912550Y-9700760D01*
X13912550Y-9688240D01*
X13909309Y-9676146D01*
X13903386Y-9665886D01*
X13900263Y-9656686D01*
X13900050Y-9653436D01*
X13900050Y-9506064D01*
X13901945Y-9496535D01*
X13903386Y-9493614D01*
X13904392Y-9491872D01*
X13909309Y-9483354D01*
X13912550Y-9471260D01*
X13912550Y-9458740D01*
X13909309Y-9446646D01*
X13903306Y-9436249D01*
X13903050Y-9435804D01*
X13903050Y-9435804D01*
X13903049Y-9435804D01*
X13894196Y-9426951D01*
X13894196Y-9426950D01*
X13894196Y-9426950D01*
X13883354Y-9420691D01*
X13883354Y-9420691D01*
X13883354Y-9420691D01*
X13883353Y-9420690D01*
X13883353Y-9420690D01*
X13871260Y-9417450D01*
X13858740Y-9417450D01*
X13846647Y-9420690D01*
X13846646Y-9420691D01*
X13835804Y-9426950D01*
X13826950Y-9435804D01*
X13820691Y-9446646D01*
X13820690Y-9446647D01*
X13820113Y-9448802D01*
X13817450Y-9458740D01*
X12720050Y-9458740D01*
X12720050Y-8427753D01*
X13099950Y-8427753D01*
X13099950Y-8431488D01*
X13099950Y-8442248D01*
X13103701Y-8456248D01*
X13103702Y-8456249D01*
X13110949Y-8468801D01*
X13110949Y-8468801D01*
X13110949Y-8468802D01*
X13121198Y-8479051D01*
X13133751Y-8486298D01*
X13147752Y-8490050D01*
X13162247Y-8490050D01*
X13162247Y-8490050D01*
X13176248Y-8486298D01*
X13188801Y-8479051D01*
X13199051Y-8468802D01*
X13206298Y-8456249D01*
X13210050Y-8442248D01*
X13210050Y-8427753D01*
X13206298Y-8413752D01*
X13200121Y-8403052D01*
X13199051Y-8401199D01*
X13199051Y-8401199D01*
X13199051Y-8401199D01*
X13198817Y-8400965D01*
X13198450Y-8400416D01*
X13198057Y-8399904D01*
X13198091Y-8399878D01*
X13193420Y-8392887D01*
X13191524Y-8383358D01*
X13191549Y-8383235D01*
X13193420Y-8373829D01*
X13196466Y-8369270D01*
X13198817Y-8365751D01*
X13198817Y-8365751D01*
X13212225Y-8352343D01*
X13220303Y-8346945D01*
X13229832Y-8345050D01*
X13267770Y-8345050D01*
X13277299Y-8346945D01*
X13285377Y-8352343D01*
X13290775Y-8360421D01*
X13292670Y-8369950D01*
X13290775Y-8379479D01*
X13285377Y-8387557D01*
X13282403Y-8389839D01*
X13282493Y-8389956D01*
X13281199Y-8390949D01*
X13270949Y-8401199D01*
X13263702Y-8413751D01*
X13263701Y-8413752D01*
X13259950Y-8427752D01*
X13259950Y-8442248D01*
X13263701Y-8456248D01*
X13263702Y-8456249D01*
X13270949Y-8468801D01*
X13270949Y-8468801D01*
X13270949Y-8468802D01*
X13281198Y-8479051D01*
X13293751Y-8486298D01*
X13307752Y-8490050D01*
X13322247Y-8490050D01*
X13322247Y-8490050D01*
X13336248Y-8486298D01*
X13348801Y-8479051D01*
X13359051Y-8468802D01*
X13366298Y-8456249D01*
X13370050Y-8442248D01*
X13370050Y-8439950D01*
X13371945Y-8430421D01*
X13377343Y-8422343D01*
X13385421Y-8416945D01*
X13394950Y-8415050D01*
X13709615Y-8415050D01*
X13718528Y-8412662D01*
X13718528Y-8412662D01*
X13718529Y-8412661D01*
X13718529Y-8412661D01*
X13726521Y-8408047D01*
X13821943Y-8312625D01*
X13830021Y-8307227D01*
X13839550Y-8305332D01*
X13849079Y-8307227D01*
X13857157Y-8312625D01*
X13862555Y-8320703D01*
X13864450Y-8330232D01*
X13864450Y-8336352D01*
X13863602Y-8342796D01*
X13862450Y-8347094D01*
X13862450Y-8362906D01*
X13866542Y-8378178D01*
X13874183Y-8391412D01*
X13874448Y-8391872D01*
X13885628Y-8403052D01*
X13899322Y-8410958D01*
X13914594Y-8415050D01*
X13930406Y-8415050D01*
X13945678Y-8410958D01*
X13959372Y-8403052D01*
X13970552Y-8391872D01*
X13978458Y-8378178D01*
X13982550Y-8362906D01*
X13982550Y-8347094D01*
X13982550Y-8347094D01*
X13980398Y-8339064D01*
X13979550Y-8332620D01*
X13979550Y-8285525D01*
X13981445Y-8275997D01*
X13986843Y-8267918D01*
X13994921Y-8262521D01*
X14004450Y-8260625D01*
X14013152Y-8262195D01*
X14014263Y-8262610D01*
X14020000Y-8263226D01*
X14020000Y-8263226D01*
X14020000Y-8083273D01*
X14020000Y-8083273D01*
X14014262Y-8083890D01*
X14013151Y-8084305D01*
X14003561Y-8085858D01*
X13994106Y-8083624D01*
X13986226Y-8077941D01*
X13981120Y-8069676D01*
X13979550Y-8060974D01*
X13979550Y-7944423D01*
X13977148Y-7935459D01*
X13975628Y-7929786D01*
X13968051Y-7916663D01*
X13968051Y-7916663D01*
X13968051Y-7916663D01*
X13895337Y-7843949D01*
X13895336Y-7843948D01*
X13888966Y-7840270D01*
X13882213Y-7836372D01*
X13882213Y-7836372D01*
X13882213Y-7836372D01*
X13867577Y-7832450D01*
X13687577Y-7832450D01*
X13672423Y-7832450D01*
X13662216Y-7835185D01*
X13657786Y-7836372D01*
X13644664Y-7843948D01*
X13585955Y-7902657D01*
X13577877Y-7908055D01*
X13568348Y-7909950D01*
X13563116Y-7909950D01*
X13553587Y-7908055D01*
X13545510Y-7902657D01*
X13543801Y-7900949D01*
X13543801Y-7900949D01*
X13543801Y-7900949D01*
X13531249Y-7893702D01*
X13531248Y-7893701D01*
X13517247Y-7889950D01*
X13502752Y-7889950D01*
X13488752Y-7893701D01*
X13488751Y-7893702D01*
X13476199Y-7900949D01*
X13465949Y-7911199D01*
X13458702Y-7923751D01*
X13458701Y-7923752D01*
X13454950Y-7937752D01*
X13454950Y-7952247D01*
X13458701Y-7966248D01*
X13458702Y-7966249D01*
X13465949Y-7978801D01*
X13465949Y-7978801D01*
X13465949Y-7978801D01*
X13476198Y-7989051D01*
X13488751Y-7996298D01*
X13502752Y-8000050D01*
X13517247Y-8000050D01*
X13517247Y-8000050D01*
X13529106Y-7996872D01*
X13532355Y-7996659D01*
X13535550Y-7996024D01*
X13537161Y-7996344D01*
X13538800Y-7996237D01*
X13541884Y-7997284D01*
X13545079Y-7997919D01*
X13546444Y-7998832D01*
X13548000Y-7999360D01*
X13550449Y-8001507D01*
X13553157Y-8003317D01*
X13554069Y-8004683D01*
X13555304Y-8005766D01*
X13556745Y-8008687D01*
X13558555Y-8011395D01*
X13558875Y-8013006D01*
X13559601Y-8014479D01*
X13560450Y-8020924D01*
X13560450Y-8060974D01*
X13558555Y-8070503D01*
X13553157Y-8078581D01*
X13545079Y-8083979D01*
X13535550Y-8085874D01*
X13526849Y-8084305D01*
X13525737Y-8083890D01*
X13520000Y-8083273D01*
X13520000Y-8148350D01*
X13518105Y-8157879D01*
X13512707Y-8165957D01*
X13504629Y-8171355D01*
X13495100Y-8173250D01*
X13495000Y-8173250D01*
X13495000Y-8173350D01*
X13493105Y-8182879D01*
X13487707Y-8190957D01*
X13479629Y-8196355D01*
X13470100Y-8198250D01*
X13425000Y-8198250D01*
X13420007Y-8203243D01*
X13411929Y-8208641D01*
X13402400Y-8210536D01*
X13392871Y-8208641D01*
X13384793Y-8203243D01*
X13379395Y-8195165D01*
X13379266Y-8194516D01*
X13377500Y-8192750D01*
X13137500Y-8192750D01*
X13137500Y-8192750D01*
X13137500Y-8214556D01*
X13138561Y-8223394D01*
X13138561Y-8223395D01*
X13144108Y-8237459D01*
X13153243Y-8249506D01*
X13153244Y-8249507D01*
X13166138Y-8259285D01*
X13172585Y-8266553D01*
X13175761Y-8275735D01*
X13175180Y-8285433D01*
X13170933Y-8294171D01*
X13168699Y-8296732D01*
X13126953Y-8338479D01*
X13123410Y-8344615D01*
X13122338Y-8346471D01*
X13122338Y-8346471D01*
X13119950Y-8355385D01*
X13119950Y-8381884D01*
X13119871Y-8382280D01*
X13119937Y-8382678D01*
X13118926Y-8387030D01*
X13118055Y-8391412D01*
X13117830Y-8391748D01*
X13117739Y-8392142D01*
X13115868Y-8396280D01*
X13110949Y-8401199D01*
X13103702Y-8413752D01*
X13099950Y-8427753D01*
X12720050Y-8427753D01*
X12720050Y-8148250D01*
X13425335Y-8148250D01*
X13470000Y-8148250D01*
X13470000Y-8083273D01*
X13470000Y-8083273D01*
X13464262Y-8083890D01*
X13450791Y-8088915D01*
X13439281Y-8097531D01*
X13439281Y-8097531D01*
X13430664Y-8109041D01*
X13426570Y-8120020D01*
X13425335Y-8148250D01*
X12720050Y-8148250D01*
X12720050Y-8120944D01*
X13137500Y-8120944D01*
X13137500Y-8142750D01*
X13137500Y-8142750D01*
X13232500Y-8142750D01*
X13232500Y-8142750D01*
X13232500Y-8070250D01*
X13282500Y-8070250D01*
X13282500Y-8142750D01*
X13282500Y-8142750D01*
X13375728Y-8142750D01*
X13376900Y-8115950D01*
X13376438Y-8112105D01*
X13376438Y-8112105D01*
X13370892Y-8098040D01*
X13361757Y-8085994D01*
X13361756Y-8085993D01*
X13349709Y-8076858D01*
X13335645Y-8071311D01*
X13335644Y-8071311D01*
X13326806Y-8070250D01*
X13282500Y-8070250D01*
X13282500Y-8070250D01*
X13232500Y-8070250D01*
X13232500Y-8070250D01*
X13188194Y-8070250D01*
X13179355Y-8071311D01*
X13179355Y-8071311D01*
X13165290Y-8076858D01*
X13153244Y-8085993D01*
X13153243Y-8085994D01*
X13144108Y-8098040D01*
X13138561Y-8112105D01*
X13138561Y-8112105D01*
X13137500Y-8120944D01*
X12720050Y-8120944D01*
X12720050Y-7759803D01*
X12784950Y-7759803D01*
X12784950Y-7779486D01*
X12784950Y-7779487D01*
X12788029Y-7798927D01*
X12794111Y-7817646D01*
X12794111Y-7817647D01*
X12803048Y-7835185D01*
X12803048Y-7835185D01*
X12813025Y-7848918D01*
X12814617Y-7851109D01*
X12828535Y-7865027D01*
X12828536Y-7865027D01*
X12839364Y-7872895D01*
X12844459Y-7876597D01*
X12861997Y-7885533D01*
X12880717Y-7891615D01*
X12900158Y-7894694D01*
X12900159Y-7894694D01*
X12919841Y-7894694D01*
X12919842Y-7894694D01*
X12939283Y-7891615D01*
X12958002Y-7885533D01*
X12975540Y-7876597D01*
X12991465Y-7865027D01*
X13005383Y-7851109D01*
X13016952Y-7835185D01*
X13017174Y-7834750D01*
X13137500Y-7834750D01*
X13137500Y-7864056D01*
X13138561Y-7872894D01*
X13138561Y-7872895D01*
X13144108Y-7886959D01*
X13153243Y-7899006D01*
X13153244Y-7899007D01*
X13165290Y-7908142D01*
X13179355Y-7913688D01*
X13179355Y-7913688D01*
X13188194Y-7914750D01*
X13232500Y-7914750D01*
X13232500Y-7914750D01*
X13232500Y-7834750D01*
X13282500Y-7834750D01*
X13282500Y-7914750D01*
X13282500Y-7914750D01*
X13326806Y-7914750D01*
X13335644Y-7913688D01*
X13335645Y-7913688D01*
X13349709Y-7908142D01*
X13361756Y-7899007D01*
X13361757Y-7899006D01*
X13370892Y-7886959D01*
X13376438Y-7872895D01*
X13376438Y-7872894D01*
X13377500Y-7864056D01*
X13377500Y-7834750D01*
X13377500Y-7834750D01*
X13282500Y-7834750D01*
X13282500Y-7834750D01*
X13232500Y-7834750D01*
X13232500Y-7834750D01*
X13137500Y-7834750D01*
X13137500Y-7834750D01*
X13017174Y-7834750D01*
X13025888Y-7817647D01*
X13031971Y-7798927D01*
X13035050Y-7779486D01*
X13035050Y-7759803D01*
X13035000Y-7759489D01*
X13034859Y-7758594D01*
X13034859Y-7758594D01*
X13034360Y-7755444D01*
X13137500Y-7755444D01*
X13137500Y-7784750D01*
X13137500Y-7784750D01*
X13232500Y-7784750D01*
X13232500Y-7784750D01*
X13232500Y-7704750D01*
X13282500Y-7704750D01*
X13282500Y-7784750D01*
X13282500Y-7784750D01*
X13377500Y-7784750D01*
X13377500Y-7784750D01*
X13377500Y-7755444D01*
X13376438Y-7746605D01*
X13376438Y-7746605D01*
X13370892Y-7732540D01*
X13361757Y-7720494D01*
X13361756Y-7720493D01*
X13349709Y-7711358D01*
X13335645Y-7705811D01*
X13335644Y-7705811D01*
X13326806Y-7704750D01*
X13282500Y-7704750D01*
X13282500Y-7704750D01*
X13232500Y-7704750D01*
X13232500Y-7704750D01*
X13188194Y-7704750D01*
X13179355Y-7705811D01*
X13179355Y-7705811D01*
X13165290Y-7711358D01*
X13153244Y-7720493D01*
X13153243Y-7720494D01*
X13144108Y-7732540D01*
X13138561Y-7746605D01*
X13138561Y-7746605D01*
X13137500Y-7755444D01*
X13034360Y-7755444D01*
X13032566Y-7744120D01*
X13031971Y-7740362D01*
X13025888Y-7721642D01*
X13016952Y-7704104D01*
X13016223Y-7703100D01*
X13005383Y-7688180D01*
X13005383Y-7688180D01*
X12991465Y-7674262D01*
X12991349Y-7674177D01*
X12975541Y-7662692D01*
X12975541Y-7662692D01*
X12975540Y-7662692D01*
X12958002Y-7653756D01*
X12958002Y-7653756D01*
X12958002Y-7653756D01*
X12958002Y-7653756D01*
X12945810Y-7649794D01*
X12939283Y-7647674D01*
X12939282Y-7647673D01*
X12939282Y-7647673D01*
X12919843Y-7644595D01*
X12919842Y-7644594D01*
X12919842Y-7644594D01*
X12900158Y-7644594D01*
X12900158Y-7644594D01*
X12900157Y-7644595D01*
X12880718Y-7647673D01*
X12861998Y-7653756D01*
X12861998Y-7653756D01*
X12855459Y-7657087D01*
X12844459Y-7662692D01*
X12844459Y-7662692D01*
X12844459Y-7662692D01*
X12844459Y-7662692D01*
X12828536Y-7674261D01*
X12814617Y-7688180D01*
X12803048Y-7704103D01*
X12803048Y-7704103D01*
X12803048Y-7704104D01*
X12803048Y-7704104D01*
X12800264Y-7709567D01*
X12794111Y-7721642D01*
X12794111Y-7721643D01*
X12788029Y-7740362D01*
X12784950Y-7759802D01*
X12784950Y-7759803D01*
X12720050Y-7759803D01*
X12720050Y-7604594D01*
X12721945Y-7595066D01*
X12727343Y-7586987D01*
X12735421Y-7581590D01*
X12744950Y-7579694D01*
X13752339Y-7579694D01*
X13761868Y-7581590D01*
G37*
%TD.AperFunction*%
%TA.AperFunction,Conductor*%
G36*
X16804579Y-7581590D02*
G01*
X16812657Y-7586987D01*
X16818055Y-7595066D01*
X16819950Y-7604594D01*
X16819950Y-10254695D01*
X16818055Y-10264223D01*
X16812657Y-10272302D01*
X16804579Y-10277699D01*
X16795050Y-10279595D01*
X16429230Y-10279595D01*
X16419701Y-10277699D01*
X16411623Y-10272302D01*
X16406225Y-10264223D01*
X16404330Y-10254695D01*
X16406225Y-10245166D01*
X16411623Y-10237088D01*
X16451049Y-10197661D01*
X16456980Y-10187389D01*
X16457629Y-10184967D01*
X16460050Y-10175931D01*
X16460050Y-10018743D01*
X16461945Y-10009214D01*
X16463386Y-10006293D01*
X16464465Y-10004424D01*
X16470958Y-9993178D01*
X16475050Y-9977906D01*
X16475050Y-9962094D01*
X16475050Y-9962094D01*
X16475050Y-9962094D01*
X16473523Y-9956395D01*
X16472887Y-9946700D01*
X16476010Y-9937500D01*
X16482416Y-9930196D01*
X16491130Y-9925898D01*
X16497574Y-9925050D01*
X16578526Y-9925050D01*
X16588054Y-9926945D01*
X16596133Y-9932343D01*
X16628678Y-9964889D01*
X16634076Y-9972967D01*
X16635123Y-9976051D01*
X16639042Y-9990678D01*
X16641947Y-9995710D01*
X16646948Y-10004372D01*
X16658128Y-10015552D01*
X16671822Y-10023458D01*
X16687094Y-10027550D01*
X16702906Y-10027550D01*
X16718178Y-10023458D01*
X16731872Y-10015552D01*
X16743052Y-10004372D01*
X16750958Y-9990678D01*
X16755050Y-9975406D01*
X16755050Y-9959594D01*
X16752611Y-9950493D01*
X16750958Y-9944322D01*
X16746270Y-9936202D01*
X16743052Y-9930628D01*
X16731872Y-9919448D01*
X16731871Y-9919448D01*
X16718178Y-9911542D01*
X16703551Y-9907623D01*
X16694837Y-9903326D01*
X16692389Y-9901178D01*
X16635161Y-9843951D01*
X16624889Y-9838020D01*
X16624888Y-9838020D01*
X16622467Y-9837371D01*
X16622467Y-9837371D01*
X16613431Y-9834950D01*
X16613431Y-9834950D01*
X16061474Y-9834950D01*
X16051946Y-9833055D01*
X16043867Y-9827657D01*
X15700161Y-9483951D01*
X15689889Y-9478020D01*
X15689888Y-9478020D01*
X15687467Y-9477371D01*
X15687467Y-9477371D01*
X15678431Y-9474950D01*
X15678431Y-9474950D01*
X15596243Y-9474950D01*
X15586714Y-9473055D01*
X15583793Y-9471614D01*
X15570678Y-9464042D01*
X15555406Y-9459950D01*
X15539594Y-9459950D01*
X15524322Y-9464042D01*
X15510628Y-9471948D01*
X15510628Y-9471948D01*
X15506728Y-9475849D01*
X15506727Y-9475849D01*
X15499448Y-9483128D01*
X15491542Y-9496822D01*
X15489831Y-9503209D01*
X15489831Y-9503209D01*
X15487450Y-9512094D01*
X15487450Y-9527906D01*
X15491542Y-9543178D01*
X15491542Y-9543178D01*
X15499448Y-9556872D01*
X15510628Y-9568052D01*
X15524322Y-9575958D01*
X15539594Y-9580050D01*
X15555406Y-9580050D01*
X15570678Y-9575958D01*
X15583793Y-9568386D01*
X15585349Y-9567858D01*
X15586714Y-9566945D01*
X15589909Y-9566310D01*
X15592993Y-9565263D01*
X15596243Y-9565050D01*
X15643526Y-9565050D01*
X15653054Y-9566945D01*
X15661133Y-9572343D01*
X16004839Y-9916049D01*
X16015111Y-9921980D01*
X16017533Y-9922629D01*
X16017533Y-9922629D01*
X16026569Y-9925050D01*
X16332426Y-9925050D01*
X16341954Y-9926945D01*
X16350033Y-9932343D01*
X16355430Y-9940421D01*
X16357326Y-9949950D01*
X16356477Y-9956395D01*
X16354950Y-9962094D01*
X16354950Y-9977906D01*
X16359042Y-9993178D01*
X16359042Y-9993178D01*
X16365505Y-10004372D01*
X16366614Y-10006293D01*
X16369737Y-10015493D01*
X16369950Y-10018743D01*
X16369950Y-10141026D01*
X16368055Y-10150555D01*
X16362657Y-10158633D01*
X16319088Y-10202201D01*
X16311010Y-10207599D01*
X16301481Y-10209495D01*
X15411830Y-10209495D01*
X15402301Y-10207599D01*
X15394223Y-10202202D01*
X15388825Y-10194123D01*
X15386930Y-10184595D01*
X15388825Y-10175066D01*
X15394223Y-10166988D01*
X15411049Y-10150161D01*
X15438549Y-10122661D01*
X15444480Y-10112389D01*
X15445129Y-10109967D01*
X15446059Y-10106495D01*
X15446714Y-10104051D01*
X15447550Y-10100931D01*
X15447550Y-9953743D01*
X15449445Y-9944214D01*
X15450886Y-9941293D01*
X15458458Y-9928178D01*
X15462550Y-9912906D01*
X15462550Y-9897094D01*
X15458458Y-9881822D01*
X15450552Y-9868128D01*
X15439372Y-9856948D01*
X15439371Y-9856948D01*
X15425678Y-9849042D01*
X15410406Y-9844950D01*
X15394594Y-9844950D01*
X15379322Y-9849042D01*
X15365629Y-9856948D01*
X15354448Y-9868129D01*
X15346542Y-9881822D01*
X15342450Y-9897094D01*
X15342450Y-9912906D01*
X15346542Y-9928178D01*
X15349400Y-9933129D01*
X15353145Y-9939614D01*
X15354114Y-9941293D01*
X15357237Y-9950493D01*
X15357450Y-9953743D01*
X15357450Y-10066026D01*
X15355555Y-10075555D01*
X15350157Y-10083633D01*
X15316133Y-10117657D01*
X15308054Y-10123055D01*
X15298526Y-10124950D01*
X14549195Y-10124950D01*
X14539667Y-10123055D01*
X14531588Y-10117657D01*
X14526191Y-10109579D01*
X14524295Y-10100050D01*
X14526191Y-10090521D01*
X14527631Y-10087600D01*
X14529039Y-10085161D01*
X14531298Y-10081249D01*
X14535050Y-10067248D01*
X14535050Y-10052753D01*
X14531298Y-10038752D01*
X14524051Y-10026199D01*
X14522343Y-10024490D01*
X14516945Y-10016412D01*
X14515050Y-10006884D01*
X14515050Y-9834832D01*
X14516945Y-9825303D01*
X14522343Y-9817225D01*
X14906157Y-9433411D01*
X15137450Y-9433411D01*
X15137450Y-9446589D01*
X15140861Y-9459318D01*
X15140861Y-9459318D01*
X15140861Y-9459319D01*
X15147450Y-9470731D01*
X15156769Y-9480050D01*
X15168181Y-9486639D01*
X15180911Y-9490050D01*
X15194089Y-9490050D01*
X15206819Y-9486639D01*
X15218231Y-9480050D01*
X15218231Y-9480050D01*
X15219645Y-9479234D01*
X15219722Y-9479367D01*
X15226755Y-9475899D01*
X15233200Y-9475050D01*
X15376436Y-9475050D01*
X15385965Y-9476945D01*
X15388886Y-9478386D01*
X15399146Y-9484310D01*
X15411240Y-9487550D01*
X15423760Y-9487550D01*
X15435854Y-9484310D01*
X15446696Y-9478050D01*
X15455549Y-9469196D01*
X15461809Y-9458354D01*
X15465050Y-9446260D01*
X15465050Y-9433740D01*
X15461809Y-9421646D01*
X15460253Y-9418951D01*
X15455550Y-9410804D01*
X15455550Y-9410804D01*
X15455549Y-9410804D01*
X15446696Y-9401951D01*
X15446696Y-9401950D01*
X15446696Y-9401950D01*
X15435854Y-9395691D01*
X15435854Y-9395691D01*
X15435854Y-9395691D01*
X15435853Y-9395690D01*
X15435853Y-9395690D01*
X15423760Y-9392450D01*
X15411240Y-9392450D01*
X15399147Y-9395690D01*
X15399146Y-9395691D01*
X15388886Y-9401614D01*
X15379686Y-9404737D01*
X15376436Y-9404950D01*
X15233200Y-9404950D01*
X15223671Y-9403055D01*
X15219660Y-9400739D01*
X15219645Y-9400766D01*
X15218231Y-9399950D01*
X15218231Y-9399950D01*
X15206819Y-9393361D01*
X15206818Y-9393361D01*
X15206818Y-9393361D01*
X15194089Y-9389950D01*
X15180911Y-9389950D01*
X15168182Y-9393361D01*
X15168181Y-9393361D01*
X15168181Y-9393361D01*
X15156769Y-9399950D01*
X15147450Y-9409269D01*
X15141314Y-9419897D01*
X15140861Y-9420682D01*
X15137450Y-9433411D01*
X14906157Y-9433411D01*
X15121273Y-9218295D01*
X15726891Y-8612677D01*
X15734969Y-8607280D01*
X15744498Y-8605384D01*
X15754027Y-8607280D01*
X15762105Y-8612677D01*
X15766738Y-8619087D01*
X15767888Y-8621371D01*
X15769042Y-8625678D01*
X15776948Y-8639372D01*
X15776954Y-8639377D01*
X15777290Y-8640046D01*
X15778400Y-8644054D01*
X15779737Y-8647993D01*
X15779813Y-8649160D01*
X15779882Y-8649409D01*
X15779848Y-8649688D01*
X15779950Y-8651243D01*
X15779950Y-8756026D01*
X15778055Y-8765555D01*
X15772657Y-8773633D01*
X15772657Y-8773633D01*
X15730540Y-8815749D01*
X15722462Y-8821147D01*
X15719378Y-8822194D01*
X15713751Y-8823702D01*
X15713751Y-8823702D01*
X15713751Y-8823702D01*
X15701199Y-8830949D01*
X15690949Y-8841199D01*
X15683702Y-8853751D01*
X15683701Y-8853752D01*
X15680322Y-8866364D01*
X15679950Y-8867753D01*
X15679950Y-8882248D01*
X15683702Y-8896249D01*
X15686614Y-8901293D01*
X15689737Y-8910493D01*
X15689950Y-8913743D01*
X15689950Y-9246257D01*
X15688055Y-9255786D01*
X15686614Y-9258707D01*
X15679042Y-9271822D01*
X15674950Y-9287094D01*
X15674950Y-9302906D01*
X15679042Y-9318178D01*
X15686948Y-9331871D01*
X15686948Y-9331872D01*
X15698128Y-9343052D01*
X15711822Y-9350958D01*
X15727094Y-9355050D01*
X15742906Y-9355050D01*
X15758178Y-9350958D01*
X15771872Y-9343052D01*
X15783052Y-9331872D01*
X15790958Y-9318178D01*
X15795050Y-9302906D01*
X15795050Y-9287094D01*
X15794516Y-9285100D01*
X15790958Y-9271822D01*
X15783386Y-9258707D01*
X15780263Y-9249507D01*
X15780050Y-9246257D01*
X15780050Y-8913743D01*
X15781945Y-8904214D01*
X15781945Y-8904214D01*
X15782570Y-8902707D01*
X15786298Y-8896249D01*
X15788228Y-8889045D01*
X15788853Y-8887538D01*
X15790662Y-8884830D01*
X15792103Y-8881908D01*
X15794251Y-8879460D01*
X15861049Y-8812662D01*
X15861049Y-8812662D01*
X15861049Y-8812661D01*
X15866980Y-8802389D01*
X15867629Y-8799967D01*
X15870050Y-8790931D01*
X15870050Y-8682094D01*
X16084950Y-8682094D01*
X16084950Y-8697906D01*
X16089042Y-8713178D01*
X16091268Y-8717033D01*
X16096948Y-8726872D01*
X16108128Y-8738052D01*
X16121822Y-8745958D01*
X16137094Y-8750050D01*
X16152906Y-8750050D01*
X16168178Y-8745958D01*
X16181872Y-8738052D01*
X16193052Y-8726872D01*
X16200958Y-8713178D01*
X16202524Y-8707333D01*
X16203550Y-8703505D01*
X16207847Y-8694792D01*
X16215151Y-8688386D01*
X16224351Y-8685263D01*
X16227601Y-8685050D01*
X16431026Y-8685050D01*
X16440554Y-8686945D01*
X16448633Y-8692343D01*
X16527657Y-8771367D01*
X16533055Y-8779446D01*
X16534950Y-8788974D01*
X16534950Y-9596126D01*
X16533055Y-9605655D01*
X16527657Y-9613733D01*
X16519579Y-9619130D01*
X16510050Y-9621026D01*
X16500521Y-9619130D01*
X16492443Y-9613733D01*
X16297661Y-9418951D01*
X16287389Y-9413020D01*
X16287388Y-9413020D01*
X16283397Y-9411951D01*
X16283397Y-9411951D01*
X16275931Y-9409950D01*
X16275930Y-9409950D01*
X16238743Y-9409950D01*
X16229214Y-9408055D01*
X16226293Y-9406614D01*
X16213178Y-9399042D01*
X16197906Y-9394950D01*
X16182094Y-9394950D01*
X16166822Y-9399042D01*
X16153129Y-9406948D01*
X16141948Y-9418129D01*
X16134042Y-9431822D01*
X16129950Y-9447094D01*
X16129950Y-9462906D01*
X16134042Y-9478178D01*
X16141948Y-9491871D01*
X16141948Y-9491872D01*
X16153128Y-9503052D01*
X16166822Y-9510958D01*
X16182094Y-9515050D01*
X16197906Y-9515050D01*
X16213178Y-9510958D01*
X16226293Y-9503386D01*
X16227849Y-9502858D01*
X16229214Y-9501945D01*
X16232409Y-9501310D01*
X16235493Y-9500263D01*
X16238743Y-9500050D01*
X16241026Y-9500050D01*
X16250554Y-9501945D01*
X16258633Y-9507343D01*
X16445749Y-9694460D01*
X16451147Y-9702538D01*
X16452194Y-9705622D01*
X16453702Y-9711249D01*
X16460949Y-9723801D01*
X16460949Y-9723801D01*
X16460949Y-9723802D01*
X16471198Y-9734051D01*
X16483751Y-9741298D01*
X16497752Y-9745050D01*
X16512247Y-9745050D01*
X16512247Y-9745050D01*
X16526248Y-9741298D01*
X16530050Y-9739104D01*
X16539250Y-9735981D01*
X16548944Y-9736616D01*
X16554950Y-9739103D01*
X16558751Y-9741298D01*
X16572752Y-9745050D01*
X16587247Y-9745050D01*
X16587247Y-9745050D01*
X16601248Y-9741298D01*
X16613801Y-9734051D01*
X16624051Y-9723802D01*
X16631298Y-9711249D01*
X16635050Y-9697248D01*
X16635050Y-9682753D01*
X16631298Y-9668752D01*
X16629308Y-9665304D01*
X16628386Y-9663707D01*
X16625263Y-9654507D01*
X16625050Y-9651257D01*
X16625050Y-8754069D01*
X16625050Y-8754069D01*
X16621980Y-8742611D01*
X16621980Y-8742611D01*
X16619347Y-8738052D01*
X16619347Y-8738052D01*
X16616049Y-8732339D01*
X16616049Y-8732339D01*
X16487661Y-8603951D01*
X16484609Y-8602189D01*
X16477389Y-8598020D01*
X16474430Y-8597227D01*
X16474429Y-8597227D01*
X16465931Y-8594950D01*
X16189069Y-8594950D01*
X16180570Y-8597227D01*
X16180570Y-8597227D01*
X16177611Y-8598020D01*
X16167339Y-8603951D01*
X16147611Y-8623678D01*
X16139533Y-8629076D01*
X16136449Y-8630123D01*
X16121822Y-8634042D01*
X16121822Y-8634042D01*
X16108129Y-8641948D01*
X16096948Y-8653129D01*
X16089042Y-8666822D01*
X16084950Y-8682094D01*
X15870050Y-8682094D01*
X15870050Y-8651243D01*
X15871945Y-8641714D01*
X15873386Y-8638793D01*
X15874039Y-8637663D01*
X15880958Y-8625678D01*
X15885050Y-8610406D01*
X15885050Y-8594594D01*
X15884475Y-8592450D01*
X15880958Y-8579322D01*
X15875475Y-8569826D01*
X15873052Y-8565628D01*
X15861872Y-8554448D01*
X15848178Y-8546542D01*
X15848178Y-8546542D01*
X15848178Y-8546542D01*
X15848178Y-8546542D01*
X15846339Y-8546049D01*
X15837625Y-8541752D01*
X15831220Y-8534447D01*
X15828097Y-8525247D01*
X15828733Y-8515553D01*
X15833030Y-8506839D01*
X15835176Y-8504392D01*
X15877370Y-8462198D01*
X15885448Y-8456801D01*
X15891727Y-8455119D01*
X15892246Y-8455050D01*
X15892247Y-8455050D01*
X15906248Y-8451298D01*
X15918801Y-8444051D01*
X15929051Y-8433802D01*
X15936298Y-8421249D01*
X15940050Y-8407248D01*
X15940050Y-8392753D01*
X15938918Y-8388529D01*
X15937244Y-8382280D01*
X15936298Y-8378751D01*
X15929051Y-8366198D01*
X15918801Y-8355949D01*
X15918801Y-8355949D01*
X15918801Y-8355949D01*
X15906249Y-8348702D01*
X15906248Y-8348701D01*
X15892247Y-8344950D01*
X15877752Y-8344950D01*
X15863752Y-8348701D01*
X15863751Y-8348702D01*
X15851199Y-8355949D01*
X15840949Y-8366199D01*
X15833702Y-8378751D01*
X15833701Y-8378752D01*
X15829950Y-8392752D01*
X15829950Y-8400168D01*
X15828055Y-8409697D01*
X15822657Y-8417775D01*
X15234025Y-9006407D01*
X15231317Y-9008216D01*
X15228868Y-9010364D01*
X15227313Y-9010892D01*
X15225947Y-9011804D01*
X15222753Y-9012440D01*
X15219668Y-9013487D01*
X15218029Y-9013379D01*
X15216418Y-9013700D01*
X15213224Y-9013064D01*
X15209974Y-9012851D01*
X15208500Y-9012125D01*
X15206889Y-9011804D01*
X15204181Y-9009995D01*
X15201260Y-9008554D01*
X15200177Y-9007319D01*
X15198811Y-9006407D01*
X15194854Y-9001250D01*
X15193386Y-8998707D01*
X15190263Y-8989507D01*
X15190050Y-8986257D01*
X15190050Y-8787082D01*
X15191945Y-8777553D01*
X15197343Y-8769475D01*
X15205421Y-8764078D01*
X15214950Y-8762182D01*
X15224479Y-8764078D01*
X15227400Y-8765518D01*
X15228751Y-8766298D01*
X15242752Y-8770050D01*
X15257247Y-8770050D01*
X15257247Y-8770050D01*
X15271248Y-8766298D01*
X15283801Y-8759051D01*
X15285510Y-8757343D01*
X15293587Y-8751945D01*
X15303116Y-8750050D01*
X15359614Y-8750050D01*
X15368529Y-8747661D01*
X15376521Y-8743047D01*
X15798797Y-8320771D01*
X15803411Y-8312779D01*
X15803633Y-8311953D01*
X15805800Y-8303864D01*
X15805800Y-8082073D01*
X16219950Y-8082073D01*
X16219950Y-8217927D01*
X16220235Y-8220969D01*
X16220235Y-8220970D01*
X16220235Y-8220970D01*
X16224721Y-8233788D01*
X16232785Y-8244715D01*
X16243712Y-8252779D01*
X16243712Y-8252779D01*
X16245361Y-8253651D01*
X16245278Y-8253808D01*
X16251641Y-8257561D01*
X16257484Y-8265324D01*
X16259911Y-8274731D01*
X16259950Y-8276129D01*
X16259950Y-8336257D01*
X16258055Y-8345786D01*
X16256614Y-8348707D01*
X16249042Y-8361822D01*
X16244950Y-8377094D01*
X16244950Y-8392906D01*
X16249042Y-8408178D01*
X16256948Y-8421871D01*
X16256948Y-8421872D01*
X16268128Y-8433052D01*
X16281822Y-8440958D01*
X16297094Y-8445050D01*
X16312906Y-8445050D01*
X16328178Y-8440958D01*
X16341872Y-8433052D01*
X16353052Y-8421872D01*
X16360958Y-8408178D01*
X16365050Y-8392906D01*
X16365050Y-8377094D01*
X16364360Y-8374518D01*
X16360958Y-8361822D01*
X16353386Y-8348707D01*
X16350263Y-8339507D01*
X16350050Y-8336257D01*
X16350050Y-8276129D01*
X16351945Y-8266600D01*
X16357343Y-8258522D01*
X16365421Y-8253124D01*
X16366193Y-8252829D01*
X16366287Y-8252779D01*
X16366288Y-8252779D01*
X16377215Y-8244715D01*
X16385279Y-8233788D01*
X16389765Y-8220970D01*
X16390050Y-8217927D01*
X16390050Y-8175000D01*
X16520000Y-8175000D01*
X16520000Y-8216806D01*
X16521061Y-8225644D01*
X16521061Y-8225645D01*
X16526608Y-8239709D01*
X16535743Y-8251756D01*
X16535744Y-8251757D01*
X16547790Y-8260892D01*
X16561855Y-8266438D01*
X16561855Y-8266438D01*
X16570694Y-8267500D01*
X16590000Y-8267500D01*
X16590000Y-8267500D01*
X16590000Y-8175000D01*
X16640000Y-8175000D01*
X16640000Y-8267500D01*
X16640000Y-8267500D01*
X16659306Y-8267500D01*
X16668144Y-8266438D01*
X16668145Y-8266438D01*
X16682209Y-8260892D01*
X16694256Y-8251757D01*
X16694257Y-8251756D01*
X16703392Y-8239709D01*
X16708938Y-8225645D01*
X16708938Y-8225644D01*
X16710000Y-8216806D01*
X16710000Y-8175000D01*
X16710000Y-8175000D01*
X16640000Y-8175000D01*
X16640000Y-8175000D01*
X16590000Y-8175000D01*
X16590000Y-8175000D01*
X16520000Y-8175000D01*
X16520000Y-8175000D01*
X16390050Y-8175000D01*
X16390050Y-8083194D01*
X16520000Y-8083194D01*
X16520000Y-8125000D01*
X16520000Y-8125000D01*
X16590000Y-8125000D01*
X16590000Y-8125000D01*
X16590000Y-8032500D01*
X16640000Y-8032500D01*
X16640000Y-8125000D01*
X16640000Y-8125000D01*
X16710000Y-8125000D01*
X16710000Y-8125000D01*
X16710000Y-8083194D01*
X16708938Y-8074355D01*
X16708938Y-8074355D01*
X16703392Y-8060290D01*
X16694257Y-8048244D01*
X16694256Y-8048243D01*
X16682209Y-8039108D01*
X16668145Y-8033561D01*
X16668144Y-8033561D01*
X16659306Y-8032500D01*
X16640000Y-8032500D01*
X16640000Y-8032500D01*
X16590000Y-8032500D01*
X16590000Y-8032500D01*
X16570694Y-8032500D01*
X16561855Y-8033561D01*
X16561855Y-8033561D01*
X16547790Y-8039108D01*
X16535744Y-8048243D01*
X16535743Y-8048244D01*
X16526608Y-8060290D01*
X16521061Y-8074355D01*
X16521061Y-8074355D01*
X16520000Y-8083194D01*
X16390050Y-8083194D01*
X16390050Y-8082073D01*
X16389765Y-8079030D01*
X16385279Y-8066212D01*
X16377215Y-8055285D01*
X16366288Y-8047221D01*
X16366288Y-8047221D01*
X16359942Y-8045000D01*
X16353470Y-8042735D01*
X16353470Y-8042735D01*
X16353469Y-8042735D01*
X16350427Y-8042450D01*
X16350427Y-8042450D01*
X16259573Y-8042450D01*
X16259573Y-8042450D01*
X16256530Y-8042735D01*
X16243712Y-8047221D01*
X16243712Y-8047221D01*
X16232785Y-8055285D01*
X16232785Y-8055285D01*
X16224721Y-8066212D01*
X16224721Y-8066212D01*
X16220235Y-8079030D01*
X16219950Y-8082073D01*
X15805800Y-8082073D01*
X15805800Y-8069900D01*
X15807695Y-8060371D01*
X15813093Y-8052293D01*
X15821171Y-8046895D01*
X15830700Y-8045000D01*
X15851809Y-8045000D01*
X15859098Y-8043938D01*
X15870341Y-8038441D01*
X15879191Y-8029591D01*
X15884688Y-8018348D01*
X15885750Y-8011059D01*
X15885750Y-7983656D01*
X15872409Y-7965172D01*
X15871638Y-7963486D01*
X15869395Y-7960129D01*
X15868850Y-7957387D01*
X15868370Y-7956336D01*
X15868309Y-7954670D01*
X15867500Y-7950600D01*
X15867500Y-7942553D01*
X15917500Y-7942553D01*
X15922275Y-7949168D01*
X15934854Y-7944476D01*
X15946076Y-7936076D01*
X15946076Y-7936076D01*
X15954476Y-7924854D01*
X15959376Y-7911719D01*
X15960000Y-7905914D01*
X15960000Y-7905913D01*
X15960000Y-7855000D01*
X15960000Y-7855000D01*
X15917500Y-7855000D01*
X15917500Y-7942553D01*
X15867500Y-7942553D01*
X15867500Y-7854900D01*
X15869395Y-7845371D01*
X15874793Y-7837293D01*
X15882871Y-7831895D01*
X15892400Y-7830000D01*
X15892500Y-7830000D01*
X15892500Y-7829900D01*
X15894395Y-7820371D01*
X15899793Y-7812293D01*
X15907871Y-7806895D01*
X15917400Y-7805000D01*
X15961163Y-7805000D01*
X15965735Y-7801945D01*
X15975264Y-7800050D01*
X15990406Y-7800050D01*
X16005678Y-7795958D01*
X16019372Y-7788052D01*
X16030552Y-7776872D01*
X16038458Y-7763178D01*
X16039362Y-7759803D01*
X16504950Y-7759803D01*
X16504950Y-7779486D01*
X16504950Y-7779487D01*
X16508029Y-7798927D01*
X16514111Y-7817646D01*
X16514111Y-7817647D01*
X16523048Y-7835185D01*
X16523048Y-7835185D01*
X16533025Y-7848918D01*
X16534617Y-7851109D01*
X16548535Y-7865027D01*
X16548536Y-7865027D01*
X16559364Y-7872895D01*
X16564459Y-7876597D01*
X16581997Y-7885533D01*
X16600717Y-7891615D01*
X16620158Y-7894694D01*
X16620159Y-7894694D01*
X16639841Y-7894694D01*
X16639842Y-7894694D01*
X16659283Y-7891615D01*
X16678002Y-7885533D01*
X16695540Y-7876597D01*
X16711465Y-7865027D01*
X16725383Y-7851109D01*
X16736952Y-7835185D01*
X16745888Y-7817647D01*
X16751971Y-7798927D01*
X16755050Y-7779486D01*
X16755050Y-7759803D01*
X16751971Y-7740362D01*
X16745888Y-7721642D01*
X16736952Y-7704104D01*
X16736223Y-7703100D01*
X16725383Y-7688180D01*
X16725383Y-7688180D01*
X16711465Y-7674262D01*
X16711349Y-7674177D01*
X16695541Y-7662692D01*
X16695541Y-7662692D01*
X16695540Y-7662692D01*
X16678002Y-7653756D01*
X16678002Y-7653756D01*
X16678002Y-7653756D01*
X16678002Y-7653756D01*
X16665810Y-7649794D01*
X16659283Y-7647674D01*
X16659282Y-7647673D01*
X16659282Y-7647673D01*
X16639843Y-7644595D01*
X16639842Y-7644594D01*
X16639842Y-7644594D01*
X16620158Y-7644594D01*
X16620158Y-7644594D01*
X16620157Y-7644595D01*
X16600718Y-7647673D01*
X16581998Y-7653756D01*
X16581998Y-7653756D01*
X16575459Y-7657087D01*
X16564459Y-7662692D01*
X16564459Y-7662692D01*
X16564459Y-7662692D01*
X16564459Y-7662692D01*
X16548536Y-7674261D01*
X16534617Y-7688180D01*
X16523048Y-7704103D01*
X16523048Y-7704103D01*
X16523048Y-7704104D01*
X16523048Y-7704104D01*
X16520264Y-7709567D01*
X16514111Y-7721642D01*
X16514111Y-7721643D01*
X16508029Y-7740362D01*
X16504950Y-7759802D01*
X16504950Y-7759803D01*
X16039362Y-7759803D01*
X16042550Y-7747906D01*
X16042550Y-7732094D01*
X16042370Y-7731424D01*
X16038458Y-7716822D01*
X16032772Y-7706974D01*
X16029649Y-7697774D01*
X16030285Y-7688079D01*
X16032150Y-7683219D01*
X16032352Y-7682822D01*
X16032353Y-7682822D01*
X16038472Y-7670813D01*
X16040050Y-7660849D01*
X16040050Y-7609151D01*
X16039945Y-7608489D01*
X16040327Y-7598781D01*
X16044394Y-7589958D01*
X16051529Y-7583364D01*
X16060644Y-7580001D01*
X16064539Y-7579694D01*
X16795050Y-7579694D01*
X16804579Y-7581590D01*
G37*
%TD.AperFunction*%
%TA.AperFunction,Conductor*%
G36*
X13240554Y-9916945D02*
G01*
X13248633Y-9922343D01*
X13267657Y-9941367D01*
X13273055Y-9949446D01*
X13274950Y-9958974D01*
X13274950Y-10063431D01*
X13275973Y-10067248D01*
X13275973Y-10067248D01*
X13278020Y-10074888D01*
X13278020Y-10074889D01*
X13283951Y-10085161D01*
X13365777Y-10166988D01*
X13371175Y-10175066D01*
X13373070Y-10184595D01*
X13371175Y-10194123D01*
X13365777Y-10202202D01*
X13357699Y-10207599D01*
X13348170Y-10209495D01*
X13291019Y-10209495D01*
X13281490Y-10207599D01*
X13273412Y-10202202D01*
X13182343Y-10111133D01*
X13176945Y-10103055D01*
X13175050Y-10093526D01*
X13175050Y-10018743D01*
X13176945Y-10009214D01*
X13178386Y-10006293D01*
X13179465Y-10004424D01*
X13185958Y-9993178D01*
X13190050Y-9977906D01*
X13190050Y-9962094D01*
X13190050Y-9962094D01*
X13185843Y-9946395D01*
X13185630Y-9943144D01*
X13184995Y-9939950D01*
X13185315Y-9938339D01*
X13185208Y-9936700D01*
X13186255Y-9933616D01*
X13186890Y-9930421D01*
X13187803Y-9929055D01*
X13188331Y-9927500D01*
X13190478Y-9925052D01*
X13192288Y-9922343D01*
X13193654Y-9921430D01*
X13194737Y-9920196D01*
X13197658Y-9918755D01*
X13200366Y-9916945D01*
X13201977Y-9916625D01*
X13203450Y-9915898D01*
X13209895Y-9915050D01*
X13231026Y-9915050D01*
X13240554Y-9916945D01*
G37*
%TD.AperFunction*%
%TA.AperFunction,Conductor*%
G36*
X14770579Y-9140728D02*
G01*
X14778657Y-9146125D01*
X14784055Y-9154203D01*
X14785950Y-9163732D01*
X14785950Y-9229024D01*
X14784055Y-9238552D01*
X14778657Y-9246631D01*
X14770579Y-9252028D01*
X14761050Y-9253924D01*
X14752826Y-9252526D01*
X14744000Y-9249438D01*
X14744000Y-9285100D01*
X14742105Y-9294629D01*
X14736707Y-9302707D01*
X14728629Y-9308105D01*
X14719100Y-9310000D01*
X14719000Y-9310000D01*
X14719000Y-9310100D01*
X14717105Y-9319629D01*
X14711707Y-9327707D01*
X14703629Y-9333105D01*
X14694100Y-9335000D01*
X14662118Y-9335000D01*
X14662275Y-9336678D01*
X14662276Y-9336679D01*
X14666606Y-9349056D01*
X14675385Y-9360950D01*
X14679518Y-9369742D01*
X14679972Y-9379447D01*
X14679172Y-9382986D01*
X14678341Y-9385716D01*
X14673702Y-9393752D01*
X14669950Y-9407753D01*
X14669950Y-9413288D01*
X14668871Y-9416832D01*
X14668293Y-9417911D01*
X14668055Y-9419112D01*
X14666016Y-9422162D01*
X14664284Y-9425397D01*
X14663337Y-9426172D01*
X14662657Y-9427190D01*
X14221272Y-9868575D01*
X14213193Y-9873973D01*
X14203665Y-9875868D01*
X14201249Y-9875868D01*
X14187248Y-9879620D01*
X14187248Y-9879620D01*
X14174696Y-9886867D01*
X14164446Y-9897117D01*
X14157198Y-9909669D01*
X14157198Y-9909670D01*
X14156039Y-9913995D01*
X14151742Y-9922708D01*
X14144438Y-9929114D01*
X14135238Y-9932237D01*
X14131988Y-9932450D01*
X14127752Y-9932450D01*
X14113752Y-9936202D01*
X14113751Y-9936202D01*
X14101199Y-9943449D01*
X14101198Y-9943449D01*
X14099715Y-9944932D01*
X14099715Y-9944933D01*
X14099714Y-9944933D01*
X14099714Y-9944933D01*
X14098702Y-9945609D01*
X14091637Y-9950330D01*
X14091636Y-9950330D01*
X14091636Y-9950331D01*
X14086417Y-9951369D01*
X14082108Y-9952226D01*
X14082108Y-9952226D01*
X14082107Y-9952226D01*
X14077369Y-9951283D01*
X14072579Y-9950330D01*
X14072579Y-9950330D01*
X14072579Y-9950330D01*
X14064501Y-9944933D01*
X14047343Y-9927775D01*
X14041945Y-9919697D01*
X14040050Y-9910168D01*
X14040050Y-9522166D01*
X14041945Y-9512637D01*
X14047343Y-9504559D01*
X14055421Y-9499161D01*
X14064950Y-9497266D01*
X14068201Y-9497479D01*
X14068739Y-9497550D01*
X14068740Y-9497550D01*
X14068741Y-9497550D01*
X14081260Y-9497550D01*
X14093354Y-9494310D01*
X14100050Y-9490443D01*
X14109250Y-9487320D01*
X14118945Y-9487956D01*
X14124950Y-9490443D01*
X14131646Y-9494310D01*
X14143740Y-9497550D01*
X14156260Y-9497550D01*
X14168354Y-9494310D01*
X14178614Y-9488386D01*
X14187814Y-9485263D01*
X14191064Y-9485050D01*
X14274615Y-9485050D01*
X14283528Y-9482662D01*
X14283528Y-9482662D01*
X14283529Y-9482661D01*
X14283529Y-9482661D01*
X14288225Y-9479950D01*
X14297425Y-9476827D01*
X14307120Y-9477462D01*
X14315833Y-9481760D01*
X14322239Y-9489064D01*
X14325362Y-9498264D01*
X14324727Y-9507959D01*
X14322239Y-9513964D01*
X14320691Y-9516646D01*
X14320690Y-9516647D01*
X14317450Y-9528740D01*
X14317450Y-9541260D01*
X14320690Y-9553353D01*
X14320691Y-9553354D01*
X14326950Y-9564196D01*
X14326950Y-9564196D01*
X14326950Y-9564196D01*
X14335804Y-9573050D01*
X14335804Y-9573050D01*
X14335804Y-9573050D01*
X14340841Y-9575958D01*
X14346646Y-9579310D01*
X14358740Y-9582550D01*
X14371260Y-9582550D01*
X14383354Y-9579310D01*
X14394196Y-9573050D01*
X14403049Y-9564196D01*
X14409309Y-9553354D01*
X14412550Y-9541260D01*
X14412550Y-9528740D01*
X14409309Y-9516646D01*
X14408386Y-9515046D01*
X14407858Y-9513491D01*
X14406945Y-9512126D01*
X14406310Y-9508931D01*
X14405263Y-9505846D01*
X14405050Y-9502597D01*
X14405050Y-9494832D01*
X14406945Y-9485303D01*
X14412343Y-9477225D01*
X14619226Y-9270343D01*
X14627303Y-9264945D01*
X14636832Y-9263050D01*
X14646361Y-9264945D01*
X14654439Y-9270343D01*
X14659837Y-9278421D01*
X14660874Y-9283633D01*
X14662118Y-9285000D01*
X14694000Y-9285000D01*
X14694000Y-9249438D01*
X14686538Y-9244143D01*
X14679863Y-9237083D01*
X14676398Y-9228006D01*
X14676671Y-9218295D01*
X14680639Y-9209427D01*
X14683339Y-9206229D01*
X14743443Y-9146125D01*
X14751521Y-9140728D01*
X14761050Y-9138832D01*
X14770579Y-9140728D01*
G37*
%TD.AperFunction*%
%TA.AperFunction,Conductor*%
G36*
X15084579Y-8826728D02*
G01*
X15092657Y-8832125D01*
X15098055Y-8840203D01*
X15099950Y-8849732D01*
X15099950Y-8986257D01*
X15098055Y-8995786D01*
X15096614Y-8998707D01*
X15089042Y-9011822D01*
X15084950Y-9027094D01*
X15084950Y-9042906D01*
X15089042Y-9058178D01*
X15092133Y-9063532D01*
X15096948Y-9071872D01*
X15108128Y-9083052D01*
X15108129Y-9083052D01*
X15108129Y-9083052D01*
X15111250Y-9084854D01*
X15118554Y-9091260D01*
X15122851Y-9099974D01*
X15123487Y-9109668D01*
X15120364Y-9118868D01*
X15116407Y-9124025D01*
X14910557Y-9329875D01*
X14902479Y-9335272D01*
X14892950Y-9337168D01*
X14883421Y-9335272D01*
X14875343Y-9329875D01*
X14869945Y-9321797D01*
X14868050Y-9312268D01*
X14868050Y-9287569D01*
X14867725Y-9285100D01*
X14867407Y-9282683D01*
X14862406Y-9271960D01*
X14861157Y-9270175D01*
X14861407Y-9269999D01*
X14857945Y-9264818D01*
X14856050Y-9255289D01*
X14856050Y-9178832D01*
X14857945Y-9169303D01*
X14863343Y-9161225D01*
X14972225Y-9052343D01*
X14980303Y-9046945D01*
X14989832Y-9045050D01*
X14992247Y-9045050D01*
X14992247Y-9045050D01*
X15006248Y-9041298D01*
X15018801Y-9034051D01*
X15029051Y-9023802D01*
X15036298Y-9011249D01*
X15040050Y-8997248D01*
X15040050Y-8982753D01*
X15036298Y-8968752D01*
X15032549Y-8962258D01*
X15029051Y-8956199D01*
X15029051Y-8956199D01*
X15029051Y-8956199D01*
X15018801Y-8945949D01*
X15018801Y-8945949D01*
X15018801Y-8945949D01*
X15006249Y-8938702D01*
X15006249Y-8938702D01*
X15005018Y-8938372D01*
X15004228Y-8938160D01*
X14995515Y-8933863D01*
X14989109Y-8926559D01*
X14985986Y-8917359D01*
X14986622Y-8907664D01*
X14990919Y-8898950D01*
X14993065Y-8896503D01*
X15057443Y-8832125D01*
X15065521Y-8826728D01*
X15075050Y-8824832D01*
X15084579Y-8826728D01*
G37*
%TD.AperFunction*%
%TA.AperFunction,Conductor*%
G36*
X13943977Y-8876359D02*
G01*
X13946380Y-8876359D01*
X13948691Y-8877315D01*
X13951143Y-8877812D01*
X13953137Y-8879155D01*
X13955357Y-8880074D01*
X13957126Y-8881842D01*
X13959201Y-8883240D01*
X13960529Y-8885243D01*
X13962229Y-8886942D01*
X13963470Y-8889680D01*
X13964569Y-8891338D01*
X13965407Y-8893383D01*
X13965407Y-8893688D01*
X13969456Y-8908801D01*
X13977279Y-8922350D01*
X13977280Y-8922351D01*
X13977917Y-8923905D01*
X13978546Y-8927100D01*
X13979564Y-8930098D01*
X13979457Y-8931726D01*
X13979777Y-8933349D01*
X13979777Y-8962258D01*
X13980174Y-8963741D01*
X13982043Y-8970716D01*
X13982043Y-8970716D01*
X13982847Y-8973716D01*
X13988778Y-8983988D01*
X14009678Y-9004889D01*
X14015076Y-9012967D01*
X14016123Y-9016051D01*
X14020042Y-9030678D01*
X14027758Y-9044042D01*
X14027948Y-9044372D01*
X14039128Y-9055552D01*
X14039129Y-9055552D01*
X14052822Y-9063458D01*
X14068094Y-9067550D01*
X14077668Y-9067550D01*
X14087197Y-9069445D01*
X14095275Y-9074843D01*
X14128337Y-9107906D01*
X14148479Y-9128047D01*
X14155409Y-9132048D01*
X14156471Y-9132661D01*
X14156472Y-9132662D01*
X14165385Y-9135050D01*
X14165386Y-9135050D01*
X14314812Y-9135050D01*
X14324341Y-9136945D01*
X14329385Y-9139759D01*
X14331006Y-9140929D01*
X14338128Y-9148052D01*
X14351822Y-9155958D01*
X14351832Y-9155961D01*
X14352881Y-9156718D01*
X14355344Y-9159365D01*
X14358064Y-9161750D01*
X14358629Y-9162896D01*
X14359499Y-9163831D01*
X14360761Y-9167220D01*
X14362361Y-9170464D01*
X14362444Y-9171738D01*
X14362890Y-9172936D01*
X14362760Y-9176549D01*
X14362996Y-9180158D01*
X14362586Y-9181368D01*
X14362539Y-9182645D01*
X14361036Y-9185934D01*
X14359873Y-9189358D01*
X14358876Y-9190658D01*
X14358500Y-9191481D01*
X14357609Y-9192309D01*
X14355916Y-9194515D01*
X14232775Y-9317657D01*
X14224697Y-9323055D01*
X14215168Y-9324950D01*
X14095385Y-9324950D01*
X14086471Y-9327339D01*
X14077400Y-9332576D01*
X14068200Y-9335699D01*
X14058506Y-9335064D01*
X14049792Y-9330767D01*
X14043386Y-9323462D01*
X14040263Y-9314262D01*
X14040050Y-9311012D01*
X14040050Y-9180385D01*
X14037661Y-9171471D01*
X14033047Y-9163479D01*
X14030793Y-9161225D01*
X14026521Y-9156953D01*
X14026521Y-9156953D01*
X13860540Y-8990972D01*
X13855142Y-8982894D01*
X13853247Y-8973365D01*
X13853247Y-8909684D01*
X13855142Y-8900155D01*
X13860540Y-8892077D01*
X13868618Y-8886679D01*
X13878147Y-8884784D01*
X13883004Y-8885262D01*
X13891466Y-8886946D01*
X13891466Y-8886946D01*
X13904187Y-8886946D01*
X13904188Y-8886946D01*
X13916664Y-8884464D01*
X13928417Y-8879596D01*
X13928418Y-8879595D01*
X13929496Y-8879019D01*
X13929633Y-8879276D01*
X13930001Y-8879124D01*
X13932086Y-8877742D01*
X13934444Y-8877281D01*
X13936664Y-8876361D01*
X13939166Y-8876361D01*
X13941622Y-8875882D01*
X13943977Y-8876359D01*
G37*
%TD.AperFunction*%
%TA.AperFunction,Conductor*%
G36*
X14327317Y-8933557D02*
G01*
X14329411Y-8933694D01*
X14331927Y-8934935D01*
X14334615Y-8935739D01*
X14336243Y-8937063D01*
X14338125Y-8937991D01*
X14339975Y-8940101D01*
X14342150Y-8941872D01*
X14343147Y-8943718D01*
X14344531Y-8945296D01*
X14345971Y-8948217D01*
X14348597Y-8954555D01*
X14348597Y-8954556D01*
X14355293Y-8964577D01*
X14355664Y-8965133D01*
X14364660Y-8974128D01*
X14375237Y-8981196D01*
X14375237Y-8981196D01*
X14375237Y-8981196D01*
X14381113Y-8983630D01*
X14386990Y-8986064D01*
X14399466Y-8988546D01*
X14399467Y-8988546D01*
X14412187Y-8988546D01*
X14412188Y-8988546D01*
X14421680Y-8986657D01*
X14431396Y-8986657D01*
X14440372Y-8990375D01*
X14447242Y-8997245D01*
X14450589Y-9004634D01*
X14453701Y-9016248D01*
X14453702Y-9016249D01*
X14460949Y-9028801D01*
X14460949Y-9028801D01*
X14460949Y-9028802D01*
X14471198Y-9039051D01*
X14471199Y-9039051D01*
X14471199Y-9039051D01*
X14471409Y-9039213D01*
X14471758Y-9039610D01*
X14472353Y-9040205D01*
X14472313Y-9040244D01*
X14477815Y-9046517D01*
X14480938Y-9055717D01*
X14480302Y-9065412D01*
X14476005Y-9074125D01*
X14473858Y-9076574D01*
X14469515Y-9080916D01*
X14461437Y-9086314D01*
X14451908Y-9088209D01*
X14442380Y-9086314D01*
X14434301Y-9080916D01*
X14430344Y-9075759D01*
X14429815Y-9074843D01*
X14423052Y-9063128D01*
X14411872Y-9051948D01*
X14411871Y-9051948D01*
X14398178Y-9044042D01*
X14382906Y-9039950D01*
X14367094Y-9039950D01*
X14351822Y-9044042D01*
X14338129Y-9051948D01*
X14338128Y-9051948D01*
X14338128Y-9051948D01*
X14332419Y-9057657D01*
X14324341Y-9063055D01*
X14314812Y-9064950D01*
X14285027Y-9064950D01*
X14275499Y-9063055D01*
X14267420Y-9057657D01*
X14262023Y-9049579D01*
X14260127Y-9040050D01*
X14261671Y-9032291D01*
X14261535Y-9032255D01*
X14266050Y-9015406D01*
X14266050Y-8999594D01*
X14263581Y-8990382D01*
X14261958Y-8984322D01*
X14260984Y-8982636D01*
X14257861Y-8973436D01*
X14258497Y-8963741D01*
X14262794Y-8955028D01*
X14270098Y-8948622D01*
X14275224Y-8946387D01*
X14278803Y-8945286D01*
X14286650Y-8945286D01*
X14301762Y-8941236D01*
X14312953Y-8934775D01*
X14315642Y-8933948D01*
X14317729Y-8933733D01*
X14319716Y-8933059D01*
X14322516Y-8933242D01*
X14325307Y-8932956D01*
X14327317Y-8933557D01*
G37*
%TD.AperFunction*%
%TA.AperFunction,Conductor*%
G36*
X14487129Y-7722395D02*
G01*
X14495207Y-7727793D01*
X14500605Y-7735871D01*
X14502500Y-7745400D01*
X14502500Y-7778247D01*
X14502772Y-7778221D01*
X14502773Y-7778221D01*
X14515292Y-7773841D01*
X14525964Y-7765964D01*
X14534948Y-7753791D01*
X14535194Y-7753972D01*
X14539447Y-7748740D01*
X14547994Y-7744120D01*
X14557658Y-7743122D01*
X14560191Y-7743492D01*
X14564662Y-7744381D01*
X14568025Y-7745050D01*
X14665222Y-7745050D01*
X14674751Y-7746945D01*
X14682829Y-7752343D01*
X14688227Y-7760421D01*
X14689082Y-7762826D01*
X14689950Y-7765734D01*
X14689950Y-7766975D01*
X14691113Y-7772823D01*
X14692836Y-7775402D01*
X14693909Y-7778995D01*
X14694020Y-7780170D01*
X14694471Y-7781260D01*
X14694950Y-7786118D01*
X14694950Y-7848639D01*
X14693055Y-7858168D01*
X14687657Y-7866246D01*
X14681354Y-7870825D01*
X14678666Y-7872195D01*
X14678666Y-7872195D01*
X14678666Y-7872195D01*
X14678666Y-7872195D01*
X14669695Y-7881166D01*
X14669695Y-7881166D01*
X14663935Y-7892470D01*
X14663935Y-7892470D01*
X14662450Y-7901847D01*
X14662450Y-7901848D01*
X14662450Y-7948151D01*
X14662787Y-7950282D01*
X14663935Y-7957530D01*
X14669695Y-7968834D01*
X14678666Y-7977805D01*
X14689970Y-7983565D01*
X14689970Y-7983565D01*
X14689970Y-7983565D01*
X14690752Y-7983819D01*
X14699228Y-7988566D01*
X14705243Y-7996196D01*
X14707880Y-8005547D01*
X14706738Y-8015195D01*
X14701991Y-8023671D01*
X14694361Y-8029686D01*
X14690751Y-8031181D01*
X14689970Y-8031435D01*
X14678666Y-8037195D01*
X14669695Y-8046166D01*
X14663935Y-8057470D01*
X14663935Y-8057470D01*
X14662450Y-8066847D01*
X14662450Y-8066848D01*
X14662450Y-8113151D01*
X14662450Y-8113152D01*
X14663935Y-8122530D01*
X14669695Y-8133834D01*
X14678666Y-8142805D01*
X14678666Y-8142805D01*
X14678666Y-8142805D01*
X14681354Y-8144175D01*
X14688984Y-8150189D01*
X14693731Y-8158666D01*
X14694950Y-8166361D01*
X14694950Y-8845168D01*
X14693055Y-8854697D01*
X14687657Y-8862775D01*
X14586574Y-8963858D01*
X14586135Y-8964151D01*
X14585823Y-8964577D01*
X14582111Y-8966839D01*
X14578496Y-8969255D01*
X14577978Y-8969358D01*
X14577527Y-8969633D01*
X14573231Y-8970303D01*
X14568967Y-8971151D01*
X14568449Y-8971048D01*
X14567927Y-8971129D01*
X14563702Y-8970104D01*
X14559438Y-8969255D01*
X14558999Y-8968962D01*
X14558486Y-8968838D01*
X14556843Y-8967522D01*
X14551360Y-8963858D01*
X14550640Y-8963107D01*
X14549331Y-8961684D01*
X14549051Y-8961199D01*
X14546976Y-8959124D01*
X14546623Y-8958740D01*
X14544361Y-8955028D01*
X14541945Y-8951412D01*
X14541842Y-8950894D01*
X14541568Y-8950444D01*
X14540898Y-8946149D01*
X14540050Y-8941884D01*
X14540050Y-8615385D01*
X14538716Y-8610406D01*
X14537661Y-8606471D01*
X14537024Y-8605367D01*
X14536206Y-8603951D01*
X14536206Y-8603951D01*
X14533047Y-8598479D01*
X14533047Y-8598479D01*
X14302343Y-8367775D01*
X14296945Y-8359697D01*
X14295050Y-8350168D01*
X14295050Y-8326064D01*
X14296945Y-8316535D01*
X14298386Y-8313614D01*
X14298957Y-8312625D01*
X14304309Y-8303354D01*
X14307550Y-8291260D01*
X14307550Y-8290150D01*
X14309445Y-8280621D01*
X14314843Y-8272543D01*
X14322921Y-8267145D01*
X14332450Y-8265250D01*
X14351806Y-8265250D01*
X14360644Y-8264188D01*
X14360645Y-8264188D01*
X14374709Y-8258642D01*
X14385911Y-8250147D01*
X14394649Y-8245900D01*
X14404347Y-8245320D01*
X14413529Y-8248495D01*
X14420797Y-8254942D01*
X14425045Y-8263680D01*
X14425625Y-8273378D01*
X14424443Y-8277739D01*
X14424465Y-8277745D01*
X14419950Y-8294594D01*
X14419950Y-8310406D01*
X14424042Y-8325678D01*
X14428050Y-8332620D01*
X14431948Y-8339372D01*
X14443128Y-8350552D01*
X14456822Y-8358458D01*
X14472094Y-8362550D01*
X14487906Y-8362550D01*
X14503178Y-8358458D01*
X14516872Y-8350552D01*
X14528052Y-8339372D01*
X14535958Y-8325678D01*
X14540050Y-8310406D01*
X14540050Y-8294594D01*
X14535958Y-8279322D01*
X14528052Y-8265628D01*
X14528052Y-8265628D01*
X14527695Y-8265164D01*
X14523398Y-8256450D01*
X14522550Y-8250006D01*
X14522550Y-7968743D01*
X14524445Y-7959214D01*
X14525886Y-7956293D01*
X14526723Y-7954843D01*
X14533458Y-7943178D01*
X14537550Y-7927906D01*
X14537550Y-7912094D01*
X14537208Y-7910817D01*
X14533458Y-7896822D01*
X14525552Y-7883129D01*
X14525552Y-7883128D01*
X14514372Y-7871948D01*
X14512015Y-7870588D01*
X14500678Y-7864042D01*
X14485406Y-7859950D01*
X14469594Y-7859950D01*
X14454321Y-7864042D01*
X14454321Y-7864042D01*
X14439850Y-7872397D01*
X14430650Y-7875520D01*
X14420955Y-7874885D01*
X14412242Y-7870588D01*
X14405836Y-7863283D01*
X14402713Y-7854083D01*
X14402500Y-7850833D01*
X14402500Y-7834750D01*
X14402500Y-7834750D01*
X14307500Y-7834750D01*
X14307500Y-7914750D01*
X14307500Y-7914750D01*
X14351806Y-7914750D01*
X14360644Y-7913688D01*
X14360645Y-7913688D01*
X14374709Y-7908142D01*
X14377504Y-7906023D01*
X14386242Y-7901775D01*
X14395940Y-7901195D01*
X14405122Y-7904370D01*
X14412390Y-7910817D01*
X14416053Y-7917641D01*
X14417450Y-7921634D01*
X14417450Y-7927906D01*
X14421542Y-7943178D01*
X14429448Y-7956872D01*
X14429953Y-7957377D01*
X14431053Y-7960521D01*
X14431412Y-7963062D01*
X14432237Y-7965493D01*
X14432450Y-7968743D01*
X14432450Y-8072205D01*
X14430555Y-8081733D01*
X14425157Y-8089812D01*
X14417079Y-8095209D01*
X14407550Y-8097105D01*
X14398021Y-8095209D01*
X14389943Y-8089812D01*
X14387710Y-8087251D01*
X14386757Y-8085994D01*
X14386756Y-8085993D01*
X14374709Y-8076858D01*
X14360645Y-8071311D01*
X14360644Y-8071311D01*
X14351806Y-8070250D01*
X14307500Y-8070250D01*
X14307500Y-8070250D01*
X14307500Y-8142850D01*
X14305605Y-8152379D01*
X14300207Y-8160457D01*
X14292129Y-8165855D01*
X14282600Y-8167750D01*
X14282400Y-8167750D01*
X14272871Y-8165855D01*
X14264793Y-8160457D01*
X14259395Y-8152379D01*
X14257500Y-8142850D01*
X14257500Y-8070250D01*
X14257500Y-8070250D01*
X14222350Y-8070250D01*
X14212821Y-8068355D01*
X14204743Y-8062957D01*
X14199345Y-8054879D01*
X14197450Y-8045350D01*
X14197450Y-7939650D01*
X14199345Y-7930121D01*
X14204743Y-7922043D01*
X14212821Y-7916645D01*
X14222350Y-7914750D01*
X14257500Y-7914750D01*
X14257500Y-7914750D01*
X14257500Y-7834650D01*
X14259395Y-7825121D01*
X14264793Y-7817043D01*
X14272871Y-7811645D01*
X14282400Y-7809750D01*
X14282500Y-7809750D01*
X14282500Y-7809650D01*
X14284395Y-7800121D01*
X14289793Y-7792043D01*
X14297871Y-7786645D01*
X14307400Y-7784750D01*
X14402500Y-7784750D01*
X14409508Y-7777742D01*
X14417586Y-7772344D01*
X14427115Y-7770449D01*
X14436644Y-7772344D01*
X14438751Y-7773335D01*
X14439708Y-7773840D01*
X14452227Y-7778221D01*
X14452228Y-7778221D01*
X14452500Y-7778247D01*
X14452500Y-7745400D01*
X14454395Y-7735871D01*
X14459793Y-7727793D01*
X14467871Y-7722395D01*
X14477400Y-7720500D01*
X14477600Y-7720500D01*
X14487129Y-7722395D01*
G37*
%TD.AperFunction*%
%TA.AperFunction,Conductor*%
G36*
X14313256Y-8760620D02*
G01*
X14321334Y-8766017D01*
X14340743Y-8785426D01*
X14350144Y-8779273D01*
X14359155Y-8775640D01*
X14368870Y-8775732D01*
X14374068Y-8777620D01*
X14374107Y-8777528D01*
X14378737Y-8779446D01*
X14386990Y-8782864D01*
X14399466Y-8785346D01*
X14399467Y-8785346D01*
X14412187Y-8785346D01*
X14412188Y-8785346D01*
X14424664Y-8782864D01*
X14435521Y-8778367D01*
X14445050Y-8776471D01*
X14454579Y-8778367D01*
X14462657Y-8783764D01*
X14463794Y-8785466D01*
X14468055Y-8791843D01*
X14469950Y-8801371D01*
X14469950Y-8843360D01*
X14468055Y-8852889D01*
X14462657Y-8860967D01*
X14454579Y-8866364D01*
X14445050Y-8868260D01*
X14435521Y-8866364D01*
X14424664Y-8861867D01*
X14412188Y-8859386D01*
X14399466Y-8859386D01*
X14386990Y-8861867D01*
X14386990Y-8861867D01*
X14386989Y-8861867D01*
X14375237Y-8866735D01*
X14375237Y-8866735D01*
X14369312Y-8870694D01*
X14360336Y-8874412D01*
X14350621Y-8874412D01*
X14341645Y-8870694D01*
X14334775Y-8863824D01*
X14333915Y-8862441D01*
X14333584Y-8861867D01*
X14326375Y-8849381D01*
X14315312Y-8838318D01*
X14315068Y-8838075D01*
X14313641Y-8835939D01*
X14311842Y-8834105D01*
X14310968Y-8831938D01*
X14309671Y-8829996D01*
X14309170Y-8827477D01*
X14308209Y-8825094D01*
X14308223Y-8823617D01*
X14286120Y-8801514D01*
X14280722Y-8793436D01*
X14278827Y-8783907D01*
X14278827Y-8783624D01*
X14280722Y-8774095D01*
X14286120Y-8766017D01*
X14294198Y-8760620D01*
X14303727Y-8758724D01*
X14313256Y-8760620D01*
G37*
%TD.AperFunction*%
%TA.AperFunction,Conductor*%
G36*
X14006859Y-8570922D02*
G01*
X14011269Y-8571655D01*
X14011610Y-8571867D01*
X14012003Y-8571945D01*
X14015721Y-8574430D01*
X14019514Y-8576794D01*
X14019748Y-8577120D01*
X14020081Y-8577343D01*
X14022565Y-8581061D01*
X14025165Y-8584697D01*
X14025256Y-8585088D01*
X14025479Y-8585421D01*
X14026351Y-8589805D01*
X14027362Y-8594161D01*
X14027296Y-8594557D01*
X14027374Y-8594950D01*
X14026502Y-8599334D01*
X14025769Y-8603745D01*
X14025053Y-8605643D01*
X14020042Y-8614322D01*
X14015950Y-8629594D01*
X14015950Y-8629753D01*
X14015366Y-8631299D01*
X14013438Y-8634393D01*
X14011826Y-8637663D01*
X14010887Y-8638485D01*
X14010227Y-8639544D01*
X14009678Y-8640111D01*
X13988778Y-8661011D01*
X13988778Y-8661011D01*
X13983240Y-8670603D01*
X13982847Y-8671284D01*
X13982198Y-8673706D01*
X13979777Y-8682742D01*
X13979777Y-8712304D01*
X13979709Y-8713223D01*
X13978653Y-8717033D01*
X13977882Y-8720911D01*
X13977189Y-8722315D01*
X13977114Y-8722586D01*
X13976956Y-8722788D01*
X13976441Y-8723833D01*
X13969456Y-8735930D01*
X13969456Y-8735930D01*
X13965581Y-8750395D01*
X13961283Y-8759108D01*
X13953979Y-8765514D01*
X13944779Y-8768637D01*
X13935084Y-8768001D01*
X13929600Y-8765516D01*
X13929496Y-8765712D01*
X13928417Y-8765135D01*
X13916665Y-8760267D01*
X13916664Y-8760267D01*
X13916664Y-8760267D01*
X13904188Y-8757786D01*
X13891466Y-8757786D01*
X13891466Y-8757786D01*
X13883004Y-8759469D01*
X13873289Y-8759469D01*
X13864313Y-8755751D01*
X13857443Y-8748881D01*
X13853725Y-8739905D01*
X13853247Y-8735047D01*
X13853247Y-8631635D01*
X13855142Y-8622106D01*
X13860540Y-8614028D01*
X13897225Y-8577343D01*
X13905303Y-8571945D01*
X13914832Y-8570050D01*
X14002474Y-8570050D01*
X14006859Y-8570922D01*
G37*
%TD.AperFunction*%
%TA.AperFunction,Conductor*%
G36*
X14234411Y-8400182D02*
G01*
X14239574Y-8404142D01*
X14350984Y-8515553D01*
X14454681Y-8619249D01*
X14460078Y-8627327D01*
X14461974Y-8636856D01*
X14460078Y-8646385D01*
X14454681Y-8654463D01*
X14446602Y-8659860D01*
X14437074Y-8661756D01*
X14427545Y-8659861D01*
X14424664Y-8658667D01*
X14424664Y-8658667D01*
X14412188Y-8656186D01*
X14399466Y-8656186D01*
X14386990Y-8658667D01*
X14386990Y-8658667D01*
X14386989Y-8658667D01*
X14375237Y-8663535D01*
X14375237Y-8663536D01*
X14364660Y-8670603D01*
X14355664Y-8679599D01*
X14348173Y-8690810D01*
X14347297Y-8691686D01*
X14346714Y-8692777D01*
X14343887Y-8695095D01*
X14341303Y-8697680D01*
X14340159Y-8698154D01*
X14339202Y-8698939D01*
X14335704Y-8699999D01*
X14332327Y-8701398D01*
X14331089Y-8701398D01*
X14329904Y-8701757D01*
X14327486Y-8701398D01*
X14322611Y-8701398D01*
X14320236Y-8700803D01*
X14279453Y-8688422D01*
X14278366Y-8687841D01*
X14277158Y-8687600D01*
X14274114Y-8685566D01*
X14270886Y-8683840D01*
X14270104Y-8682887D01*
X14269079Y-8682203D01*
X14267046Y-8679159D01*
X14264724Y-8676329D01*
X14264367Y-8675149D01*
X14263682Y-8674124D01*
X14262968Y-8670534D01*
X14261906Y-8667031D01*
X14262027Y-8665804D01*
X14261786Y-8664596D01*
X14262635Y-8658151D01*
X14266050Y-8645406D01*
X14266050Y-8629594D01*
X14261958Y-8614322D01*
X14255970Y-8603951D01*
X14254052Y-8600628D01*
X14242872Y-8589448D01*
X14242871Y-8589448D01*
X14229178Y-8581542D01*
X14213906Y-8577450D01*
X14198094Y-8577450D01*
X14182822Y-8581542D01*
X14169129Y-8589448D01*
X14169128Y-8589448D01*
X14169128Y-8589448D01*
X14158607Y-8599970D01*
X14150529Y-8605367D01*
X14141000Y-8607263D01*
X14131471Y-8605367D01*
X14127098Y-8603020D01*
X14124375Y-8601188D01*
X14124052Y-8600628D01*
X14112872Y-8589448D01*
X14099178Y-8581542D01*
X14092539Y-8579763D01*
X14089093Y-8577444D01*
X14088540Y-8576888D01*
X14087837Y-8576541D01*
X14085135Y-8573460D01*
X14082246Y-8570552D01*
X14081948Y-8569826D01*
X14081431Y-8569236D01*
X14080114Y-8565356D01*
X14078558Y-8561564D01*
X14078560Y-8560779D01*
X14078308Y-8560037D01*
X14078576Y-8555947D01*
X14078590Y-8551848D01*
X14078892Y-8551124D01*
X14078944Y-8550342D01*
X14080756Y-8546666D01*
X14082338Y-8542885D01*
X14082894Y-8542332D01*
X14083241Y-8541628D01*
X14085387Y-8539181D01*
X14190447Y-8434121D01*
X14195061Y-8426129D01*
X14195350Y-8425050D01*
X14197450Y-8417214D01*
X14197872Y-8415638D01*
X14198221Y-8415731D01*
X14200400Y-8409306D01*
X14206804Y-8402000D01*
X14215516Y-8397700D01*
X14225210Y-8397062D01*
X14234411Y-8400182D01*
G37*
%TD.AperFunction*%
%TA.AperFunction,Conductor*%
G36*
X15477391Y-7580078D02*
G01*
X15479356Y-7580001D01*
X15482111Y-7581017D01*
X15484990Y-7581590D01*
X15486626Y-7582683D01*
X15488471Y-7583364D01*
X15490627Y-7585356D01*
X15493068Y-7586987D01*
X15494161Y-7588623D01*
X15495606Y-7589958D01*
X15496835Y-7592625D01*
X15498466Y-7595066D01*
X15498850Y-7596995D01*
X15499673Y-7598781D01*
X15499788Y-7601715D01*
X15500361Y-7604594D01*
X15500055Y-7608489D01*
X15499950Y-7609151D01*
X15499950Y-7660848D01*
X15499950Y-7660850D01*
X15501528Y-7670812D01*
X15501528Y-7670812D01*
X15501528Y-7670813D01*
X15507647Y-7682822D01*
X15507850Y-7683220D01*
X15510487Y-7692570D01*
X15509345Y-7702218D01*
X15507228Y-7706974D01*
X15501542Y-7716822D01*
X15497450Y-7732094D01*
X15497450Y-7747906D01*
X15501542Y-7763178D01*
X15509448Y-7776871D01*
X15509448Y-7776872D01*
X15520628Y-7788052D01*
X15520629Y-7788052D01*
X15534322Y-7795958D01*
X15549594Y-7800050D01*
X15564736Y-7800050D01*
X15574265Y-7801945D01*
X15578836Y-7805000D01*
X15622600Y-7805000D01*
X15632129Y-7806895D01*
X15640207Y-7812293D01*
X15645605Y-7820371D01*
X15647500Y-7829900D01*
X15647500Y-7830000D01*
X15647600Y-7830000D01*
X15657129Y-7831895D01*
X15665207Y-7837293D01*
X15670605Y-7845371D01*
X15672500Y-7854900D01*
X15672500Y-7949829D01*
X15676719Y-7949376D01*
X15676720Y-7949375D01*
X15691348Y-7943919D01*
X15695051Y-7943319D01*
X15698686Y-7942387D01*
X15699814Y-7942547D01*
X15700938Y-7942365D01*
X15704590Y-7943228D01*
X15708304Y-7943757D01*
X15709284Y-7944337D01*
X15710394Y-7944599D01*
X15713437Y-7946794D01*
X15716666Y-7948704D01*
X15717350Y-7949615D01*
X15718274Y-7950282D01*
X15720246Y-7953473D01*
X15722498Y-7956474D01*
X15722730Y-7957496D01*
X15723380Y-7958547D01*
X15724913Y-7965885D01*
X15724950Y-7966567D01*
X15724950Y-7995181D01*
X15726255Y-8000050D01*
X15726924Y-8002548D01*
X15727496Y-8004683D01*
X15728020Y-8006639D01*
X15732364Y-8014163D01*
X15735487Y-8023362D01*
X15735700Y-8026612D01*
X15735700Y-8274418D01*
X15733805Y-8283947D01*
X15728407Y-8292025D01*
X15347775Y-8672657D01*
X15339697Y-8678055D01*
X15330168Y-8679950D01*
X15303116Y-8679950D01*
X15293587Y-8678055D01*
X15285510Y-8672657D01*
X15283801Y-8670949D01*
X15283801Y-8670949D01*
X15283801Y-8670949D01*
X15271249Y-8663702D01*
X15271248Y-8663702D01*
X15257247Y-8659950D01*
X15242752Y-8659950D01*
X15228752Y-8663702D01*
X15228751Y-8663702D01*
X15227400Y-8664482D01*
X15218200Y-8667605D01*
X15208505Y-8666969D01*
X15199791Y-8662672D01*
X15193386Y-8655368D01*
X15190263Y-8646168D01*
X15190050Y-8642918D01*
X15190050Y-8005252D01*
X15304950Y-8005252D01*
X15304950Y-8019747D01*
X15308701Y-8033748D01*
X15308702Y-8033749D01*
X15315949Y-8046301D01*
X15315949Y-8046301D01*
X15315949Y-8046301D01*
X15317657Y-8048010D01*
X15323055Y-8056087D01*
X15324950Y-8065616D01*
X15324950Y-8286884D01*
X15323055Y-8296412D01*
X15317657Y-8304490D01*
X15315949Y-8306198D01*
X15315949Y-8306199D01*
X15308702Y-8318751D01*
X15308701Y-8318752D01*
X15304950Y-8332752D01*
X15304950Y-8347247D01*
X15308701Y-8361248D01*
X15308702Y-8361249D01*
X15315949Y-8373801D01*
X15315949Y-8373801D01*
X15315949Y-8373801D01*
X15326198Y-8384051D01*
X15338751Y-8391298D01*
X15352752Y-8395050D01*
X15367247Y-8395050D01*
X15367247Y-8395050D01*
X15381248Y-8391298D01*
X15393801Y-8384051D01*
X15404051Y-8373801D01*
X15411298Y-8361248D01*
X15415050Y-8347247D01*
X15415050Y-8332752D01*
X15411298Y-8318751D01*
X15404051Y-8306198D01*
X15402343Y-8304490D01*
X15396945Y-8296412D01*
X15395050Y-8286884D01*
X15395050Y-8065616D01*
X15396945Y-8056087D01*
X15402343Y-8048010D01*
X15404051Y-8046301D01*
X15411298Y-8033748D01*
X15415050Y-8019747D01*
X15415050Y-8005252D01*
X15411298Y-7991251D01*
X15404110Y-7978801D01*
X15404051Y-7978699D01*
X15404051Y-7978699D01*
X15404051Y-7978698D01*
X15393801Y-7968449D01*
X15393801Y-7968449D01*
X15393801Y-7968449D01*
X15381249Y-7961202D01*
X15381248Y-7961201D01*
X15367247Y-7957450D01*
X15352752Y-7957450D01*
X15338752Y-7961201D01*
X15338751Y-7961202D01*
X15326199Y-7968449D01*
X15315949Y-7978699D01*
X15308702Y-7991251D01*
X15308701Y-7991252D01*
X15304950Y-8005252D01*
X15190050Y-8005252D01*
X15190050Y-7855000D01*
X15580000Y-7855000D01*
X15580000Y-7905914D01*
X15580624Y-7911719D01*
X15585523Y-7924854D01*
X15593924Y-7936076D01*
X15593924Y-7936076D01*
X15605146Y-7944476D01*
X15618281Y-7949376D01*
X15618281Y-7949376D01*
X15622500Y-7949829D01*
X15622500Y-7855000D01*
X15580000Y-7855000D01*
X15580000Y-7855000D01*
X15190050Y-7855000D01*
X15190050Y-7651569D01*
X15190050Y-7651569D01*
X15186980Y-7640111D01*
X15184473Y-7635770D01*
X15181049Y-7629839D01*
X15173411Y-7622201D01*
X15168014Y-7614123D01*
X15166119Y-7604594D01*
X15168014Y-7595066D01*
X15173412Y-7586987D01*
X15181490Y-7581590D01*
X15191019Y-7579694D01*
X15475461Y-7579694D01*
X15477391Y-7580078D01*
G37*
%TD.AperFunction*%
%TD*%
M02*
