%TF.GenerationSoftware,KiCad,Pcbnew,9.0.7*%
%TF.CreationDate,2026-09-02T11:28:57-04:00*%
%TF.ProjectId,sleep_mask,736c6565-705f-46d6-9173-6b2e6b696361,rev?*%
%TF.SameCoordinates,Original*%
%TF.FileFunction,Legend,Top*%
%TF.FilePolarity,Positive*%
%FSLAX45Y45*%
G04 Gerber Fmt 4.5, Leading zero omitted, Abs format (unit mm)*
G04 Created by KiCad (PCBNEW 9.0.7) date 2026-09-02 11:28:57*
%MOMM*%
%LPD*%
G01*
G04 APERTURE LIST*
%ADD10C,0.120000*%
%ADD11C,0.100000*%
%ADD12C,0.160000*%
G04 APERTURE END LIST*
D10*
%TO.C,R10*%
X15122750Y-8166274D02*
X15122750Y-8213726D01*
X15227250Y-8166274D02*
X15227250Y-8213726D01*
%TO.C,R4*%
X13102750Y-8611274D02*
X13102750Y-8658726D01*
X13207250Y-8611274D02*
X13207250Y-8658726D01*
%TO.C,L3*%
X15651500Y-9618592D02*
X15651500Y-9698517D01*
X15763500Y-9618592D02*
X15763500Y-9698517D01*
%TO.C,Q1*%
X14529000Y-7949000D02*
X14711000Y-7949000D01*
X14529000Y-7954000D02*
X14529000Y-7949000D01*
X14529000Y-8261000D02*
X14529000Y-8256000D01*
X14711000Y-7949000D02*
X14711000Y-7954000D01*
X14711000Y-8256000D02*
X14711000Y-8261000D01*
X14711000Y-8261000D02*
X14529000Y-8261000D01*
X14789000Y-8289000D02*
X14741000Y-8289000D01*
X14765000Y-8256000D01*
X14789000Y-8289000D01*
G36*
X14789000Y-8289000D02*
G01*
X14741000Y-8289000D01*
X14765000Y-8256000D01*
X14789000Y-8289000D01*
G37*
%TO.C,C12*%
X15243442Y-9264000D02*
X15271558Y-9264000D01*
X15243442Y-9366000D02*
X15271558Y-9366000D01*
%TO.C,R13*%
X15976274Y-8820500D02*
X16023726Y-8820500D01*
X15976274Y-8925000D02*
X16023726Y-8925000D01*
%TO.C,C16*%
X14499000Y-9725942D02*
X14499000Y-9754058D01*
X14601000Y-9725942D02*
X14601000Y-9754058D01*
%TO.C,R14*%
X15307750Y-8493774D02*
X15307750Y-8541226D01*
X15412250Y-8493774D02*
X15412250Y-8541226D01*
%TO.C,R9*%
X14952750Y-8166274D02*
X14952750Y-8213726D01*
X15057250Y-8166274D02*
X15057250Y-8213726D01*
%TO.C,TP4*%
X16152500Y-9705000D02*
G75*
G02*
X16012500Y-9705000I-70000J0D01*
G01*
X16012500Y-9705000D02*
G75*
G02*
X16152500Y-9705000I70000J0D01*
G01*
%TO.C,C7*%
X16624500Y-8205784D02*
X16624500Y-8184216D01*
X16696500Y-8205784D02*
X16696500Y-8184216D01*
%TO.C,D7*%
X13980000Y-8831500D02*
X13980000Y-8953500D01*
X13980000Y-8831500D02*
X14111000Y-8831500D01*
X13980000Y-8953500D02*
X14111000Y-8953500D01*
%TO.C,C11*%
X15079216Y-8371500D02*
X15100784Y-8371500D01*
X15079216Y-8443500D02*
X15100784Y-8443500D01*
%TO.C,C8*%
X16413875Y-8799000D02*
X16466125Y-8799000D01*
X16413875Y-8946000D02*
X16466125Y-8946000D01*
%TO.C,C18*%
X13879000Y-9799216D02*
X13879000Y-9820784D01*
X13951000Y-9799216D02*
X13951000Y-9820784D01*
%TO.C,J4*%
X16357500Y-9915500D02*
X16357500Y-10015500D01*
X16452500Y-9915500D02*
X16357500Y-9915500D01*
X16452500Y-9915500D02*
X16452500Y-9855500D01*
D11*
X16502500Y-10165500D02*
X16592500Y-10165500D01*
D10*
X16642500Y-9915500D02*
X16737500Y-9915500D01*
X16737500Y-9915500D02*
X16737500Y-10015500D01*
%TO.C,R6*%
X14013726Y-7612750D02*
X13966274Y-7612750D01*
X14013726Y-7717250D02*
X13966274Y-7717250D01*
%TO.C,D4*%
X14907000Y-8804500D02*
X14907000Y-8619500D01*
X14996000Y-8804500D02*
X14907000Y-8804500D01*
X15219000Y-8806000D02*
X15130000Y-8806000D01*
X15219000Y-8806000D02*
X15219000Y-8621000D01*
X15253000Y-8606000D02*
X15220000Y-8582000D01*
X15253000Y-8558000D01*
X15253000Y-8606000D01*
G36*
X15253000Y-8606000D02*
G01*
X15220000Y-8582000D01*
X15253000Y-8558000D01*
X15253000Y-8606000D01*
G37*
%TO.C,C21*%
X13323284Y-9359000D02*
X13301716Y-9359000D01*
X13323284Y-9431000D02*
X13301716Y-9431000D01*
%TO.C,C10*%
X16413875Y-9280762D02*
X16466125Y-9280762D01*
X16413875Y-9427762D02*
X16466125Y-9427762D01*
%TO.C,U4*%
X13993000Y-9857000D02*
X13993000Y-9836000D01*
X13993000Y-9857000D02*
X14014000Y-9857000D01*
X14317000Y-9533000D02*
X14296000Y-9533000D01*
X14317000Y-9533000D02*
X14317000Y-9554000D01*
X14317000Y-9857000D02*
X14296000Y-9857000D01*
X14317000Y-9857000D02*
X14317000Y-9836000D01*
X13986000Y-9554000D02*
X13962000Y-9521000D01*
X14010000Y-9521000D01*
X13986000Y-9554000D01*
G36*
X13986000Y-9554000D02*
G01*
X13962000Y-9521000D01*
X14010000Y-9521000D01*
X13986000Y-9554000D01*
G37*
%TO.C,R19*%
X14322750Y-9262524D02*
X14322750Y-9309976D01*
X14427250Y-9262524D02*
X14427250Y-9309976D01*
%TO.C,C3*%
X14304000Y-8141716D02*
X14304000Y-8163284D01*
X14376000Y-8141716D02*
X14376000Y-8163284D01*
%TO.C,R1*%
X13713726Y-8285250D02*
X13666274Y-8285250D01*
X13713726Y-8389750D02*
X13666274Y-8389750D01*
%TO.C,C19*%
X13726500Y-9850942D02*
X13726500Y-9879058D01*
X13828500Y-9850942D02*
X13828500Y-9879058D01*
%TO.C,R18*%
X14152750Y-9262524D02*
X14152750Y-9309976D01*
X14257250Y-9262524D02*
X14257250Y-9309976D01*
%TO.C,R27*%
X13128774Y-9547750D02*
X13176226Y-9547750D01*
X13128774Y-9652250D02*
X13176226Y-9652250D01*
%TO.C,C1*%
X13758284Y-8441500D02*
X13736716Y-8441500D01*
X13758284Y-8513500D02*
X13736716Y-8513500D01*
%TO.C,C14*%
X13684000Y-9309216D02*
X13684000Y-9330784D01*
X13756000Y-9309216D02*
X13756000Y-9330784D01*
%TO.C,R17*%
X13812750Y-9262524D02*
X13812750Y-9309976D01*
X13917250Y-9262524D02*
X13917250Y-9309976D01*
%TO.C,R3*%
X13262750Y-8611274D02*
X13262750Y-8658726D01*
X13367250Y-8611274D02*
X13367250Y-8658726D01*
%TO.C,C4*%
X13756500Y-8160784D02*
X13756500Y-8139216D01*
X13828500Y-8160784D02*
X13828500Y-8139216D01*
%TO.C,TP1*%
X13580000Y-7805000D02*
G75*
G02*
X13440000Y-7805000I-70000J0D01*
G01*
X13440000Y-7805000D02*
G75*
G02*
X13580000Y-7805000I70000J0D01*
G01*
%TO.C,R15*%
X16023726Y-9150500D02*
X15976274Y-9150500D01*
X16023726Y-9255000D02*
X15976274Y-9255000D01*
%TO.C,C13*%
X15138442Y-9969000D02*
X15166558Y-9969000D01*
X15138442Y-10071000D02*
X15166558Y-10071000D01*
%TO.C,TP3*%
X16000000Y-8202500D02*
G75*
G02*
X15860000Y-8202500I-70000J0D01*
G01*
X15860000Y-8202500D02*
G75*
G02*
X16000000Y-8202500I70000J0D01*
G01*
%TO.C,D8*%
X14322000Y-8831500D02*
X14191000Y-8831500D01*
X14322000Y-8953500D02*
X14191000Y-8953500D01*
X14322000Y-8953500D02*
X14322000Y-8831500D01*
%TO.C,D2*%
D12*
X14070500Y-8415000D02*
G75*
G02*
X14054500Y-8415000I-8000J0D01*
G01*
X14054500Y-8415000D02*
G75*
G02*
X14070500Y-8415000I8000J0D01*
G01*
D10*
%TO.C,R8*%
X15646226Y-8550250D02*
X15598774Y-8550250D01*
X15646226Y-8654750D02*
X15598774Y-8654750D01*
%TO.C,U3*%
X15206500Y-9497555D02*
X15206500Y-9587555D01*
X15206500Y-9497555D02*
X15227500Y-9497555D01*
X15206500Y-9728555D02*
X15206500Y-9819555D01*
X15206500Y-9819555D02*
X15228500Y-9819555D01*
X15528500Y-9588555D02*
X15528500Y-9527555D01*
X15528500Y-9728555D02*
X15528500Y-9819555D01*
X15528500Y-9819555D02*
X15506500Y-9819555D01*
X15561500Y-9521555D02*
X15528500Y-9497555D01*
X15561500Y-9473555D01*
X15561500Y-9521555D01*
G36*
X15561500Y-9521555D02*
G01*
X15528500Y-9497555D01*
X15561500Y-9473555D01*
X15561500Y-9521555D01*
G37*
%TO.C,C17*%
X14374000Y-9729216D02*
X14374000Y-9750784D01*
X14446000Y-9729216D02*
X14446000Y-9750784D01*
%TO.C,Q2*%
X15499000Y-7951500D02*
X15681000Y-7951500D01*
X15499000Y-7956500D02*
X15499000Y-7951500D01*
X15499000Y-8263500D02*
X15499000Y-8258500D01*
X15681000Y-7951500D02*
X15681000Y-7956500D01*
X15681000Y-8258500D02*
X15681000Y-8263500D01*
X15681000Y-8263500D02*
X15499000Y-8263500D01*
X15445000Y-7956500D02*
X15421000Y-7923500D01*
X15469000Y-7923500D01*
X15445000Y-7956500D01*
G36*
X15445000Y-7956500D02*
G01*
X15421000Y-7923500D01*
X15469000Y-7923500D01*
X15445000Y-7956500D01*
G37*
%TO.C,R21*%
X15031226Y-9467750D02*
X14983774Y-9467750D01*
X15031226Y-9572250D02*
X14983774Y-9572250D01*
%TO.C,D5*%
X15324000Y-9920000D02*
X15324000Y-10120000D01*
X15324000Y-9920000D02*
X15725000Y-9920000D01*
X15324000Y-10120000D02*
X15725000Y-10120000D01*
%TO.C,D1*%
X14808500Y-8317500D02*
X14407500Y-8317500D01*
X14808500Y-8517500D02*
X14407500Y-8517500D01*
X14808500Y-8517500D02*
X14808500Y-8317500D01*
%TO.C,R11*%
X16468250Y-8171274D02*
X16468250Y-8218726D01*
X16572750Y-8171274D02*
X16572750Y-8218726D01*
%TO.C,R5*%
X13966274Y-7782750D02*
X14013726Y-7782750D01*
X13966274Y-7887250D02*
X14013726Y-7887250D01*
%TO.C,C22*%
X13101716Y-9359000D02*
X13123284Y-9359000D01*
X13101716Y-9431000D02*
X13123284Y-9431000D01*
%TO.C,J2*%
X12807500Y-9915500D02*
X12807500Y-10015500D01*
X12902500Y-9915500D02*
X12807500Y-9915500D01*
X12902500Y-9915500D02*
X12902500Y-9855500D01*
D11*
X12952500Y-10165500D02*
X13042500Y-10165500D01*
D10*
X13092500Y-9915500D02*
X13187500Y-9915500D01*
X13187500Y-9915500D02*
X13187500Y-10015500D01*
%TO.C,R28*%
X13982750Y-9262524D02*
X13982750Y-9309976D01*
X14087250Y-9262524D02*
X14087250Y-9309976D01*
%TO.C,TP2*%
X15075000Y-7932500D02*
G75*
G02*
X14935000Y-7932500I-70000J0D01*
G01*
X14935000Y-7932500D02*
G75*
G02*
X15075000Y-7932500I70000J0D01*
G01*
%TO.C,C2*%
X13646500Y-8160784D02*
X13646500Y-8139216D01*
X13718500Y-8160784D02*
X13718500Y-8139216D01*
%TO.C,L2*%
X16651500Y-9098972D02*
X16651500Y-9131528D01*
X16753500Y-9098972D02*
X16753500Y-9131528D01*
%TO.C,F1*%
X16133250Y-8171274D02*
X16133250Y-8218726D01*
X16237750Y-8171274D02*
X16237750Y-8218726D01*
%TO.C,R2*%
X14663774Y-7767750D02*
X14711226Y-7767750D01*
X14663774Y-7872250D02*
X14711226Y-7872250D01*
%TO.C,R25*%
X13552750Y-9841274D02*
X13552750Y-9888726D01*
X13657250Y-9841274D02*
X13657250Y-9888726D01*
%TO.C,C20*%
X13384000Y-9879058D02*
X13384000Y-9850942D01*
X13486000Y-9879058D02*
X13486000Y-9850942D01*
%TO.C,C9*%
X16413875Y-9490762D02*
X16466125Y-9490762D01*
X16413875Y-9637762D02*
X16466125Y-9637762D01*
%TO.C,R12*%
X16027750Y-9466476D02*
X16027750Y-9419024D01*
X16132250Y-9466476D02*
X16132250Y-9419024D01*
%TO.C,U2*%
X16365000Y-8996750D02*
X16495000Y-8996750D01*
X16365000Y-9228750D02*
X16470000Y-9228750D01*
X16506000Y-9256750D02*
X16506000Y-9228750D01*
X16534000Y-9228750D01*
X16506000Y-9256750D01*
G36*
X16506000Y-9256750D02*
G01*
X16506000Y-9228750D01*
X16534000Y-9228750D01*
X16506000Y-9256750D01*
G37*
%TO.C,R16*%
X16023726Y-8982750D02*
X15976274Y-8982750D01*
X16023726Y-9087250D02*
X15976274Y-9087250D01*
%TO.C,U1*%
X13969000Y-7949000D02*
X14151000Y-7949000D01*
X13969000Y-7954000D02*
X13969000Y-7949000D01*
X13969000Y-8261000D02*
X13969000Y-8256000D01*
X14151000Y-7949000D02*
X14151000Y-7954000D01*
X14151000Y-8256000D02*
X14151000Y-8261000D01*
X14151000Y-8261000D02*
X13969000Y-8261000D01*
X14229000Y-8289000D02*
X14181000Y-8289000D01*
X14205000Y-8256000D01*
X14229000Y-8289000D01*
G36*
X14229000Y-8289000D02*
G01*
X14181000Y-8289000D01*
X14205000Y-8256000D01*
X14229000Y-8289000D01*
G37*
%TO.C,C6*%
X15636558Y-8381500D02*
X15608442Y-8381500D01*
X15636558Y-8483500D02*
X15608442Y-8483500D01*
%TO.C,D9*%
X14322000Y-8691500D02*
X14191000Y-8691500D01*
X14322000Y-8813500D02*
X14191000Y-8813500D01*
X14322000Y-8813500D02*
X14322000Y-8691500D01*
%TO.C,D6*%
X13980000Y-8691500D02*
X13980000Y-8813500D01*
X13980000Y-8691500D02*
X14111000Y-8691500D01*
X13980000Y-8813500D02*
X14111000Y-8813500D01*
%TO.C,R7*%
X16302750Y-8171274D02*
X16302750Y-8218726D01*
X16407250Y-8171274D02*
X16407250Y-8218726D01*
%TO.C,C5*%
X15279000Y-8144216D02*
X15279000Y-8165784D01*
X15351000Y-8144216D02*
X15351000Y-8165784D01*
%TO.C,Y1*%
X13261500Y-9114000D02*
X13163500Y-9114000D01*
X13261500Y-9316000D02*
X13163500Y-9316000D01*
X13413500Y-9305000D02*
X13413500Y-9125000D01*
%TO.C,R20*%
X14986274Y-9632750D02*
X15033726Y-9632750D01*
X14986274Y-9737250D02*
X15033726Y-9737250D01*
%TD*%
M02*
