M48
; DRILL file {KiCad 9.0.7} date 2026-09-02T11:28:57-0400
; FORMAT={-:-/ absolute / metric / decimal}
; #@! TF.CreationDate,2026-09-02T11:28:57-04:00
; #@! TF.GenerationSoftware,Kicad,Pcbnew,9.0.7
; #@! TF.FileFunction,MixedPlating,1,4
FMAT,2
METRIC
; #@! TA.AperFunction,Plated,PTH,ViaDrill
T1C0.200
; #@! TA.AperFunction,Plated,PTH,ComponentDrill
T2C0.200
; #@! TA.AperFunction,Plated,PTH,ViaDrill
T3C0.250
; #@! TA.AperFunction,Plated,PTH,ViaDrill
T4C0.300
; #@! TA.AperFunction,Plated,PTH,ViaDrill
T5C0.400
; #@! TA.AperFunction,NonPlated,NPTH,ComponentDrill
T6C0.900
; #@! TA.AperFunction,NonPlated,NPTH,ComponentDrill
T7C0.991
; #@! TA.AperFunction,NonPlated,NPTH,ComponentDrill
T8C2.200
%
G90
G05
T1
X151.875Y-94.4
T2
X153.05Y-96.586
X153.675Y-96.086
X153.675Y-97.086
X154.3Y-96.586
T3
X138.65Y-94.65
X138.65Y-96.945
X140.75Y-94.5
X141.5Y-94.5
X142.05Y-97.45
X142.6Y-82.85
X143.65Y-95.35
X154.175Y-94.4
X164.272Y-91.377
T4
X127.6Y-76.2
X127.6Y-79.3
X127.6Y-82.4
X127.6Y-85.5
X127.6Y-88.6
X127.6Y-91.7
X127.6Y-94.8
X127.6Y-96.9
X129.3Y-80.8
X129.3Y-83.9
X129.3Y-87.0
X129.525Y-90.3
X129.525Y-91.3
X129.525Y-92.3
X129.525Y-93.3
X129.525Y-94.3
X129.525Y-95.3
X129.525Y-96.3
X129.525Y-97.3
X130.525Y-97.3
X130.625Y-90.3
X130.65Y-84.35
X130.7Y-76.2
X130.7Y-79.3
X131.525Y-97.3
X131.55Y-84.35
X131.55Y-88.125
X131.625Y-90.3
X131.625Y-94.8
X132.125Y-93.075
X132.525Y-97.3
X132.6Y-76.8
X132.6Y-80.45
X132.625Y-90.3
X132.625Y-94.8
X133.15Y-84.35
X133.15Y-88.125
X133.2Y-101.725
X133.35Y-97.9
X133.625Y-90.3
X133.7Y-96.75
X133.9Y-76.2
X134.025Y-84.55
X134.7Y-96.75
X134.725Y-90.3
X134.725Y-91.3
X134.725Y-92.3
X134.725Y-93.3
X134.725Y-94.3
X134.9Y-88.4
X135.1Y-76.9
X135.1Y-79.45
X135.2Y-100.8
X135.7Y-94.65
X135.7Y-96.75
X136.6Y-86.8
X136.7Y-94.65
X136.7Y-96.75
X137.15Y-76.65
X137.2Y-91.95
X137.5Y-89.5
X137.7Y-94.65
X137.7Y-96.75
X137.75Y-100.65
X138.05Y-76.65
X138.1Y-77.9
X139.15Y-99.55
X140.2Y-100.9
X140.35Y-91.05
X140.6Y-80.611
X141.2Y-96.55
X141.35Y-99.875
X141.714Y-77.003
X142.085Y-99.309
X142.6Y-79.35
X142.7Y-99.9
X143.4Y-82.95
X144.1Y-98.75
X144.75Y-94.65
X144.8Y-100.6
X145.0Y-84.9
X145.05Y-89.95
X145.5Y-99.25
X145.8Y-89.2
X146.1Y-86.4
X146.3Y-100.9
X146.35Y-94.05
X146.4Y-84.2
X146.6Y-88.4
X147.2Y-92.225
X147.25Y-94.15
X148.0Y-98.1
X148.0Y-100.9
X149.0Y-99.7
X149.85Y-89.9
X149.95Y-90.8
X151.2Y-99.15
X151.8Y-92.1
X152.25Y-89.55
X152.3Y-76.9
X152.3Y-80.1
X152.5Y-86.2
X152.5Y-87.15
X152.725Y-83.55
X152.8Y-91.2
X153.6Y-79.225
X153.6Y-80.125
X153.6Y-83.4
X154.5Y-101.7
X154.55Y-87.3
X154.7Y-76.9
X155.0Y-90.9
X155.2Y-98.9
X155.45Y-78.4
X155.95Y-96.5
X156.4Y-88.6
X156.5Y-91.9
X156.6Y-101.7
X157.35Y-88.75
X158.25Y-90.35
X158.3Y-92.05
X158.3Y-100.3
X158.4Y-95.6
X158.4Y-98.1
X158.85Y-84.0
X158.85Y-85.1
X159.05Y-79.9
X159.1Y-101.4
X159.7Y-96.9
X159.8Y-93.1
X160.35Y-86.85
X160.9Y-99.7
X161.0Y-101.3
X162.5Y-76.2
X162.7Y-79.9
X163.075Y-96.915
X163.825Y-96.915
X163.9Y-78.2
X164.2Y-76.2
X165.05Y-96.9
X165.1Y-85.6
X165.8Y-96.9
X165.8Y-97.9
X166.3Y-86.9
X166.6Y-89.2
X166.7Y-93.0
X166.725Y-96.85
X167.45Y-81.5
X167.7Y-76.2
X167.8Y-79.4
X167.8Y-84.4
X167.8Y-86.9
X167.8Y-89.3
X167.8Y-92.9
X167.8Y-92.9
X167.8Y-96.0
X167.8Y-99.1
T5
X127.925Y-98.975
X128.6Y-99.7
X131.3Y-99.7
X132.325Y-99.75
X134.95Y-80.45
X136.075Y-84.775
X137.2Y-80.2
X138.025Y-80.2
X139.225Y-83.55
X139.46Y-86.375
X139.46Y-90.075
X140.45Y-83.55
X140.76Y-86.375
X140.76Y-90.075
X142.06Y-86.375
X142.06Y-90.075
X143.36Y-86.375
X143.36Y-90.075
X143.75Y-91.0
X144.775Y-78.175
X144.775Y-79.2
X144.8Y-83.025
X148.375Y-96.025
X151.45Y-90.35
X152.75Y-98.9
X154.025Y-99.05
X155.475Y-95.2
X157.35Y-92.95
X158.25Y-86.025
X161.45Y-86.9
X161.9Y-94.55
X162.325Y-93.54
X162.375Y-91.326
X162.375Y-95.64
X163.05Y-83.85
X163.05Y-99.7
X163.425Y-87.45
X164.05Y-83.85
X164.15Y-99.7
X165.2Y-80.05
X166.95Y-99.675
T6
X155.575Y-77.4
X159.825Y-77.4
T7
X138.978Y-88.224
X144.058Y-87.208
X144.058Y-89.24
T8
X129.1Y-77.696
X166.3Y-77.696
M30
