%TF.GenerationSoftware,KiCad,Pcbnew,9.0.7*%
%TF.CreationDate,2026-09-02T11:28:57-04:00*%
%TF.ProjectId,sleep_mask,736c6565-705f-46d6-9173-6b2e6b696361,rev?*%
%TF.SameCoordinates,Original*%
%TF.FileFunction,Soldermask,Bot*%
%TF.FilePolarity,Negative*%
%FSLAX45Y45*%
G04 Gerber Fmt 4.5, Leading zero omitted, Abs format (unit mm)*
G04 Created by KiCad (PCBNEW 9.0.7) date 2026-09-02 11:28:57*
%MOMM*%
%LPD*%
G01*
G04 APERTURE LIST*
G04 APERTURE END LIST*
G36*
X14739962Y-9273484D02*
G01*
X14746289Y-9277711D01*
X14750516Y-9284038D01*
X14752000Y-9291500D01*
X14752000Y-9328500D01*
X14750516Y-9335962D01*
X14746289Y-9342289D01*
X14739962Y-9346516D01*
X14732500Y-9348000D01*
X14705500Y-9348000D01*
X14698038Y-9346516D01*
X14691711Y-9342289D01*
X14687484Y-9335962D01*
X14686000Y-9328500D01*
X14686000Y-9291500D01*
X14687484Y-9284038D01*
X14691711Y-9277711D01*
X14698038Y-9273484D01*
X14705500Y-9272000D01*
X14732500Y-9272000D01*
X14739962Y-9273484D01*
G37*
G36*
X14841962Y-9273484D02*
G01*
X14848289Y-9277711D01*
X14852516Y-9284038D01*
X14854000Y-9291500D01*
X14854000Y-9328500D01*
X14852516Y-9335962D01*
X14848289Y-9342289D01*
X14841962Y-9346516D01*
X14834500Y-9348000D01*
X14807500Y-9348000D01*
X14800038Y-9346516D01*
X14793711Y-9342289D01*
X14789484Y-9335962D01*
X14788000Y-9328500D01*
X14788000Y-9291500D01*
X14789484Y-9284038D01*
X14793711Y-9277711D01*
X14800038Y-9273484D01*
X14807500Y-9272000D01*
X14834500Y-9272000D01*
X14841962Y-9273484D01*
G37*
G36*
X14427077Y-8872663D02*
G01*
X14439631Y-8879911D01*
X14449882Y-8890161D01*
X14457130Y-8902715D01*
X14460882Y-8916718D01*
X14460882Y-8931214D01*
X14457130Y-8945216D01*
X14449882Y-8957770D01*
X14439631Y-8968021D01*
X14427077Y-8975269D01*
X14413075Y-8979021D01*
X14398579Y-8979021D01*
X14384577Y-8975269D01*
X14372022Y-8968021D01*
X14361772Y-8957770D01*
X14354524Y-8945216D01*
X14350772Y-8931214D01*
X14350772Y-8916718D01*
X14354524Y-8902715D01*
X14361772Y-8890161D01*
X14372022Y-8879911D01*
X14384577Y-8872663D01*
X14398579Y-8868911D01*
X14413075Y-8868911D01*
X14427077Y-8872663D01*
G37*
G36*
X14042189Y-8843949D02*
G01*
X14052446Y-8849871D01*
X14060821Y-8858246D01*
X14066743Y-8868503D01*
X14069809Y-8879944D01*
X14069809Y-8891788D01*
X14066743Y-8903228D01*
X14060821Y-8913485D01*
X14052446Y-8921860D01*
X14042189Y-8927782D01*
X14030749Y-8930848D01*
X14018905Y-8930848D01*
X14007465Y-8927782D01*
X13997207Y-8921860D01*
X13988833Y-8913485D01*
X13982911Y-8903228D01*
X13979845Y-8891788D01*
X13979845Y-8879944D01*
X13982911Y-8868503D01*
X13988833Y-8858246D01*
X13997207Y-8849871D01*
X14007465Y-8843949D01*
X14018905Y-8840884D01*
X14030749Y-8840884D01*
X14042189Y-8843949D01*
G37*
G36*
X14169189Y-8843949D02*
G01*
X14179446Y-8849871D01*
X14187821Y-8858246D01*
X14193743Y-8868503D01*
X14196809Y-8879944D01*
X14196809Y-8891788D01*
X14193743Y-8903228D01*
X14187821Y-8913485D01*
X14179446Y-8921860D01*
X14169189Y-8927782D01*
X14157749Y-8930848D01*
X14145905Y-8930848D01*
X14134465Y-8927782D01*
X14124207Y-8921860D01*
X14115833Y-8913485D01*
X14109911Y-8903228D01*
X14106845Y-8891788D01*
X14106845Y-8879944D01*
X14109911Y-8868503D01*
X14115833Y-8858246D01*
X14124207Y-8849871D01*
X14134465Y-8843949D01*
X14145905Y-8840884D01*
X14157749Y-8840884D01*
X14169189Y-8843949D01*
G37*
G36*
X14296189Y-8843949D02*
G01*
X14306446Y-8849871D01*
X14314821Y-8858246D01*
X14320743Y-8868503D01*
X14323809Y-8879944D01*
X14323809Y-8891788D01*
X14320743Y-8903228D01*
X14314821Y-8913485D01*
X14306446Y-8921860D01*
X14296189Y-8927782D01*
X14284749Y-8930848D01*
X14272905Y-8930848D01*
X14261465Y-8927782D01*
X14251207Y-8921860D01*
X14242833Y-8913485D01*
X14236911Y-8903228D01*
X14233845Y-8891788D01*
X14233845Y-8879944D01*
X14236911Y-8868503D01*
X14242833Y-8858246D01*
X14251207Y-8849871D01*
X14261465Y-8843949D01*
X14272905Y-8840884D01*
X14284749Y-8840884D01*
X14296189Y-8843949D01*
G37*
G36*
X13919077Y-8771063D02*
G01*
X13931631Y-8778311D01*
X13941882Y-8788561D01*
X13949130Y-8801115D01*
X13952882Y-8815118D01*
X13952882Y-8829614D01*
X13949130Y-8843616D01*
X13941882Y-8856170D01*
X13931631Y-8866421D01*
X13919077Y-8873669D01*
X13905075Y-8877421D01*
X13890579Y-8877421D01*
X13876577Y-8873669D01*
X13864022Y-8866421D01*
X13853772Y-8856170D01*
X13846524Y-8843616D01*
X13842772Y-8829614D01*
X13842772Y-8815118D01*
X13846524Y-8801115D01*
X13853772Y-8788561D01*
X13864022Y-8778311D01*
X13876577Y-8771063D01*
X13890579Y-8767311D01*
X13905075Y-8767311D01*
X13919077Y-8771063D01*
G37*
G36*
X14042189Y-8716949D02*
G01*
X14052446Y-8722871D01*
X14060821Y-8731246D01*
X14066743Y-8741503D01*
X14069809Y-8752944D01*
X14069809Y-8764788D01*
X14066743Y-8776228D01*
X14060821Y-8786485D01*
X14052446Y-8794860D01*
X14042189Y-8800782D01*
X14030749Y-8803848D01*
X14018905Y-8803848D01*
X14007465Y-8800782D01*
X13997207Y-8794860D01*
X13988833Y-8786485D01*
X13982911Y-8776228D01*
X13979845Y-8764788D01*
X13979845Y-8752944D01*
X13982911Y-8741503D01*
X13988833Y-8731246D01*
X13997207Y-8722871D01*
X14007465Y-8716949D01*
X14018905Y-8713884D01*
X14030749Y-8713884D01*
X14042189Y-8716949D01*
G37*
G36*
X14169189Y-8716949D02*
G01*
X14179446Y-8722871D01*
X14187821Y-8731246D01*
X14193743Y-8741503D01*
X14196809Y-8752944D01*
X14196809Y-8764788D01*
X14193743Y-8776228D01*
X14187821Y-8786485D01*
X14179446Y-8794860D01*
X14169189Y-8800782D01*
X14157749Y-8803848D01*
X14145905Y-8803848D01*
X14134465Y-8800782D01*
X14124207Y-8794860D01*
X14115833Y-8786485D01*
X14109911Y-8776228D01*
X14106845Y-8764788D01*
X14106845Y-8752944D01*
X14109911Y-8741503D01*
X14115833Y-8731246D01*
X14124207Y-8722871D01*
X14134465Y-8716949D01*
X14145905Y-8713884D01*
X14157749Y-8713884D01*
X14169189Y-8716949D01*
G37*
G36*
X14296189Y-8716949D02*
G01*
X14306446Y-8722871D01*
X14314821Y-8731246D01*
X14320743Y-8741503D01*
X14323809Y-8752944D01*
X14323809Y-8764788D01*
X14320743Y-8776228D01*
X14314821Y-8786485D01*
X14306446Y-8794860D01*
X14296189Y-8800782D01*
X14284749Y-8803848D01*
X14272905Y-8803848D01*
X14261465Y-8800782D01*
X14251207Y-8794860D01*
X14242833Y-8786485D01*
X14236911Y-8776228D01*
X14233845Y-8764788D01*
X14233845Y-8752944D01*
X14236911Y-8741503D01*
X14242833Y-8731246D01*
X14251207Y-8722871D01*
X14261465Y-8716949D01*
X14272905Y-8713884D01*
X14284749Y-8713884D01*
X14296189Y-8716949D01*
G37*
G36*
X14427077Y-8669463D02*
G01*
X14439631Y-8676711D01*
X14449882Y-8686961D01*
X14457130Y-8699515D01*
X14460882Y-8713518D01*
X14460882Y-8728014D01*
X14457130Y-8742016D01*
X14449882Y-8754570D01*
X14439631Y-8764821D01*
X14427077Y-8772069D01*
X14413075Y-8775821D01*
X14398579Y-8775821D01*
X14384577Y-8772069D01*
X14372022Y-8764821D01*
X14361772Y-8754570D01*
X14354524Y-8742016D01*
X14350772Y-8728014D01*
X14350772Y-8713518D01*
X14354524Y-8699515D01*
X14361772Y-8686961D01*
X14372022Y-8676711D01*
X14384577Y-8669463D01*
X14398579Y-8665711D01*
X14413075Y-8665711D01*
X14427077Y-8669463D01*
G37*
G36*
X16352097Y-8057323D02*
G01*
X16352539Y-8057518D01*
X16352950Y-8057572D01*
X16358101Y-8059974D01*
X16362519Y-8061925D01*
X16362724Y-8062130D01*
X16362754Y-8062144D01*
X16370356Y-8069746D01*
X16370370Y-8069776D01*
X16370575Y-8069981D01*
X16372527Y-8074401D01*
X16374927Y-8079549D01*
X16374981Y-8079961D01*
X16375177Y-8080402D01*
X16376000Y-8087500D01*
X16376000Y-8212500D01*
X16375177Y-8219597D01*
X16374981Y-8220039D01*
X16374927Y-8220450D01*
X16372527Y-8225597D01*
X16370575Y-8230019D01*
X16370370Y-8230224D01*
X16370356Y-8230254D01*
X16362754Y-8237856D01*
X16362724Y-8237870D01*
X16362519Y-8238075D01*
X16358097Y-8240027D01*
X16352950Y-8242427D01*
X16352539Y-8242481D01*
X16352097Y-8242677D01*
X16345000Y-8243500D01*
X16265000Y-8243500D01*
X16257902Y-8242677D01*
X16257461Y-8242481D01*
X16257049Y-8242427D01*
X16251901Y-8240027D01*
X16247481Y-8238075D01*
X16247276Y-8237870D01*
X16247246Y-8237856D01*
X16239644Y-8230254D01*
X16239630Y-8230224D01*
X16239425Y-8230019D01*
X16237474Y-8225601D01*
X16235072Y-8220450D01*
X16235018Y-8220039D01*
X16234823Y-8219597D01*
X16234000Y-8212500D01*
X16234000Y-8087500D01*
X16234823Y-8080402D01*
X16235018Y-8079961D01*
X16235072Y-8079549D01*
X16237475Y-8074397D01*
X16239425Y-8069981D01*
X16239630Y-8069776D01*
X16239644Y-8069746D01*
X16247246Y-8062144D01*
X16247276Y-8062130D01*
X16247481Y-8061925D01*
X16251897Y-8059975D01*
X16257049Y-8057572D01*
X16257461Y-8057518D01*
X16257902Y-8057323D01*
X16265000Y-8056500D01*
X16345000Y-8056500D01*
X16352097Y-8057323D01*
G37*
G36*
X16662097Y-8057323D02*
G01*
X16662539Y-8057518D01*
X16662950Y-8057572D01*
X16668101Y-8059974D01*
X16672519Y-8061925D01*
X16672724Y-8062130D01*
X16672754Y-8062144D01*
X16680356Y-8069746D01*
X16680370Y-8069776D01*
X16680575Y-8069981D01*
X16682527Y-8074401D01*
X16684927Y-8079549D01*
X16684981Y-8079961D01*
X16685177Y-8080402D01*
X16686000Y-8087500D01*
X16686000Y-8212500D01*
X16685177Y-8219597D01*
X16684981Y-8220039D01*
X16684927Y-8220450D01*
X16682527Y-8225597D01*
X16680575Y-8230019D01*
X16680370Y-8230224D01*
X16680356Y-8230254D01*
X16672754Y-8237856D01*
X16672724Y-8237870D01*
X16672519Y-8238075D01*
X16668097Y-8240027D01*
X16662950Y-8242427D01*
X16662539Y-8242481D01*
X16662097Y-8242677D01*
X16655000Y-8243500D01*
X16575000Y-8243500D01*
X16567902Y-8242677D01*
X16567461Y-8242481D01*
X16567049Y-8242427D01*
X16561901Y-8240027D01*
X16557481Y-8238075D01*
X16557276Y-8237870D01*
X16557246Y-8237856D01*
X16549644Y-8230254D01*
X16549630Y-8230224D01*
X16549425Y-8230019D01*
X16547474Y-8225601D01*
X16545072Y-8220450D01*
X16545018Y-8220039D01*
X16544823Y-8219597D01*
X16544000Y-8212500D01*
X16544000Y-8087500D01*
X16544823Y-8080402D01*
X16545018Y-8079961D01*
X16545072Y-8079549D01*
X16547475Y-8074397D01*
X16549425Y-8069981D01*
X16549630Y-8069776D01*
X16549644Y-8069746D01*
X16557246Y-8062144D01*
X16557276Y-8062130D01*
X16557481Y-8061925D01*
X16561897Y-8059975D01*
X16567049Y-8057572D01*
X16567461Y-8057518D01*
X16567902Y-8057323D01*
X16575000Y-8056500D01*
X16655000Y-8056500D01*
X16662097Y-8057323D01*
G37*
G36*
X13329597Y-8095073D02*
G01*
X13330039Y-8095268D01*
X13330450Y-8095322D01*
X13335601Y-8097724D01*
X13340019Y-8099675D01*
X13340224Y-8099880D01*
X13340254Y-8099894D01*
X13347856Y-8107496D01*
X13347870Y-8107526D01*
X13348075Y-8107731D01*
X13350027Y-8112151D01*
X13352427Y-8117299D01*
X13352481Y-8117711D01*
X13352677Y-8118152D01*
X13353500Y-8125250D01*
X13353500Y-8210250D01*
X13352677Y-8217347D01*
X13352481Y-8217789D01*
X13352427Y-8218200D01*
X13350027Y-8223347D01*
X13348075Y-8227769D01*
X13347870Y-8227974D01*
X13347856Y-8228004D01*
X13340254Y-8235606D01*
X13340224Y-8235620D01*
X13340019Y-8235825D01*
X13335597Y-8237777D01*
X13330450Y-8240177D01*
X13330039Y-8240231D01*
X13329597Y-8240427D01*
X13322500Y-8241250D01*
X13192500Y-8241250D01*
X13185402Y-8240427D01*
X13184961Y-8240231D01*
X13184549Y-8240177D01*
X13179401Y-8237777D01*
X13174981Y-8235825D01*
X13174776Y-8235620D01*
X13174746Y-8235606D01*
X13167144Y-8228004D01*
X13167130Y-8227974D01*
X13166925Y-8227769D01*
X13164974Y-8223351D01*
X13162572Y-8218200D01*
X13162518Y-8217789D01*
X13162323Y-8217347D01*
X13161500Y-8210250D01*
X13161500Y-8125250D01*
X13162323Y-8118152D01*
X13162518Y-8117711D01*
X13162572Y-8117299D01*
X13164975Y-8112147D01*
X13166925Y-8107731D01*
X13167130Y-8107526D01*
X13167144Y-8107496D01*
X13174746Y-8099894D01*
X13174776Y-8099880D01*
X13174981Y-8099675D01*
X13179397Y-8097725D01*
X13184549Y-8095322D01*
X13184961Y-8095268D01*
X13185402Y-8095073D01*
X13192500Y-8094250D01*
X13322500Y-8094250D01*
X13329597Y-8095073D01*
G37*
G36*
X14354597Y-8095073D02*
G01*
X14355039Y-8095268D01*
X14355450Y-8095322D01*
X14360601Y-8097724D01*
X14365019Y-8099675D01*
X14365224Y-8099880D01*
X14365254Y-8099894D01*
X14372856Y-8107496D01*
X14372870Y-8107526D01*
X14373075Y-8107731D01*
X14375027Y-8112151D01*
X14377427Y-8117299D01*
X14377481Y-8117711D01*
X14377677Y-8118152D01*
X14378500Y-8125250D01*
X14378500Y-8210250D01*
X14377677Y-8217347D01*
X14377481Y-8217789D01*
X14377427Y-8218200D01*
X14375027Y-8223347D01*
X14373075Y-8227769D01*
X14372870Y-8227974D01*
X14372856Y-8228004D01*
X14365254Y-8235606D01*
X14365224Y-8235620D01*
X14365019Y-8235825D01*
X14360597Y-8237777D01*
X14355450Y-8240177D01*
X14355039Y-8240231D01*
X14354597Y-8240427D01*
X14347500Y-8241250D01*
X14217500Y-8241250D01*
X14210402Y-8240427D01*
X14209961Y-8240231D01*
X14209549Y-8240177D01*
X14204401Y-8237777D01*
X14199981Y-8235825D01*
X14199776Y-8235620D01*
X14199746Y-8235606D01*
X14192144Y-8228004D01*
X14192130Y-8227974D01*
X14191925Y-8227769D01*
X14189974Y-8223351D01*
X14187572Y-8218200D01*
X14187518Y-8217789D01*
X14187323Y-8217347D01*
X14186500Y-8210250D01*
X14186500Y-8125250D01*
X14187323Y-8118152D01*
X14187518Y-8117711D01*
X14187572Y-8117299D01*
X14189975Y-8112147D01*
X14191925Y-8107731D01*
X14192130Y-8107526D01*
X14192144Y-8107496D01*
X14199746Y-8099894D01*
X14199776Y-8099880D01*
X14199981Y-8099675D01*
X14204397Y-8097725D01*
X14209549Y-8095322D01*
X14209961Y-8095268D01*
X14210402Y-8095073D01*
X14217500Y-8094250D01*
X14347500Y-8094250D01*
X14354597Y-8095073D01*
G37*
G36*
X13515243Y-8107298D02*
G01*
X13520843Y-8107948D01*
X13522756Y-8108793D01*
X13524950Y-8109229D01*
X13527298Y-8110798D01*
X13529664Y-8111843D01*
X13531280Y-8113459D01*
X13533385Y-8114865D01*
X13534791Y-8116970D01*
X13536407Y-8118586D01*
X13537452Y-8120951D01*
X13539021Y-8123300D01*
X13539457Y-8125494D01*
X13540302Y-8127407D01*
X13540951Y-8133006D01*
X13541000Y-8133250D01*
X13541000Y-8213250D01*
X13540951Y-8213494D01*
X13540302Y-8219093D01*
X13539457Y-8221006D01*
X13539021Y-8223200D01*
X13537451Y-8225549D01*
X13536407Y-8227914D01*
X13534791Y-8229530D01*
X13533385Y-8231635D01*
X13531280Y-8233041D01*
X13529664Y-8234657D01*
X13527299Y-8235701D01*
X13524950Y-8237271D01*
X13522756Y-8237707D01*
X13520843Y-8238552D01*
X13515244Y-8239201D01*
X13515000Y-8239250D01*
X13475000Y-8239250D01*
X13474756Y-8239201D01*
X13469157Y-8238552D01*
X13467244Y-8237707D01*
X13465050Y-8237271D01*
X13462701Y-8235702D01*
X13460336Y-8234657D01*
X13458720Y-8233041D01*
X13456615Y-8231635D01*
X13455209Y-8229530D01*
X13453593Y-8227914D01*
X13452548Y-8225548D01*
X13450979Y-8223200D01*
X13450543Y-8221006D01*
X13449698Y-8219093D01*
X13449048Y-8213493D01*
X13449000Y-8213250D01*
X13449000Y-8133250D01*
X13449048Y-8133007D01*
X13449698Y-8127407D01*
X13450543Y-8125493D01*
X13450979Y-8123300D01*
X13452548Y-8120952D01*
X13453593Y-8118586D01*
X13455209Y-8116969D01*
X13456615Y-8114865D01*
X13458719Y-8113459D01*
X13460336Y-8111843D01*
X13462702Y-8110798D01*
X13465050Y-8109229D01*
X13467243Y-8108793D01*
X13469157Y-8107948D01*
X13474757Y-8107298D01*
X13475000Y-8107250D01*
X13515000Y-8107250D01*
X13515243Y-8107298D01*
G37*
G36*
X13637242Y-8107298D02*
G01*
X13642614Y-8107921D01*
X13644449Y-8108732D01*
X13646567Y-8109153D01*
X13648834Y-8110668D01*
X13651099Y-8111668D01*
X13652646Y-8113215D01*
X13654678Y-8114572D01*
X13656035Y-8116604D01*
X13657582Y-8118151D01*
X13658582Y-8120415D01*
X13660097Y-8122683D01*
X13660518Y-8124801D01*
X13661328Y-8126636D01*
X13661951Y-8132006D01*
X13662000Y-8132250D01*
X13662000Y-8214250D01*
X13661951Y-8214494D01*
X13661329Y-8219864D01*
X13660518Y-8221699D01*
X13660097Y-8223817D01*
X13658582Y-8226085D01*
X13657582Y-8228349D01*
X13656035Y-8229896D01*
X13654678Y-8231928D01*
X13652646Y-8233285D01*
X13651099Y-8234832D01*
X13648835Y-8235832D01*
X13646567Y-8237347D01*
X13644449Y-8237768D01*
X13642614Y-8238578D01*
X13637244Y-8239201D01*
X13637000Y-8239250D01*
X13599000Y-8239250D01*
X13598756Y-8239201D01*
X13593386Y-8238579D01*
X13591551Y-8237768D01*
X13589433Y-8237347D01*
X13587165Y-8235832D01*
X13584901Y-8234832D01*
X13583354Y-8233285D01*
X13581322Y-8231928D01*
X13579965Y-8229896D01*
X13578418Y-8228349D01*
X13577418Y-8226084D01*
X13575903Y-8223817D01*
X13575482Y-8221699D01*
X13574671Y-8219864D01*
X13574048Y-8214493D01*
X13574000Y-8214250D01*
X13574000Y-8132250D01*
X13574048Y-8132007D01*
X13574671Y-8126636D01*
X13575482Y-8124800D01*
X13575903Y-8122683D01*
X13577418Y-8120416D01*
X13578418Y-8118151D01*
X13579965Y-8116604D01*
X13581322Y-8114572D01*
X13583354Y-8113215D01*
X13584901Y-8111668D01*
X13587166Y-8110668D01*
X13589433Y-8109153D01*
X13591551Y-8108732D01*
X13593386Y-8107921D01*
X13598757Y-8107298D01*
X13599000Y-8107250D01*
X13637000Y-8107250D01*
X13637242Y-8107298D01*
G37*
G36*
X13746493Y-8109039D02*
G01*
X13754117Y-8114133D01*
X13759211Y-8121757D01*
X13761000Y-8130750D01*
X13761000Y-8215750D01*
X13759211Y-8224743D01*
X13754117Y-8232367D01*
X13746493Y-8237461D01*
X13737500Y-8239250D01*
X13702500Y-8239250D01*
X13693507Y-8237461D01*
X13685883Y-8232367D01*
X13680789Y-8224743D01*
X13679000Y-8215750D01*
X13679000Y-8130750D01*
X13680789Y-8121757D01*
X13685883Y-8114133D01*
X13693507Y-8109039D01*
X13702500Y-8107250D01*
X13737500Y-8107250D01*
X13746493Y-8109039D01*
G37*
G36*
X13846493Y-8109039D02*
G01*
X13854117Y-8114133D01*
X13859211Y-8121757D01*
X13861000Y-8130750D01*
X13861000Y-8215750D01*
X13859211Y-8224743D01*
X13854117Y-8232367D01*
X13846493Y-8237461D01*
X13837500Y-8239250D01*
X13802500Y-8239250D01*
X13793507Y-8237461D01*
X13785883Y-8232367D01*
X13780789Y-8224743D01*
X13779000Y-8215750D01*
X13779000Y-8130750D01*
X13780789Y-8121757D01*
X13785883Y-8114133D01*
X13793507Y-8109039D01*
X13802500Y-8107250D01*
X13837500Y-8107250D01*
X13846493Y-8109039D01*
G37*
G36*
X13941242Y-8107298D02*
G01*
X13946614Y-8107921D01*
X13948449Y-8108732D01*
X13950567Y-8109153D01*
X13952834Y-8110668D01*
X13955099Y-8111668D01*
X13956646Y-8113215D01*
X13958678Y-8114572D01*
X13960035Y-8116604D01*
X13961582Y-8118151D01*
X13962582Y-8120415D01*
X13964097Y-8122683D01*
X13964518Y-8124801D01*
X13965328Y-8126636D01*
X13965951Y-8132006D01*
X13966000Y-8132250D01*
X13966000Y-8214250D01*
X13965951Y-8214494D01*
X13965329Y-8219864D01*
X13964518Y-8221699D01*
X13964097Y-8223817D01*
X13962582Y-8226085D01*
X13961582Y-8228349D01*
X13960035Y-8229896D01*
X13958678Y-8231928D01*
X13956646Y-8233285D01*
X13955099Y-8234832D01*
X13952835Y-8235832D01*
X13950567Y-8237347D01*
X13948449Y-8237768D01*
X13946614Y-8238578D01*
X13941244Y-8239201D01*
X13941000Y-8239250D01*
X13903000Y-8239250D01*
X13902756Y-8239201D01*
X13897386Y-8238579D01*
X13895551Y-8237768D01*
X13893433Y-8237347D01*
X13891165Y-8235832D01*
X13888901Y-8234832D01*
X13887354Y-8233285D01*
X13885322Y-8231928D01*
X13883965Y-8229896D01*
X13882418Y-8228349D01*
X13881418Y-8226084D01*
X13879903Y-8223817D01*
X13879482Y-8221699D01*
X13878671Y-8219864D01*
X13878048Y-8214493D01*
X13878000Y-8214250D01*
X13878000Y-8132250D01*
X13878048Y-8132007D01*
X13878671Y-8126636D01*
X13879482Y-8124800D01*
X13879903Y-8122683D01*
X13881418Y-8120416D01*
X13882418Y-8118151D01*
X13883965Y-8116604D01*
X13885322Y-8114572D01*
X13887354Y-8113215D01*
X13888901Y-8111668D01*
X13891166Y-8110668D01*
X13893433Y-8109153D01*
X13895551Y-8108732D01*
X13897386Y-8107921D01*
X13902757Y-8107298D01*
X13903000Y-8107250D01*
X13941000Y-8107250D01*
X13941242Y-8107298D01*
G37*
G36*
X14065243Y-8107298D02*
G01*
X14070843Y-8107948D01*
X14072756Y-8108793D01*
X14074950Y-8109229D01*
X14077298Y-8110798D01*
X14079664Y-8111843D01*
X14081280Y-8113459D01*
X14083385Y-8114865D01*
X14084791Y-8116970D01*
X14086407Y-8118586D01*
X14087452Y-8120951D01*
X14089021Y-8123300D01*
X14089457Y-8125494D01*
X14090302Y-8127407D01*
X14090951Y-8133006D01*
X14091000Y-8133250D01*
X14091000Y-8213250D01*
X14090951Y-8213494D01*
X14090302Y-8219093D01*
X14089457Y-8221006D01*
X14089021Y-8223200D01*
X14087451Y-8225549D01*
X14086407Y-8227914D01*
X14084791Y-8229530D01*
X14083385Y-8231635D01*
X14081280Y-8233041D01*
X14079664Y-8234657D01*
X14077299Y-8235701D01*
X14074950Y-8237271D01*
X14072756Y-8237707D01*
X14070843Y-8238552D01*
X14065244Y-8239201D01*
X14065000Y-8239250D01*
X14025000Y-8239250D01*
X14024756Y-8239201D01*
X14019157Y-8238552D01*
X14017244Y-8237707D01*
X14015050Y-8237271D01*
X14012701Y-8235702D01*
X14010336Y-8234657D01*
X14008720Y-8233041D01*
X14006615Y-8231635D01*
X14005209Y-8229530D01*
X14003593Y-8227914D01*
X14002548Y-8225548D01*
X14000979Y-8223200D01*
X14000543Y-8221006D01*
X13999698Y-8219093D01*
X13999048Y-8213493D01*
X13999000Y-8213250D01*
X13999000Y-8133250D01*
X13999048Y-8133007D01*
X13999698Y-8127407D01*
X14000543Y-8125493D01*
X14000979Y-8123300D01*
X14002548Y-8120952D01*
X14003593Y-8118586D01*
X14005209Y-8116969D01*
X14006615Y-8114865D01*
X14008719Y-8113459D01*
X14010336Y-8111843D01*
X14012702Y-8110798D01*
X14015050Y-8109229D01*
X14017243Y-8108793D01*
X14019157Y-8107948D01*
X14024757Y-8107298D01*
X14025000Y-8107250D01*
X14065000Y-8107250D01*
X14065243Y-8107298D01*
G37*
G36*
X14757743Y-8044048D02*
G01*
X14763343Y-8044698D01*
X14765256Y-8045543D01*
X14767450Y-8045979D01*
X14769798Y-8047548D01*
X14772164Y-8048593D01*
X14773780Y-8050209D01*
X14775885Y-8051615D01*
X14777291Y-8053720D01*
X14778907Y-8055336D01*
X14779952Y-8057701D01*
X14781521Y-8060050D01*
X14781957Y-8062244D01*
X14782802Y-8064157D01*
X14783451Y-8069756D01*
X14783500Y-8070000D01*
X14783500Y-8110000D01*
X14783451Y-8110244D01*
X14782802Y-8115843D01*
X14781957Y-8117756D01*
X14781521Y-8119950D01*
X14779951Y-8122299D01*
X14778907Y-8124664D01*
X14777291Y-8126280D01*
X14775885Y-8128385D01*
X14773780Y-8129791D01*
X14772164Y-8131407D01*
X14769799Y-8132451D01*
X14767450Y-8134021D01*
X14765256Y-8134457D01*
X14763343Y-8135302D01*
X14757744Y-8135951D01*
X14757500Y-8136000D01*
X14702500Y-8136000D01*
X14702256Y-8135951D01*
X14696657Y-8135302D01*
X14694744Y-8134457D01*
X14692550Y-8134021D01*
X14690201Y-8132452D01*
X14687836Y-8131407D01*
X14686220Y-8129791D01*
X14684115Y-8128385D01*
X14682709Y-8126280D01*
X14681093Y-8124664D01*
X14680048Y-8122298D01*
X14678479Y-8119950D01*
X14678043Y-8117756D01*
X14677198Y-8115843D01*
X14676548Y-8110243D01*
X14676500Y-8110000D01*
X14676500Y-8070000D01*
X14676548Y-8069757D01*
X14677198Y-8064157D01*
X14678043Y-8062243D01*
X14678479Y-8060050D01*
X14680048Y-8057702D01*
X14681093Y-8055336D01*
X14682709Y-8053719D01*
X14684115Y-8051615D01*
X14686219Y-8050209D01*
X14687836Y-8048593D01*
X14690202Y-8047548D01*
X14692550Y-8045979D01*
X14694743Y-8045543D01*
X14696657Y-8044698D01*
X14702257Y-8044048D01*
X14702500Y-8044000D01*
X14757500Y-8044000D01*
X14757743Y-8044048D01*
G37*
G36*
X14907743Y-8044048D02*
G01*
X14913343Y-8044698D01*
X14915256Y-8045543D01*
X14917450Y-8045979D01*
X14919798Y-8047548D01*
X14922164Y-8048593D01*
X14923780Y-8050209D01*
X14925885Y-8051615D01*
X14927291Y-8053720D01*
X14928907Y-8055336D01*
X14929952Y-8057701D01*
X14931521Y-8060050D01*
X14931957Y-8062244D01*
X14932802Y-8064157D01*
X14933451Y-8069756D01*
X14933500Y-8070000D01*
X14933500Y-8110000D01*
X14933451Y-8110244D01*
X14932802Y-8115843D01*
X14931957Y-8117756D01*
X14931521Y-8119950D01*
X14929951Y-8122299D01*
X14928907Y-8124664D01*
X14927291Y-8126280D01*
X14925885Y-8128385D01*
X14923780Y-8129791D01*
X14922164Y-8131407D01*
X14919799Y-8132451D01*
X14917450Y-8134021D01*
X14915256Y-8134457D01*
X14913343Y-8135302D01*
X14907744Y-8135951D01*
X14907500Y-8136000D01*
X14852500Y-8136000D01*
X14852256Y-8135951D01*
X14846657Y-8135302D01*
X14844744Y-8134457D01*
X14842550Y-8134021D01*
X14840201Y-8132452D01*
X14837836Y-8131407D01*
X14836220Y-8129791D01*
X14834115Y-8128385D01*
X14832709Y-8126280D01*
X14831093Y-8124664D01*
X14830048Y-8122298D01*
X14828479Y-8119950D01*
X14828043Y-8117756D01*
X14827198Y-8115843D01*
X14826548Y-8110243D01*
X14826500Y-8110000D01*
X14826500Y-8070000D01*
X14826548Y-8069757D01*
X14827198Y-8064157D01*
X14828043Y-8062243D01*
X14828479Y-8060050D01*
X14830048Y-8057702D01*
X14831093Y-8055336D01*
X14832709Y-8053719D01*
X14834115Y-8051615D01*
X14836219Y-8050209D01*
X14837836Y-8048593D01*
X14840202Y-8047548D01*
X14842550Y-8045979D01*
X14844743Y-8045543D01*
X14846657Y-8044698D01*
X14852257Y-8044048D01*
X14852500Y-8044000D01*
X14907500Y-8044000D01*
X14907743Y-8044048D01*
G37*
G36*
X15057743Y-8044048D02*
G01*
X15063343Y-8044698D01*
X15065256Y-8045543D01*
X15067450Y-8045979D01*
X15069798Y-8047548D01*
X15072164Y-8048593D01*
X15073780Y-8050209D01*
X15075885Y-8051615D01*
X15077291Y-8053720D01*
X15078907Y-8055336D01*
X15079952Y-8057701D01*
X15081521Y-8060050D01*
X15081957Y-8062244D01*
X15082802Y-8064157D01*
X15083451Y-8069756D01*
X15083500Y-8070000D01*
X15083500Y-8110000D01*
X15083451Y-8110244D01*
X15082802Y-8115843D01*
X15081957Y-8117756D01*
X15081521Y-8119950D01*
X15079951Y-8122299D01*
X15078907Y-8124664D01*
X15077291Y-8126280D01*
X15075885Y-8128385D01*
X15073780Y-8129791D01*
X15072164Y-8131407D01*
X15069799Y-8132451D01*
X15067450Y-8134021D01*
X15065256Y-8134457D01*
X15063343Y-8135302D01*
X15057744Y-8135951D01*
X15057500Y-8136000D01*
X15002500Y-8136000D01*
X15002256Y-8135951D01*
X14996657Y-8135302D01*
X14994744Y-8134457D01*
X14992550Y-8134021D01*
X14990201Y-8132452D01*
X14987836Y-8131407D01*
X14986220Y-8129791D01*
X14984115Y-8128385D01*
X14982709Y-8126280D01*
X14981093Y-8124664D01*
X14980048Y-8122298D01*
X14978479Y-8119950D01*
X14978043Y-8117756D01*
X14977198Y-8115843D01*
X14976548Y-8110243D01*
X14976500Y-8110000D01*
X14976500Y-8070000D01*
X14976548Y-8069757D01*
X14977198Y-8064157D01*
X14978043Y-8062243D01*
X14978479Y-8060050D01*
X14980048Y-8057702D01*
X14981093Y-8055336D01*
X14982709Y-8053719D01*
X14984115Y-8051615D01*
X14986219Y-8050209D01*
X14987836Y-8048593D01*
X14990202Y-8047548D01*
X14992550Y-8045979D01*
X14994743Y-8045543D01*
X14996657Y-8044698D01*
X15002257Y-8044048D01*
X15002500Y-8044000D01*
X15057500Y-8044000D01*
X15057743Y-8044048D01*
G37*
G36*
X15783416Y-7960028D02*
G01*
X15787796Y-7962954D01*
X15790722Y-7967334D01*
X15791750Y-7972500D01*
X15791750Y-8007500D01*
X15790722Y-8012666D01*
X15787796Y-8017046D01*
X15783416Y-8019972D01*
X15778250Y-8021000D01*
X15763250Y-8021000D01*
X15758084Y-8019972D01*
X15753704Y-8017046D01*
X15750778Y-8012666D01*
X15749750Y-8007500D01*
X15749750Y-7972500D01*
X15750778Y-7967334D01*
X15753704Y-7962954D01*
X15758084Y-7960028D01*
X15763250Y-7959000D01*
X15778250Y-7959000D01*
X15783416Y-7960028D01*
G37*
G36*
X15853416Y-7960028D02*
G01*
X15857796Y-7962954D01*
X15860722Y-7967334D01*
X15861750Y-7972500D01*
X15861750Y-8007500D01*
X15860722Y-8012666D01*
X15857796Y-8017046D01*
X15853416Y-8019972D01*
X15848250Y-8021000D01*
X15833250Y-8021000D01*
X15828084Y-8019972D01*
X15823704Y-8017046D01*
X15820778Y-8012666D01*
X15819750Y-8007500D01*
X15819750Y-7972500D01*
X15820778Y-7967334D01*
X15823704Y-7962954D01*
X15828084Y-7960028D01*
X15833250Y-7959000D01*
X15848250Y-7959000D01*
X15853416Y-7960028D01*
G37*
G36*
X14757743Y-7879048D02*
G01*
X14763343Y-7879698D01*
X14765256Y-7880543D01*
X14767450Y-7880979D01*
X14769798Y-7882548D01*
X14772164Y-7883593D01*
X14773780Y-7885209D01*
X14775885Y-7886615D01*
X14777291Y-7888720D01*
X14778907Y-7890336D01*
X14779952Y-7892701D01*
X14781521Y-7895050D01*
X14781957Y-7897244D01*
X14782802Y-7899157D01*
X14783451Y-7904756D01*
X14783500Y-7905000D01*
X14783500Y-7945000D01*
X14783451Y-7945244D01*
X14782802Y-7950843D01*
X14781957Y-7952756D01*
X14781521Y-7954950D01*
X14779951Y-7957299D01*
X14778907Y-7959664D01*
X14777291Y-7961280D01*
X14775885Y-7963385D01*
X14773780Y-7964791D01*
X14772164Y-7966407D01*
X14769799Y-7967451D01*
X14767450Y-7969021D01*
X14765256Y-7969457D01*
X14763343Y-7970302D01*
X14757744Y-7970951D01*
X14757500Y-7971000D01*
X14702500Y-7971000D01*
X14702256Y-7970951D01*
X14696657Y-7970302D01*
X14694744Y-7969457D01*
X14692550Y-7969021D01*
X14690201Y-7967452D01*
X14687836Y-7966407D01*
X14686220Y-7964791D01*
X14684115Y-7963385D01*
X14682709Y-7961280D01*
X14681093Y-7959664D01*
X14680048Y-7957298D01*
X14678479Y-7954950D01*
X14678043Y-7952756D01*
X14677198Y-7950843D01*
X14676548Y-7945243D01*
X14676500Y-7945000D01*
X14676500Y-7905000D01*
X14676548Y-7904757D01*
X14677198Y-7899157D01*
X14678043Y-7897243D01*
X14678479Y-7895050D01*
X14680048Y-7892702D01*
X14681093Y-7890336D01*
X14682709Y-7888719D01*
X14684115Y-7886615D01*
X14686219Y-7885209D01*
X14687836Y-7883593D01*
X14690202Y-7882548D01*
X14692550Y-7880979D01*
X14694743Y-7880543D01*
X14696657Y-7879698D01*
X14702257Y-7879048D01*
X14702500Y-7879000D01*
X14757500Y-7879000D01*
X14757743Y-7879048D01*
G37*
G36*
X14907743Y-7879048D02*
G01*
X14913343Y-7879698D01*
X14915256Y-7880543D01*
X14917450Y-7880979D01*
X14919798Y-7882548D01*
X14922164Y-7883593D01*
X14923780Y-7885209D01*
X14925885Y-7886615D01*
X14927291Y-7888720D01*
X14928907Y-7890336D01*
X14929952Y-7892701D01*
X14931521Y-7895050D01*
X14931957Y-7897244D01*
X14932802Y-7899157D01*
X14933451Y-7904756D01*
X14933500Y-7905000D01*
X14933500Y-7945000D01*
X14933451Y-7945244D01*
X14932802Y-7950843D01*
X14931957Y-7952756D01*
X14931521Y-7954950D01*
X14929951Y-7957299D01*
X14928907Y-7959664D01*
X14927291Y-7961280D01*
X14925885Y-7963385D01*
X14923780Y-7964791D01*
X14922164Y-7966407D01*
X14919799Y-7967451D01*
X14917450Y-7969021D01*
X14915256Y-7969457D01*
X14913343Y-7970302D01*
X14907744Y-7970951D01*
X14907500Y-7971000D01*
X14852500Y-7971000D01*
X14852256Y-7970951D01*
X14846657Y-7970302D01*
X14844744Y-7969457D01*
X14842550Y-7969021D01*
X14840201Y-7967452D01*
X14837836Y-7966407D01*
X14836220Y-7964791D01*
X14834115Y-7963385D01*
X14832709Y-7961280D01*
X14831093Y-7959664D01*
X14830048Y-7957298D01*
X14828479Y-7954950D01*
X14828043Y-7952756D01*
X14827198Y-7950843D01*
X14826548Y-7945243D01*
X14826500Y-7945000D01*
X14826500Y-7905000D01*
X14826548Y-7904757D01*
X14827198Y-7899157D01*
X14828043Y-7897243D01*
X14828479Y-7895050D01*
X14830048Y-7892702D01*
X14831093Y-7890336D01*
X14832709Y-7888719D01*
X14834115Y-7886615D01*
X14836219Y-7885209D01*
X14837836Y-7883593D01*
X14840202Y-7882548D01*
X14842550Y-7880979D01*
X14844743Y-7880543D01*
X14846657Y-7879698D01*
X14852257Y-7879048D01*
X14852500Y-7879000D01*
X14907500Y-7879000D01*
X14907743Y-7879048D01*
G37*
G36*
X15057743Y-7879048D02*
G01*
X15063343Y-7879698D01*
X15065256Y-7880543D01*
X15067450Y-7880979D01*
X15069798Y-7882548D01*
X15072164Y-7883593D01*
X15073780Y-7885209D01*
X15075885Y-7886615D01*
X15077291Y-7888720D01*
X15078907Y-7890336D01*
X15079952Y-7892701D01*
X15081521Y-7895050D01*
X15081957Y-7897244D01*
X15082802Y-7899157D01*
X15083451Y-7904756D01*
X15083500Y-7905000D01*
X15083500Y-7945000D01*
X15083451Y-7945244D01*
X15082802Y-7950843D01*
X15081957Y-7952756D01*
X15081521Y-7954950D01*
X15079951Y-7957299D01*
X15078907Y-7959664D01*
X15077291Y-7961280D01*
X15075885Y-7963385D01*
X15073780Y-7964791D01*
X15072164Y-7966407D01*
X15069799Y-7967451D01*
X15067450Y-7969021D01*
X15065256Y-7969457D01*
X15063343Y-7970302D01*
X15057744Y-7970951D01*
X15057500Y-7971000D01*
X15002500Y-7971000D01*
X15002256Y-7970951D01*
X14996657Y-7970302D01*
X14994744Y-7969457D01*
X14992550Y-7969021D01*
X14990201Y-7967452D01*
X14987836Y-7966407D01*
X14986220Y-7964791D01*
X14984115Y-7963385D01*
X14982709Y-7961280D01*
X14981093Y-7959664D01*
X14980048Y-7957298D01*
X14978479Y-7954950D01*
X14978043Y-7952756D01*
X14977198Y-7950843D01*
X14976548Y-7945243D01*
X14976500Y-7945000D01*
X14976500Y-7905000D01*
X14976548Y-7904757D01*
X14977198Y-7899157D01*
X14978043Y-7897243D01*
X14978479Y-7895050D01*
X14980048Y-7892702D01*
X14981093Y-7890336D01*
X14982709Y-7888719D01*
X14984115Y-7886615D01*
X14986219Y-7885209D01*
X14987836Y-7883593D01*
X14990202Y-7882548D01*
X14992550Y-7880979D01*
X14994743Y-7880543D01*
X14996657Y-7879698D01*
X15002257Y-7879048D01*
X15002500Y-7879000D01*
X15057500Y-7879000D01*
X15057743Y-7879048D01*
G37*
G36*
X15634025Y-7584757D02*
G01*
X15634438Y-7584939D01*
X15634803Y-7584987D01*
X15639381Y-7587122D01*
X15643606Y-7588988D01*
X15643802Y-7589184D01*
X15643820Y-7589192D01*
X15650808Y-7596179D01*
X15650816Y-7596197D01*
X15651012Y-7596394D01*
X15652879Y-7600621D01*
X15655013Y-7605196D01*
X15655061Y-7605562D01*
X15655243Y-7605975D01*
X15656000Y-7612500D01*
X15656000Y-7657500D01*
X15655243Y-7664025D01*
X15655061Y-7664438D01*
X15655013Y-7664803D01*
X15652880Y-7669377D01*
X15651012Y-7673606D01*
X15650816Y-7673802D01*
X15650808Y-7673820D01*
X15643820Y-7680808D01*
X15643802Y-7680816D01*
X15643606Y-7681012D01*
X15639377Y-7682880D01*
X15634803Y-7685013D01*
X15634438Y-7685061D01*
X15634025Y-7685243D01*
X15627500Y-7686000D01*
X15571389Y-7686000D01*
X15570705Y-7691191D01*
X15577017Y-7692882D01*
X15588547Y-7699539D01*
X15597961Y-7708953D01*
X15604618Y-7720483D01*
X15608064Y-7733343D01*
X15608064Y-7739901D01*
X15611275Y-7741231D01*
X15613262Y-7739904D01*
X15614792Y-7738374D01*
X15617032Y-7737385D01*
X15619279Y-7735884D01*
X15621377Y-7735466D01*
X15623193Y-7734665D01*
X15628507Y-7734048D01*
X15628750Y-7734000D01*
X15666250Y-7734000D01*
X15666492Y-7734048D01*
X15671807Y-7734665D01*
X15673623Y-7735466D01*
X15675721Y-7735884D01*
X15677968Y-7737385D01*
X15680208Y-7738374D01*
X15681737Y-7739904D01*
X15683751Y-7741249D01*
X15685096Y-7743262D01*
X15686626Y-7744792D01*
X15687614Y-7747031D01*
X15689116Y-7749279D01*
X15689533Y-7751378D01*
X15690335Y-7753193D01*
X15690951Y-7758506D01*
X15691000Y-7758750D01*
X15691000Y-7901250D01*
X15690951Y-7901494D01*
X15690335Y-7906807D01*
X15689533Y-7908622D01*
X15689116Y-7910721D01*
X15687614Y-7912969D01*
X15686626Y-7915208D01*
X15685096Y-7916737D01*
X15683751Y-7918751D01*
X15681737Y-7920096D01*
X15680208Y-7921626D01*
X15677969Y-7922614D01*
X15675721Y-7924116D01*
X15673622Y-7924533D01*
X15671807Y-7925335D01*
X15666494Y-7925951D01*
X15666250Y-7926000D01*
X15628750Y-7926000D01*
X15628506Y-7925951D01*
X15623193Y-7925335D01*
X15621377Y-7924533D01*
X15619279Y-7924116D01*
X15617031Y-7922614D01*
X15614792Y-7921626D01*
X15613262Y-7920096D01*
X15611249Y-7918751D01*
X15609904Y-7916737D01*
X15608374Y-7915208D01*
X15607385Y-7912968D01*
X15605884Y-7910721D01*
X15605466Y-7908622D01*
X15604665Y-7906807D01*
X15604048Y-7901493D01*
X15604000Y-7901250D01*
X15604000Y-7769429D01*
X15599579Y-7768245D01*
X15597961Y-7771047D01*
X15588547Y-7780461D01*
X15577017Y-7787118D01*
X15564157Y-7790564D01*
X15550843Y-7790564D01*
X15537983Y-7787118D01*
X15526453Y-7780461D01*
X15517039Y-7771047D01*
X15510382Y-7759517D01*
X15506936Y-7746657D01*
X15506936Y-7733343D01*
X15510382Y-7720483D01*
X15517039Y-7708953D01*
X15526453Y-7699539D01*
X15537983Y-7692882D01*
X15544634Y-7691100D01*
X15544313Y-7686213D01*
X15542697Y-7686000D01*
X15542500Y-7686000D01*
X15535975Y-7685243D01*
X15535562Y-7685061D01*
X15535196Y-7685013D01*
X15530621Y-7682879D01*
X15526394Y-7681012D01*
X15526197Y-7680816D01*
X15526179Y-7680808D01*
X15519192Y-7673820D01*
X15519184Y-7673802D01*
X15518988Y-7673606D01*
X15517122Y-7669381D01*
X15514987Y-7664803D01*
X15514939Y-7664438D01*
X15514757Y-7664025D01*
X15514000Y-7657500D01*
X15514000Y-7612500D01*
X15514757Y-7605975D01*
X15514939Y-7605562D01*
X15514987Y-7605196D01*
X15517123Y-7600616D01*
X15518988Y-7596394D01*
X15519183Y-7596198D01*
X15519192Y-7596179D01*
X15526179Y-7589192D01*
X15526198Y-7589183D01*
X15526394Y-7588988D01*
X15530616Y-7587123D01*
X15535196Y-7584987D01*
X15535562Y-7584939D01*
X15535975Y-7584757D01*
X15542500Y-7584000D01*
X15627500Y-7584000D01*
X15634025Y-7584757D01*
G37*
G36*
X15793036Y-7735598D02*
G01*
X15799849Y-7740151D01*
X15804401Y-7746964D01*
X15806000Y-7755000D01*
X15806000Y-7905000D01*
X15804401Y-7913036D01*
X15799849Y-7919849D01*
X15793036Y-7924401D01*
X15785000Y-7926000D01*
X15755000Y-7926000D01*
X15746964Y-7924401D01*
X15740151Y-7919849D01*
X15735598Y-7913036D01*
X15734000Y-7905000D01*
X15734000Y-7755000D01*
X15735598Y-7746964D01*
X15740151Y-7740151D01*
X15746964Y-7735598D01*
X15755000Y-7734000D01*
X15785000Y-7734000D01*
X15793036Y-7735598D01*
G37*
G36*
X16004025Y-7584757D02*
G01*
X16004438Y-7584939D01*
X16004803Y-7584987D01*
X16009381Y-7587122D01*
X16013606Y-7588988D01*
X16013802Y-7589184D01*
X16013820Y-7589192D01*
X16020808Y-7596179D01*
X16020816Y-7596197D01*
X16021012Y-7596394D01*
X16022879Y-7600621D01*
X16025013Y-7605196D01*
X16025061Y-7605562D01*
X16025243Y-7605975D01*
X16026000Y-7612500D01*
X16026000Y-7657500D01*
X16025243Y-7664025D01*
X16025061Y-7664438D01*
X16025013Y-7664803D01*
X16022880Y-7669377D01*
X16021012Y-7673606D01*
X16020816Y-7673802D01*
X16020808Y-7673820D01*
X16013820Y-7680808D01*
X16013802Y-7680816D01*
X16013606Y-7681012D01*
X16009377Y-7682880D01*
X16004803Y-7685013D01*
X16004438Y-7685061D01*
X16004025Y-7685243D01*
X15997500Y-7686000D01*
X15997301Y-7686000D01*
X15995686Y-7686213D01*
X15995366Y-7691100D01*
X16002017Y-7692882D01*
X16013547Y-7699539D01*
X16022961Y-7708953D01*
X16029618Y-7720483D01*
X16033064Y-7733343D01*
X16033064Y-7746657D01*
X16029618Y-7759517D01*
X16022961Y-7771047D01*
X16013547Y-7780461D01*
X16002017Y-7787118D01*
X15989157Y-7790564D01*
X15975843Y-7790564D01*
X15962983Y-7787118D01*
X15951453Y-7780461D01*
X15942039Y-7771047D01*
X15940421Y-7768245D01*
X15936000Y-7769429D01*
X15936000Y-7901250D01*
X15935951Y-7901494D01*
X15935335Y-7906807D01*
X15934533Y-7908622D01*
X15934116Y-7910721D01*
X15932614Y-7912969D01*
X15931626Y-7915208D01*
X15930096Y-7916737D01*
X15928751Y-7918751D01*
X15926737Y-7920096D01*
X15925208Y-7921626D01*
X15922969Y-7922614D01*
X15920721Y-7924116D01*
X15918622Y-7924533D01*
X15916807Y-7925335D01*
X15911494Y-7925951D01*
X15911250Y-7926000D01*
X15873750Y-7926000D01*
X15873506Y-7925951D01*
X15868193Y-7925335D01*
X15866377Y-7924533D01*
X15864279Y-7924116D01*
X15862031Y-7922614D01*
X15859792Y-7921626D01*
X15858262Y-7920096D01*
X15856249Y-7918751D01*
X15854904Y-7916737D01*
X15853374Y-7915208D01*
X15852385Y-7912968D01*
X15850884Y-7910721D01*
X15850466Y-7908622D01*
X15849665Y-7906807D01*
X15849048Y-7901493D01*
X15849000Y-7901250D01*
X15849000Y-7758750D01*
X15849048Y-7758507D01*
X15849665Y-7753193D01*
X15850466Y-7751377D01*
X15850884Y-7749279D01*
X15852385Y-7747032D01*
X15853374Y-7744792D01*
X15854904Y-7743262D01*
X15856249Y-7741249D01*
X15858262Y-7739904D01*
X15859792Y-7738374D01*
X15862032Y-7737385D01*
X15864279Y-7735884D01*
X15866377Y-7735466D01*
X15868193Y-7734665D01*
X15873507Y-7734048D01*
X15873750Y-7734000D01*
X15911250Y-7734000D01*
X15911492Y-7734048D01*
X15916807Y-7734665D01*
X15918623Y-7735466D01*
X15920721Y-7735884D01*
X15922968Y-7737385D01*
X15925208Y-7738374D01*
X15926737Y-7739904D01*
X15928724Y-7741231D01*
X15931936Y-7739901D01*
X15931936Y-7733343D01*
X15935382Y-7720483D01*
X15942039Y-7708953D01*
X15951453Y-7699539D01*
X15962983Y-7692882D01*
X15969295Y-7691191D01*
X15968611Y-7686000D01*
X15912500Y-7686000D01*
X15905975Y-7685243D01*
X15905562Y-7685061D01*
X15905196Y-7685013D01*
X15900621Y-7682879D01*
X15896394Y-7681012D01*
X15896197Y-7680816D01*
X15896179Y-7680808D01*
X15889192Y-7673820D01*
X15889184Y-7673802D01*
X15888988Y-7673606D01*
X15887122Y-7669381D01*
X15884987Y-7664803D01*
X15884939Y-7664438D01*
X15884757Y-7664025D01*
X15884000Y-7657500D01*
X15884000Y-7612500D01*
X15884757Y-7605975D01*
X15884939Y-7605562D01*
X15884987Y-7605196D01*
X15887123Y-7600616D01*
X15888988Y-7596394D01*
X15889183Y-7596198D01*
X15889192Y-7596179D01*
X15896179Y-7589192D01*
X15896198Y-7589183D01*
X15896394Y-7588988D01*
X15900616Y-7587123D01*
X15905196Y-7584987D01*
X15905562Y-7584939D01*
X15905975Y-7584757D01*
X15912500Y-7584000D01*
X15997500Y-7584000D01*
X16004025Y-7584757D01*
G37*
G36*
X13329597Y-7729573D02*
G01*
X13330039Y-7729768D01*
X13330450Y-7729822D01*
X13335601Y-7732224D01*
X13340019Y-7734175D01*
X13340224Y-7734380D01*
X13340254Y-7734394D01*
X13347856Y-7741996D01*
X13347870Y-7742026D01*
X13348075Y-7742231D01*
X13350027Y-7746651D01*
X13352427Y-7751799D01*
X13352481Y-7752211D01*
X13352677Y-7752652D01*
X13353500Y-7759750D01*
X13353500Y-7859750D01*
X13352677Y-7866847D01*
X13352481Y-7867289D01*
X13352427Y-7867700D01*
X13350027Y-7872847D01*
X13348075Y-7877269D01*
X13347870Y-7877474D01*
X13347856Y-7877504D01*
X13340254Y-7885106D01*
X13340224Y-7885120D01*
X13340019Y-7885325D01*
X13335597Y-7887277D01*
X13330450Y-7889677D01*
X13330039Y-7889731D01*
X13329597Y-7889927D01*
X13322500Y-7890750D01*
X13192500Y-7890750D01*
X13185402Y-7889927D01*
X13184961Y-7889731D01*
X13184549Y-7889677D01*
X13179401Y-7887277D01*
X13174981Y-7885325D01*
X13174776Y-7885120D01*
X13174746Y-7885106D01*
X13167144Y-7877504D01*
X13167130Y-7877474D01*
X13166925Y-7877269D01*
X13164974Y-7872851D01*
X13162572Y-7867700D01*
X13162518Y-7867289D01*
X13162323Y-7866847D01*
X13161500Y-7859750D01*
X13161500Y-7759750D01*
X13162323Y-7752652D01*
X13162518Y-7752211D01*
X13162572Y-7751799D01*
X13164975Y-7746647D01*
X13166925Y-7742231D01*
X13167130Y-7742026D01*
X13167144Y-7741996D01*
X13174746Y-7734394D01*
X13174776Y-7734380D01*
X13174981Y-7734175D01*
X13179397Y-7732225D01*
X13184549Y-7729822D01*
X13184961Y-7729768D01*
X13185402Y-7729573D01*
X13192500Y-7728750D01*
X13322500Y-7728750D01*
X13329597Y-7729573D01*
G37*
G36*
X14354597Y-7729573D02*
G01*
X14355039Y-7729768D01*
X14355450Y-7729822D01*
X14360601Y-7732224D01*
X14365019Y-7734175D01*
X14365224Y-7734380D01*
X14365254Y-7734394D01*
X14372856Y-7741996D01*
X14372870Y-7742026D01*
X14373075Y-7742231D01*
X14375027Y-7746651D01*
X14377427Y-7751799D01*
X14377481Y-7752211D01*
X14377677Y-7752652D01*
X14378500Y-7759750D01*
X14378500Y-7859750D01*
X14377677Y-7866847D01*
X14377481Y-7867289D01*
X14377427Y-7867700D01*
X14375027Y-7872847D01*
X14373075Y-7877269D01*
X14372870Y-7877474D01*
X14372856Y-7877504D01*
X14365254Y-7885106D01*
X14365224Y-7885120D01*
X14365019Y-7885325D01*
X14360597Y-7887277D01*
X14355450Y-7889677D01*
X14355039Y-7889731D01*
X14354597Y-7889927D01*
X14347500Y-7890750D01*
X14217500Y-7890750D01*
X14210402Y-7889927D01*
X14209961Y-7889731D01*
X14209549Y-7889677D01*
X14204401Y-7887277D01*
X14199981Y-7885325D01*
X14199776Y-7885120D01*
X14199746Y-7885106D01*
X14192144Y-7877504D01*
X14192130Y-7877474D01*
X14191925Y-7877269D01*
X14189974Y-7872851D01*
X14187572Y-7867700D01*
X14187518Y-7867289D01*
X14187323Y-7866847D01*
X14186500Y-7859750D01*
X14186500Y-7759750D01*
X14187323Y-7752652D01*
X14187518Y-7752211D01*
X14187572Y-7751799D01*
X14189975Y-7746647D01*
X14191925Y-7742231D01*
X14192130Y-7742026D01*
X14192144Y-7741996D01*
X14199746Y-7734394D01*
X14199776Y-7734380D01*
X14199981Y-7734175D01*
X14204397Y-7732225D01*
X14209549Y-7729822D01*
X14209961Y-7729768D01*
X14210402Y-7729573D01*
X14217500Y-7728750D01*
X14347500Y-7728750D01*
X14354597Y-7729573D01*
G37*
G36*
X12937080Y-7656850D02*
G01*
X12954391Y-7662474D01*
X12970610Y-7670738D01*
X12985336Y-7681437D01*
X12998207Y-7694308D01*
X13008906Y-7709035D01*
X13017170Y-7725253D01*
X13022795Y-7742565D01*
X13025642Y-7760543D01*
X13025642Y-7778746D01*
X13022795Y-7796724D01*
X13017170Y-7814036D01*
X13008906Y-7830254D01*
X12998207Y-7844980D01*
X12985336Y-7857852D01*
X12970610Y-7868551D01*
X12954391Y-7876814D01*
X12937080Y-7882439D01*
X12919101Y-7885287D01*
X12900899Y-7885287D01*
X12882920Y-7882439D01*
X12865609Y-7876814D01*
X12849390Y-7868551D01*
X12834664Y-7857852D01*
X12821793Y-7844980D01*
X12811094Y-7830254D01*
X12802830Y-7814036D01*
X12797205Y-7796724D01*
X12794358Y-7778746D01*
X12794358Y-7760543D01*
X12797205Y-7742565D01*
X12802830Y-7725253D01*
X12811094Y-7709035D01*
X12821793Y-7694308D01*
X12834664Y-7681437D01*
X12849390Y-7670738D01*
X12865609Y-7662474D01*
X12882920Y-7656850D01*
X12900899Y-7654002D01*
X12919101Y-7654002D01*
X12937080Y-7656850D01*
G37*
G36*
X16657080Y-7656850D02*
G01*
X16674391Y-7662474D01*
X16690610Y-7670738D01*
X16705336Y-7681437D01*
X16718207Y-7694308D01*
X16728906Y-7709035D01*
X16737170Y-7725253D01*
X16742795Y-7742565D01*
X16745642Y-7760543D01*
X16745642Y-7778746D01*
X16742795Y-7796724D01*
X16737170Y-7814036D01*
X16728906Y-7830254D01*
X16718207Y-7844980D01*
X16705336Y-7857852D01*
X16690610Y-7868551D01*
X16674391Y-7876814D01*
X16657080Y-7882439D01*
X16639101Y-7885287D01*
X16620899Y-7885287D01*
X16602920Y-7882439D01*
X16585609Y-7876814D01*
X16569390Y-7868551D01*
X16554664Y-7857852D01*
X16541793Y-7844980D01*
X16531094Y-7830254D01*
X16522830Y-7814036D01*
X16517205Y-7796724D01*
X16514358Y-7778746D01*
X16514358Y-7760543D01*
X16517205Y-7742565D01*
X16522830Y-7725253D01*
X16531094Y-7709035D01*
X16541793Y-7694308D01*
X16554664Y-7681437D01*
X16569390Y-7670738D01*
X16585609Y-7662474D01*
X16602920Y-7656850D01*
X16620899Y-7654002D01*
X16639101Y-7654002D01*
X16657080Y-7656850D01*
G37*
G36*
X14752296Y-7679457D02*
G01*
X14754243Y-7680757D01*
X14755543Y-7682704D01*
X14756000Y-7685000D01*
X14756000Y-7765000D01*
X14755543Y-7767296D01*
X14754243Y-7769243D01*
X14752296Y-7770543D01*
X14750000Y-7771000D01*
X14710000Y-7771000D01*
X14707704Y-7770543D01*
X14705757Y-7769243D01*
X14704457Y-7767296D01*
X14704000Y-7765000D01*
X14704000Y-7685000D01*
X14704457Y-7682704D01*
X14705757Y-7680757D01*
X14707704Y-7679457D01*
X14710000Y-7679000D01*
X14750000Y-7679000D01*
X14752296Y-7679457D01*
G37*
G36*
X14832296Y-7679457D02*
G01*
X14834243Y-7680757D01*
X14835543Y-7682704D01*
X14836000Y-7685000D01*
X14836000Y-7765000D01*
X14835543Y-7767296D01*
X14834243Y-7769243D01*
X14832296Y-7770543D01*
X14830000Y-7771000D01*
X14790000Y-7771000D01*
X14787704Y-7770543D01*
X14785757Y-7769243D01*
X14784457Y-7767296D01*
X14784000Y-7765000D01*
X14784000Y-7685000D01*
X14784457Y-7682704D01*
X14785757Y-7680757D01*
X14787704Y-7679457D01*
X14790000Y-7679000D01*
X14830000Y-7679000D01*
X14832296Y-7679457D01*
G37*
G36*
X14502154Y-7688022D02*
G01*
X14508642Y-7692358D01*
X14512978Y-7698846D01*
X14514500Y-7706500D01*
X14514500Y-7734500D01*
X14512978Y-7742154D01*
X14508642Y-7748642D01*
X14502154Y-7752978D01*
X14494500Y-7754500D01*
X14460500Y-7754500D01*
X14452846Y-7752978D01*
X14446358Y-7748642D01*
X14442022Y-7742154D01*
X14440500Y-7734500D01*
X14440500Y-7706500D01*
X14442022Y-7698846D01*
X14446358Y-7692358D01*
X14452846Y-7688022D01*
X14460500Y-7686500D01*
X14494500Y-7686500D01*
X14502154Y-7688022D01*
G37*
G36*
X14672296Y-7629457D02*
G01*
X14674243Y-7630757D01*
X14675543Y-7632704D01*
X14676000Y-7635000D01*
X14676000Y-7725000D01*
X14675543Y-7727296D01*
X14674243Y-7729243D01*
X14672296Y-7730543D01*
X14670000Y-7731000D01*
X14570000Y-7731000D01*
X14567704Y-7730543D01*
X14565757Y-7729243D01*
X14564457Y-7727296D01*
X14564000Y-7725000D01*
X14564000Y-7635000D01*
X14564457Y-7632704D01*
X14565757Y-7630757D01*
X14567704Y-7629457D01*
X14570000Y-7629000D01*
X14670000Y-7629000D01*
X14672296Y-7629457D01*
G37*
G36*
X14972296Y-7629457D02*
G01*
X14974243Y-7630757D01*
X14975543Y-7632704D01*
X14976000Y-7635000D01*
X14976000Y-7725000D01*
X14975543Y-7727296D01*
X14974243Y-7729243D01*
X14972296Y-7730543D01*
X14970000Y-7731000D01*
X14870000Y-7731000D01*
X14867704Y-7730543D01*
X14865757Y-7729243D01*
X14864457Y-7727296D01*
X14864000Y-7725000D01*
X14864000Y-7635000D01*
X14864457Y-7632704D01*
X14865757Y-7630757D01*
X14867704Y-7629457D01*
X14870000Y-7629000D01*
X14970000Y-7629000D01*
X14972296Y-7629457D01*
G37*
G36*
X14502154Y-7592022D02*
G01*
X14508642Y-7596358D01*
X14512978Y-7602846D01*
X14514500Y-7610500D01*
X14514500Y-7638500D01*
X14512978Y-7646154D01*
X14508642Y-7652642D01*
X14502154Y-7656978D01*
X14494500Y-7658500D01*
X14460500Y-7658500D01*
X14452846Y-7656978D01*
X14446358Y-7652642D01*
X14442022Y-7646154D01*
X14440500Y-7638500D01*
X14440500Y-7610500D01*
X14442022Y-7602846D01*
X14446358Y-7596358D01*
X14452846Y-7592022D01*
X14460500Y-7590500D01*
X14494500Y-7590500D01*
X14502154Y-7592022D01*
G37*
M02*
